<?xml version="1.0" encoding="utf-8"?>
<!-- Generator: Adobe Illustrator 16.0.0, SVG Export Plug-In . SVG Version: 6.00 Build 0)  -->
<!DOCTYPE svg PUBLIC "-//W3C//DTD SVG 1.1//EN" "http://www.w3.org/Graphics/SVG/1.1/DTD/svg11.dtd">
<svg version="1.1" id="Plan_1" xmlns="http://www.w3.org/2000/svg" xmlns:xlink="http://www.w3.org/1999/xlink" x="0px" y="0px"
	 width="595px" height="842px" viewBox="0 0 595 842" enable-background="new 0 0 595 842" xml:space="preserve">
<g id="Counties">
	
		<path id="NH_Coos" fill-rule="evenodd" clip-rule="evenodd" fill="#D0D0D0" stroke="#666666" stroke-width="0.2835" stroke-miterlimit="22.9256" d="
		M399.471,146.825L399.471,146.825c-0.059-0.255-0.109-0.5-0.203-0.744c-0.307-0.043-0.514-0.296-0.811-0.338
		c-0.041-0.164-0.764-0.631-0.946-0.677c-0.409-1.636,0.056-3.248-0.473-4.872c-0.649-1.993-4.214-7.385-2.567-9.203
		c3.992-4.408,10.915-5.696,14.391-11.233c2.347-3.739,1.823-4.453,1.823-8.661c0-3.216,1.252-6.638,2.567-9.609
		c0.645-3.136,2.675-6.117,1.689-9.338c-0.865-2.826-6.351-3.6-6.351-7.105c0.767-0.577,3.481,0.793,5.202-0.068
		c3.12-1.561,5.433,0.715,7.026-2.368c0.746-1.445,1.898-2.128,2.973-3.383c2.392-2.796,0.417-4.137,4.594-5.887
		c2.749-1.152,4.052-1.194,6.216-3.519c3.738-4.015,6.475-0.544,8.242,2.639c1.519,2.735,5.055,4.317,7.296,6.563
		c3.355,3.362,12.259,4.649,16.688,2.572c2.274-1.067,5-4.222,5-6.767c0-3.123,2.025-4.459,2.635-6.902l2.905-2.504l0,0
		l8.402,150.382l4.646,126.497l0,0h-5.57v12.707l-39.299-1.796l-10.337,28.251l-0.979,11.808l-2.702,0.643l-2.162,1.861
		l-2.128-1.996l0.304-10.793l-2.195-9.372l-5.743-3.993l-1.486-8.661l-4.374,0.457l0,0l-3.125-6.175
		c-1.443-2.172-2.535-4.214-4.982-5.396c-2.453-1.185-4.85-0.499-7.397-0.085c-1.655,0.269-1.721-0.167-2.364-1.455
		c0-0.132-0.072-0.285-0.119-0.406l-13.377,1.692l-1.789-12.62l-15.979-7.511c-0.86-0.381-1.881-0.605-2.77-0.879
		c-0.813-0.251-1.706,0.269-2.433,0.034c-0.487-0.157-1.029-0.368-1.419-0.71l-0.033-0.102c-0.146-0.083-0.361-0.341-0.473-0.44
		l-8.814-13.72l0,0c0.992-0.981-0.02-1.964,3.24-1.437c2.945,0.476,4.688-1.866,7.094-3.451c3.984-2.627,5.984-6.738,8.242-11.03
		c0.879-1.671,0.5-3.684,2.364-4.805c1.065-0.64,2.415-0.098,3.716-0.812c2.049-1.125,2.999-2.818,5.54-3.992
		c7.62-3.521-3.455-3.771,1.081-6.902c3.898-2.691-5.096-6.242-3.445-9c1.719-2.874,5.442-0.013,7.634-3.18
		c0.999-1.445,0.412-2.009,2.364-2.504c1.284-0.325,2.616-0.948,2.162-2.369c-0.034-0.108-0.113-0.05-0.202-0.135
		c-1.136-1.096-3.83-1.85-4.46-3.113c-0.35-0.702,0.338-4.871,0.338-6.157c0-1.391-0.404-1.719-1.013-2.774
		c-0.643-1.115,2.524-3.703-0.338-4.06c-5.32-0.665-4.151-10.616-5.337-11.707c-0.518-0.477-2.076-1.013-2.635-1.895
		c-1.188-1.876,0.359-4.905-1.082-7.241c-1.925-3.121-5.268-8.619-1.485-11.436c3.138-2.337,7.538-5.205,8.513-9.473
		c0.494-2.167-1.895-3.882-0.676-5.481c1.532-2.01,3.402-1.327,3.986-4.263c0.415-2.087,0.301-4.029,1.014-6.09
		c1.029-2.979,5.789-6.782,7.701-9.608c1.414-2.091,3.658-4.249,1.756-6.496c-1.562-1.849-2.664-1.978-3.175-4.669
		c-0.403-2.127,0.925-7.476-0.473-8.661c-1.01-0.857-2.144-1.459-2.837-2.707c-0.746-1.339-1.064-3.958-0.541-4.669
		c0.314-0.428,0.631-0.857,0.945-1.286c0.316-0.43,3.474-1.872,4.1-2.423c1.864-1.641,3.098-2.115,6.711-2.998V146.825z"/>
	
		<path id="NH_Grafton" fill-rule="evenodd" clip-rule="evenodd" fill="#D0D0D0" stroke="#666666" stroke-width="0.2835" stroke-miterlimit="22.9256" d="
		M348.668,313.642l8.814,13.72c0.111,0.099,0.327,0.357,0.473,0.44l0.033,0.102c0.39,0.342,0.932,0.553,1.419,0.71
		c0.727,0.235,1.619-0.285,2.433-0.034c0.889,0.274,1.909,0.498,2.77,0.879l15.979,7.511l1.789,12.62l13.377-1.692
		c0.047,0.121,0.119,0.274,0.119,0.406c0.644,1.288,0.709,1.724,2.364,1.455c2.548-0.414,4.944-1.1,7.397,0.085
		c2.447,1.182,3.539,3.224,4.982,5.396l3.125,6.175l0,0l-2.551,0.389l2.939,11.91l5.472,4.026l1.689,7.646l-0.169,5.312
		l-1.267,1.691c0.041,0.122,0.064,0.167,0.101,0.271l2.922,7.207l3.683,0.406l-6.182,12.146l3.479,29.436l-39.117,5.819
		l4.188,26.424l1.081-0.135l1.52,9.947l0,0l1.309,16.746l-25.055,2.708c0.969,1.43,1.562,2.348,0.709,4.061
		c-0.492,0.988-1.535,1.861-1.588,3.045c-0.079,1.762,0.68,3.812,0.338,5.447c-0.42,2.011-0.602,2.844,0.743,4.533v0.372
		c-0.499,0.626-1.513,0.896-1.925,1.726c-0.748,0.813-0.309,1.63-0.98,2.301c-0.462,0.462-1.151,0.402-1.689,0.981
		c-0.967,1.042-2.244,1.945-3.613,2.402c-0.717,0.238-1.461,0.348-2.027-0.271c-0.27-0.293-1.232-1.349-1.317-1.691
		c-0.157,0-1.929,1.137-2.364,1.319c-2.244,0.941-1.766,1.579-0.439,3.248c0.377,0.476,1.014,0.793,1.014,1.489
		c0,0.576-0.572,1.714-0.845,2.301l-0.776,1.556l0,0l-2.162-0.338c-1.211,0.374-2.664,0.067-3.817,0.439
		c-1.399,0.451-1.935,1.543-3.142,2.098c-0.928,0.427-1.183-0.375-1.655-0.913c-0.187-1.695-2.378,0.828-2.837,1.185
		c-1.238,0.956-2.772,2.227-4.189,2.876l-5.878-17.662l-9.188,10.76l-7.33,11.097l0,0l-25.369-3.383l-1.216-2.978l-4.054,6.632
		l-5.54-2.233l2.297-4.805l-18.714-8.188l-25.738-3.307l0,0c-0.071-1.519-0.102-2.974,0.876-4.204
		c1.069-1.347,2.347-2.149,2.432-3.925c0.091-1.9,0.441-3.408,1.622-5.414c1.778-3.021-0.299-8.818,2.162-11.842
		c1.048-1.287,3.065-4.649,4.324-5.819c0.642-0.596,2.231-0.972,3.04-1.285c4.547-1.765,6.927-6.364,10.202-9.541
		c1.13-1.098-0.03-4.846,1.554-5.549c4.921-2.185,0.513-18.429,3.243-19.218c5.063-1.464-1.15-5.752,4.256-7.104
		c0.681-0.171,0.628-3.477,1.959-4.399c1.766-1.224,3.98-2.438,5.27-4.06c2.31-2.906-2.166-4.344-0.067-7.376
		c1.277-1.845,3.122-2.712,2.567-5.21c-0.663-2.991-3.813-5.092-2.567-8.459c0.418-1.129,1.729-1.597,2.567-2.436
		c1.176-1.179-0.53-2.196,0.27-3.451c1.993-3.127,3.581-0.264,3.581-4.737c0-3.017,3.439-3.414,3.851-6.225
		c0.142-0.964,2.313-2.466,2.905-3.249c0.562-0.744,1.126-1.489,1.688-2.233c1.306-1.727-6.347-6.547-1.824-9.135
		c2.299-1.316,1.663-6.102,1.081-8.256c-0.559-2.067-0.541-3.769-0.811-5.887c-0.305-2.388-1.252-3.312-2.229-5.346
		c-1.176-2.446,2.132-11.709,1.351-14.887c-0.847-3.446-2.904-6.005-2.904-9.744c0-3.316,4.195-1.533,5.337-4.736
		c0.774-2.175,2.109-3.94,3.851-5.685c5.352-5.359,13.607-4.276,19.66-7.917c2.709-1.629,6.334,1.042,9.661,0.406
		c3.577-0.684,7.911-0.348,9.458-3.451c0.045-0.09,0.091-0.181,0.135-0.271c1.027-2.058,1.505-6.712,2.771-8.729
		c1.189-1.896,6.712-3.83,8.851-3.924c0.168-0.007,2.227,0.434,2.973,0.135C348.104,314.094,348.439,313.868,348.668,313.642
		L348.668,313.642z"/>
	
		<path id="NH_Sullivan" fill-rule="evenodd" clip-rule="evenodd" fill="#D0D0D0" stroke="#666666" stroke-width="0.2835" stroke-miterlimit="22.9256" d="
		M234.491,527.464l25.738,3.307l18.714,8.188l-2.297,4.805l5.54,2.233l4.054-6.632l1.216,2.978l25.369,3.383l0,0l-15.369,24.699
		l-8.006-0.711l-1.115,4.906l2.566,2.774l-0.945,10.015l-7.634,13.06l4.729,19.083h4.391v9.405l6.554,9.203l0,0l-4.862,1.387
		l2.228,5.583l-2.5,8.594l0,0h-27.632l3.852-13.939l-33.78,4.939v1.726h-8.242v6.059h-11.214v-7.105l-3.448,0.036l0,0
		c0.312-0.606,0.585-1.153,0.744-1.595c0.666-1.852-1.489-2.631,0.135-5.074c1.169-1.759,0.446-2.336,0.203-3.926
		c-0.336-2.186,1.253-3.596,0.675-5.684c-0.695-2.512-0.437-5.052,0.878-6.767c0.347-0.454,1.191-0.004,1.554-0.406
		c1.114-1.238,2.423-1.688,2.703-3.654c0.603-4.243,3.012-7.245,1.622-11.773c-0.818-2.663-1.535-1.854-0.271-4.534
		c0.873-1.851,3.194-3.966,1.756-5.48c-2.1-2.216-4.729-3.236-4.729-6.632c0-1.388,1.317-1.758,2.432-2.301
		c2.03-0.99,1.216-10.887,1.216-13.06c0-1.758,1.284-3.499,1.284-5.278c0-2.025,3.053-4.115,2.364-6.36
		c-0.96-3.132-0.972-3.974-2.5-6.768c-0.81-1.48-1.224-2.785,0.27-4.533c0.755-0.883,1.503-3.594,1.959-5.008
		c0.726-2.252-0.044-8.594,1.554-9.812c1.731-1.319,3.978-1.302,6.081-2.978C234.771,531.868,234.59,529.603,234.491,527.464
		L234.491,527.464z"/>
	
		<path id="NH_Cheshire" fill-rule="evenodd" clip-rule="evenodd" fill="#D0D0D0" stroke="#666666" stroke-width="0.2835" stroke-miterlimit="22.9256" d="
		M212.396,645.438l3.448-0.036v7.105h11.214v-6.059h8.242v-1.726l33.78-4.939l-3.852,13.939h27.632l0,0l-4.121,27.676l-0.81,22.293
		h10.629l6.396,42.109h6.167l2.651,21.019l0,0l-14.629,0.111l-4.694-1.557l-33.342,0.067l-10.404-0.608l-25.132-1.489l-16.281-0.507
		l-0.386-0.021c-0.689-1.978-1.571-3.914-1.845-5.969c-0.178-1.343-1.479-3.736-2.297-4.872c-0.794-1.103-3.002-0.846-4.189-1.083
		c-0.38-0.075-4.855-5.104-5.27-5.887c-1.569-2.964-4.191-6.099-3.445-9.541c0.968-4.468-3.705-7.92-1.216-11.504
		c2.013-2.898,4.403-4.057,5.337-7.375c0.717-2.545,1.509-3.988,1.082-6.768c-0.333-2.163-0.089-3.547-1.622-5.21
		c-2.555-2.773,9.145-5.175,10.945-5.752c0.682-0.219,2.458-1.865,2.77-2.774c0.345-1.005-0.041-2.712,0.135-3.856
		c0.188-1.229,5.701-2.302,3.851-4.398c-0.752-0.854-2.973-2.054-2.973-3.181c0-2.59-1.147-4.519-2.027-6.834
		c-0.742-1.952,4.343-4.973,5.405-6.699c1.28-2.081-0.588-5.025,0.405-6.902c2.247-4.244-0.957-8.336-3.175-12.112
		C209.755,650.362,211.315,647.537,212.396,645.438L212.396,645.438z"/>
	
		<path id="NH_Carroll" fill-rule="evenodd" clip-rule="evenodd" fill="#D0D0D0" stroke="#666666" stroke-width="0.2835" stroke-miterlimit="22.9256" d="
		M490.415,342.3h-5.57v12.707l-39.299-1.796l-10.337,28.251l-0.979,11.808l-2.702,0.643l-2.162,1.861l-2.128-1.996l0.304-10.793
		l-2.195-9.372l-5.743-3.993l-1.486-8.661l-4.374,0.457l0,0l-2.551,0.389l2.939,11.91l5.472,4.026l1.689,7.646l-0.169,5.312
		l-1.267,1.691c0.041,0.122,0.064,0.167,0.101,0.271l2.922,7.207l3.683,0.406l-6.182,12.146l3.479,29.436l-39.117,5.819
		l4.188,26.424l1.081-0.135l1.52,9.947l0,0l52.548,50.85l5.937,1.35l4.144,3.965l2.162-2.199l6.047,5.684l0,0l7.567-9.135
		l2.5,17.052h6.079l2.771-5.346h6.013l2.433,11.165l11.727-14.021l0,0c-0.073-0.074-0.154-0.148-0.242-0.222
		c-1.146-0.962-2.668-3.116-2.77-4.67c-0.114-1.737,0.102-3.536,0.102-5.278c-0.115-0.19-0.139-0.536-0.203-0.777l-1.587-36.879
		l-2.027-18.271l-0.997-44.559L490.415,342.3L490.415,342.3z"/>
	
		<path id="NH_Belknap" fill-rule="evenodd" clip-rule="evenodd" fill="#D0D0D0" stroke="#666666" stroke-width="0.2835" stroke-miterlimit="22.9256" d="
		M462.368,543.56l-5.201,7.123l6.071,42.502l-14.842,18.621l0,0l-59.128-44.698c-2.757-3.861-10.386,7.506-14.525,1.286
		c-1.319-1.981-2.331-11.109-4.121-11.706c-0.038-0.155-0.099-0.091-0.136-0.203c-7.153,0-8.903-4.09-10.471-10.218
		c-0.571-2.231-1.648-1.854-3.243-3.451c-2.001-2.003-2.542-4.296-3.749-6.632l0,0l0.776-1.556c0.272-0.587,0.845-1.725,0.845-2.301
		c0-0.696-0.637-1.014-1.014-1.489c-1.326-1.669-1.805-2.307,0.439-3.248c0.436-0.183,2.207-1.319,2.364-1.319
		c0.085,0.343,1.048,1.398,1.317,1.691c0.566,0.619,1.311,0.51,2.027,0.271c1.369-0.457,2.646-1.36,3.613-2.402
		c0.538-0.579,1.228-0.52,1.689-0.981c0.672-0.671,0.232-1.487,0.98-2.301c0.412-0.829,1.426-1.1,1.925-1.726v-0.372
		c-1.345-1.689-1.163-2.522-0.743-4.533c0.342-1.636-0.417-3.686-0.338-5.447c0.053-1.184,1.096-2.057,1.588-3.045
		c0.854-1.713,0.26-2.631-0.709-4.061l25.055-2.708l-1.309-16.746l0,0l52.548,50.85l5.937,1.35l4.144,3.965l2.162-2.199
		L462.368,543.56L462.368,543.56z"/>
	
		<path id="NH_Merrimack" fill-rule="evenodd" clip-rule="evenodd" fill="#D0D0D0" stroke="#666666" stroke-width="0.2835" stroke-miterlimit="22.9256" d="
		M312.824,545.725l-15.369,24.699l-8.006-0.711l-1.115,4.906l2.566,2.774l-0.945,10.015l-7.634,13.06l4.729,19.083h4.391v9.405
		l6.554,9.203l0,0l18.782-5.413l11.552,25.442l36.686-10.557l5.134,26.526l23.512-4.128l1.283,5.515l4.357-0.846l2.805,4.534
		l4.121-2.504l1.283,6.665l10.404,2.809l0,0l-1.419-8.864l1.947,0.582l28.218-62.769l1.736-3.347l-59.128-44.698
		c-2.757-3.861-10.386,7.506-14.525,1.286c-1.319-1.981-2.331-11.109-4.121-11.706c-0.038-0.155-0.099-0.091-0.136-0.203
		c-7.153,0-8.903-4.09-10.471-10.218c-0.571-2.231-1.648-1.854-3.243-3.451c-2.001-2.003-2.542-4.296-3.749-6.632l0,0l-2.162-0.338
		c-1.211,0.374-2.664,0.067-3.817,0.439c-1.399,0.451-1.935,1.543-3.142,2.098c-0.928,0.427-1.183-0.375-1.655-0.913
		c-0.187-1.695-2.378,0.828-2.837,1.185c-1.238,0.956-2.772,2.227-4.189,2.876l-5.878-17.662l-9.188,10.76L312.824,545.725
		L312.824,545.725z"/>
	
		<path id="NH_Hillsborough" fill-rule="evenodd" clip-rule="evenodd" fill="#D0D0D0" stroke="#666666" stroke-width="0.2835" stroke-miterlimit="22.9256" d="
		M297.995,638.159l18.782-5.413l11.552,25.442l36.686-10.557l5.134,26.526l23.512-4.128l1.283,5.515l4.357-0.846l2.805,4.534
		l4.121-2.504l1.283,6.665l10.404,2.809l0,0l3.901,19.108l-15.247,1.889l4.723,29.145h8.096l3.644,5.263
		c0.62,0.693,1.12,1.321,0.728,2.282c-0.377,0.922-0.312,1.236,0.135,2.131c0.308,0.088,1.284,0.836,1.284,1.219
		c0.205,0.172,0.382,1.339,0.574,1.691c0.404,0.743,0.559,1.721,1.655,1.793l16.991,3.756l2.442,4.105l0,0
		c-1.725,0.729-2.823,2.06-4.436,3.676l-0.203,0.508c-0.199,0.2-0.285,0.478-0.507,0.643c-0.601,0.967-1.782,1.599-2.161,2.741
		c-0.514,0.587-0.901,1.319-1.216,2.029c-0.201,0.202-0.365,0.457-0.608,0.609c-0.208,0.286-0.493,0.555-0.676,0.846
		c-2.641,1.928-3.804,1.874-7.06,1.455c-3.373-0.434-6.724-1.252-10.134-1.252l-79.146-1.929l-14.661-1.184l-12.26,0.092l0,0
		l-2.651-21.019h-6.167l-6.396-42.109H287.93l0.81-22.293l4.121-27.676l0,0l2.5-8.594l-2.228-5.583L297.995,638.159L297.995,638.159
		z"/>
	
		<path id="NH_Strafford" fill-rule="evenodd" clip-rule="evenodd" fill="#D0D0D0" stroke="#666666" stroke-width="0.2835" stroke-miterlimit="22.9256" d="
		M501.457,543.274l-11.727,14.021l-2.433-11.165h-6.013l-2.771,5.346h-6.079l-2.5-17.052l-7.567,9.135l0,0l-5.201,7.123
		l6.071,42.502l-14.842,18.621l0,0l-1.736,3.347l0,0l42.867,36.473l-9.12,15.09l19.187-0.067l7.297-2.369l9.723,2.908l0,0
		c0.132-0.263,0.439-0.294,1.66-0.201c1.114,0.085,0.224-5.109,0.507-6.496c0.303-1.487-3.348-2.966-4.526-3.688
		c-2.938-1.799,4.539,0.936,4.662,0.914c4.886-0.876,2.649-4.44,4.864,0.372c0.559,1.215,2.848,2.211,2.668,0.102l-0.405-4.771l0,0
		l-1.452-3.823c0.441-1.399,0.275-2.887,0.642-4.263c0.655-2.467,0.788-4.943,1.588-7.376c0.652-1.986,2.567-3.869,2.567-5.819
		l-2.229-3.451c-1.562-1.728-3.968-2.633-4.797-4.939c-0.46-1.279-2.477-0.531-3.209-2.064c-0.446-0.931,0.173-2.363-1.048-2.876
		c-2.054-0.861-3.142-1.159-4.492-3.146c-0.716-1.053-3.107-2.401-3.107-3.688c1.756-1.757,0.433-3.727-1.115-5.278
		c-0.885-0.888-1.393-2.105-2.297-3.011c-0.801-0.802-1.102-1.95-1.723-2.571c-0.141,0-0.24,0.033-0.372,0.033
		c-1.571,1.151-4.398,0.324-5.438-1.184c-1.133-1.645-1.027-3.011-1.79-4.67c-2.157-4.693-2.647-9.823-2.026-14.853
		c1.097-0.731,2.389-2.45,3.31-3.451c1.368-2.483,0.321-3.784,0.236-6.327c-0.102-3.07,0.849-2.392,2.23-4.533
		c0.829-1.285-0.237-1.583-0.98-2.47c-1.229-1.468-0.266-3.713-0.338-5.38c-0.04-0.936-1.256-1.307-1.621-2.165
		c-0.341-0.802-0.337-1.861-0.033-2.673c-0.43-1.186-0.593-1.946-0.71-3.248c0.119-0.357,0.102-0.39,0.102-0.711
		c-0.352-0.591,2.74-2.999,3.276-3.484c0.406-0.368,0.666-0.741,0.772-1.114C502.143,544.339,501.972,543.796,501.457,543.274
		L501.457,543.274z"/>
	
		<path id="NH_Rockingham" fill-rule="evenodd" clip-rule="evenodd" fill="#D0D0D0" stroke="#666666" stroke-width="0.2835" stroke-miterlimit="22.9256" d="
		M446.66,615.152l-28.218,62.769l-1.947-0.582l1.419,8.864l0,0l3.901,19.108l-15.247,1.889l4.723,29.145h8.096l3.644,5.263
		c0.62,0.693,1.12,1.321,0.728,2.282c-0.377,0.922-0.312,1.236,0.135,2.131c0.308,0.088,1.284,0.836,1.284,1.219
		c0.205,0.172,0.382,1.339,0.574,1.691c0.404,0.743,0.559,1.721,1.655,1.793l16.991,3.756l2.442,4.105l0,0
		c0.756-0.32,1.633-0.524,2.726-0.587c2.117-0.121,6.903,1.886,8.209,0.947c1.049-2.893-0.305-6.081-0.71-8.932
		c-0.573-4.043,0.388-6.161,3.007-9.439c1.732-2.169,5.464-2.944,8.073-2.944c4.265,0,6.91,2.328,10.675,3.688
		c2.353,0.85,2.299-0.811,3.31-2.132c0.695-2.363,0.039-4.615,1.149-6.936c1.115-2.333,2.423-3.391,4.391-4.771
		c6.368-1.062,11.676-2.222,17.329-5.854c2.373-1.524,2.691-1.151,5.438-0.846c1.225,0.136,6.183,0.656,6.892,1.793l2.331,3.011
		l0.54,0.237c0.782,0,1.519-0.237,2.264-0.237l0.473-0.236l3.212-0.962l3.517-0.335l0,0c0.184-1.813,0.476-4.827-0.107-4.827
		c-2.097,0-0.052,1.141-1.791,1.996c-3.852,1.896-4.932-2.608-4.932-5.65c0-0.884-0.339-4.533,0-5.041
		c0.366-0.549,4.069,1.551,4.357,2.199c0.886,1.99,1.382,3.626,1.892,5.684c1.073,0,0.896-1.857,0.979-2.639
		c0.189-1.748,0.383-2.217,1.893-3.112c1.178-0.699,0.992-1.396,1.114-2.707c0-2.31-0.286-2.96,1.284-4.736
		c0.798-0.904,2.938-3.607,2.938-4.771c0.779-1.002,1.656-2.423,2.061-3.62c0.423-1.253,0.345-1.96,1.52-2.774
		c1.97-1.364,0.335-4.758,2.331-5.177c2.07-0.435,2.083-2.057,2.331-3.756c1.976-3.163,7.087-8.627-0.507-8.627v-0.068
		c1.139-0.282,3.07-1.297,3.885-2.165c2.254-2.401-1.165-2.497-1.993-1.455c-0.74,0.933-1.907,1.88-2.195,3.045h-0.102
		c-2.306-6.842-10.791-9.816-14.829-15.326c-0.83-1.132-5.686,2.333-7.668-0.034c-1.457-1.739-0.985,2.571-0.811,3.315
		c0.742,3.173-1.419,2.694-1.419,5.211c0,0.897-0.387,2.726,0.574,3.112c1.555,0.627,4.901,0.11,5.81,1.929
		c1.3,2.6-1.049,2.578-2.432,3.484c-1.685,1.104-2.269-0.511-3.581-1.421c-2.532-1.755-3.922,0.198-6.316-0.033
		c-1.321-0.128-1.519-0.778-2.838-0.068c-0.977,0.526-1.424,0.711-0.945-0.643c0.603-1.706,0.992-3.355,2.601-4.398
		c0.886-0.995,2.704-1.328,3.243-2.199c0.517-0.834,0.472-1.329,0.603-1.592l0,0l-9.723-2.908l-7.297,2.369l-19.187,0.067
		l9.12-15.09L446.66,615.152L446.66,615.152z"/>
</g>
<path id="Outer_Border" fill-rule="evenodd" clip-rule="evenodd" fill="none" stroke="#FF0000" stroke-width="2" stroke-miterlimit="22.9256" d="
	M545.027,676.493v-0.068c1.139-0.282,3.07-1.297,3.885-2.165c2.254-2.401-1.165-2.497-1.993-1.455
	c-0.74,0.933-1.907,1.88-2.195,3.045h-0.102c-2.306-6.842-10.791-9.816-14.829-15.326c-0.83-1.132-5.686,2.333-7.668-0.034
	c-1.457-1.739-0.985,2.571-0.811,3.315c0.742,3.173-1.419,2.694-1.419,5.211c0,0.897-0.387,2.726,0.574,3.112
	c1.555,0.627,4.901,0.11,5.81,1.929c1.3,2.6-1.049,2.578-2.432,3.484c-1.685,1.104-2.269-0.511-3.581-1.421
	c-2.532-1.755-3.922,0.198-6.316-0.033c-1.321-0.128-1.519-0.778-2.838-0.068c-0.977,0.526-1.424,0.711-0.945-0.643
	c0.603-1.706,0.992-3.355,2.601-4.398c0.886-0.995,2.704-1.328,3.243-2.199c0.517-0.834,0.472-1.329,0.603-1.592
	c0.132-0.263,0.439-0.294,1.66-0.201c1.114,0.085,0.224-5.109,0.507-6.496c0.303-1.487-3.348-2.966-4.526-3.688
	c-2.938-1.799,4.539,0.936,4.662,0.914c4.886-0.876,2.649-4.44,4.864,0.372c0.559,1.215,2.848,2.211,2.668,0.102l-0.405-4.771
	l-1.452-3.823c0.441-1.399,0.275-2.887,0.642-4.263c0.655-2.467,0.788-4.943,1.588-7.376c0.652-1.986,2.567-3.869,2.567-5.819
	l-2.229-3.451c-1.562-1.728-3.968-2.633-4.797-4.939c-0.46-1.279-2.477-0.531-3.209-2.064c-0.446-0.931,0.173-2.363-1.048-2.876
	c-2.054-0.861-3.142-1.159-4.492-3.146c-0.716-1.053-3.107-2.401-3.107-3.688c1.756-1.757,0.433-3.727-1.115-5.278
	c-0.885-0.888-1.393-2.105-2.297-3.011c-0.801-0.802-1.102-1.95-1.723-2.571c-0.141,0-0.24,0.033-0.372,0.033
	c-1.571,1.151-4.398,0.324-5.438-1.184c-1.133-1.645-1.027-3.011-1.79-4.67c-2.157-4.693-2.647-9.823-2.026-14.853
	c1.097-0.731,2.389-2.45,3.31-3.451c1.368-2.483,0.321-3.784,0.236-6.327c-0.102-3.07,0.849-2.392,2.23-4.533
	c0.829-1.285-0.237-1.583-0.98-2.47c-1.229-1.468-0.266-3.713-0.338-5.38c-0.04-0.936-1.256-1.307-1.621-2.165
	c-0.341-0.802-0.337-1.861-0.033-2.673c-0.43-1.186-0.593-1.946-0.71-3.248c0.119-0.357,0.102-0.39,0.102-0.711
	c-0.352-0.591,2.74-2.999,3.276-3.484c0.406-0.368,0.666-0.741,0.772-1.114c0.155-0.543-0.016-1.086-0.53-1.607
	c-0.073-0.074-0.154-0.148-0.242-0.222c-1.146-0.962-2.668-3.116-2.77-4.67c-0.114-1.737,0.102-3.536,0.102-5.278
	c-0.115-0.19-0.139-0.536-0.203-0.777l-1.587-36.879l-2.027-18.271l-0.997-44.559l-3.317-90.319l-4.646-126.497l-8.402-150.382
	l-2.905,2.504c-0.609,2.442-2.635,3.779-2.635,6.902c0,2.545-2.726,5.7-5,6.767c-4.429,2.077-13.332,0.79-16.688-2.572
	c-2.241-2.247-5.777-3.828-7.296-6.563c-1.768-3.183-4.504-6.654-8.242-2.639c-2.164,2.324-3.467,2.367-6.216,3.519
	c-4.177,1.75-2.202,3.091-4.594,5.887c-1.074,1.255-2.227,1.938-2.973,3.383c-1.594,3.083-3.906,0.808-7.026,2.368
	c-1.721,0.861-4.436-0.509-5.202,0.068c0,3.505,5.485,4.279,6.351,7.105c0.985,3.221-1.045,6.203-1.689,9.338
	c-1.315,2.971-2.567,6.393-2.567,9.609c0,4.208,0.523,4.922-1.823,8.661c-3.476,5.537-10.398,6.825-14.391,11.233
	c-1.646,1.818,1.918,7.21,2.567,9.203c0.528,1.624,0.063,3.236,0.473,4.872c0.183,0.045,0.905,0.513,0.946,0.677
	c0.297,0.042,0.504,0.295,0.811,0.338c0.092,0.242,0.145,0.485,0.201,0.738c0.001,0,0.001,0,0.002,0v0.007
	c-0.001-0.002-0.002-0.004-0.002-0.006c-3.612,0.882-4.846,1.357-6.709,2.997c-0.626,0.551-3.783,1.993-4.1,2.423
	c-0.314,0.429-0.631,0.857-0.945,1.286c-0.523,0.711-0.205,3.33,0.541,4.669c0.693,1.248,1.827,1.85,2.837,2.707
	c1.397,1.185,0.069,6.534,0.473,8.661c0.511,2.692,1.612,2.821,3.175,4.669c1.902,2.248-0.342,4.405-1.756,6.496
	c-1.912,2.827-6.672,6.629-7.701,9.608c-0.713,2.062-0.599,4.003-1.014,6.09c-0.584,2.936-2.454,2.253-3.986,4.263
	c-1.219,1.599,1.17,3.314,0.676,5.481c-0.975,4.268-5.375,7.136-8.513,9.473c-3.782,2.817-0.439,8.315,1.485,11.436
	c1.441,2.335-0.105,5.365,1.082,7.241c0.559,0.882,2.117,1.417,2.635,1.895c1.186,1.091,0.017,11.042,5.337,11.707
	c2.862,0.357-0.305,2.945,0.338,4.06c0.608,1.056,1.013,1.384,1.013,2.774c0,1.287-0.688,5.455-0.338,6.157
	c0.63,1.263,3.324,2.017,4.46,3.113c0.089,0.085,0.168,0.027,0.202,0.135c0.454,1.42-0.878,2.043-2.162,2.369
	c-1.952,0.495-1.365,1.059-2.364,2.504c-2.191,3.167-5.915,0.307-7.634,3.18c-1.65,2.758,7.344,6.309,3.445,9
	c-4.536,3.131,6.539,3.381-1.081,6.902c-2.541,1.174-3.491,2.868-5.54,3.992c-1.301,0.714-2.65,0.172-3.716,0.812
	c-1.864,1.121-1.485,3.134-2.364,4.805c-2.258,4.292-4.258,8.403-8.242,11.03c-2.405,1.585-4.148,3.927-7.094,3.451
	c-3.26-0.527-2.248,0.456-3.24,1.437c-0.229,0.226-0.564,0.453-1.084,0.66c-0.746,0.299-2.805-0.142-2.973-0.135
	c-2.139,0.095-7.661,2.029-8.851,3.924c-1.266,2.017-1.743,6.672-2.771,8.729c-0.044,0.09-0.09,0.181-0.135,0.271
	c-1.547,3.103-5.881,2.767-9.458,3.451c-3.327,0.636-6.952-2.035-9.661-0.406c-6.053,3.641-14.309,2.558-19.66,7.917
	c-1.741,1.744-3.076,3.51-3.851,5.685c-1.142,3.204-5.337,1.42-5.337,4.736c0,3.739,2.058,6.298,2.904,9.744
	c0.781,3.177-2.526,12.44-1.351,14.887c0.978,2.034,1.925,2.958,2.229,5.346c0.27,2.119,0.252,3.82,0.811,5.887
	c0.582,2.154,1.218,6.94-1.081,8.256c-4.522,2.588,3.13,7.408,1.824,9.135c-0.562,0.744-1.126,1.489-1.688,2.233
	c-0.592,0.783-2.764,2.284-2.905,3.249c-0.411,2.812-3.851,3.208-3.851,6.225c0,4.473-1.588,1.609-3.581,4.737
	c-0.8,1.255,0.906,2.272-0.27,3.451c-0.838,0.839-2.149,1.307-2.567,2.436c-1.246,3.367,1.905,5.468,2.567,8.459
	c0.554,2.498-1.29,3.365-2.567,5.21c-2.099,3.032,2.376,4.47,0.067,7.376c-1.29,1.622-3.504,2.836-5.27,4.06
	c-1.332,0.923-1.278,4.229-1.959,4.399c-5.406,1.353,0.807,5.641-4.256,7.104c-2.73,0.789,1.678,17.033-3.243,19.218
	c-1.583,0.703-0.424,4.451-1.554,5.549c-3.274,3.177-5.654,7.776-10.202,9.541c-0.809,0.313-2.398,0.689-3.04,1.285
	c-1.258,1.17-3.276,4.532-4.324,5.819c-2.461,3.023-0.384,8.821-2.162,11.842c-1.181,2.006-1.531,3.514-1.622,5.414
	c-0.084,1.775-1.362,2.578-2.432,3.925c-0.978,1.23-0.947,2.686-0.876,4.204c0.1,2.139,0.28,4.404-2.164,6.352
	c-2.103,1.676-4.35,1.658-6.081,2.978c-1.598,1.218-0.828,7.56-1.554,9.812c-0.456,1.414-1.205,4.125-1.959,5.008
	c-1.494,1.748-1.08,3.053-0.27,4.533c1.527,2.794,1.54,3.636,2.5,6.768c0.689,2.245-2.364,4.335-2.364,6.36
	c0,1.779-1.284,3.521-1.284,5.278c0,2.173,0.814,12.069-1.216,13.06c-1.115,0.543-2.432,0.913-2.432,2.301
	c0,3.396,2.629,4.416,4.729,6.632c1.438,1.515-0.884,3.63-1.756,5.48c-1.264,2.68-0.547,1.871,0.271,4.534
	c1.391,4.528-1.019,7.53-1.622,11.773c-0.279,1.967-1.588,2.416-2.703,3.654c-0.362,0.402-1.207-0.048-1.554,0.406
	c-1.315,1.715-1.574,4.255-0.878,6.767c0.578,2.088-1.011,3.498-0.675,5.684c0.244,1.59,0.966,2.167-0.203,3.926
	c-1.625,2.443,0.531,3.223-0.135,5.074c-0.159,0.441-0.431,0.988-0.744,1.595c-1.081,2.1-2.641,4.925-1.621,6.661
	c2.218,3.776,5.422,7.868,3.175,12.112c-0.993,1.877,0.875,4.821-0.405,6.902c-1.062,1.727-6.147,4.747-5.405,6.699
	c0.88,2.315,2.027,4.244,2.027,6.834c0,1.127,2.22,2.327,2.973,3.181c1.85,2.097-3.663,3.17-3.851,4.398
	c-0.176,1.145,0.21,2.852-0.135,3.856c-0.312,0.909-2.088,2.556-2.77,2.774c-1.8,0.577-13.5,2.979-10.945,5.752
	c1.533,1.663,1.288,3.047,1.622,5.21c0.428,2.779-0.365,4.223-1.082,6.768c-0.934,3.318-3.324,4.477-5.337,7.375
	c-2.488,3.584,2.184,7.036,1.216,11.504c-0.746,3.442,1.876,6.577,3.445,9.541c0.415,0.783,4.889,5.812,5.27,5.887
	c1.187,0.237,3.395-0.02,4.189,1.083c0.818,1.136,2.119,3.529,2.297,4.872c0.273,2.055,1.155,3.991,1.845,5.969l0.386,0.021
	l16.281,0.507l25.132,1.489l10.404,0.608l33.342-0.067l4.694,1.557l14.629-0.111l12.26-0.092l14.661,1.184l79.146,1.929
	c3.41,0,6.761,0.818,10.134,1.252c3.256,0.419,4.419,0.473,7.06-1.455c0.183-0.291,0.468-0.56,0.676-0.846
	c0.243-0.152,0.407-0.407,0.608-0.609c0.314-0.71,0.702-1.442,1.216-2.029c0.379-1.143,1.561-1.774,2.161-2.741
	c0.222-0.165,0.308-0.442,0.507-0.643l0.203-0.508c1.612-1.616,2.711-2.946,4.436-3.676c0.756-0.32,1.633-0.524,2.726-0.587
	c2.117-0.121,6.903,1.886,8.209,0.947c1.049-2.893-0.305-6.081-0.71-8.932c-0.573-4.043,0.388-6.161,3.007-9.439
	c1.732-2.169,5.464-2.944,8.073-2.944c4.265,0,6.91,2.328,10.675,3.688c2.353,0.85,2.299-0.811,3.31-2.132
	c0.695-2.363,0.039-4.615,1.149-6.936c1.115-2.333,2.423-3.391,4.391-4.771c6.368-1.062,11.676-2.222,17.329-5.854
	c2.373-1.524,2.691-1.151,5.438-0.846c1.225,0.136,6.183,0.656,6.892,1.793l2.331,3.011l0.54,0.237c0.782,0,1.519-0.237,2.264-0.237
	l0.473-0.236l3.212-0.962l3.517-0.335c0.184-1.813,0.476-4.827-0.107-4.827c-2.097,0-0.052,1.141-1.791,1.996
	c-3.852,1.896-4.932-2.608-4.932-5.65c0-0.884-0.339-4.533,0-5.041c0.366-0.549,4.069,1.551,4.357,2.199
	c0.886,1.99,1.382,3.626,1.892,5.684c1.073,0,0.896-1.857,0.979-2.639c0.189-1.748,0.383-2.217,1.893-3.112
	c1.178-0.699,0.992-1.396,1.114-2.707c0-2.31-0.286-2.96,1.284-4.736c0.798-0.904,2.938-3.607,2.938-4.771
	c0.779-1.002,1.656-2.423,2.061-3.62c0.423-1.253,0.345-1.96,1.52-2.774c1.97-1.364,0.335-4.758,2.331-5.177
	c2.07-0.435,2.083-2.057,2.331-3.756C547.51,681.957,552.621,676.493,545.027,676.493z"/>
<g id="CountiesNames">
	<text transform="matrix(1 0 0 1 425.7578 239.75)"><tspan x="0" y="0" font-family="Arial Narrow" font-size="8">C</tspan><tspan x="5.777" y="0" font-family="Arial Narrow" font-size="8">oos</tspan></text>
	<text transform="matrix(1 0 0 1 320.1895 446.1289)"><tspan x="0" y="0" font-family="Arial Narrow" font-size="8">G</tspan><tspan x="6.223" y="0" font-family="Arial Narrow" font-size="8">rafton</tspan></text>
	<text transform="matrix(1 0 0 1 444.7656 471.7705)"><tspan x="0" y="0" font-family="Arial Narrow" font-size="8">C</tspan><tspan x="5.777" y="0" font-family="Arial Narrow" font-size="8">arroll</tspan></text>
	<text transform="matrix(1 0 0 1 400.3574 553.1982)"><tspan x="0" y="0" font-family="Arial Narrow" font-size="8">B</tspan><tspan x="5.336" y="0" font-family="Arial Narrow" font-size="8">elknap</tspan></text>
	<text transform="matrix(1 0 0 1 239.9619 594.9902)"><tspan x="0" y="0" font-family="Arial Narrow" font-size="8">S</tspan><tspan x="5.336" y="0" font-family="Arial Narrow" font-size="8">ullivan</tspan></text>
	<text transform="matrix(1 0 0 1 342.8945 613.126)"><tspan x="0" y="0" font-family="Arial Narrow" font-size="8">M</tspan><tspan x="6.664" y="0" font-family="Arial Narrow" font-size="8">errimack</tspan></text>
	<text transform="matrix(1 0 0 1 471.7129 621.4551)"><tspan x="0" y="0" font-family="Arial Narrow" font-size="8">S</tspan><tspan x="5.336" y="0" font-family="Arial Narrow" font-size="8">trafford</tspan></text>
	<text transform="matrix(1 0 0 1 452.3828 698.707)"><tspan x="0" y="0" font-family="Arial Narrow" font-size="8">R</tspan><tspan x="5.777" y="0" font-family="Arial Narrow" font-size="8">ockingham</tspan></text>
	<text transform="matrix(1 0 0 1 330.0176 719.6582)"><tspan x="0" y="0" font-family="Arial Narrow" font-size="8">H</tspan><tspan x="5.777" y="0" font-family="Arial Narrow" font-size="8">illsborough</tspan></text>
	<text transform="matrix(1 0 0 1 232.0762 717.2451)"><tspan x="0" y="0" font-family="Arial Narrow" font-size="8">C</tspan><tspan x="5.777" y="0" font-family="Arial Narrow" font-size="8">heshire</tspan></text>
</g>
<g id="Legend">
	<text id="Ref_WithPresence_text" transform="matrix(1 0 0 1 47.1904 172.7754)" font-family="Arial Narrow" font-size="13">City or County with COPsync Presence</text>
	
		<rect id="Ref_WithPresence_box" x="29.441" y="164.308" fill="#D0D0D0" stroke="#FF0000" stroke-width="0.9697" width="10" height="10"/>
	<text id="Ref_WithoutPresence_text" transform="matrix(1 0 0 1 47.1904 202.7754)" font-family="Arial Narrow" font-size="13">City or County without COPsync Presence</text>
	
		<rect id="Ref_WithoutPresence_box" x="29.441" y="194.308" fill="#D0D0D0" stroke="#FF0000" stroke-width="0.9697" width="10" height="10"/>
</g>
</svg>
