<?xml version="1.0" encoding="utf-8"?>
<!-- Generator: Adobe Illustrator 16.0.0, SVG Export Plug-In . SVG Version: 6.00 Build 0)  -->
<!DOCTYPE svg PUBLIC "-//W3C//DTD SVG 1.1//EN" "http://www.w3.org/Graphics/SVG/1.1/DTD/svg11.dtd">
<svg version="1.1"
	 id="svg5598" sodipodi:docname="Texas_presidential_election_results_2012[1].svg" inkscape:version="0.48.4 r9939" inkscape:output_extension="org.inkscape.output.svg.inkscape" sodipodi:version="0.32" xmlns:dc="http://purl.org/dc/elements/1.1/" xmlns:cc="http://creativecommons.org/ns#" xmlns:rdf="http://www.w3.org/1999/02/22-rdf-syntax-ns#" xmlns:svg="http://www.w3.org/2000/svg" xmlns:sodipodi="http://sodipodi.sourceforge.net/DTD/sodipodi-0.dtd" xmlns:inkscape="http://www.inkscape.org/namespaces/inkscape"
	 xmlns="http://www.w3.org/2000/svg" xmlns:xlink="http://www.w3.org/1999/xlink" x="0px" y="0px" width="582.391px"
	 height="670.684px" viewBox="-260.609 -254.849 582.391 670.684" enable-background="new -260.609 -254.849 582.391 670.684"
	 xml:space="preserve">
<defs>


		<inkscape:perspective  inkscape:persp3d-origin="372.04724 : 350.78739 : 1" id="perspective5606" inkscape:vp_z="744.09448 : 526.18109 : 1" inkscape:vp_y="0 : 1000 : 0" inkscape:vp_x="0 : 526.18109 : 1" sodipodi:type="inkscape:persp3d">
		</inkscape:perspective>
</defs>
<sodipodi:namedview  inkscape:window-maximized="1" inkscape:window-y="-8" inkscape:window-x="-8" inkscape:window-height="706" inkscape:window-width="1366" inkscape:current-layer="layer1" inkscape:document-units="px" inkscape:pageshadow="2" inkscape:pageopacity="0.0" showgrid="false" inkscape:cy="187.28867" inkscape:cx="225.1239" inkscape:zoom="2" objecttolerance="10" guidetolerance="10" gridtolerance="10000" borderopacity="1.0" bordercolor="#666666" pagecolor="#ffffff" id="base">
	</sodipodi:namedview>
<g id="layer1" transform="translate(-272.57928,-299.86126)" inkscape:label="Layer 1" inkscape:groupmode="layer">
	<path id="TX_Bowie" inkscape:label="Bowie, TX" fill="#D0D0D0" stroke="#FFFFFF" stroke-width="0.9697" d="M541.118,209.369
		l0.332,0.866l0.321,0.736l0.279,0.373l1.715,1.096l0.615,0.404l2.259,1.233l4.062-2.061l0.211-0.191l0.615-0.074l2.35-0.341
		l4.062,0.813l0.773,0.318l1.009,0.831l0.302,14.261l-0.358-0.794l-0.882-0.455l-3.795-0.606l-1.04,0.233l-1.32,0.458l-0.672,1.198
		l0.12,1.058l0.144,0.458l-0.088,0.144l-15.833-0.09l-1.414-0.277l-0.352-0.283l-0.105-0.485l-4.022-2.995l-0.211-18.975
		L541.118,209.369"/>
	<path id="TX_Red_River" inkscape:label="Red River, TX" fill="#D0D0D0" stroke="#FFFFFF" stroke-width="0.9697" d="
		M512.945,194.188l4.891,4.183l7.168,5.736l5.189,2.119l0.211,18.975l-2.636-1.732l-13.307-1.158l-7.59,0.634l-0.086-0.13
		l-0.264-24.902l0.619-0.07l0.33-0.035l1.112-0.726l0.233-0.227l0.229-0.513l0.07-0.509l-0.07-0.438v-0.075l-0.162-0.337
		l-0.014-0.035l0.014-0.051v-0.09l0.021-0.07l0.896-1.358h0.024l0.035-0.016l0.141-0.072l0.299,0.012L512.945,194.188"/>
	<path id="TX_Crosby" inkscape:label="Crosby, TX" fill="#D0D0D0" stroke="#FFFFFF" stroke-width="0.9697" d="M245.671,193.302
		l21.782,1.065l-1.077,22.11l-21.727-1.093L245.671,193.302"/>
	<path id="TX_Lubbock" inkscape:label="Lubbock, TX" fill="#D0D0D0" stroke="#FFFFFF" stroke-width="0.9697" d="M223.89,192.264
		l21.781,1.038l-1.021,22.082l-21.761-1.061L223.89,192.264"/>
	<path id="TX_Hockley" inkscape:label="Hockley, TX" fill="#D0D0D0" stroke="#FFFFFF" stroke-width="0.9697" d="M201.828,190.765
		l22.062,1.499l-1.002,22.06l-21.727-1.39L201.828,190.765"/>
	<path id="TX_Cochran" inkscape:label="Cochran, TX" fill="#D0D0D0" stroke="#FFFFFF" stroke-width="0.9697" d="M183.845,189.495
		l17.983,1.27l-0.666,22.168l-19.345-1.395l0.865-9.214L183.845,189.495"/>
	<path id="TX_Floyd" inkscape:label="Floyd, TX" fill="#D0D0D0" stroke="#FFFFFF" stroke-width="0.9697" d="M250.915,169.109
		l17.806,0.971l-1.269,24.287l-21.782-1.065l1.379-24.424L250.915,169.109"/>
	<path id="TX_Hale" inkscape:label="Hale, TX" fill="#D0D0D0" stroke="#FFFFFF" stroke-width="0.9697" d="M225.289,167.499
		l3.83,0.248l17.932,1.131l-1.379,24.424l-21.781-1.038L225.289,167.499"/>
	<path id="TX_Lamb" inkscape:label="Lamb, TX" fill="#D0D0D0" stroke="#FFFFFF" stroke-width="0.9697" d="M203.578,166.05
		l3.704,0.271l18.006,1.179l-1.398,24.765l-22.062-1.499L203.578,166.05"/>
	<path id="TX_Bailey" inkscape:label="Bailey, TX" fill="#D0D0D0" stroke="#FFFFFF" stroke-width="0.9697" d="M203.578,166.05
		l-1.75,24.715l-17.983-1.27l1.943-24.182l0.035-0.528L203.578,166.05"/>
	<path id="TX_Briscoe" inkscape:label="Briscoe, TX" fill="#D0D0D0" stroke="#FFFFFF" stroke-width="0.9697" d="M252.184,147.046
		l15.691,0.828l6.003,0.319l-1.203,22.079l-3.955-0.191l-17.806-0.971L252.184,147.046"/>
	<path id="TX_Swisher" inkscape:label="Swisher, TX" fill="#D0D0D0" stroke="#FFFFFF" stroke-width="0.9697" d="M230.493,145.684
		l15.199,0.969l6.493,0.392l-1.269,22.063l-3.865-0.23l-17.932-1.131L230.493,145.684"/>
	<path id="TX_Castro" inkscape:label="Castro, TX" fill="#D0D0D0" stroke="#FFFFFF" stroke-width="0.9697" d="M223.471,145.28
		l7.021,0.404l-1.375,22.062l-3.83-0.248l-18.006-1.179l1.52-21.996L223.471,145.28"/>
	<path id="TX_Parmer" inkscape:label="Parmer, TX" fill="#D0D0D0" stroke="#FFFFFF" stroke-width="0.9697" d="M187.518,142.773
		l21.284,1.551l-1.52,21.996l-3.704-0.271l-17.755-1.265L187.518,142.773"/>
	<path id="TX_Armstrong" inkscape:label="Armstrong, TX" fill="#D0D0D0" stroke="#FFFFFF" stroke-width="0.9697" d="M247.261,124.58
		l21.974,1.288l-1.359,22.005l-15.691-0.828l-6.493-0.392L247.261,124.58"/>
	<path id="TX_Randall" inkscape:label="Randall, TX" fill="#D0D0D0" stroke="#FFFFFF" stroke-width="0.9697" d="M224.972,123.182
		l22.289,1.398l-1.569,22.073l-15.199-0.969l-7.021-0.404L224.972,123.182"/>
	<path id="TX_Deaf_Smith" inkscape:label="Deaf Smith, TX" fill="#D0D0D0" stroke="#FFFFFF" stroke-width="0.9697" d="
		M187.518,142.773l0.775-10.466l0.881-11.612l8.369,0.583l8.698,0.439l18.73,1.465l-1.5,22.098l-14.669-0.956L187.518,142.773"/>
	<path id="TX_Carson" inkscape:label="Carson, TX" fill="#D0D0D0" stroke="#FFFFFF" stroke-width="0.9697" d="M248.585,102.391
		v-0.192l21.868,1.163l-0.021,0.318l-1.198,22.188l-21.974-1.288L248.585,102.391"/>
	<path id="TX_Potter" inkscape:label="Potter, TX" fill="#D0D0D0" stroke="#FFFFFF" stroke-width="0.9697" d="M226.592,101.033
		l21.992,1.358l-1.324,22.189l-22.289-1.398L226.592,101.033"/>
	<path id="TX_Oldham" inkscape:label="Oldham, TX" fill="#D0D0D0" stroke="#FFFFFF" stroke-width="0.9697" d="M226.628,100.661
		l-0.036,0.373l-1.621,22.148l-18.73-1.465l-8.698-0.439l-8.369-0.583l1.676-22.27L226.628,100.661"/>
	<path id="TX_Hutchinson" inkscape:label="Hutchinson, TX" fill="#D0D0D0" stroke="#FFFFFF" stroke-width="0.9697" d="
		M249.854,80.293l21.781,1.233l-1.182,21.836l-21.868-1.163L249.854,80.293"/>
	<path id="TX_Moore" inkscape:label="Moore, TX" fill="#D0D0D0" stroke="#FFFFFF" stroke-width="0.9697" d="M228.022,78.949
		l21.832,1.344l-1.27,21.906v0.192l-21.992-1.358l0.036-0.373L228.022,78.949"/>
	<path id="TX_Hartley" inkscape:label="Hartley, TX" fill="#D0D0D0" stroke="#FFFFFF" stroke-width="0.9697" d="M192.511,76.479
		l35.511,2.47l-1.394,21.711l-35.777-2.236l0.458-5.917L192.511,76.479"/>
	<path id="TX_Hansford" inkscape:label="Hansford, TX" fill="#D0D0D0" stroke="#FFFFFF" stroke-width="0.9697" d="M272.853,58.973
		l-1.218,22.432v0.121l-21.781-1.233l1.324-22.557L272.853,58.973"/>
	<path id="TX_Sherman" inkscape:label="Sherman, TX" fill="#D0D0D0" stroke="#FFFFFF" stroke-width="0.9697" d="M234.75,56.698
		l16.428,1.038l-1.324,22.557l-21.832-1.344l1.483-22.592L234.75,56.698"/>
	<path id="TX_Dallam" inkscape:label="Dallam, TX" fill="#D0D0D0" stroke="#FFFFFF" stroke-width="0.9697" d="M229.506,56.358
		l-1.483,22.592l-35.511-2.47l0.955-13.342L194.081,55l1.661-0.987L229.506,56.358"/>
	<path id="TX_Hudspeth" inkscape:label="Hudspeth, TX" fill="#D0D0D0" stroke="#FFFFFF" stroke-width="0.9697" d="M97.359,274.99
		l-0.65,7.113l-1.081,13.732l-2.875,33.322l-0.422,2.981l-0.408,1.469l-0.846,8.663l-2.878,1.488l-0.266,0.227l-2.256-3.246
		l-3.356-3.693l-3.282-2.819l-1.676-0.146l-0.654-0.227l-5.294-3.387l-6.321-7.257l-7.428-9.673l-5.722-7.468l-3.72-4.776
		l2.044-1.657l0.09-2.797l-1.252-1.832l2.38-24.694L97.359,274.99"/>
	<path id="TX_El_Paso" inkscape:label="El Paso, TX" fill="#D0D0D0" stroke="#FFFFFF" stroke-width="0.9697" d="M51.486,270.312
		l-2.38,24.694l1.252,1.832l-0.09,2.797l-2.044,1.657l-4.202-1.873l-1.379-0.694l-2.224-1.816l-0.564-0.458l-0.016-0.039
		l-0.16-0.176l-0.056-0.066l-0.349-0.564l-1.15-3.584l-3.549-8.262l-0.841-1.602l-1.469-1.191l-4.535-2.11l-3.316-3.548
		l-0.408-0.548l-0.07-0.231l0.987-4.359l0.105-0.367l0.92-2.17v-0.02h0.015l0.141,0.02l9.285,0.982L51.486,270.312"/>
	<path id="TX_Lynn" inkscape:label="Lynn, TX" fill="#D0D0D0" stroke="#FFFFFF" stroke-width="0.9697" d="M244.65,215.384
		l-1.308,21.958l-5.628-0.367l-16.22-0.905l1.394-21.746L244.65,215.384"/>
	<path id="TX_Terry" inkscape:label="Terry, TX" fill="#D0D0D0" stroke="#FFFFFF" stroke-width="0.9697" d="M201.162,212.934
		l21.727,1.39l-1.394,21.746l-5.577-0.317l-16.275-1.093L201.162,212.934"/>
	<path id="TX_Yoakum" inkscape:label="Yoakum, TX" fill="#D0D0D0" stroke="#FFFFFF" stroke-width="0.9697" d="M201.162,212.934
		l-1.52,21.726l-19.768-1.444l1.942-21.676L201.162,212.934"/>
	<path id="TX_Dawson" inkscape:label="Dawson, TX" fill="#D0D0D0" stroke="#FFFFFF" stroke-width="0.9697" d="M221.494,236.07
		l16.22,0.905l-1.217,22.078l-21.785-1.254l1.206-22.047L221.494,236.07"/>
	<path id="TX_Gaines" inkscape:label="Gaines, TX" fill="#D0D0D0" stroke="#FFFFFF" stroke-width="0.9697" d="M179.875,233.215
		l19.768,1.444l16.275,1.093l-1.206,22.047l-0.349-0.02l-36.129-2.489L179.875,233.215"/>
	<path id="TX_Martin" inkscape:label="Martin, TX" fill="#D0D0D0" stroke="#FFFFFF" stroke-width="0.9697" d="M214.363,257.779
		l0.349,0.02l21.785,1.254l-1.591,22.118l-3.461-0.176l-18.531-1.172L214.363,257.779"/>
	<path id="TX_Andrews" inkscape:label="Andrews, TX" fill="#D0D0D0" stroke="#FFFFFF" stroke-width="0.9697" d="M178.234,255.29
		l36.129,2.489l-1.45,22.043l-3.21-0.21l-21.817-1.45l-11.278-0.896L178.234,255.29"/>
	<path id="TX_Midland" inkscape:label="Midland, TX" fill="#D0D0D0" stroke="#FFFFFF" stroke-width="0.9697" d="M209.703,279.612
		l3.21,0.21l18.531,1.172l-1.319,21.989l-21.907-1.391L209.703,279.612"/>
	<path id="TX_Ector" inkscape:label="Ector, TX" fill="#D0D0D0" stroke="#FFFFFF" stroke-width="0.9697" d="M209.703,279.612
		l-1.484,21.98l-1.324-0.074l-19.219-1.363l-1.359-0.083l1.569-21.91L209.703,279.612"/>
	<path id="TX_Crane" inkscape:label="Crane, TX" fill="#D0D0D0" stroke="#FFFFFF" stroke-width="0.9697" d="M187.675,300.155
		l19.219,1.363l-1.163,28.536l-3.779-0.298l-1.359-5.293l-0.388-0.977l-0.122-0.207l-0.552-0.529l-2.079-1.801l-0.564-0.443
		l-5.295-3.035l-0.548,0.021l-4.66,0.72L187.675,300.155"/>
	<path id="TX_Presidio" inkscape:label="Presidio, TX" fill="#D0D0D0" stroke="#FFFFFF" stroke-width="0.9697" d="M138.344,359.162
		l-0.352,5.486l-1.238,15.234l-1.853,25.278l-0.956,11.756l-7.358-2.405l-2.401-0.92l-0.266-0.102l-0.176-0.144l-1.57-1.254
		l-3.16-2.501l-15.179-14.388l-0.846-1.887l-4.887-12.281l-0.18-0.517l-0.141-4.973l0.674-3.654l0.333-4.378l-0.67-2.911
		l-7.891-19.152l-2.295-1.465l0.266-0.227l45.787,15.048L138.344,359.162"/>
	<path id="TX_Culberson" inkscape:label="Culberson, TX" fill="#D0D0D0" stroke="#FFFFFF" stroke-width="0.9697" d="
		M100.363,275.273l35.033,3.141l-7.167,44.795L91.078,342.27l0.846-8.663l0.408-1.469l0.422-2.981l2.875-33.322l1.081-13.732
		l0.65-7.113L100.363,275.273"/>
	<path id="TX_Ward" inkscape:label="Ward, TX" fill="#D0D0D0" stroke="#FFFFFF" stroke-width="0.9697" d="M186.317,300.073
		l1.359,0.083l-1.289,18.058l-3.071,0.198l-1.836-1.835l-1.218-1.081l-1.359-0.815l-2.702-1.127l-2.526,0.13l-1.586-0.035
		l-1.021-0.111l-2.189-0.494l-11.827-3.916l-0.543-0.567l-0.497-0.885l-0.424-2.537l0.105-3.023l0.247-1.732l-0.262-1.068
		l-0.709-1.137l-3.372-0.752l12.113,0.968L186.317,300.073"/>
	<path id="TX_Winkler" inkscape:label="Winkler, TX" fill="#D0D0D0" stroke="#FFFFFF" stroke-width="0.9697" d="M176.608,277.267
		l11.278,0.896l-1.569,21.91l-22.607-1.68l1.41-17.599l2.506,0.2l2.205,0.153l3.004,0.23l2.396,0.192l1.045,0.075L176.608,277.267"
		/>
	<path id="TX_Loving" inkscape:label="Loving, TX" fill="#D0D0D0" stroke="#FFFFFF" stroke-width="0.9697" d="M137.283,278.574
		l10.941,0.898l16.895,1.323l-1.41,17.599l-12.113-0.968l-0.916-2.011l-2.119-3.074l-0.423-0.086l-0.846,0.176l-0.035,0.102
		l-0.105,0.089l-0.392,0.02l-0.932-0.211l-0.336-0.443l-5.698-8.191L137.283,278.574"/>
	<path id="TX_Reeves" inkscape:label="Reeves, TX" fill="#D0D0D0" stroke="#FFFFFF" stroke-width="0.9697" d="M135.396,278.414
		l1.888,0.16l2.51,5.221l5.698,8.191l0.336,0.443l0.932,0.211l0.392-0.02l0.105-0.089l0.035-0.102l0.846-0.176l0.423,0.086
		l2.119,3.074l0.916,2.011l3.372,0.752l0.709,1.137l0.262,1.068l-0.247,1.732l-0.105,3.023l0.424,2.537l0.497,0.885l0.543,0.567
		l11.827,3.916l2.189,0.494l1.021,0.111l1.586,0.035l2.526-0.13l-27.072,28.559l-20.9-18.902L135.396,278.414"/>
	<path id="TX_Jeff_Davis" inkscape:label="Jeff Davis, TX" fill="#D0D0D0" stroke="#FFFFFF" stroke-width="0.9697" d="
		M149.129,342.112l5.875,5.562l-16.659,11.489l-4.358-0.356l-45.787-15.048l2.878-1.488l37.151-19.061L149.129,342.112"/>
	<path id="TX_Brewster" inkscape:label="Brewster, TX" fill="#D0D0D0" stroke="#FFFFFF" stroke-width="0.9697" d="M155.004,347.674
		l35.671,33.657l10.381,9.653l-2.26,1.449l-5.545,2.51l-7.977,1.918l-1.022,0.618l-0.105,0.072l-5.934,9.672l-3.563,8.258
		l-11.932,17.701l-1.872,0.497h-0.317l-5.154-1.29l-4.343-2.062l-13.98-9.179l-0.403-0.423l-1.766-1.818l-0.937-1.992l0.956-11.756
		l1.853-25.278l1.238-15.234l0.352-5.486L155.004,347.674"/>
	<path id="TX_Terrell" inkscape:label="Terrell, TX" fill="#D0D0D0" stroke="#FFFFFF" stroke-width="0.9697" d="M226.698,371.769
		l-1.676,25.711l-0.776-0.23l-0.321-0.102l-4.217-0.971l-2.664-0.423l-4.237,0.298l-0.423,0.227l-2.878-0.56l-8.451-4.734
		l-10.381-9.653l0.814-11.614l9.743,0.618l1.058-15.837l5.983-0.544l3.106-1.746l15.989,1.127l0.634-0.066l2.386,0.494l1.73,1.395
		l0.282,3.19l-0.07,0.443l-4.61,11.103L226.698,371.769"/>
	<path id="TX_Pecos" inkscape:label="Pecos, TX" fill="#D0D0D0" stroke="#FFFFFF" stroke-width="0.9697" d="M186.387,318.213
		l4.66-0.72l0.548-0.021l5.295,3.035l0.564,0.443l2.079,1.801l0.552,0.529l0.122,0.207l0.388,0.977l1.359,5.293l5.878,2.667
		l8.505,2.647l2.757,0.863l4.378,3.657l3.67,12.445l0.227,1.3l-15.989-1.127l-3.106,1.746l-5.983,0.544l-1.058,15.837l-9.743-0.618
		l-0.814,11.614l-35.671-33.657l-5.875-5.562l27.072-28.559l2.702,1.127l1.359,0.815l1.218,1.081l1.836,1.835L186.387,318.213"/>
	<path id="TX_Upton" inkscape:label="Upton, TX" fill="#D0D0D0" stroke="#FFFFFF" stroke-width="0.9697" d="M206.895,301.519
		l1.324,0.074l21.907,1.391l-1.786,28.837l-22.607-1.766L206.895,301.519"/>
	<path id="TX_Reagan" inkscape:label="Reagan, TX" fill="#D0D0D0" stroke="#FFFFFF" stroke-width="0.9697" d="M230.125,302.984
		l21.777,1.304l-0.282,4.766l-0.086,1.393l-1.555,22.667l-21.64-1.293L230.125,302.984"/>
	<path id="TX_Glasscock" inkscape:label="Glasscock, TX" fill="#D0D0D0" stroke="#FFFFFF" stroke-width="0.9697" d="
		M234.906,281.171l18.339,1.073l-1.343,22.043l-21.777-1.304l1.319-21.989L234.906,281.171"/>
	<path id="TX_Howard" inkscape:label="Howard, TX" fill="#D0D0D0" stroke="#FFFFFF" stroke-width="0.9697" d="M258.273,260.36
		l-1.605,22.075l-3.422-0.191l-18.339-1.073l1.591-22.118L258.273,260.36"/>
	<path id="TX_Borden" inkscape:label="Borden, TX" fill="#D0D0D0" stroke="#FFFFFF" stroke-width="0.9697" d="M243.342,237.342
		l16.204,0.795l-1.252,22.043l-0.021,0.179l-21.776-1.307l1.217-22.078L243.342,237.342"/>
	<path id="TX_Garza" inkscape:label="Garza, TX" fill="#D0D0D0" stroke="#FFFFFF" stroke-width="0.9697" d="M266.376,216.477
		l-1.148,21.625l-5.682,0.035l-16.204-0.795l1.308-21.958L266.376,216.477"/>
	<path id="TX_Scurry" inkscape:label="Scurry, TX" fill="#D0D0D0" stroke="#FFFFFF" stroke-width="0.9697" d="M265.228,238.102
		l16.114,1.167l-1.289,22.168l-21.76-1.256l1.252-22.043L265.228,238.102"/>
	<path id="TX_Mitchell" inkscape:label="Mitchell, TX" fill="#D0D0D0" stroke="#FFFFFF" stroke-width="0.9697" d="M258.294,260.181
		l21.76,1.256l-1.288,22.237l-6.653-0.408l-15.445-0.831l1.605-22.075L258.294,260.181"/>
	<path id="TX_Sterling" inkscape:label="Sterling, TX" fill="#D0D0D0" stroke="#FFFFFF" stroke-width="0.9697" d="M253.245,282.244
		l3.422,0.191l15.445,0.831l-1.167,19.731l-1.496-0.542l-0.551,7.216l-17.278-0.618l0.282-4.766L253.245,282.244"/>
	<path id="TX_Irion" inkscape:label="Irion, TX" fill="#D0D0D0" stroke="#FFFFFF" stroke-width="0.9697" d="M251.534,310.446
		l11.877,0.69l12.777,0.849l-0.916,22.079l-11.811-0.387l-13.483-0.564L251.534,310.446"/>
	<path id="TX_Crockett" inkscape:label="Crockett, TX" fill="#D0D0D0" stroke="#FFFFFF" stroke-width="0.9697" d="M201.953,329.757
		l3.779,0.298l22.607,1.766l21.64,1.293l13.483,0.564l-0.917,18.992l-1.092,21.072l-34.755-1.973l1.021-1.876l4.61-11.103
		l0.07-0.443l-0.282-3.19l-1.73-1.395l-2.386-0.494l-0.634,0.066l-0.227-1.3l-3.67-12.445l-4.378-3.657l-2.757-0.863l-8.505-2.647
		L201.953,329.757"/>
	<path id="TX_Val_Verde" inkscape:label="Val Verde, TX" fill="#D0D0D0" stroke="#FFFFFF" stroke-width="0.9697" d="
		M226.698,371.769l34.755,1.973l11.328,0.545l-1.641,33.452l-0.442,9.246l-0.494,3.779l-0.247,1.217l-1.762,4.164l-0.568,0.829
		l-0.176,0.035l-1.358-0.246l-10.347-9.27l-8.662-10.744l-0.105-0.287l-6.372-7.095l-2.189-0.757l-0.196-0.019l-6.302-0.402
		l-1.002-0.051l-5.897-0.655L226.698,371.769"/>
	<path id="TX_Zapata" inkscape:label="Zapata, TX" fill="#D0D0D0" stroke="#FFFFFF" stroke-width="0.9697" d="M321.584,528.477
		l3.865-2.593l1.592,2.366l17.119,0.759l-0.726,24.178l-10.256,10.452l-0.667-2.686l-0.812-3.282v-0.051l-1.36-4.998l-1.093-2.771
		l-2.313-3.266l-2.542-1.481l-2.913-4.537l-0.176-1.994l0.053-0.195l0.213-0.174l0.795-1.166l0.316-4.092l-0.564-3.708l-0.458-0.729
		l-0.039-0.013L321.584,528.477"/>
	<path id="TX_Jim_Hogg" inkscape:label="Jim Hogg, TX" fill="#D0D0D0" stroke="#FFFFFF" stroke-width="0.9697" d="M351.361,524.984
		l11.103,0.052l1.338,0.825l-0.155,3.925l1.339,1.535l3.18,9.068l-0.569,13.597l-24.162-0.799l0.726-24.178L351.361,524.984"/>
	<path id="TX_Starr" inkscape:label="Starr, TX" fill="#D0D0D0" stroke="#FFFFFF" stroke-width="0.9697" d="M343.434,553.187
		l24.162,0.799l4.627,0.141l-3.65,7.782l-4.276,8.259l-4.87,9.884l-2.136,0.302l-3.282-1.449l-15.426-6.936l-2.597-1.676
		l-2.647-6.042l-0.091-0.35l-0.07-0.262L343.434,553.187"/>
	<path id="TX_Willacy" inkscape:label="Willacy, TX" fill="#D0D0D0" stroke="#FFFFFF" stroke-width="0.9697" d="M417.672,564.117
		l1.393,0.035l2.804,9.456h-0.773L417.672,564.117 M388.565,563.056l23.491,0.95l2.562,9.51l-1.781,2.212l-4.926,3.281
		l-15.248-2.702l0.07-3.705l-2.101-0.673l-4.356-0.771l0.387-2.154l0.601-2.224L388.565,563.056"/>
	<path id="TX_Hidalgo" inkscape:label="Hidalgo, TX" fill="#D0D0D0" stroke="#FFFFFF" stroke-width="0.9697" d="M372.224,554.126
		l15.249,0.439l1.093,8.49l-1.304,3.725l-0.601,2.224l-0.387,2.154l4.356,0.771l2.101,0.673l-0.07,3.705l-0.283,14.317l-0.318-0.07
		l-0.899-0.137l-4.112,0.042l-1.375,0.024l-0.176,0.227l-1.504,0.6l-5.667-1.093l-3.331-0.653l-1.043-0.564l-0.653-0.439
		l-4.852-3.304l-2.314-2.766l-1.233-0.587l-0.107-0.035l-5.333-1.817h-0.031l4.87-9.884l4.276-8.259L372.224,554.126"/>
	<path id="TX_Brooks" inkscape:label="Brooks, TX" fill="#D0D0D0" stroke="#FFFFFF" stroke-width="0.9697" d="M363.647,529.785
		l13.165,0.458l7.87,0.25l3.211,2.663l-0.421,21.409l-15.249-0.439l-4.627-0.141l0.569-13.597l-3.18-9.068L363.647,529.785"/>
	<path id="TX_Kenedy" inkscape:label="Kenedy, TX" fill="#D0D0D0" stroke="#FFFFFF" stroke-width="0.9697" d="M415.675,530.212
		l1.167,0.011l-0.141,0.483l-0.638,2.893l-0.367,2.456l-0.32,2.995l-0.141,2.647v2.772l0.283,4.167l0.213,1.711l0.035,0.176
		l0.548,3.18l0.794,3.6l1.395,5.078l0.07,0.197l0.07,0.191l0.421,1.383l-1.393-0.035l-2.984-11.056v-6.263l0.035-5.317l0.021-2.1
		l0.07-3.12l0.191-2.401l0.216-1.217L415.675,530.212 M387.894,533.156l15.818-3.18l-0.105,0.392l0.016,0.88l0.181,0.318
		l0.277,0.211l3.884,0.741l1.021-0.086l0.478-0.193l0.302-0.215l0.14-0.227l0.686-0.317l1.57-0.567l1.204-0.048l0.075,0.318
		l-1.082,7.057l-1.922,5.771l-1.325,9.829l1.711,2.261l1.114,6.28l0.119,1.625l-23.491-0.95l-1.093-8.49L387.894,533.156"/>
	<path id="TX_Kleberg" inkscape:label="Kleberg, TX" fill="#D0D0D0" stroke="#FFFFFF" stroke-width="0.9697" d="M415.675,530.212
		l5.862-15.133l1.168,0.287l-5.864,14.856L415.675,530.212 M390.315,511.833l2.965,1.924l1.57,2.032l0.387,0.016l22.802,0.266
		l-2.273,7.958l-1.36,3.266l-0.141,0.286l-0.373,0.422l-0.316,0.196l-4.023,2.06l-5.843-0.281l-15.818,3.18l-3.211-2.663
		l0.337-18.766L390.315,511.833"/>
	<path id="TX_Jim_Wells" inkscape:label="Jim Wells, TX" fill="#D0D0D0" stroke="#FFFFFF" stroke-width="0.9697" d="
		M377.606,490.389l15.779,0.388l3.744,3.142l-6.215,5.419l-0.07,5.436l-0.529,7.061l-5.295-0.105l-0.337,18.766l-7.87-0.25
		L377.606,490.389"/>
	<path id="TX_Nueces" inkscape:label="Nueces, TX" fill="#D0D0D0" stroke="#FFFFFF" stroke-width="0.9697" d="M430.786,502.393
		l-8.081,12.974l-1.168-0.287l9.02-13.326L430.786,502.393 M390.315,511.833l0.529-7.061l0.07-5.436l6.215-5.419l-0.494,1.186
		l0.453,1.834l5.934,3.094l1.163,0.543l2.313,0.509l3.211,0.268l0.388-1.309l7.22-0.156l3.106,0.156l-0.812,0.146l-2.948,1.339
		l-0.851,0.618l-0.594,1.198l-0.091,1.555l0.318,0.815l0.775,1.268l0.956,0.831l1.36,0.65l2.238,1.746l-1.413,3.215l-1.325,2.647
		l-22.802-0.266l-0.387-0.016l-1.57-2.032L390.315,511.833"/>
	<path id="TX_San_Patricio" inkscape:label="San Patricio, TX" fill="#D0D0D0" stroke="#FFFFFF" stroke-width="0.9697" d="
		M396.421,484.825l12.375,0.818l12.49,4.655l5.53,8.776l-6.391,0.967l-3.106-0.156l-7.22,0.156l-0.388,1.309l-3.211-0.268
		l-2.313-0.509l-1.163-0.543l-5.934-3.094l-0.453-1.834l0.494-1.186l-3.744-3.142L396.421,484.825"/>
	<path id="TX_Calhoun" inkscape:label="Calhoun, TX" fill="#D0D0D0" stroke="#FFFFFF" stroke-width="0.9697" d="M440.599,488.696
		l0.601-2.313l10.077-6.903l0.526-0.243l2.335-1.006l3.474-0.726l0.533,0.92l-4.255,2.096l-0.621,0.281l-0.051,0.051l-3.247,2.001
		l-3.281,2.363l-2.862,2.243l-4.128,3.587l-0.09,0.087l-0.106,0.102L440.599,488.696 M451.985,458.551l11.384,1.975l0.016,1.695
		l-2.753,1.288l-4.38,1.783l-3.562-3.252l-0.407-1.174L451.985,458.551 M438.055,468.823l-0.649-1.272l-1.079-2.737l3.443-2.401
		l6.707-2.294l2.382-1.324l-0.653,0.588l2.351,5.585l0.119,0.137l1.959,0.364l1.238,0.85l5.172,4.659l0.404,0.404l0.373,0.513
		l-0.07,0.337l-8.404,4.213l-0.389,0.162l-3.246,0.915l-1.134-0.367l-0.315-0.303l-2.858-3.074L438.055,468.823"/>
	<path id="TX_Refugio" inkscape:label="Refugio, TX" fill="#D0D0D0" stroke="#FFFFFF" stroke-width="0.9697" d="M426.057,466.368
		l11.998,2.455l5.35,4.953l-0.987,4.543l-14.86,2.166l0.07,1.026l1.001,1.342l1.714,1.026l0.973,0.143l0.931,0.031l-0.277,0.759
		l-5.667,4.272l-4.005,1.943l-0.141-0.02l-0.871-0.71l-12.49-4.655l7.568-11.122L426.057,466.368"/>
	<path id="TX_Bee" inkscape:label="Bee, TX" fill="#D0D0D0" stroke="#FFFFFF" stroke-width="0.9697" d="M398.645,460.193
		l3.531,6.406l6.372,3.886l7.816,4.037l-7.568,11.122l-12.375-0.818l0.421-0.33l-12.034-24.322l3.775-1.288l4.046-1.395l0.58,0.353
		l0.352,0.615l1.57,0.87l1.398,0.579L398.645,460.193"/>
	<path id="TX_Live_Oak" inkscape:label="Live Oak, TX" fill="#D0D0D0" stroke="#FFFFFF" stroke-width="0.9697" d="M384.563,453.923
		l4.021,4.962l-3.775,1.288l12.034,24.322l-0.421,0.33l-3.036,5.951l-15.779-0.388l-4.432-0.109l0.655-27.848L384.563,453.923"/>
	<path id="TX_McMullen" inkscape:label="McMullen, TX" fill="#D0D0D0" stroke="#FFFFFF" stroke-width="0.9697" d="M353.128,460.596
		l20.74,0.281l-0.694,29.402l-21.001-0.541L353.128,460.596"/>
	<path id="TX_Duval" inkscape:label="Duval, TX" fill="#D0D0D0" stroke="#FFFFFF" stroke-width="0.9697" d="M352.173,489.738
		l21.001,0.541l4.432,0.109l-0.794,39.854l-13.165-0.458l0.155-3.925l-1.338-0.825l-11.103-0.052L352.173,489.738"/>
	<path id="TX_Webb" inkscape:label="Webb, TX" fill="#D0D0D0" stroke="#FFFFFF" stroke-width="0.9697" d="M289.516,480.419
		l4.288,0.141l32.179,0.937l-0.091,8.736l26.281-0.494l-0.812,35.245l-7.201,4.025l-17.119-0.759l-1.592-2.366l-3.865,2.593
		l-0.759-0.067l-0.968-0.605l-0.089-0.032l-1.52-1.48l-0.191-0.211l-0.07-0.09l-0.035-0.035l-0.053-0.193l0.207-0.28l1.254-1.68
		l0.71-1.678l0.265-0.97l0.473-3.775l-1.606-4.469l-0.935-1.642l-0.604-0.442l-1.992-1.447l-1.022-0.178l-0.121,0.07l-0.055,0.216
		l-1.746-0.07l-7.716-7.13l-1.394-1.657l-4.786-9.643l-3.791-7.675l-0.215-0.176L289.516,480.419"/>
	<path id="TX_La_Salle" inkscape:label="La Salle, TX" fill="#D0D0D0" stroke="#FFFFFF" stroke-width="0.9697" d="M353.16,460.138
		l-0.032,0.458l-0.956,29.143l-26.281,0.494l0.091-8.736l0.703-21.888L353.16,460.138"/>
	<path id="TX_Dimmit" inkscape:label="Dimmit, TX" fill="#D0D0D0" stroke="#FFFFFF" stroke-width="0.9697" d="M294.755,457.965
		l31.347,1.625l0.583,0.019l-0.703,21.888l-32.179-0.937L294.755,457.965"/>
	<path id="TX_Maverick" inkscape:label="Maverick, TX" fill="#D0D0D0" stroke="#FFFFFF" stroke-width="0.9697" d="M295.837,435.976
		l-1.082,21.989l-0.951,22.595l-4.288-0.141l-0.161-0.176l-1.903-2.1l-1.414-1.817l-2.189-6.727l-6.352-17.067l-5.651-12.515
		l-0.654-5.087L295.837,435.976"/>
	<path id="TX_Kinney" inkscape:label="Kinney, TX" fill="#D0D0D0" stroke="#FFFFFF" stroke-width="0.9697" d="M271.141,407.738
		l25.823,1.237l-1.128,27.001l-24.645-1.045l-5.098-8.169l1.358,0.246l0.176-0.035l0.568-0.829l1.762-4.164l0.247-1.217l0.494-3.779
		L271.141,407.738"/>
	<path id="TX_Edwards" inkscape:label="Edwards, TX" fill="#D0D0D0" stroke="#FFFFFF" stroke-width="0.9697" d="M298.233,375.366
		l15.797,0.65l-0.583,10.896l-3.846-0.141l-5.314-0.634l-2.612,9.582l-0.478,7.285l0.07,6.143l-4.303-0.172l-25.823-1.237
		l1.641-33.452L298.233,375.366"/>
	<path id="TX_Real" inkscape:label="Real, TX" fill="#D0D0D0" stroke="#FFFFFF" stroke-width="0.9697" d="M313.447,386.912
		l2.969,0.118l-0.318,6.602l0.88,1.782l2.914,0.165l-0.548,14.098l-18.077-0.529l-0.07-6.143l0.478-7.285l2.612-9.582l5.314,0.634
		L313.447,386.912"/>
	<path id="TX_Uvalade" inkscape:label="Uvalade, TX" fill="#D0D0D0" stroke="#FFFFFF" stroke-width="0.9697" d="M296.965,408.975
		l4.303,0.172l18.077,0.529l8.399,0.299l-1.058,26.973l-30.849-0.971L296.965,408.975"/>
	<path id="TX_Zavala" inkscape:label="Zavala, TX" fill="#D0D0D0" stroke="#FFFFFF" stroke-width="0.9697" d="M326.686,436.947
		l-0.583,22.643l-31.347-1.625l1.082-21.989L326.686,436.947"/>
	<path id="TX_Frio" inkscape:label="Frio, TX" fill="#D0D0D0" stroke="#FFFFFF" stroke-width="0.9697" d="M353.641,437.864
		l-0.481,22.274l-26.474-0.529l-0.583-0.019l0.583-22.643L353.641,437.864"/>
	<path id="TX_Goliad" inkscape:label="Goliad, TX" fill="#D0D0D0" stroke="#FFFFFF" stroke-width="0.9697" d="M419.807,450.676
		l3.281-0.016l1.29,0.595l0.636,1.293l0.847,2.189l0.197,11.631l-9.694,8.153l-7.816-4.037l-6.372-3.886l-3.531-6.406l9.198-7.138
		l7.06-5.518h0.279l1.167,0.442l1.957,1.091l0.604,0.534L419.807,450.676"/>
	<path id="TX_Victoria" inkscape:label="Victoria, TX" fill="#D0D0D0" stroke="#FFFFFF" stroke-width="0.9697" d="M434.546,438.804
		l1.658,2.059l4.396,1.943l0.299,0.211l3.176,6.282l5.049,9.375l-0.264,0.121l-2.382,1.324l-6.707,2.294l-3.443,2.401l1.079,2.737
		l0.649,1.272l-11.998-2.455l-0.197-11.631l-0.847-2.189l-0.636-1.293l-1.29-0.595l-3.281,0.016L434.546,438.804"/>
	<path id="TX_DeWitt" inkscape:label="DeWitt, TX" fill="#D0D0D0" stroke="#FFFFFF" stroke-width="0.9697" d="M423.072,424.537
		l11.473,14.267l-14.739,11.872l-0.896-1.072l-0.604-0.534l-1.957-1.091l-1.167-0.442h-0.279l-7.06,5.518l-7.84-9.876l6.372-5.049
		L423.072,424.537"/>
	<path id="TX_Karnes" inkscape:label="Karnes, TX" fill="#D0D0D0" stroke="#FFFFFF" stroke-width="0.9697" d="M401.382,432.392
		l4.993,5.737l-6.372,5.049l7.84,9.876l-9.198,7.138l-2.115-0.285l-1.398-0.579l-1.57-0.87l-0.352-0.615l-0.58-0.353l-4.046,1.395
		l-4.021-4.962l-4.007-4.887L401.382,432.392"/>
	<path id="TX_Wilson" inkscape:label="Wilson, TX" fill="#D0D0D0" stroke="#FFFFFF" stroke-width="0.9697" d="M396.579,424.502
		l4.803,7.89l-20.826,16.644l-9.305-11.897l12.497-16.204l0.267,2.597l0.155,0.634l0.373,0.673l1.268-0.705L396.579,424.502"/>
	<path id="TX_Atascosa" inkscape:label="Atascosa, TX" fill="#D0D0D0" stroke="#FFFFFF" stroke-width="0.9697" d="M353.887,429.817
		l17.364,7.322l9.305,11.897l4.007,4.887l-10.734,8.509l0.039-1.555l-20.74-0.281l0.032-0.458l0.481-22.274L353.887,429.817"/>
	<path id="TX_Medina" inkscape:label="Medina, TX" fill="#D0D0D0" stroke="#FFFFFF" stroke-width="0.9697" d="M354.453,407.668
		l-0.566,22.149l-0.246,8.047l-26.955-0.917l1.058-26.973l18.814,0.829l0.3,0.465l0.035,0.244l-0.141,0.548l-0.384,0.58l0.018,1.01
		l0.26,0.599l0.177,0.153l0.16,0.023l1.978-0.462L354.453,407.668"/>
	<path id="TX_Bandera" inkscape:label="Bandera, TX" fill="#D0D0D0" stroke="#FFFFFF" stroke-width="0.9697" d="M319.892,395.578
		l13.539,0.634l5.081,0.65l2.312,1.198l8.896,4.872l5.983,3.284l-1.25,1.453l-5.492,6.296l-1.978,0.462l-0.16-0.023l-0.177-0.153
		l-0.26-0.599l-0.018-1.01l0.384-0.58l0.141-0.548l-0.035-0.244l-0.3-0.465l-18.814-0.829l-8.399-0.299L319.892,395.578"/>
	<path id="TX_Kerr" inkscape:label="Kerr, TX" fill="#D0D0D0" stroke="#FFFFFF" stroke-width="0.9697" d="M333.727,376.937
		l-0.211,7.675l16.644,0.357l-0.439,17.962l-8.896-4.872l-2.312-1.198l-5.081-0.65l-13.539-0.634l-2.914-0.165l-0.88-1.782
		l0.318-6.602l-2.969-0.118l0.583-10.896L333.727,376.937"/>
	<path id="TX_Gillespie" inkscape:label="Gillespie, TX" fill="#D0D0D0" stroke="#FFFFFF" stroke-width="0.9697" d="
		M334.029,366.188l14.771,0.561l16.206,0.407l-0.336,18.198l-14.51-0.385l-16.644-0.357L334.029,366.188"/>
	<path id="TX_Blanco" inkscape:label="Blanco, TX" fill="#D0D0D0" stroke="#FFFFFF" stroke-width="0.9697" d="M375.509,368.131
		l9.687,3.247l-2.154,3.477l-5.808,15.919l-5.223,4.922l-7.342-10.342l0.336-18.198L375.509,368.131"/>
	<path id="TX_Kendall" inkscape:label="Kendall, TX" fill="#D0D0D0" stroke="#FFFFFF" stroke-width="0.9697" d="M350.159,384.969
		l14.51,0.385l7.342,10.342l-10.434,9.427l-5.875,1.093l-5.983-3.284L350.159,384.969"/>
	<path id="TX_Bexar" inkscape:label="Bexar, TX" fill="#D0D0D0" stroke="#FFFFFF" stroke-width="0.9697" d="M361.578,405.122
		l4.007-0.494l0.356,0.019l5.592,0.724l2.702,2.17l1.871,5.562l0.439,1.394l1.254,0.971l2.138,0.685l4.183,2.808l0.07,1.5
		l-0.443,0.474l-12.497,16.204l-17.364-7.322l0.566-22.149l1.25-1.453L361.578,405.122"/>
	<path id="TX_Guadalupe" inkscape:label="Guadalupe, TX" fill="#D0D0D0" stroke="#FFFFFF" stroke-width="0.9697" d="
		M395.539,400.235l10.431,10.679l-9.391,13.588l-10.769-0.369l-1.268,0.705l-0.373-0.673l-0.155-0.634l-0.267-2.597l0.443-0.474
		l-0.07-1.5l-4.183-2.808l-2.138-0.685l-1.254-0.971l-0.439-1.394l13.871-7.645L395.539,400.235"/>
	<path id="TX_Comal" inkscape:label="Comal, TX" fill="#D0D0D0" stroke="#FFFFFF" stroke-width="0.9697" d="M377.234,390.773
		l11.475,9.813l1.268,4.872l-13.871,7.645l-1.871-5.562l-2.702-2.17l-5.592-0.724l-0.356-0.019l-4.007,0.494l10.434-9.427
		L377.234,390.773"/>
	<path id="TX_Hays" inkscape:label="Hays, TX" fill="#D0D0D0" stroke="#FFFFFF" stroke-width="0.9697" d="M383.042,374.854
		l19.875,17.137l-2.42,2.169l-5.751,4.75l-0.283,1.338l0.406,0.076l0.671-0.089l-5.562,5.223l-1.268-4.872l-11.475-9.813
		L383.042,374.854"/>
	<path id="TX_Caldwell" inkscape:label="Caldwell, TX" fill="#D0D0D0" stroke="#FFFFFF" stroke-width="0.9697" d="M402.917,391.99
		l2.628-2.224l14.458,14.49l-0.092,0.089l-13.941,6.569l-10.431-10.679l-0.671,0.089l-0.406-0.076l0.283-1.338l5.751-4.75
		L402.917,391.99"/>
	<path id="TX_Gonzales" inkscape:label="Gonzales, TX" fill="#D0D0D0" stroke="#FFFFFF" stroke-width="0.9697" d="M419.912,404.345
		l7.575,7.997l-2.704,2.35l0.035,3.684l-1.746,6.161l-16.698,13.592l-4.993-5.737l-4.803-7.89l9.391-13.588L419.912,404.345"/>
	<path id="TX_Lavaca" inkscape:label="Lavaca, TX" fill="#D0D0D0" stroke="#FFFFFF" stroke-width="0.9697" d="M427.487,412.342
		l11.821-0.105l0.372,0.105l0.813,0.494l2.382,2.224l10.147,12.23l-4.339,3.584l-12.48,9.989l-13.131-16.326l1.746-6.161
		l-0.035-3.684L427.487,412.342"/>
	<path id="TX_Jackson" inkscape:label="Jackson, TX" fill="#D0D0D0" stroke="#FFFFFF" stroke-width="0.9697" d="M448.684,430.874
		l0.794,0.81l14.58,14.388l-0.689,14.454l-11.384-1.975l-2.862,0.122l-5.049-9.375l-3.176-6.282l-0.299-0.211l-4.396-1.943
		L448.684,430.874"/>
	<path id="TX_Matagorda" inkscape:label="Matagorda, TX" fill="#D0D0D0" stroke="#FFFFFF" stroke-width="0.9697" d="
		M464.058,446.071l15.245-9.21l4.025-4.17l1.041,0.991l0.268,0.265l1.816,6.047l1.128,4.383l0.372,1.253l0.105,0.16l8.738,6.885
		l0.158,0.086l2.684,0.248l-0.847,0.564l-1.854,1.182l-0.828,0.494l-10.008,5.828l-3.176,1.605l-5.189,2.259l-3.443,1.59
		l-6.356,3.247l-2.237,1.503l-0.162,0.103l-3.018,2.115l-1.325,0.99l-0.368,0.583l-0.105-0.368l0.263-0.427l7.182-5.4l1.097-9.266
		l-0.211-0.227l-0.299-0.11l-0.903,0.126l-2.025,0.479l-0.869,0.281l-0.724,0.576l-0.847,1.487l-0.016-1.695L464.058,446.071"/>
	<path id="TX_Wharton" inkscape:label="Wharton, TX" fill="#D0D0D0" stroke="#FFFFFF" stroke-width="0.9697" d="M473.851,413.964
		l3.58,8.686l2.525,4.696l3.159,3.513l1.375,0.176l-1.162,1.657l-4.025,4.17l-15.245,9.21l-14.58-14.388l1.586-0.897l11.333-7.115
		l0.724-2.103l2.115-4.285l4.803-4.941L473.851,413.964"/>
	<path id="TX_Colorado" inkscape:label="Colorado, TX" fill="#D0D0D0" stroke="#FFFFFF" stroke-width="0.9697" d="M452.795,395.769
		l1.486,2.733l1.795,1.63l0.443,0.399l2.771,1.927l0.439,0.211l0.78,0.156l8.436,8.334l1.093,1.183l-4.803,4.941l-2.115,4.285
		l-0.724,2.103l-11.333,7.115l-1.586,0.897l-0.794-0.81l4.339-3.584l-10.147-12.23l-2.382-2.224l-0.813-0.494l-0.372-0.105
		L452.795,395.769"/>
	<path id="TX_Bastrop" inkscape:label="Bastrop, TX" fill="#D0D0D0" stroke="#FFFFFF" stroke-width="0.9697" d="M419.631,373.174
		l5.822,3.352l5.104,4.03l2.384,10.514l-12.937,13.186l-14.458-14.49l1.925-1.765l5.119-5.206l5.52-10.491L419.631,373.174"/>
	<path id="TX_Fayette" inkscape:label="Fayette, TX" fill="#D0D0D0" stroke="#FFFFFF" stroke-width="0.9697" d="M443.051,385.651
		l1.132,0.991l1.445-0.297l1.464-0.517l0.655-0.333l1.676,1.112l0.638,1.852l0.404,1.981l0.091,1.125l2.238,4.206l-13.486,16.468
		l-11.821,0.105l-7.575-7.997l0.092-0.089l12.937-13.186L443.051,385.651"/>
	<path id="TX_Lee" inkscape:label="Lee, TX" fill="#D0D0D0" stroke="#FFFFFF" stroke-width="0.9697" d="M427.466,370.527
		l8.385-4.941l5.032,6.391l3.984,4.61l4.943,2.256l-6.76,6.809l-10.111,5.419l-2.384-10.514l-5.104-4.03l-5.822-3.352
		L427.466,370.527"/>

		<path id="TX_Austin" inkscape:connector-curvature="0" inkscape:label="Austin, TX" fill="#D0D0D0" stroke="#FFFFFF" stroke-width="0.9697" d="
		M450.556,391.564l1.569-1.007l12.829-1.53l0.794,0.16l2.014,0.876l2.153,0.764l1.022,0.07l0.462-0.548l4.923,17.262l-2.472,6.352
		l-3.812-1.621l-1.093-1.183l-8.436-8.334l-0.78-0.156l-0.439-0.211l-2.771-1.927l-0.443-0.399l-1.797-1.63l-1.484-2.733
		L450.556,391.564"/>
	<path id="TX_Washington" inkscape:label="Washington, TX" fill="#D0D0D0" stroke="#FFFFFF" stroke-width="0.9697" d="
		M464.709,374.713l0.478,0.634l0.492,0.353l0.312,0.105l2.372-0.81l0.743-0.901l0.297-0.227l0.583,0.07l1.219,1.284l-0.192,1.998
		l2.663,5.33l-2.275,7.8l-0.462,0.548l-1.022-0.07l-2.153-0.764l-2.014-0.876l-0.794-0.16l-12.829,1.53l-1.569,1.007l-0.091-1.125
		l-0.404-1.981l-0.638-1.852l-1.676-1.112l-0.655,0.333l-1.464,0.517l-1.445,0.297l-1.132-0.991l6.76-6.809l6.44-1.586l1.273-0.356
		l6.601-2.4l0.387,0.058L464.709,374.713"/>
	<path id="TX_Waller" inkscape:label="Waller, TX" fill="#D0D0D0" stroke="#FFFFFF" stroke-width="0.9697" d="M473.675,382.55
		l12.616-1.042l0.07,7.835l-2.343-0.58l-2.367-1.323l-0.883-0.834l-1.29-0.956l0.603,1.946l5.314,16.965l-9.073,3.05L471.4,390.35
		L473.675,382.55"/>
	<path id="TX_Fort_Bend" inkscape:label="Fort Bend, TX" fill="#D0D0D0" stroke="#FFFFFF" stroke-width="0.9697" d="
		M476.323,407.612l9.073-3.05l17.701,10.412l-1.642,7.111l-5.702,5.702l-1.5,0.775l-3.879-0.054l-1.697-0.603l-1.992,0.851
		l-2.194,2.278l-1.375-0.176l-3.159-3.513l-2.525-4.696l-3.58-8.686L476.323,407.612"/>
	<path id="TX_Brazoria" inkscape:label="Brazoria, TX" fill="#D0D0D0" stroke="#FFFFFF" stroke-width="0.9697" d="M503.097,414.974
		l9.144,1.163l-0.686,4.555l5.064,8.49l2.856,4.831l-3.193,5.757l0.478,0.373l-0.267,0.544l-11.082,9.692l-5.772,2.628l-2.684-0.248
		l-0.158-0.086l-8.738-6.885l-0.105-0.16l-0.372-1.253l-1.128-4.383l-1.816-6.047l-0.268-0.265l-1.041-0.991l1.162-1.657
		l2.194-2.278l1.992-0.851l1.697,0.603l3.879,0.054l1.5-0.775l5.702-5.702L503.097,414.974"/>
	<path id="TX_Galveston" inkscape:label="Galveston, TX" fill="#D0D0D0" stroke="#FFFFFF" stroke-width="0.9697" d="
		M549.465,415.694l-1.311,0.604l-3.914,1.8l-0.303,0.141l-0.193,0.105l-3.527,1.641l-0.548,0.26l-1.585,0.849l-0.288,0.177
		l-0.899,0.567l-0.528,0.316l-0.156,0.123l-0.514,0.39l-0.372,0.264l-0.176,0.211l-0.126,0.105l-0.316,0.337l-0.105,0.157
		l-0.385,0.583l-0.181,0.267l-0.211,0.509l-0.09,0.199l-1.34,0.385l-0.76,0.039l-0.156-0.141l-0.035-0.592l0.705-0.896l3.708-3.972
		l0.385-0.277l3.371-1.606l2.26-0.778l0.567-0.07l0.42-0.178l-0.227-0.548v-0.724L549.465,415.694 M520.977,416.102l2.028,2.294
		l7.24,7.748l3.51,1.042l-2.399,2.103l-0.756,0.583l-4.188,2.874l-5.263,3.619l-0.316,0.207l-0.563,0.446l-1.587,1.214l-0.28,0.232
		l-0.162,0.125l-0.634,0.599l-0.473,0.443l-0.373,0.513l-0.478-0.373l3.193-5.757l-2.856-4.831l-5.064-8.49l0.686-4.555l2.118,2.119
		l4.394-2.263L520.977,416.102"/>
	<path id="TX_Montgomery" inkscape:label="Montgomery, TX" fill="#D0D0D0" stroke="#FFFFFF" stroke-width="0.9697" d="
		M485.129,362.092l10.077,6.108l4.68-0.02l2.843-0.016l2.93,0.191l8.472,7.981l3.088,8.945l-4.397,4.165l-2.857,2.704l-1.29,0.144
		l-0.771-0.165l-0.466-1.005l-1.265-1.184l-3.18-1.708l-5.523-2.929l-2.066,1.797l-3.09,1.465l-2.894,0.583l-0.955,0.086
		l-2.102,0.105l-0.07-7.835L485.129,362.092"/>
	<path id="TX_Harris" inkscape:label="Harris, TX" fill="#D0D0D0" stroke="#FFFFFF" stroke-width="0.9697" d="M486.362,389.343
		l2.102-0.105l0.955-0.086l2.894-0.583l3.09-1.465l2.066-1.797l5.523,2.929l3.18,1.708l1.265,1.184l0.466,1.005l0.771,0.165
		l1.29-0.144l2.857-2.704l4.397-4.165l5.244,14.21l2.239,10.495l-3.724,6.113l-2.225-0.109l-4.394,2.263l-2.118-2.119l-9.144-1.163
		l-17.701-10.412l-5.314-16.965l-0.603-1.946l1.29,0.956l0.883,0.834l2.367,1.323L486.362,389.343"/>
	<path id="TX_Chambers" inkscape:label="Chambers, TX" fill="#D0D0D0" stroke="#FFFFFF" stroke-width="0.9697" d="M546.041,398.91
		l3.704,0.032l0.481,15.75l-0.038,0.666l-0.724,0.335l-6.83,0.248l-9.195-1.465l1.11-2.08l0.636-3.496l0.015-0.458l-0.141-0.991
		l-1.304-2.573l-0.478-0.533l-0.246-0.089l-2.245,1.026l-1.037,0.548l-5.049,4.158l-2.239-10.495L546.041,398.91"/>
	<path id="TX_Hardin" inkscape:label="Hardin, TX" fill="#D0D0D0" stroke="#FFFFFF" stroke-width="0.9697" d="M541.028,366.843
		l20.614-0.318l-1.097,2.679l-0.383,1.167l-0.478,1.959l0.123,0.704l0.794,1.804l0.14,0.047l0.443,0.462l-0.798,4.922l-0.453,0.639
		l0.158,4.079l-0.284-0.285l-3.232-1.077l-0.611,0.086l-2.847,0.921l-0.108,0.14l-0.035,0.564l0.108,0.799l-0.123,0.316
		l-0.583,0.841l-0.316,0.178l-4.414,0.94l-0.69-0.13l-1.216-0.634l-6.619,0.141l-6.216-18.969L541.028,366.843"/>
	<path id="TX_Liberty" inkscape:label="Liberty, TX" fill="#D0D0D0" stroke="#FFFFFF" stroke-width="0.9697" d="M527.827,368.71
		l5.078,0.109l6.216,18.969l6.619-0.141l0.301,11.263l-23.579,0.583l-5.244-14.21l-3.088-8.945L527.827,368.71"/>
	<path id="TX_Jefferson" inkscape:label="Jefferson, TX" fill="#D0D0D0" stroke="#FFFFFF" stroke-width="0.9697" d="M545.74,387.648
		l1.216,0.634l0.69,0.13l4.414-0.94l0.316-0.178l0.583-0.841l0.123-0.316l-0.108-0.799l0.035-0.564l0.108-0.14l2.847-0.921
		l0.611-0.086l3.232,1.077l0.284,0.285l0.105,0.615l0.917,3.176l0.119,0.137l6.078,3.956l3.65,0.94l0.562,0.246l0.675,1.038
		l0.161,0.408l0.085,0.497l-0.074,1.147l0.391,11.259l-4.076,0.653l-1.082-0.02l-2.006-0.019l-2.418,0.567l-3.32,1.325l-9.672,4.444
		l0.038-0.666l-0.481-15.75l-3.704-0.032L545.74,387.648"/>
	<path id="TX_Orange" inkscape:label="Orange, TX" fill="#D0D0D0" stroke="#FFFFFF" stroke-width="0.9697" d="M577.435,380.38
		l-0.032,9.755l-5.031,7.013l0.074-1.147l-0.085-0.497l-0.161-0.408l-0.675-1.038l-0.562-0.246l-3.65-0.94l-6.078-3.956
		l-0.119-0.137l-0.917-3.176l-0.105-0.615l-0.158-4.079l9.423-0.251L577.435,380.38"/>
	<path id="TX_Travis" inkscape:label="Travis, TX" fill="#D0D0D0" stroke="#FFFFFF" stroke-width="0.9697" d="M385.195,371.377
		l3.514-9.92l4.04-0.121l1.713,1.214l2.068,2.984l0.771,3.708l1.609,1.36l1.379,0.457l1.001-0.035l2.95-1.036l4.06-1.959h0.882
		l2.769,0.877l6.159,3.399l-5.52,10.491l-5.119,5.206l-1.925,1.765l-2.628,2.224l-19.875-17.137L385.195,371.377"/>
	<path id="TX_Kent" inkscape:label="Kent, TX" fill="#D0D0D0" stroke="#FFFFFF" stroke-width="0.9697" d="M288.227,217.538
		l-1.112,22.027l-5.773-0.297l-16.114-1.167l1.148-21.625L288.227,217.538"/>
	<path id="TX_Kimble" inkscape:label="Kimble, TX" fill="#D0D0D0" stroke="#FFFFFF" stroke-width="0.9697" d="M326.58,355.279
		l-0.408,10.644l7.856,0.266l-0.302,10.75l-19.697-0.921l-15.797-0.65l0.937-21.165L326.58,355.279"/>
	<path id="TX_Sutton" inkscape:label="Sutton, TX" fill="#D0D0D0" stroke="#FFFFFF" stroke-width="0.9697" d="M299.169,354.201
		l-0.937,21.165l-25.451-1.08l-11.328-0.545l1.092-21.072L299.169,354.201"/>
	<path id="TX_Schleicher" inkscape:label="Schleicher, TX" fill="#D0D0D0" stroke="#FFFFFF" stroke-width="0.9697" d="
		M275.273,334.064l24.761,1.077l-0.865,19.061l-36.624-1.532l0.917-18.992L275.273,334.064"/>
	<path id="TX_Menard" inkscape:label="Menard, TX" fill="#D0D0D0" stroke="#FFFFFF" stroke-width="0.9697" d="M300.034,335.141
		l22.098,0.933l4.836,7.593l-0.388,11.612l-27.411-1.077L300.034,335.141"/>
	<path id="TX_Mason" inkscape:label="Mason, TX" fill="#D0D0D0" stroke="#FFFFFF" stroke-width="0.9697" d="M326.968,343.666
		l16.98,0.58l5.486,1.168l-0.636,21.334l-14.771-0.561l-7.856-0.266l0.408-10.644L326.968,343.666"/>
	<path id="TX_Llano" inkscape:label="Llano, TX" fill="#D0D0D0" stroke="#FFFFFF" stroke-width="0.9697" d="M349.435,345.414
		l22.455,0.634l2.874,4.521l0.193,13.183l0.552,4.378l-10.503-0.975l-16.206-0.407L349.435,345.414"/>
	<path id="TX_Burnet" inkscape:label="Burnet, TX" fill="#D0D0D0" stroke="#FFFFFF" stroke-width="0.9697" d="M395.132,340.843
		l3.461,6.563l-9.883,14.05l-3.514,9.92l-9.687-3.247l-0.552-4.378l-0.193-13.183l-2.874-4.521l0.404-5.451L395.132,340.843"/>
	<path id="TX_Williamson" inkscape:label="Williamson, TX" fill="#D0D0D0" stroke="#FFFFFF" stroke-width="0.9697" d="
		M398.592,347.406l7.501,1.665l1.286,0.316l13.312,6.156l6.774,14.983l-7.835,2.647l-1.521-0.87l-6.159-3.399l-2.769-0.877H408.3
		l-4.06,1.959l-2.95,1.036l-1.001,0.035l-1.379-0.457l-1.609-1.36l-0.771-3.708l-2.068-2.984l-1.713-1.214l-4.04,0.121
		L398.592,347.406"/>
	<path id="TX_Burleson" inkscape:label="Burleson, TX" fill="#D0D0D0" stroke="#FFFFFF" stroke-width="0.9697" d="M450.802,356.954
		l2.326,1.781l-0.246,0.321l-1.235,2.326v0.141l4.026,0.959l3.705,1.729l4.68,6.672l0.65,3.83l-0.196-0.156l-0.387-0.058l-6.601,2.4
		l-1.273,0.356l-6.44,1.586l-4.943-2.256l-3.984-4.61l-5.032-6.391L450.802,356.954"/>
	<path id="TX_San_Jacinto" inkscape:label="San Jacinto, TX" fill="#D0D0D0" stroke="#FFFFFF" stroke-width="0.9697" d="
		M506.891,350.423l5.544,1.734l2.981,3.106l11.017,10.558l1.394,2.89l-13.697,7.628l-8.472-7.981L506.891,350.423"/>
	<path id="TX_Walker" inkscape:label="Walker, TX" fill="#D0D0D0" stroke="#FFFFFF" stroke-width="0.9697" d="M502.201,340.439
		l4.69,9.983l-1.233,17.935l-2.93-0.191l-2.843,0.016l-4.68,0.02l-10.077-6.108l-1.428-11.791l10.605-3.389L502.201,340.439"/>
	<path id="TX_Grimes" inkscape:label="Grimes, TX" fill="#D0D0D0" stroke="#FFFFFF" stroke-width="0.9697" d="M470.464,352.364
		l13.237-2.062l1.428,11.791l1.163,19.416l-12.616,1.042l-2.663-5.33l3.051-4.54l-1.551-1.077l-0.32-0.564l-0.495-0.912
		l-2.027-6.802l0.369-5.225L470.464,352.364"/>
	<path id="TX_Brazos" inkscape:label="Brazos, TX" fill="#D0D0D0" stroke="#FFFFFF" stroke-width="0.9697" d="M470.464,352.364
		l-0.425,5.737l-0.369,5.225l2.027,6.802l0.495,0.912l0.32,0.564l1.551,1.077l-3.051,4.54l0.192-1.998l-1.219-1.284l-0.583-0.07
		l-0.297,0.227l-0.743,0.901l-2.372,0.81l-0.312-0.105l-0.492-0.353l-0.478-0.634l-0.65-3.83l-4.68-6.672l-3.705-1.729l-4.026-0.959
		v-0.141l1.235-2.326l0.246-0.321l4.805-2.431l1.182-2.064l0.861-1.998l0.973-1.848l1.167-1.822l0.545-0.708l0.708-0.615
		l1.287-0.886l1.768-1.167l0.917-0.439L470.464,352.364"/>
	<path id="TX_Madison" inkscape:label="Madison, TX" fill="#D0D0D0" stroke="#FFFFFF" stroke-width="0.9697" d="M467.341,344.759
		l2.999-1.042l3.901-2.591l4.554-2.332l9.144-0.125l6.368,8.243l-10.605,3.389l-13.237,2.062L467.341,344.759"/>
	<path id="TX_Leon" inkscape:label="Leon, TX" fill="#D0D0D0" stroke="#FFFFFF" stroke-width="0.9697" d="M488.941,317.949
		l0.442,0.741l0.794,1.781l1.922,5.502l-0.966,2.459l-0.179-0.035l-0.369,0.211l-0.972,1.092l-2.17,6.862l0.052,0.657l0.442,1.449
		l-9.144,0.125l-4.554,2.332l-3.901,2.591l-2.999,1.042l-3.322-19.396l3.568-2.827l19.31-10.354L488.941,317.949"/>
	<path id="TX_Robertson" inkscape:label="Robertson, TX" fill="#D0D0D0" stroke="#FFFFFF" stroke-width="0.9697" d="M452.02,332.193
		l11.998-6.83l3.322,19.396l-0.917,0.439l-1.768,1.167l-1.287,0.886l-0.708,0.615l-0.545,0.708l-1.167,1.822l-0.973,1.848
		l-0.861,1.998l-1.182,2.064l-4.805,2.431l-2.326-1.781l-2.083-5.24l-3.725-4.766l-2.526-7.376l-0.513-1.641L452.02,332.193"/>
	<path id="TX_Milam" inkscape:label="Milam, TX" fill="#D0D0D0" stroke="#FFFFFF" stroke-width="0.9697" d="M441.956,337.93
		l0.513,1.641l2.526,7.376l3.725,4.766l2.083,5.24l-14.951,8.631l-8.385,4.941l-6.774-14.983l2.54-6.888l8.245-4.776L441.956,337.93
		"/>
	<path id="TX_Bell" inkscape:label="Bell, TX" fill="#D0D0D0" stroke="#FFFFFF" stroke-width="0.9697" d="M416.646,326.809
		l6.019,2.122l8.812,14.948l-8.245,4.776l-2.54,6.888l-13.312-6.156l-1.286-0.316l-7.501-1.665l-3.461-6.563l0.232-1.73
		L416.646,326.809"/>
	<path id="TX_Coryell" inkscape:label="Coryell, TX" fill="#D0D0D0" stroke="#FFFFFF" stroke-width="0.9697" d="M408.844,313.148
		l7.802,13.661l-21.283,12.304l-11.334-20.196L402,308.736L408.844,313.148"/>
	<path id="TX_Lampasas" inkscape:label="Lampasas, TX" fill="#D0D0D0" stroke="#FFFFFF" stroke-width="0.9697" d="M380.059,321.231
		l3.97-2.314l11.334,20.196l-0.232,1.73l-22.837-0.246l-5.03-10.293L380.059,321.231"/>
	<path id="TX_Mills" inkscape:label="Mills, TX" fill="#D0D0D0" stroke="#FFFFFF" stroke-width="0.9697" d="M372.116,307.499
		l7.942,13.732l-12.794,9.073l-0.109-0.603l-1.641-3.583l-5.667-4.974l-1.375,1.306l-8.344-3.141l-1.116-1.465l0.16-0.899
		l2.224-1.398l7.062-4.727l0.97-3.865l3.931-0.529L372.116,307.499"/>
	<path id="TX_San_Saba" inkscape:label="San Saba, TX" fill="#D0D0D0" stroke="#FFFFFF" stroke-width="0.9697" d="M349.172,316.945
		l-0.16,0.899l1.116,1.465l8.344,3.141l1.375-1.306l5.667,4.974l1.641,3.583l0.109,0.603l5.03,10.293l-0.404,5.451l-22.455-0.634
		l-5.486-1.168l0.933-26.261L349.172,316.945"/>
	<path id="TX_McCulloch" inkscape:label="McCulloch, TX" fill="#D0D0D0" stroke="#FFFFFF" stroke-width="0.9697" d="
		M340.065,317.508l4.817,0.476l-0.933,26.261l-16.98-0.58l-4.836-7.593l0.83-20.434l2.79,0.544l3.9,0.603l8.295,0.208
		L340.065,317.508"/>
	<path id="TX_Concho" inkscape:label="Concho, TX" fill="#D0D0D0" stroke="#FFFFFF" stroke-width="0.9697" d="M317.987,311.153
		l4.975,4.487l-0.83,20.434l-22.098-0.933l1.253-24.851L317.987,311.153"/>
	<path id="TX_Tom_Green" inkscape:label="Tom Green, TX" fill="#D0D0D0" stroke="#FFFFFF" stroke-width="0.9697" d="
		M270.945,302.998l25.243,1.356l5.099,5.936l-1.253,24.851l-24.761-1.077l0.916-22.079l-12.777-0.849l-11.877-0.69l0.086-1.393
		l17.278,0.618l0.551-7.216L270.945,302.998"/>
	<path id="TX_Coke" inkscape:label="Coke, TX" fill="#D0D0D0" stroke="#FFFFFF" stroke-width="0.9697" d="M272.113,283.266
		l6.653,0.408l18.339,1.001l-0.917,19.679l-25.243-1.356L272.113,283.266"/>
	<path id="TX_Runnels" inkscape:label="Runnels, TX" fill="#D0D0D0" stroke="#FFFFFF" stroke-width="0.9697" d="M300.653,284.821
		l18.657,0.81l-1.323,25.521l-16.699-0.862l-5.099-5.936l0.917-19.679L300.653,284.821"/>
	<path id="TX_Coleman" inkscape:label="Coleman, TX" fill="#D0D0D0" stroke="#FFFFFF" stroke-width="0.9697" d="M322.839,285.806
		l18.568,0.764l-1.342,30.938l-2.119-0.515l-8.295-0.208l-3.9-0.603l-2.79-0.544l-4.975-4.487l1.323-25.521L322.839,285.806"/>
	<path id="TX_Brown" inkscape:label="Brown, TX" fill="#D0D0D0" stroke="#FFFFFF" stroke-width="0.9697" d="M344.704,286.673
		l8.283,0.337l10.372,19.415l-3.931,0.529l-0.97,3.865l-7.062,4.727l-2.224,1.398l-4.29,1.04l-4.817-0.476l1.342-30.938
		L344.704,286.673"/>
	<path id="TX_Comanche" inkscape:label="Comanche, TX" fill="#D0D0D0" stroke="#FFFFFF" stroke-width="0.9697" d="M369.15,278.186
		l9.128,16.445l3.301-1.883l1.762,3.209l2.122,3.882l-13.346,7.66l-8.757-1.074l-10.372-19.415L369.15,278.186"/>
	<path id="TX_Hamilton" inkscape:label="Hamilton, TX" fill="#D0D0D0" stroke="#FFFFFF" stroke-width="0.9697" d="M383.341,295.957
		l8.791-4.891L402,308.736l-17.971,10.182l-3.97,2.314l-7.942-13.732l13.346-7.66L383.341,295.957"/>
	<path id="TX_Bosque" inkscape:label="Bosque, TX" fill="#D0D0D0" stroke="#FFFFFF" stroke-width="0.9697" d="M408.955,281.982
		l5.894,1.62l-0.478,3.125l-0.302,2.628l0.232,2.138l6.777,12.215l0.513,0.791l1.426,0.885l-14.173,7.765L402,308.736l-9.869-17.669
		l6.054-3.387L408.955,281.982"/>
	<path id="TX_Falls" inkscape:label="Falls, TX" fill="#D0D0D0" stroke="#FFFFFF" stroke-width="0.9697" d="M443.333,316.888
		l8.688,15.305l-10.064,5.737l-10.479,5.949l-8.812-14.948L443.333,316.888"/>
	<path id="TX_McLennan" inkscape:label="McLennan, TX" fill="#D0D0D0" stroke="#FFFFFF" stroke-width="0.9697" d="M437.792,307.412
		l5.541,9.476l-20.668,12.042l-6.019-2.122l-7.802-13.661l14.173-7.765l10.361-5.824L437.792,307.412"/>
	<path id="TX_Hill" inkscape:label="Hill, TX" fill="#D0D0D0" stroke="#FFFFFF" stroke-width="0.9697" d="M414.849,283.602
		l16.657-4.429l8.018,9.778l7.448,13.183l-9.181,5.279l-4.413-7.853l-10.361,5.824l-1.426-0.885l-0.513-0.791l-6.777-12.215
		l-0.232-2.138l0.302-2.628L414.849,283.602"/>
	<path id="TX_Limestone" inkscape:label="Limestone, TX" fill="#D0D0D0" stroke="#FFFFFF" stroke-width="0.9697" d="
		M446.972,302.133l9.512,1.007l11.103,19.396l-3.568,2.827l-11.998,6.83l-8.688-15.305l-5.541-9.476L446.972,302.133"/>
	<path id="TX_Freestone" inkscape:label="Freestone, TX" fill="#D0D0D0" stroke="#FFFFFF" stroke-width="0.9697" d="M475.509,292.57
		l-0.385,2.361l3.791,7.041l2.736,2.758l1.45,0.532l3.422,4.037l0.372,2.883l-19.31,10.354l-11.103-19.396l18.938-10.908
		L475.509,292.57"/>
	<path id="TX_Navarro" inkscape:label="Navarro, TX" fill="#D0D0D0" stroke="#FFFFFF" stroke-width="0.9697" d="M439.524,288.951
		l21.917-12.745l4.011,1.852l2.331,2.122l1.515,1.816l3.619,4.379l1.978,2.944l0.527,2.913l-18.938,10.908l-9.512-1.007
		L439.524,288.951"/>
	<path id="TX_Somervell" inkscape:label="Somervell, TX" fill="#D0D0D0" stroke="#FFFFFF" stroke-width="0.9697" d="
		M394.903,280.218l14.138-4.06l-0.086,5.824l-10.771,5.697L394.903,280.218"/>
	<path id="TX_Ellis" inkscape:label="Ellis, TX" fill="#D0D0D0" stroke="#FFFFFF" stroke-width="0.9697" d="M431.649,264.785
		l2.068,0.076l21.569,0.356l3.262,9.457l2.894,1.532l-21.917,12.745l-8.018-9.778L431.649,264.785"/>
	<path id="TX_Johnson" inkscape:label="Johnson, TX" fill="#D0D0D0" stroke="#FFFFFF" stroke-width="0.9697" d="M409.168,264.171
		l2.818,0.056l19.663,0.559l-0.142,14.388l-16.657,4.429l-5.894-1.62l0.086-5.824L409.168,264.171"/>
	<path id="TX_Hood" inkscape:label="Hood, TX" fill="#D0D0D0" stroke="#FFFFFF" stroke-width="0.9697" d="M390.104,263.622
		l19.064,0.548l-0.126,11.988l-14.138,4.06l-4.926-14.191L390.104,263.622"/>
	<path id="TX_Erath" inkscape:label="Erath, TX" fill="#D0D0D0" stroke="#FFFFFF" stroke-width="0.9697" d="M389.977,266.028
		l4.926,14.191l3.282,7.46l-6.054,3.387l-8.791,4.891l-1.762-3.209l-3.301,1.883l-9.128-16.445l3.566-12.655L389.977,266.028"/>
	<path id="TX_Eastland" inkscape:label="Eastland, TX" fill="#D0D0D0" stroke="#FFFFFF" stroke-width="0.9697" d="M346.386,264.664
		l22.043,0.653l4.286,0.213l-3.566,12.655l-16.162,8.824l-8.283-0.337l0.901-22.031L346.386,264.664"/>
	<path id="TX_Callahan" inkscape:label="Callahan, TX" fill="#D0D0D0" stroke="#FFFFFF" stroke-width="0.9697" d="M324.497,263.905
		l21.109,0.736l-0.901,22.031l-3.297-0.102l-18.568-0.764l0.918-21.936L324.497,263.905"/>
	<path id="TX_Taylor" inkscape:label="Taylor, TX" fill="#D0D0D0" stroke="#FFFFFF" stroke-width="0.9697" d="M323.757,263.87
		l-0.918,21.936l-3.529-0.175l-18.657-0.81l1.199-22.256L323.757,263.87"/>
	<path id="TX_Nolan" inkscape:label="Nolan, TX" fill="#D0D0D0" stroke="#FFFFFF" stroke-width="0.9697" d="M301.852,262.565
		l-1.199,22.256l-3.547-0.146l-18.339-1.001l1.288-22.237L301.852,262.565"/>
	<path id="TX_Fisher" inkscape:label="Fisher, TX" fill="#D0D0D0" stroke="#FFFFFF" stroke-width="0.9697" d="M287.115,239.566
		l15.797,0.882l-1.061,22.117l-21.798-1.127l1.289-22.168L287.115,239.566"/>
	<path id="TX_Jones" inkscape:label="Jones, TX" fill="#D0D0D0" stroke="#FFFFFF" stroke-width="0.9697" d="M302.913,240.447
		l6.546,0.267l15.884,0.794l-0.847,22.397l-0.74-0.035l-21.905-1.306L302.913,240.447"/>
	<path id="TX_Shackelford" inkscape:label="Shackelford, TX" fill="#D0D0D0" stroke="#FFFFFF" stroke-width="0.9697" d="
		M325.343,241.508l5.948,0.216l15.818,0.544l-0.724,22.395l-0.78-0.023l-21.109-0.736L325.343,241.508"/>
	<path id="TX_Stephens" inkscape:label="Stephens, TX" fill="#D0D0D0" stroke="#FFFFFF" stroke-width="0.9697" d="M353.234,242.48
		l15.828,0.58l-0.632,22.258l-22.043-0.653l0.724-22.395L353.234,242.48"/>
	<path id="TX_Palo_Pinto" inkscape:label="Palo Pinto, TX" fill="#D0D0D0" stroke="#FFFFFF" stroke-width="0.9697" d="
		M375.418,240.522l15.621,0.599l-0.935,22.502l-0.126,2.405l-17.262-0.497l-4.286-0.213l0.632-22.258L375.418,240.522"/>
	<path id="TX_Parker" inkscape:label="Parker, TX" fill="#D0D0D0" stroke="#FFFFFF" stroke-width="0.9697" d="M391.038,241.12
		l5.667,0.229l15.919,0.634l-0.64,22.244l-2.818-0.056l-19.064-0.548L391.038,241.12"/>
	<path id="TX_Tarrant" inkscape:label="Tarrant, TX" fill="#D0D0D0" stroke="#FFFFFF" stroke-width="0.9697" d="M412.625,241.983
		l6.14,0.302l15.444,0.473l-0.492,22.103l-2.068-0.076l-19.663-0.559L412.625,241.983"/>
	<path id="TX_Dallas" inkscape:label="Dallas, TX" fill="#D0D0D0" stroke="#FFFFFF" stroke-width="0.9697" d="M434.209,242.758
		l7.908-0.067l13.84,0.369l-0.143,8.545l-0.528,13.613l-21.569-0.356L434.209,242.758"/>
	<path id="TX_Rockwall" inkscape:label="Rockwall, TX" fill="#D0D0D0" stroke="#FFFFFF" stroke-width="0.9697" d="M465.225,243.13
		l-0.024,7.092l-9.387,1.383l0.143-8.545L465.225,243.13"/>
	<path id="TX_Kaufman" inkscape:label="Kaufman, TX" fill="#D0D0D0" stroke="#FFFFFF" stroke-width="0.9697" d="M465.201,250.222
		l9.324,0.181l0.016,24.373l-15.993-0.102l-3.262-9.457l0.528-13.613L465.201,250.222"/>
	<path id="TX_Rains" inkscape:label="Rains, TX" fill="#D0D0D0" stroke="#FFFFFF" stroke-width="0.9697" d="M483.558,243.255
		l8.331,0.952l1.303,12.164l-12.651-5.897L483.558,243.255"/>
	<path id="TX_Van_Zandt" inkscape:label="Van Zandt, TX" fill="#D0D0D0" stroke="#FFFFFF" stroke-width="0.9697" d="
		M480.541,250.473l12.651,5.897l1.732,1.679l0.074,10.495l5.221,5.562l0.956,0.728l-26.635-0.058l-0.016-24.373L480.541,250.473"/>
	<path id="TX_Henderson" inkscape:label="Henderson, TX" fill="#D0D0D0" stroke="#FFFFFF" stroke-width="0.9697" d="
		M474.541,274.776l26.635,0.058l-0.391,11.122l1.356,2.574l-26.632,4.041l-0.088-0.337l-0.527-2.913l-1.978-2.944l-3.619-4.379
		l-1.515-1.816l-2.331-2.122l-4.011-1.852l-2.894-1.532L474.541,274.776"/>
	<path id="TX_Anderson" inkscape:label="Anderson, TX" fill="#D0D0D0" stroke="#FFFFFF" stroke-width="0.9697" d="M502.141,288.529
		l-0.756,6.869l0.689,3.646l1.59,5.722l2.995,2.733l0.583,0.125l0.977,1.183l0.598,1.254l0.614,1.957l0.127,0.497l-0.6,0.847
		l-9.43,1.468l-6.811,1.198l-3.777,1.922l-2.045-5.768l-0.372-2.883l-3.422-4.037l-1.45-0.532l-2.736-2.758l-3.791-7.041
		l0.385-2.361L502.141,288.529"/>
	<path id="TX_Houston" inkscape:label="Houston, TX" fill="#D0D0D0" stroke="#FFFFFF" stroke-width="0.9697" d="M488.941,317.949
		l3.777-1.922l6.811-1.198l9.43-1.468l2.753,1.061l4.27,4.374l4.658,2.877l1.979,1.962l-20.417,16.803l-7.895,6.474l-6.368-8.243
		l-0.442-1.449l-0.052-0.657l2.17-6.862l0.972-1.092l0.369-0.211l0.179,0.035l0.966-2.459l-1.922-5.502l-0.794-1.781
		L488.941,317.949"/>
	<path id="TX_Trinity" inkscape:label="Trinity, TX" fill="#D0D0D0" stroke="#FFFFFF" stroke-width="0.9697" d="M527.721,335.72
		l-15.286,16.436l-5.544-1.734l-4.69-9.983l20.417-16.803L527.721,335.72"/>
	<path id="TX_Polk" inkscape:label="Polk, TX" fill="#D0D0D0" stroke="#FFFFFF" stroke-width="0.9697" d="M539.915,339.977
		l-4.13,2.452l5.243,24.414l-8.123,1.976l-5.078-0.109l-1.394-2.89l-11.017-10.558l-2.981-3.106l15.286-16.436l4.902,2.052
		l3.764,0.792L539.915,339.977"/>
	<path id="TX_Newton" inkscape:label="Newton, TX" fill="#D0D0D0" stroke="#FFFFFF" stroke-width="0.9697" d="M581.341,333.235
		l2.01-0.528l0.162,16.009l-0.78,3.387l-6.194,11.667l-0.495,1.765v0.02l0.126,0.133l1.22,1.469l0.614,3.148l-0.018,0.262
		l-0.175,0.439l-1.666,1.398l-0.046,0.047l1.336,7.93l-8.078,0.278l0.654-21.441l0.104-14.159l-2.192-10.59L581.341,333.235"/>
	<path id="TX_Jasper" inkscape:label="Jasper, TX" fill="#D0D0D0" stroke="#FFFFFF" stroke-width="0.9697" d="M562.419,335.777
		l5.505-1.309l2.192,10.59l-0.104,14.159l-0.654,21.441l-9.423,0.251l0.453-0.639l0.798-4.922l-0.443-0.462l-0.14-0.047
		l-0.794-1.804l-0.123-0.704l0.478-1.959l0.383-1.167l1.097-2.679l-0.654-1.061l-0.453-1.485l0.116-0.388l0.977-1.875l-0.214-2.025
		l-3.085-6.124l-0.391-0.333l-0.977-0.141l-0.264-0.055l-0.102-0.121l-2.912-8.494l0.298-1.692l-0.158-0.404l-0.513-0.533
		l-2.013-0.776l-2.56,0.072l-4.305,0.121l14.123-3.584L562.419,335.777"/>
	<path id="TX_Tyler" inkscape:label="Tyler, TX" fill="#D0D0D0" stroke="#FFFFFF" stroke-width="0.9697" d="M544.434,341.212
		l4.305-0.121l2.56-0.072l2.013,0.776l0.513,0.533l0.158,0.404l-0.298,1.692l2.912,8.494l0.102,0.121l0.264,0.055l0.977,0.141
		l0.391,0.333l3.085,6.124l0.214,2.025l-0.977,1.875l-0.116,0.388l0.453,1.485l0.654,1.061l-20.614,0.318l-5.243-24.414l4.13-2.452
		L544.434,341.212"/>
	<path id="TX_Angelina" inkscape:label="Angelina, TX" fill="#D0D0D0" stroke="#FFFFFF" stroke-width="0.9697" d="M526.504,316.521
		l1.832,2.027l7.978,2.048l1.926-0.316l1.693,0.708l2.278,1.195l0.548,0.588l7.162,8.682l8.637,6.175l-14.123,3.584l-4.52-1.235
		l-3.527-1.413l-3.764-0.792l-4.902-2.052l-5.104-12.084l-1.979-1.962L526.504,316.521"/>
	<path id="TX_Sabine" inkscape:label="Sabine, TX" fill="#D0D0D0" stroke="#FFFFFF" stroke-width="0.9697" d="M570.714,312.737
		l4.642,4.877l3.956,5.736l1.289,5.616l0.295,1.656l0.446,2.612l-13.418,1.233l-5.505,1.309l-0.369-1.184l-0.158-7.041l0.035-5.701
		l1.834-1.975l0.721-0.92l-0.173-5.204L570.714,312.737"/>
	<path id="TX_San_Augustine" inkscape:label="San Augustine, TX" fill="#D0D0D0" stroke="#FFFFFF" stroke-width="0.9697" d="
		M564.308,313.753l0.173,5.204l-0.721,0.92l-1.834,1.975l-0.035,5.701l0.158,7.041l0.369,1.184l-3.861,1.852l-8.637-6.175
		l0.232-6.036l0.316-11.527l-3.001-3.352l-1.021-0.709l13.255,1.414L564.308,313.753"/>
	<path id="TX_Shelby" inkscape:label="Shelby, TX" fill="#D0D0D0" stroke="#FFFFFF" stroke-width="0.9697" d="M541.366,293.697
		l21.176-0.685l6.019,6.725l2.153,13l-6.405,1.016l-4.605-2.51l-13.255-1.414l-2.456-9.618L541.366,293.697"/>
	<path id="TX_Nacogdoches" inkscape:label="Nacogdoches, TX" fill="#D0D0D0" stroke="#FFFFFF" stroke-width="0.9697" d="
		M523.258,300.442l20.734-0.231l2.456,9.618l1.021,0.709l3.001,3.352l-0.316,11.527l-0.232,6.036l-7.162-8.682l-0.548-0.588
		l-2.278-1.195l-1.693-0.708l-1.926,0.316l-7.978-2.048l-1.832-2.027l-2.335-2.299l-0.207-0.332l-1.058-2.874l-0.781-2.915
		l-0.461-4.524L523.258,300.442"/>
	<path id="TX_Cherokee" inkscape:label="Cherokee, TX" fill="#D0D0D0" stroke="#FFFFFF" stroke-width="0.9697" d="M500.785,285.956
		l20.248-0.29l2.225,14.775l-1.596,3.136l0.461,4.524l0.781,2.915l1.058,2.874l0.207,0.332l2.335,2.299l-5.864,5.152l-4.658-2.877
		l-4.27-4.374l-2.753-1.061l0.6-0.847l-0.127-0.497l-0.614-1.957l-0.598-1.254l-0.977-1.183l-0.583-0.125l-2.995-2.733l-1.59-5.722
		l-0.689-3.646l0.756-6.869L500.785,285.956"/>
	<path id="TX_Panola" inkscape:label="Panola, TX" fill="#D0D0D0" stroke="#FFFFFF" stroke-width="0.9697" d="M560.953,272.167
		l0.215,9.936l1.374,10.91l-21.176,0.685l-3.777,0.09l-0.144-5.4l0.825-6.249l0.937-2.334l1.357-2.396l1.279-3.09l0.03-1.922
		l1.217,1.077l4.606,1.977l0.354,0.067L560.953,272.167"/>
	<path id="TX_Rusk" inkscape:label="Rusk, TX" fill="#D0D0D0" stroke="#FFFFFF" stroke-width="0.9697" d="M538.149,272.425
		l3.725-0.03l-0.03,1.922l-1.279,3.09l-1.357,2.396l-0.937,2.334l-0.825,6.249l0.144,5.4l3.777-0.09l2.626,6.513l-20.734,0.231
		l-2.225-14.775l-0.161-11.716l7.503-0.162l7.043-0.07L538.149,272.425"/>
	<path id="TX_Gregg" inkscape:label="Gregg, TX" fill="#D0D0D0" stroke="#FFFFFF" stroke-width="0.9697" d="M520.71,265.441
		l0.69-0.072l6.392-2.737l2.521-3.508l0.318-0.141l1.993,0.227l0.125,0.246l0.156,10.1l0.057,1.516l2.526,1.217l2.237,0.295
		l0.424-0.158l-2.731,1.293l-7.043,0.07l-7.503,0.162L520.71,265.441"/>
	<path id="TX_Smith" inkscape:label="Smith, TX" fill="#D0D0D0" stroke="#FFFFFF" stroke-width="0.9697" d="M494.924,258.05
		l3.833,3.435l1.214,0.532l12.193,3.055l0.306-0.035l0.812-0.395l0.386-0.787l7.041,1.586l0.162,8.51l0.161,11.716l-20.248,0.29
		l0.391-11.122l-0.956-0.728l-5.221-5.562L494.924,258.05"/>
	<path id="TX_Wood" inkscape:label="Wood, TX" fill="#D0D0D0" stroke="#FFFFFF" stroke-width="0.9697" d="M513.514,241.387
		l0.049,5.627l0.105,16.84l-0.386,0.787l-0.812,0.395l-0.306,0.035l-12.193-3.055l-1.214-0.532l-3.833-3.435l-1.732-1.679
		l-1.303-12.164l15.037-0.191L513.514,241.387"/>
	<path id="TX_Harrison" inkscape:label="Harrison, TX" fill="#D0D0D0" stroke="#FFFFFF" stroke-width="0.9697" d="M532.643,252.344
		l8.329,4.903l5.192-0.047l1.396-0.708l5.031-0.65l2.976-0.248l2.157,0.264l2.896,1.077l0.333,15.232l-12.901,3.349l-0.354-0.067
		l-4.606-1.977l-1.217-1.077l-3.725,0.03l-0.424,0.158l-2.237-0.295l-2.526-1.217l-0.057-1.516l-0.156-10.1L532.643,252.344"/>
	<path id="TX_Upshur" inkscape:label="Upshur, TX" fill="#D0D0D0" stroke="#FFFFFF" stroke-width="0.9697" d="M513.563,247.014
		l18.249-0.32l0.619,1.288l0.212,4.362l0.105,7.111l-0.125-0.246l-1.993-0.227l-0.318,0.141l-2.521,3.508l-6.392,2.737l-0.69,0.072
		l-7.041-1.586L513.563,247.014"/>
	<path id="TX_Camp" inkscape:label="Camp, TX" fill="#D0D0D0" stroke="#FFFFFF" stroke-width="0.9697" d="M513.514,241.387
		l1.093-1.081l3.598-1.962l0.937-0.181l0.761-0.01l2.485,0.039l0.567,0.191l2.24,2.774l2.366,1.62l4.251,3.917l-18.249,0.32
		L513.514,241.387"/>
	<path id="TX_Marion" inkscape:label="Marion, TX" fill="#D0D0D0" stroke="#FFFFFF" stroke-width="0.9697" d="M534.62,247.935
		l25.824-0.532l0.176,9.532l-2.896-1.077l-2.157-0.264l-2.976,0.248l-5.031,0.65l-1.396,0.708l-5.192,0.047l-8.329-4.903
		l-0.212-4.362L534.62,247.935"/>
	<path id="TX_Cass" inkscape:label="Cass, TX" fill="#D0D0D0" stroke="#FFFFFF" stroke-width="0.9697" d="M534.426,228.195
		l0.105,0.485l0.352,0.283l1.414,0.277l15.833,0.09l0.088-0.144l-0.144-0.458l-0.12-1.058l0.672-1.198l1.32-0.458l1.04-0.233
		l3.795,0.606l0.882,0.455l0.358,0.794l0.264,12.763l0.158,7.006l-25.824,0.532L534.426,228.195"/>
	<path id="TX_Morris" inkscape:label="Morris, TX" fill="#D0D0D0" stroke="#FFFFFF" stroke-width="0.9697" d="M527.768,223.467
		l2.636,1.732l4.022,2.995l0.193,19.74l-2.188,0.047l-0.619-1.288l-4.251-3.917L527.768,223.467"/>
	<path id="TX_Titus" inkscape:label="Titus, TX" fill="#D0D0D0" stroke="#FFFFFF" stroke-width="0.9697" d="M527.768,223.467
		l-0.207,19.31l-2.366-1.62l-2.24-2.774l-0.567-0.191l-2.485-0.039l-0.761,0.01l-0.937,0.181l-3.598,1.962l-0.146-17.998
		L527.768,223.467"/>
	<path id="TX_Franklin" inkscape:label="Franklin, TX" fill="#D0D0D0" stroke="#FFFFFF" stroke-width="0.9697" d="M514.462,222.309
		l0.146,17.998l-1.093,1.081l-6.588,2.628l-0.141-21.006l0.086-0.066L514.462,222.309"/>
	<path id="TX_Hopkins" inkscape:label="Hopkins, TX" fill="#D0D0D0" stroke="#FFFFFF" stroke-width="0.9697" d="M483.576,231.096
		l3.461-2.052l1.887-2.205l5.225-2.386l1.009-0.423l2.153-0.07l9.476-0.951l0.141,21.006l-15.037,0.191l-8.331-0.952
		L483.576,231.096"/>
	<path id="TX_Delta" inkscape:label="Delta, TX" fill="#D0D0D0" stroke="#FFFFFF" stroke-width="0.9697" d="M483.736,218.812
		l3.266-1.52l0.776-0.211l5.822,0.422l0.814,0.126l4.606,1.444l0.813,0.353l4.253,2.894l2.698,0.494l0.086,0.13l-0.086,0.066
		l-9.476,0.951l-2.153,0.07l-1.009,0.423l-5.225,2.386l-1.887,2.205l-3.461,2.052l0.109-9.653L483.736,218.812"/>
	<path id="TX_Hunt" inkscape:label="Hunt, TX" fill="#D0D0D0" stroke="#FFFFFF" stroke-width="0.9697" d="M483.685,221.444
		l-0.109,9.653l-0.018,12.159l-3.018,7.218l-6.016-0.07l-9.324-0.181l0.024-7.092l0.137-18.778L483.685,221.444"/>
	<path id="TX_Collin" inkscape:label="Collin, TX" fill="#D0D0D0" stroke="#FFFFFF" stroke-width="0.9697" d="M442.75,221.51
		l18.872,0.51l3.74,2.333l-0.137,18.778l-9.269-0.07l-13.84-0.369L442.75,221.51"/>
	<path id="TX_Denton" inkscape:label="Denton, TX" fill="#D0D0D0" stroke="#FFFFFF" stroke-width="0.9697" d="M419.737,219.975
		l18.428,0.936l4.585,0.599l-0.633,21.181l-7.908,0.067l-15.444-0.473L419.737,219.975"/>
	<path id="TX_Wise" inkscape:label="Wise, TX" fill="#D0D0D0" stroke="#FFFFFF" stroke-width="0.9697" d="M397.301,219.411
		l18.075,0.332l4.36,0.232l-0.972,22.311l-6.14-0.302l-15.919-0.634L397.301,219.411"/>
	<path id="TX_Jack" inkscape:label="Jack, TX" fill="#D0D0D0" stroke="#FFFFFF" stroke-width="0.9697" d="M376.233,217.257
		l18.547,0.423l2.521,1.73l-0.595,21.938l-5.667-0.229l-15.621-0.599l0.761-19.678L376.233,217.257"/>
	<path id="TX_Young" inkscape:label="Young, TX" fill="#D0D0D0" stroke="#FFFFFF" stroke-width="0.9697" d="M353.798,220.134
		l22.381,0.709l-0.761,19.678l-6.356,2.538l-15.828-0.58L353.798,220.134"/>
	<path id="TX_Throckmorton" inkscape:label="Throckmorton, TX" fill="#D0D0D0" stroke="#FFFFFF" stroke-width="0.9697" d="
		M332.051,219.324l21.747,0.81l-0.564,22.346l-6.124-0.211l-15.818-0.544L332.051,219.324"/>
	<path id="TX_Haskell" inkscape:label="Haskell, TX" fill="#D0D0D0" stroke="#FFFFFF" stroke-width="0.9697" d="M310.306,218.564
		l21.745,0.761l-0.759,22.4l-5.948-0.216l-15.884-0.794L310.306,218.564"/>
	<path id="TX_Stonewall" inkscape:label="Stonewall, TX" fill="#D0D0D0" stroke="#FFFFFF" stroke-width="0.9697" d="
		M288.227,217.538l22.079,1.025l-0.847,22.151l-6.546-0.267l-15.797-0.882L288.227,217.538"/>
	<path id="TX_Dickens" inkscape:label="Dickens, TX" fill="#D0D0D0" stroke="#FFFFFF" stroke-width="0.9697" d="M267.453,194.367
		l21.781,0.987l-1.007,22.185l-21.851-1.062L267.453,194.367"/>
	<path id="TX_Motley" inkscape:label="Motley, TX" fill="#D0D0D0" stroke="#FFFFFF" stroke-width="0.9697" d="M268.721,170.08
		l3.955,0.191l17.775,0.824l-1.217,24.258l-21.781-0.987L268.721,170.08"/>
	<path id="TX_Hall" inkscape:label="Hall, TX" fill="#D0D0D0" stroke="#FFFFFF" stroke-width="0.9697" d="M290.523,149.039
		l5.153,0.262l-1.112,22.012l-4.112-0.218l-17.775-0.824l1.203-22.079L290.523,149.039"/>
	<path id="TX_Donley" inkscape:label="Donley, TX" fill="#D0D0D0" stroke="#FFFFFF" stroke-width="0.9697" d="M291.65,126.942
		l-1.127,22.098l-16.644-0.847l-6.003-0.319l1.359-22.005L291.65,126.942"/>
	<path id="TX_Gray" inkscape:label="Gray, TX" fill="#D0D0D0" stroke="#FFFFFF" stroke-width="0.9697" d="M270.432,103.681
		l22.224,1.112l-1.006,22.149l-22.416-1.073L270.432,103.681"/>
	<path id="TX_Roberts" inkscape:label="Roberts, TX" fill="#D0D0D0" stroke="#FFFFFF" stroke-width="0.9697" d="M271.635,81.527
		v-0.121l21.832,1.163l0.267,0.016l-1.078,22.208l-22.224-1.112l0.021-0.318L271.635,81.527"/>
	<path id="TX_Ochiltree" inkscape:label="Ochiltree, TX" fill="#D0D0D0" stroke="#FFFFFF" stroke-width="0.9697" d="M278.132,59.237
		l16.432,0.826l-1.097,22.505l-21.832-1.163l1.218-22.432L278.132,59.237"/>
	<path id="TX_Lipscomb" inkscape:label="Lipscomb, TX" fill="#D0D0D0" stroke="#FFFFFF" stroke-width="0.9697" d="M294.564,60.063
		l21.852,0.975l-0.831,22.576l-21.851-1.029l-0.267-0.016L294.564,60.063"/>
	<path id="TX_Hemphill" inkscape:label="Hemphill, TX" fill="#D0D0D0" stroke="#FFFFFF" stroke-width="0.9697" d="M315.585,83.613
		l-0.372,8.875l-0.543,13.311l-22.014-1.006l1.078-22.208L315.585,83.613"/>
	<path id="TX_Wheeler" inkscape:label="Wheeler, TX" fill="#D0D0D0" stroke="#FFFFFF" stroke-width="0.9697" d="M292.656,104.793
		l22.014,1.006l-0.938,22.168l-22.082-1.026L292.656,104.793"/>
	<path id="TX_Collingsworth" inkscape:label="Collingsworth, TX" fill="#D0D0D0" stroke="#FFFFFF" stroke-width="0.9697" d="
		M291.65,126.942l22.082,1.026l-0.335,7.729l-0.599,14.419l-17.121-0.815l-5.153-0.262L291.65,126.942"/>
	<path id="TX_Childress" inkscape:label="Childress, TX" fill="#D0D0D0" stroke="#FFFFFF" stroke-width="0.9697" d="
		M295.676,149.301l17.121,0.815l-0.281,9.39l-0.55,12.673l-17.402-0.866L295.676,149.301"/>
	<path id="TX_Cottle" inkscape:label="Cottle, TX" fill="#D0D0D0" stroke="#FFFFFF" stroke-width="0.9697" d="M290.451,171.095
		l4.112,0.218l17.402,0.866l-0.176,4.433l-0.462-0.903l-1.163,0.109l-0.407,0.442l-0.917,19.957l-19.607-0.863L290.451,171.095"/>
	<path id="TX_King" inkscape:label="King, TX" fill="#D0D0D0" stroke="#FFFFFF" stroke-width="0.9697" d="M289.234,195.354
		l19.607,0.863l2.175,0.109l-0.71,22.238l-22.079-1.025L289.234,195.354"/>
	<path id="TX_Knox" inkscape:label="Knox, TX" fill="#D0D0D0" stroke="#FFFFFF" stroke-width="0.9697" d="M332.581,202.36
		l-0.53,16.965l-21.745-0.761l0.71-22.238l6.704,0.283l5.632,1.092l6.405,1.413l2.119,1.5l0.601,1.093L332.581,202.36"/>
	<path id="TX_Foard" inkscape:label="Foard, TX" fill="#D0D0D0" stroke="#FFFFFF" stroke-width="0.9697" d="M311.79,176.612
		l7.554,5.839l10.73,3.462l2.489-0.411l0.475-0.494l0.162-0.494l-0.478,12.747l-0.141,5.098l-0.105-0.653l-0.601-1.093l-2.119-1.5
		l-6.405-1.413l-5.632-1.092l-6.704-0.283l-2.175-0.109l0.917-19.957l0.407-0.442l1.163-0.109L311.79,176.612"/>
	<path id="TX_Hardeman" inkscape:label="Hardeman, TX" fill="#D0D0D0" stroke="#FFFFFF" stroke-width="0.9697" d="M318.566,162.523
		l2.154,2.791l1.04,1.235l2.895,2.752l1.272,0.3h0.353l1.604-0.016l1.611-2.032l0.227-0.086l0.458,0.067l1.978,0.232l0.634,0.265
		l1.026,0.599l-0.618,15.884l-0.162,0.494l-0.475,0.494l-2.489,0.411l-10.73-3.462l-7.554-5.839l0.176-4.433l0.55-12.673
		L318.566,162.523"/>
	<path id="TX_Archer" inkscape:label="Archer, TX" fill="#D0D0D0" stroke="#FFFFFF" stroke-width="0.9697" d="M354.523,198.001
		l22.092,0.529l-0.383,18.727l-0.054,3.587l-22.381-0.709L354.523,198.001"/>
	<path id="TX_Baylor" inkscape:label="Baylor, TX" fill="#D0D0D0" stroke="#FFFFFF" stroke-width="0.9697" d="M354.523,198.001
		l-0.726,22.133l-21.747-0.81l0.53-16.965l0.141-5.098L354.523,198.001"/>
	<path id="TX_Wilbarger" inkscape:label="Wilbarger, TX" fill="#D0D0D0" stroke="#FFFFFF" stroke-width="0.9697" d="
		M344.618,172.141l-0.051,1.166l-0.035,1.096l0.72,3.916v0.016l0.02,0.025l0.528,0.156l0.845,0.262l1.557,0.353l0.774-0.035
		l1.676-0.032l3.83,0.302h0.054l0.583,0.293l-0.597,18.342l-21.801-0.739l0.478-12.747l0.618-15.884l1.36,1.29l1.393,0.121
		l0.318-0.137h0.035l0.054-0.09l0.016-0.041l1.781-3.19l1.816,0.985l2.069,1.112l1.957,3.408V172.141"/>
	<path id="TX_Wichita" inkscape:label="Wichita, TX" fill="#D0D0D0" stroke="#FFFFFF" stroke-width="0.9697" d="M369.294,181.832
		l0.421,0.032l0.92,0.606l0.952,0.812l1.975,3.177l1.186,0.427l0.016,0.014l0.035-0.035l2.224-1.996l-0.408,13.663l-22.092-0.529
		l0.597-18.342l3.847,2.298l3.83,0.937l2.718,0.102L369.294,181.832"/>
	<path id="TX_Clay" inkscape:label="Clay, TX" fill="#D0D0D0" stroke="#FFFFFF" stroke-width="0.9697" d="M390.083,188.822
		l0.726,1.449l0.105,0.105l0.072,0.016l1.764,0.529h0.903l0.049-0.016l1.45-0.353l1.555,0.615l0.016,0.02l-0.373,2.698l-1.077,2.331
		l-0.492,21.464l-18.547-0.423l0.383-18.727l0.408-13.663l1.676-2.119l0.812-0.458l1.59,0.356l6.461,2.027L390.083,188.822"/>
	<path id="TX_Montague" inkscape:label="Montague, TX" fill="#D0D0D0" stroke="#FFFFFF" stroke-width="0.9697" d="M415.889,195.284
		l-0.513,24.459l-18.075-0.332l-2.521-1.73l0.492-21.464l0.464,0.427l3.684,1.68l0.497,0.047l1.304-0.388l2.083-1.641l2.189-2.274
		l1.43-1.803l4.253,2.841l1.499,1.045L415.889,195.284"/>
	<path id="TX_Cooke" inkscape:label="Cooke, TX" fill="#D0D0D0" stroke="#FFFFFF" stroke-width="0.9697" d="M438.393,193.885
		l-0.229,27.025l-18.428-0.936l-4.36-0.232l0.513-24.459l0.827,3.775l0.111,0.262l0.035,0.092v0.019l0.246,0.297l0.369,0.248
		l12.164,5.314l0.583,0.195l0.667,0.086l0.601-0.191l0.422-0.337l0.197-0.262L438.393,193.885"/>
	<path id="TX_Fannin" inkscape:label="Fannin, TX" fill="#D0D0D0" stroke="#FFFFFF" stroke-width="0.9697" d="M484.299,199.572
		l-0.563,19.24l-0.051,2.632l-18.323,2.909l-3.74-2.333l0.283-16.729l0.402,0.552l6.231-1.539l0.864-0.232l0.759-0.325l0.053-0.062
		l0.39-0.407l0.053-0.067l0.018-0.035l0.107-0.337l0.121-0.388l0.035-0.141l0.021-0.125l0.26-1.217l0.353-1.239l2.119-0.488
		l4.695-0.392l0.899-0.066l0.569-0.06l2.417,0.478L484.299,199.572"/>
	<path id="TX_Grayson" inkscape:label="Grayson, TX" fill="#D0D0D0" stroke="#FFFFFF" stroke-width="0.9697" d="M438.8,193.659
		l2.118,4.355l0.686,0.768l0.422,0.293l3.938,1.207l2.03-0.341l0.035-0.016l4.182-1.889l-0.141,0.812l0.035,0.622l0.035,0.243
		l0.035,0.121l4.288,2.879l0.388,0.265h0.055l2.138-0.406l0.494,0.055l0.548,0.175v0.016l1.818,2.472l-0.283,16.729l-18.872-0.51
		l-4.585-0.599l0.229-27.025L438.8,193.659"/>
	<path id="TX_Lamar" inkscape:label="Lamar, TX" fill="#D0D0D0" stroke="#FFFFFF" stroke-width="0.9697" d="M506.522,197.912
		l0.264,24.902l-2.698-0.494l-4.253-2.894l-0.813-0.353l-4.606-1.444l-0.814-0.126l-5.822-0.422l-0.776,0.211l-3.266,1.52
		l0.563-19.24l3.584-1.344l0.015-0.014l3.499-1.822l3.053-1.586l1.356,0.07l0.316,0.126l0.442,1.128l-0.012,0.335l-0.125,0.356
		l0.011,0.258v0.035l0.165,0.283l0.156,0.141l4.132,0.548l1.565,0.126l2.828-0.143h0.02L506.522,197.912"/>
	<path id="TX_Arkansas" inkscape:label="Arkansas, TX" fill="#D0D0D0" stroke="#FFFFFF" stroke-width="0.9697" d="M421.286,490.299
		l0.871,0.71l0.141,0.02l4.005-1.943l5.667-4.272l0.277-0.759l-0.931-0.031l-0.973-0.143l-1.714-1.026l-1.001-1.342l-0.07-1.026
		l14.86-2.166l-0.371,2.326l0.527,0.851v0.281l-0.599,1.305l-0.441,0.336l-5.629,4.625l-1.254,0.017l-3.903,5.052l-3.932,5.964
		L421.286,490.299 M440.599,488.696l-1.096,2.539l-8.717,11.157l-0.23-0.64L440.599,488.696"/>
	<path id="TX_Cameron" inkscape:label="Cameron, TX" fill="#D0D0D0" stroke="#FFFFFF" stroke-width="0.9697" d="M392.662,576.307
		l15.248,2.702l4.926-3.281l1.781-2.212l0.216,0.108l2.113,2.966l-0.119,4.237l1.584,7.87l3.387,5.636l0.11,0.121l-0.532,1.727
		l-8.344,5.002l-4.062-1.242l-0.639-0.387l-0.629-0.49l-2.618-2.067l-3.844-4.288l-0.162-0.567l-5.225-0.914l-3.477-0.603
		L392.662,576.307 M421.096,573.609h0.773l1.254,5.26l0.392,1.979l0.528,3.724l0.794,6.286l-0.211-0.041l-0.126-0.016l-0.367-0.513
		l-0.406-3.403l0.049-1.555l-0.211-1.854l-0.443-2.856l-0.882-4.111l-0.527-1.605L421.096,573.609"/>
</g>
<text transform="matrix(1 0 0 1 -212.8589 351.1946)"><tspan x="0" y="0" font-family="'Arial'" font-size="13">City or County with COPsync Presence</tspan></text>
<rect id="Ref_WithPresence" x="-230.609" y="342.726" fill="#D0D0D0" stroke="#FFFFFF" stroke-width="0.9697" width="10" height="10"/>
<text transform="matrix(1 0 0 1 -212.8589 381.1946)"><tspan x="0" y="0" font-family="'Arial'" font-size="13">City or County without COPsync Presence</tspan></text>
<rect id="Ref_WithoutPresence" x="-230.609" y="372.726" fill="#D0D0D0" stroke="#FFFFFF" stroke-width="0.9697" width="10" height="10"/>
</svg>
