<?xml version="1.0" encoding="utf-8" ?>
<!DOCTYPE SVG PUBLIC "-//W3C//DTD SVG 1.1//EN" "http://www.w3.org/Graphics/SVG/1.1/DTD/svg11.dtd">
<svg version="1.1"
     id="svg5598" xmlns:dc="http://purl.org/dc/elements/1.1/" xmlns:cc="http://creativecommons.org/ns#" xmlns:rdf="http://www.w3.org/1999/02/22-rdf-syntax-ns#" xmlns:svg="http://www.w3.org/2000/svg"
     xmlns="http://www.w3.org/2000/svg" x="0px" y="0px" width="582.391px"
     height="670.684px" viewBox="0 0 582.391 670.684" enable-background="new 0 0 582.391 670.684" xml:space="preserve">
<g id="Counties">
<path id="TX_Bowie" fill="#D0D0D0" stroke="#00FF00" stroke-width="0.9697" d="M523.1,164.6l0.4,0.8
            l0.4,0.7l0.3,0.4l1.8,1l0.6,0.4l2.3,1.1l4-2.2l0.2-0.2l0.6-0.1l2.3-0.4l4.1,0.6l0.8,0.3l1,0.8l0.9,14.2l-0.4-0.8l-0.9-0.4
            l-3.8-0.4l-1,0.3l-1.3,0.5l-0.6,1.2l0.2,1.1l0.2,0.5l-0.1,0.1l-15.8,0.6l-1.4-0.2l-0.4-0.3l-0.1-0.5l-4.2-2.8L512,162L523.1,164.6
            " />
<path id="TX_Red_River" fill="#D0D0D0" stroke="#00FF00" stroke-width="0.9697" d="M494.3,150.7
            l5.1,4l7.4,5.4l5.3,1.9l1.1,18.9l-2.7-1.6l-13.3-0.6l-7.6,1l-0.1-0.1l-1.4-24.9l0.6-0.1l0.3,0l1.1-0.8l0.2-0.2l0.2-0.5l0-0.5
            l-0.1-0.4l0-0.1l-0.2-0.3l0,0l0-0.1l0-0.1l0-0.1l0.8-1.4l0,0l0,0l0.1-0.1l0.3,0L494.3,150.7" />
<path id="TX_Crosby" fill="#D0D0D0" stroke="#00FF00" stroke-width="0.9697" d="M227.2,161.7
            l21.8,0.1l-0.1,22.1l-21.8-0.1L227.2,161.7" />
<path id="TX_Lubbock" fill="#D0D0D0" stroke="#00FF00" stroke-width="0.9697" d="M205.4,161.6
            l21.8,0.1l0,22.1l-21.8-0.1L205.4,161.6" />
<path id="TX_Hockley" fill="#D0D0D0" stroke="#00FF00" stroke-width="0.9697" d="M183.3,161.1
            l22.1,0.5l0,22.1l-21.8-0.4L183.3,161.1" />
<path id="TX_Cochran" fill="#D0D0D0" stroke="#00FF00" stroke-width="0.9697" d="M165.3,160.7
            l18,0.5l0.3,22.2l-19.4-0.5l0.5-9.2L165.3,160.7" />
<path id="TX_Floyd" fill="#D0D0D0" stroke="#00FF00" stroke-width="0.9697" d="M231.4,137.3l17.8,0.2
            l-0.2,24.3l-21.8-0.1l0.3-24.5L231.4,137.3" />
<path id="TX_Hale" fill="#D0D0D0" stroke="#00FF00" stroke-width="0.9697" d="M205.7,136.8l3.8,0.1
            l18,0.3l-0.3,24.5l-21.8-0.1L205.7,136.8" />
<path id="TX_Lamb" fill="#D0D0D0" stroke="#00FF00" stroke-width="0.9697" d="M184,136.4l3.7,0.1
            l18,0.4l-0.3,24.8l-22.1-0.5L184,136.4" />
<path id="TX_Bailey" fill="#D0D0D0" stroke="#00FF00" stroke-width="0.9697" d="M184,136.4l-0.6,24.8
            l-18-0.5l0.9-24.2l0-0.5L184,136.4" />
<path id="TX_Briscoe" fill="#D0D0D0" stroke="#00FF00" stroke-width="0.9697" d="M231.7,115.2
            l15.7,0.1l6,0.1l-0.2,22.1l-4,0l-17.8-0.2L231.7,115.2" />
<path id="TX_Swisher" fill="#D0D0D0" stroke="#00FF00" stroke-width="0.9697" d="M209.9,114.8
            l15.2,0.3l6.5,0.1l-0.3,22.1l-3.9-0.1l-18-0.3L209.9,114.8" />
<path id="TX_Castro" fill="#D0D0D0" stroke="#00FF00" stroke-width="0.9697" d="M202.9,114.7l7,0.1
            l-0.4,22.1l-3.8-0.1l-18-0.4l0.5-22L202.9,114.7" />
<path id="TX_Parmer" fill="#D0D0D0" stroke="#00FF00" stroke-width="0.9697" d="M166.9,113.8
            l21.3,0.6l-0.5,22l-3.7-0.1l-17.8-0.5L166.9,113.8" />
<path id="TX_Armstrong" fill="#D0D0D0" stroke="#00FF00" stroke-width="0.9697" d="M225.7,93
            l22,0.3l-0.4,22l-15.7-0.1l-6.5-0.1L225.7,93" />
<path id="TX_Randall" fill="#D0D0D0" stroke="#00FF00" stroke-width="0.9697" d="M203.4,92.6
            l22.3,0.4l-0.6,22.1l-15.2-0.3l-7-0.1L203.4,92.6" />
<path id="TX_Deaf_Smith" fill="#D0D0D0" stroke="#00FF00" stroke-width="0.9697" d="M166.9,113.8
            l0.3-10.5l0.4-11.6l8.4,0.2l8.7,0.1l18.8,0.6l-0.5,22.1l-14.7-0.3L166.9,113.8" />
<path id="TX_Carson" fill="#D0D0D0" stroke="#00FF00" stroke-width="0.9697" d="M226.1,70.8l0-0.2
            l21.9,0.2l0,0.3l-0.2,22.2l-22-0.3L226.1,70.8" />
<path id="TX_Potter" fill="#D0D0D0" stroke="#00FF00" stroke-width="0.9697" d="M204.1,70.4l22,0.4
            L225.7,93l-22.3-0.4L204.1,70.4" />
<path id="TX_Oldham" fill="#D0D0D0" stroke="#00FF00" stroke-width="0.9697" d="M204.1,70l0,0.4
            l-0.6,22.2L184.6,92l-8.7-0.1l-8.4-0.2l0.7-22.3L204.1,70" />
<path id="TX_Hutchinson" fill="#D0D0D0" stroke="#00FF00" stroke-width="0.9697" d="M226.4,48.6
            l21.8,0.3L248,70.8l-21.9-0.2L226.4,48.6" />
<path id="TX_Moore" fill="#D0D0D0" stroke="#00FF00" stroke-width="0.9697" d="M204.5,48.3l21.9,0.4
            l-0.3,21.9l0,0.2l-22-0.4l0-0.4L204.5,48.3" />
<path id="TX_Hartley" fill="#D0D0D0" stroke="#00FF00" stroke-width="0.9697" d="M168.9,47.4
            l35.6,0.9L204.1,70l-35.8-0.6l0.2-5.9L168.9,47.4" />
<path id="TX_Hansford" fill="#D0D0D0" stroke="#00FF00" stroke-width="0.9697" d="M248.4,26.3
            l-0.2,22.5l0,0.1l-21.8-0.3l0.3-22.6L248.4,26.3" />
<path id="TX_Sherman" fill="#D0D0D0" stroke="#00FF00" stroke-width="0.9697" d="M210.2,25.7
            l16.5,0.3l-0.3,22.6l-21.9-0.4l0.5-22.6L210.2,25.7" />
<path id="TX_Dallam" fill="#D0D0D0" stroke="#00FF00" stroke-width="0.9697" d="M205,25.6l-0.5,22.6
            l-35.6-0.9l0.4-13.4l0.3-8.2l1.6-1.1L205,25.6" />
<path id="TX_Hudspeth" fill="#D0D0D0" stroke="#00FF00" stroke-width="0.9697" d="M82.7,249.9
            l-0.3,7.1l-0.5,13.8l-1.4,33.4l-0.3,3l-0.3,1.5l-0.5,8.7l-2.8,1.6l-0.3,0.2l-2.4-3.1l-3.5-3.5l-3.4-2.7l-1.7-0.1l-0.7-0.2
            l-5.4-3.1l-6.6-7l-7.9-9.3l-6-7.2l-3.9-4.6l2-1.7l0-2.8l-1.3-1.8l1.3-24.8L82.7,249.9" />
<path id="TX_El_Paso" fill="#D0D0D0" stroke="#00FF00" stroke-width="0.9697" d="M36.7,247.3
            l-1.3,24.8l1.3,1.8l0,2.8l-2,1.7l-4.3-1.7l-1.4-0.6l-2.3-1.7l-0.6-0.4l0,0l-0.2-0.2l-0.1-0.1l-0.4-0.5l-1.3-3.5l-3.9-8.1l-0.9-1.6
            l-1.5-1.1l-4.6-1.9l-3.5-3.4L9.4,253l-0.1-0.2l0.8-4.4l0.1-0.4l0.8-2.2l0,0l0,0l0.1,0l9.3,0.6L36.7,247.3" />
<path id="TX_Lynn" fill="#D0D0D0" stroke="#00FF00" stroke-width="0.9697" d="M227.2,183.8l-0.3,22
            l-5.6-0.1l-16.2-0.2l0.4-21.8L227.2,183.8" />
<path id="TX_Terry" fill="#D0D0D0" stroke="#00FF00" stroke-width="0.9697" d="M183.6,183.3l21.8,0.4
            l-0.4,21.8l-5.6-0.1l-16.3-0.4L183.6,183.3" />
<path id="TX_Yoakum" fill="#D0D0D0" stroke="#00FF00" stroke-width="0.9697" d="M183.6,183.3
            l-0.6,21.8l-19.8-0.6l1-21.7L183.6,183.3" />
<path id="TX_Dawson" fill="#D0D0D0" stroke="#00FF00" stroke-width="0.9697" d="M205,205.5l16.2,0.2
            l-0.2,22.1l-21.8-0.3l0.2-22.1L205,205.5" />
<path id="TX_Gaines" fill="#D0D0D0" stroke="#00FF00" stroke-width="0.9697" d="M163.3,204.5
            l19.8,0.6l16.3,0.4l-0.2,22.1l-0.4,0l-36.2-0.9L163.3,204.5" />
<path id="TX_Martin" fill="#D0D0D0" stroke="#00FF00" stroke-width="0.9697" d="M198.8,227.5l0.4,0
            l21.8,0.3l-0.6,22.2l-3.5,0l-18.6-0.3L198.8,227.5" />
<path id="TX_Andrews" fill="#D0D0D0" stroke="#00FF00" stroke-width="0.9697" d="M162.6,226.6
            l36.2,0.9l-0.5,22.1l-3.2-0.1l-21.9-0.5l-11.3-0.4L162.6,226.6" />
<path id="TX_Midland" fill="#D0D0D0" stroke="#00FF00" stroke-width="0.9697" d="M195.1,249.5
            l3.2,0.1l18.6,0.3l-0.3,22l-21.9-0.4L195.1,249.5" />
<path id="TX_Ector" fill="#D0D0D0" stroke="#00FF00" stroke-width="0.9697" d="M195.1,249.5l-0.5,22
            l-1.3,0L174,271l-1.4,0l0.6-22L195.1,249.5" />
<path id="TX_Crane" fill="#D0D0D0" stroke="#00FF00" stroke-width="0.9697" d="M174,271l19.3,0.5
            l0.1,28.6l-3.8-0.1l-1.6-5.2l-0.4-1l-0.1-0.2l-0.6-0.5l-2.2-1.7l-0.6-0.4l-5.4-2.8l-0.5,0l-4.6,0.9L174,271" />
<path id="TX_Presidio" fill="#D0D0D0" stroke="#00FF00" stroke-width="0.9697" d="M127.4,332.2
            l-0.1,5.5l-0.6,15.3l-0.7,25.3l-0.4,11.8l-7.5-2.1l-2.4-0.8l-0.3-0.1l-0.2-0.1l-1.6-1.2l-3.3-2.4l-15.8-13.7l-0.9-1.8l-5.4-12
            l-0.2-0.5l-0.4-5l0.5-3.7l0.1-4.4l-0.8-2.9l-8.7-18.8l-2.4-1.4l0.3-0.2l46.4,13L127.4,332.2" />
<path id="TX_Culberson" fill="#D0D0D0" stroke="#00FF00" stroke-width="0.9697" d="M85.7,250.1
            l35.1,1.6l-5.2,45.1l-36.3,20.7l0.5-8.7l0.3-1.5l0.3-3l1.4-33.4l0.5-13.8l0.3-7.1L85.7,250.1" />
<path id="TX_Ward" fill="#D0D0D0" stroke="#00FF00" stroke-width="0.9697" d="M172.7,271l1.4,0
            l-0.5,18.1l-3.1,0.3l-1.9-1.8l-1.3-1l-1.4-0.8l-2.7-1l-2.5,0.2l-1.6,0l-1-0.1l-2.2-0.4l-12-3.4l-0.6-0.5l-0.5-0.9l-0.5-2.5l0-3
            l0.2-1.7l-0.3-1.1l-0.8-1.1l-3.4-0.6l12.1,0.4L172.7,271" />
<path id="TX_Winkler" fill="#D0D0D0" stroke="#00FF00" stroke-width="0.9697" d="M162,248.7
            l11.3,0.4l-0.6,22l-22.7-0.7l0.6-17.6l2.5,0.1l2.2,0.1l3,0.1l2.4,0.1l1,0L162,248.7" />
<path id="TX_Loving" fill="#D0D0D0" stroke="#00FF00" stroke-width="0.9697" d="M122.7,251.7l11,0.4
            l16.9,0.6l-0.6,17.6l-12.1-0.4l-1-2l-2.3-3l-0.4-0.1l-0.8,0.2l0,0.1l-0.1,0.1l-0.4,0l-0.9-0.2l-0.4-0.4l-6.1-7.9L122.7,251.7" />
<path id="TX_Reeves" fill="#D0D0D0" stroke="#00FF00" stroke-width="0.9697" d="M120.8,251.7l1.9,0.1
            l2.7,5.1l6.1,7.9l0.4,0.4l0.9,0.2l0.4,0l0.1-0.1l0-0.1l0.8-0.2l0.4,0.1l2.3,3l1,2l3.4,0.6l0.8,1.1l0.3,1.1l-0.2,1.7l0,3l0.5,2.5
            l0.5,0.9l0.6,0.5l12,3.4l2.2,0.4l1,0.1l1.6,0l2.5-0.2l-25.8,29.7l-21.7-18L120.8,251.7" />
<path id="TX_Jeff_Davis" fill="#D0D0D0" stroke="#00FF00" stroke-width="0.9697" d="M137.4,314.7
            l6.1,5.3l-16.1,12.2L123,332l-46.4-13l2.8-1.6l36.3-20.7L137.4,314.7" />
<path id="TX_Brewster" fill="#D0D0D0" stroke="#00FF00" stroke-width="0.9697" d="M143.5,320
            l37.1,32l10.8,9.2l-2.2,1.5l-5.4,2.8l-7.9,2.3l-1,0.7l-0.1,0.1l-5.5,9.9l-3.2,8.4L155,405.1l-1.8,0.6l-0.3,0l-5.2-1.1l-4.4-1.9
            l-14.4-8.5l-0.4-0.4l-1.8-1.7l-1-1.9l0.4-11.8l0.7-25.3l0.6-15.3l0.1-5.5L143.5,320" />
<path id="TX_Terrell" fill="#D0D0D0" stroke="#00FF00" stroke-width="0.9697" d="M216.2,340.9
            l-0.5,25.8l-0.8-0.2l-0.3-0.1l-4.3-0.8l-2.7-0.3l-4.2,0.5L203,366l-2.9-0.4l-8.7-4.4l-10.8-9.2l0.3-11.6l9.8,0.2l0.4-15.9l6-0.8
            l3-1.9l16,0.4l0.6-0.1l2.4,0.4l1.8,1.3l0.4,3.2l0,0.4l-4.1,11.3L216.2,340.9" />
<path id="TX_Pecos" fill="#D0D0D0" stroke="#00FF00" stroke-width="0.9697" d="M173.6,289.1l4.6-0.9
            l0.5,0l5.4,2.8l0.6,0.4l2.2,1.7l0.6,0.5l0.1,0.2l0.4,1l1.6,5.2l6,2.4l8.6,2.3l2.8,0.7l4.5,3.5l4.2,12.3l0.3,1.3l-16-0.4l-3,1.9
            l-6,0.8l-0.4,15.9l-9.8-0.2l-0.3,11.6l-37.1-32l-6.1-5.3l25.8-29.7l2.7,1l1.4,0.8l1.3,1l1.9,1.8L173.6,289.1" />
<path id="TX_Upton" fill="#D0D0D0" stroke="#00FF00" stroke-width="0.9697" d="M193.3,271.6l1.3,0
            l21.9,0.4l-0.5,28.9l-22.7-0.8L193.3,271.6" />
<path id="TX_Reagan" fill="#D0D0D0" stroke="#00FF00" stroke-width="0.9697" d="M216.6,272l21.8,0.3
            l-0.1,4.8l0,1.4l-0.5,22.7l-21.7-0.3L216.6,272" />
<path id="TX_Glasscock" fill="#D0D0D0" stroke="#00FF00" stroke-width="0.9697" d="M220.4,250
            l18.4,0.3l-0.4,22.1l-21.8-0.3l0.3-22L220.4,250" />
<path id="TX_Howard" fill="#D0D0D0" stroke="#00FF00" stroke-width="0.9697" d="M242.8,228.1
            l-0.6,22.1l-3.4,0l-18.4-0.3l0.6-22.2L242.8,228.1" />
<path id="TX_Borden" fill="#D0D0D0" stroke="#00FF00" stroke-width="0.9697" d="M226.9,205.8
            l16.2,0.1l-0.3,22.1l0,0.2l-21.8-0.3l0.2-22.1L226.9,205.8" />
<path id="TX_Garza" fill="#D0D0D0" stroke="#00FF00" stroke-width="0.9697" d="M248.9,183.9l-0.2,21.7
            l-5.7,0.3l-16.2-0.1l0.3-22L248.9,183.9" />
<path id="TX_Scurry" fill="#D0D0D0" stroke="#00FF00" stroke-width="0.9697" d="M248.8,205.6
            l16.1,0.4l-0.3,22.2l-21.8-0.3l0.3-22.1L248.8,205.6" />
<path id="TX_Mitchell" fill="#D0D0D0" stroke="#00FF00" stroke-width="0.9697" d="M242.8,228
            l21.8,0.3l-0.3,22.3l-6.7-0.1l-15.5-0.1l0.6-22.1L242.8,228" />
<path id="TX_Sterling" fill="#D0D0D0" stroke="#00FF00" stroke-width="0.9697" d="M238.7,250.2
            l3.4,0l15.5,0.1l-0.3,19.8l-1.5-0.5l-0.2,7.2l-17.3,0.2l0.1-4.8L238.7,250.2" />
<path id="TX_Irion" fill="#D0D0D0" stroke="#00FF00" stroke-width="0.9697" d="M238.3,278.5l11.9,0.2
            l12.8,0.3l0.1,22.1l-11.8,0.1l-13.5,0L238.3,278.5" />
<path id="TX_Crockett" fill="#D0D0D0" stroke="#00FF00" stroke-width="0.9697" d="M189.6,300
            l3.8,0.1l22.7,0.8l21.7,0.3l13.5,0l-0.1,19l-0.2,21.1l-34.8-0.4l0.9-1.9l4.1-11.3l0-0.4l-0.4-3.2l-1.8-1.3l-2.4-0.4l-0.6,0.1
            l-0.3-1.3l-4.2-12.3l-4.5-3.5l-2.8-0.7l-8.6-2.3L189.6,300" />
<path id="TX_Val_Verde" fill="#D0D0D0" stroke="#00FF00" stroke-width="0.9697" d="M216.2,340.9
            l34.8,0.4l11.3,0l-0.2,33.5l0,9.3l-0.3,3.8l-0.2,1.2l-1.6,4.2l-0.5,0.9l-0.2,0L258,394l-10.7-8.8l-9.1-10.3l-0.1-0.3l-6.7-6.8
            l-2.2-0.7l-0.2,0l-6.3-0.1l-1,0l-5.9-0.4L216.2,340.9" />
<path id="TX_Zapata" fill="#D0D0D0" stroke="#00FF00" stroke-width="0.9697" d="M318,493.2l3.7-2.8
            l1.7,2.3l17.1,0l0.4,24.2l-9.8,10.9l-0.8-2.7l-1-3.2l0-0.1l-1.6-4.9l-1.2-2.7l-2.5-3.2l-2.6-1.4l-3.1-4.4l-0.3-2l0-0.2l0.2-0.2
            l0.7-1.2l0.1-4.1l-0.7-3.7L318,493.2L318,493.2L318,493.2" />
<path id="TX_Jim_Hogg" fill="#D0D0D0" stroke="#00FF00" stroke-width="0.9697" d="M347.6,488.4
            l11.1-0.4l1.4,0.8l0,3.9l1.4,1.5l3.6,8.9l0,13.6l-24.2,0.3l-0.4-24.2L347.6,488.4" />
<path id="TX_Starr" fill="#D0D0D0" stroke="#00FF00" stroke-width="0.9697" d="M340.9,516.9l24.2-0.3
            l4.6-0.1l-3.3,7.9l-3.9,8.4l-4.4,10.1l-2.1,0.4l-3.3-1.3l-15.7-6.2l-2.7-1.6l-2.9-5.9l-0.1-0.3l-0.1-0.3L340.9,516.9" />
<path id="TX_Willacy" fill="#D0D0D0" stroke="#00FF00" stroke-width="0.9697" d="M415.6,524.5l1.4,0
            l3.2,9.3l-0.8,0L415.6,524.5 M386.4,524.7l23.5-0.1l3,9.4l-1.7,2.3l-4.8,3.5l-15.4-2l-0.1-3.7l-2.1-0.6l-4.4-0.6l0.3-2.2l0.5-2.2
            L386.4,524.7" />
<path id="TX_Hidalgo" fill="#D0D0D0" stroke="#00FF00" stroke-width="0.9697" d="M369.7,516.5
            l15.3-0.2l1.5,8.4l-1.1,3.8l-0.5,2.3l-0.3,2.2l4.4,0.6l2.1,0.6l0.1,3.7l0.4,14.3l-0.3-0.1l-0.9-0.1l-4.1,0.2l-1.4,0.1l-0.2,0.2
            l-1.5,0.7l-5.7-0.8l-3.4-0.5l-1.1-0.5l-0.7-0.4l-5-3.1l-2.4-2.7l-1.3-0.5l-0.1,0l-5.4-1.6l0,0l4.4-10.1l3.9-8.4L369.7,516.5" />
<path id="TX_Brooks" fill="#D0D0D0" stroke="#00FF00" stroke-width="0.9697" d="M360.1,492.6
            l13.2-0.1l7.9-0.1l3.3,2.5l0.5,21.4l-15.3,0.2l-4.6,0.1l0-13.6l-3.6-8.9L360.1,492.6" />
<path id="TX_Kenedy" fill="#D0D0D0" stroke="#00FF00" stroke-width="0.9697" d="M412.1,490.7l1.2,0
            l-0.1,0.5l-0.5,2.9l-0.3,2.5l-0.2,3l0,2.6l0.1,2.8l0.5,4.1l0.3,1.7l0,0.2l0.7,3.2l1,3.6l1.6,5l0.1,0.2l0.1,0.2l0.5,1.4l-1.4,0
            l-3.5-10.9l-0.3-6.3l-0.2-5.3l-0.1-2.1l-0.1-3.1l0.1-2.4l0.2-1.2L412.1,490.7 M384.4,494.9l15.7-3.9l-0.1,0.4l0.1,0.9l0.2,0.3
            l0.3,0.2l3.9,0.6l1-0.1l0.5-0.2l0.3-0.2l0.1-0.2l0.7-0.3l1.5-0.6l1.2-0.1l0.1,0.3l-0.8,7.1l-1.7,5.9l-0.9,9.9l1.8,2.2l1.4,6.2
            l0.2,1.6l-23.5,0.1l-1.5-8.4L384.4,494.9" />
<path id="TX_Kleberg" fill="#D0D0D0" stroke="#00FF00" stroke-width="0.9697" d="M412.1,490.7
            l5.2-15.4l1.2,0.2l-5.2,15.1L412.1,490.7 M385.9,473.5l3,1.8l1.7,2l0.4,0l22.8-0.8l-1.9,8.1l-1.2,3.3l-0.1,0.3l-0.4,0.4l-0.3,0.2
            l-3.9,2.2l-5.8,0l-15.7,3.9l-3.3-2.5l-0.5-18.8L385.9,473.5" />
<path id="TX_Jim_Wells" fill="#D0D0D0" stroke="#00FF00" stroke-width="0.9697" d="M372.3,452.6
            l15.8-0.3l3.9,3l-6,5.7l0.2,5.4l-0.2,7.1l-5.3,0.1l0.5,18.8l-7.9,0.1L372.3,452.6" />
<path id="TX_Nueces" fill="#D0D0D0" stroke="#00FF00" stroke-width="0.9697" d="M425.9,462.3
            l-7.5,13.3l-1.2-0.2l8.4-13.7L425.9,462.3 M385.9,473.5l0.2-7.1l-0.2-5.4l6-5.7l-0.4,1.2l0.5,1.8l6.1,2.8l1.2,0.5l2.3,0.4l3.2,0.1
            l0.3-1.3l7.2-0.5l3.1,0l-0.8,0.2l-2.9,1.5l-0.8,0.7l-0.5,1.2l0,1.6l0.4,0.8l0.8,1.2l1,0.8l1.4,0.6l2.3,1.6l-1.3,3.3l-1.2,2.7
            l-22.8,0.7l-0.4,0l-1.7-2L385.9,473.5" />
<path id="TX_San_Patricio" fill="#D0D0D0" stroke="#00FF00" stroke-width="0.9697" d="
            M390.8,446.2l12.4,0.3l12.7,4.1l5.9,8.5l-6.3,1.3l-3.1,0l-7.2,0.5l-0.3,1.3l-3.2-0.1l-2.3-0.4l-1.2-0.5l-6.1-2.8l-0.5-1.8l0.4-1.2
            l-3.9-3L390.8,446.2" />
<path id="TX_Calhoun" fill="#D0D0D0" stroke="#00FF00" stroke-width="0.9697" d="M435.1,448.1
            l0.5-2.3l9.8-7.3l0.5-0.3l2.3-1.1l3.4-0.9l0.6,0.9l-4.2,2.3l-0.6,0.3l0,0.1l-3.2,2.1l-3.2,2.5l-2.8,2.4l-4,3.8l-0.1,0.1l-0.1,0.1
            L435.1,448.1 M445.1,417.5l11.5,1.5l0.1,1.7l-2.7,1.4l-4.3,2L446,421l-0.5-1.2L445.1,417.5 M431.7,428.4l-0.7-1.2l-1.2-2.7
            l3.3-2.6l6.6-2.6l2.3-1.4l-0.6,0.6l2.6,5.5l0.1,0.1l2,0.3l1.3,0.8l5.4,4.4l0.4,0.4l0.4,0.5l-0.1,0.3l-8.2,4.6l-0.4,0.2l-3.2,1.1
            l-1.1-0.3l-0.3-0.3l-3-2.9L431.7,428.4" />
<path id="TX_Refugio" fill="#D0D0D0" stroke="#00FF00" stroke-width="0.9697" d="M419.6,426.5
            l12.1,1.9l5.6,4.7l-0.8,4.6l-14.8,2.8l0.1,1l1.1,1.3l1.8,0.9l1,0.1l0.9,0l-0.2,0.8l-5.5,4.5l-3.9,2.1l-0.1,0l-0.9-0.7l-12.7-4.1
            l7.1-11.4L419.6,426.5" />
<path id="TX_Bee" fill="#D0D0D0" stroke="#00FF00" stroke-width="0.9697" d="M391.9,421.5l3.8,6.2
            l6.5,3.6l8,3.7l-7.1,11.4l-12.4-0.3l0.4-0.3l-13.1-23.8l3.7-1.5l4-1.6l0.6,0.3l0.4,0.6l1.6,0.8l1.4,0.5L391.9,421.5" />
<path id="TX_Live_Oak" fill="#D0D0D0" stroke="#00FF00" stroke-width="0.9697" d="M377.6,415.9
            l4.2,4.8l-3.7,1.5l13.1,23.8l-0.4,0.3l-2.8,6.1l-15.8,0.3l-4.4,0.1l-0.6-27.8L377.6,415.9" />
<path id="TX_McMullen" fill="#D0D0D0" stroke="#00FF00" stroke-width="0.9697" d="M346.5,424
            l20.7-0.6l0.6,29.4l-21,0.4L346.5,424" />
<path id="TX_Duval" fill="#D0D0D0" stroke="#00FF00" stroke-width="0.9697" d="M346.8,453.1l21-0.4
            l4.4-0.1l1,39.8l-13.2,0.1l0-3.9l-1.4-0.8l-11.1,0.4L346.8,453.1" />
<path id="TX_Webb" fill="#D0D0D0" stroke="#00FF00" stroke-width="0.9697" d="M283.8,446.6l4.3,0
            l32.2-0.5l0.3,8.7l26.2-1.7l0.8,35.2l-7,4.3l-17.1,0l-1.7-2.3l-3.7,2.8l-0.8,0l-1-0.6l-0.1,0l-1.6-1.4l-0.2-0.2l-0.1-0.1l0,0
            l-0.1-0.2l0.2-0.3l1.2-1.7l0.6-1.7l0.2-1l0.3-3.8l-1.8-4.4l-1-1.6l-0.6-0.4l-2.1-1.4l-1-0.1l-0.1,0.1l0,0.2l-1.7,0l-8-6.8
            l-1.5-1.6l-5.2-9.4l-4.1-7.5l-0.2-0.2L283.8,446.6" />
<path id="TX_La_Salle" fill="#D0D0D0" stroke="#00FF00" stroke-width="0.9697" d="M346.5,423.5
            l0,0.5l0.3,29.2l-26.2,1.7l-0.3-8.7l-0.3-21.9L346.5,423.5" />
<path id="TX_Dimmit" fill="#D0D0D0" stroke="#00FF00" stroke-width="0.9697" d="M288,423.9l31.4,0.2
            l0.6,0l0.3,21.9l-32.2,0.5L288,423.9" />
<path id="TX_Maverick" fill="#D0D0D0" stroke="#00FF00" stroke-width="0.9697" d="M288.1,401.9
            l-0.1,22l0.1,22.6l-4.3,0l-0.2-0.2l-2-2l-1.5-1.8l-2.5-6.6l-7.1-16.8l-6.2-12.3l-0.9-5.1L288.1,401.9" />
<path id="TX_Kinney" fill="#D0D0D0" stroke="#00FF00" stroke-width="0.9697" d="M262.2,374.8
            l25.9,0.1l0.1,27l-24.7,0.1L258,394l1.4,0.2l0.2,0l0.5-0.9l1.6-4.2l0.2-1.2l0.3-3.8L262.2,374.8" />
<path id="TX_Edwards" fill="#D0D0D0" stroke="#00FF00" stroke-width="0.9697" d="M287.8,341.3
            l15.8-0.1l-0.1,10.9l-3.9,0l-5.3-0.4l-2.2,9.7l-0.2,7.3l0.3,6.1l-4.3,0l-25.9-0.1l0.2-33.5L287.8,341.3" />
<path id="TX_Real" fill="#D0D0D0" stroke="#00FF00" stroke-width="0.9697" d="M303.5,352.1l3,0l0,6.6
            l1,1.7l2.9,0l0.1,14.1l-18.1,0.3l-0.3-6.1l0.2-7.3l2.2-9.7l5.3,0.4L303.5,352.1" />
<path id="TX_Uvalade" fill="#D0D0D0" stroke="#00FF00" stroke-width="0.9697" d="M288.1,374.9l4.3,0
            l18.1-0.3l8.4-0.1l0.1,27l-30.9,0.4L288.1,374.9" />
<path id="TX_Zavala" fill="#D0D0D0" stroke="#00FF00" stroke-width="0.9697" d="M319,401.5l0.4,22.6
            l-31.4-0.2l0.1-22L319,401.5" />
<path id="TX_Frio" fill="#D0D0D0" stroke="#00FF00" stroke-width="0.9697" d="M346,401.2l0.5,22.3
            l-26.5,0.7l-0.6,0l-0.4-22.6L346,401.2" />
<path id="TX_Goliad" fill="#D0D0D0" stroke="#00FF00" stroke-width="0.9697" d="M412.6,411.1l3.3-0.2
            l1.3,0.5l0.7,1.3l0.9,2.1l0.7,11.6l-9.3,8.6l-8-3.7l-6.5-3.6l-3.8-6.2l8.9-7.5l6.8-5.8l0.3,0l1.2,0.4l2,1l0.6,0.5L412.6,411.1" />
<path id="TX_Victoria" fill="#D0D0D0" stroke="#00FF00" stroke-width="0.9697" d="M426.8,398.6
            l1.7,2l4.5,1.7l0.3,0.2l3.5,6.1l5.5,9.1l-0.3,0.1l-2.3,1.4l-6.6,2.6l-3.3,2.6l1.2,2.7l0.7,1.2l-12.1-1.9l-0.7-11.6l-0.9-2.1
            l-0.7-1.3l-1.3-0.5l-3.3,0.2L426.8,398.6" />
<path id="TX_DeWitt" fill="#D0D0D0" stroke="#00FF00" stroke-width="0.9697" d="M414.7,384.8
            l12.1,13.7l-14.2,12.5l-0.9-1l-0.6-0.5l-2-1l-1.2-0.4l-0.3,0l-6.8,5.8l-8.3-9.5l6.1-5.3L414.7,384.8" />
<path id="TX_Karnes" fill="#D0D0D0" stroke="#00FF00" stroke-width="0.9697" d="M393.4,393.6l5.2,5.5
            l-6.1,5.3l8.3,9.5l-8.9,7.5l-2.1-0.2l-1.4-0.5l-1.6-0.8l-0.4-0.6l-0.6-0.3l-4,1.6l-4.2-4.8l-4.2-4.7L393.4,393.6" />
<path id="TX_Wilson" fill="#D0D0D0" stroke="#00FF00" stroke-width="0.9697" d="M388.3,386l5.2,7.7
            l-20.1,17.6l-9.8-11.5l11.8-16.7l0.4,2.6l0.2,0.6l0.4,0.7l1.2-0.8L388.3,386" />
<path id="TX_Atascosa" fill="#D0D0D0" stroke="#00FF00" stroke-width="0.9697" d="M345.9,393.2
            l17.7,6.5l9.8,11.5l4.2,4.7l-10.3,9l0-1.6l-20.7,0.6l0-0.5l-0.5-22.3L345.9,393.2" />
<path id="TX_Medina" fill="#D0D0D0" stroke="#00FF00" stroke-width="0.9697" d="M345.4,371l0.4,22.2
            l0.1,8.1l-27,0.3l-0.1-27l18.8,0l0.3,0.5l0,0.2l-0.1,0.6l-0.4,0.6l0.1,1l0.3,0.6l0.2,0.1l0.2,0l2-0.5L345.4,371" />
<path id="TX_Bandera" fill="#D0D0D0" stroke="#00FF00" stroke-width="0.9697" d="M310.4,360.5
            l13.6,0l5.1,0.4l2.4,1.1l9.1,4.5l6.1,3l-1.2,1.5l-5.2,6.5l-2,0.5l-0.2,0l-0.2-0.1l-0.3-0.6l-0.1-1l0.4-0.6l0.1-0.6l0-0.2l-0.3-0.5
            l-18.8,0l-8.4,0.1L310.4,360.5" />
<path id="TX_Kerr" fill="#D0D0D0" stroke="#00FF00" stroke-width="0.9697" d="M323.4,341.2l0.1,7.7
            l16.6-0.4l0.4,18l-9.1-4.5l-2.4-1.1l-5.1-0.4l-13.6,0l-2.9,0l-1-1.7l0-6.6l-3,0l0.1-10.9L323.4,341.2" />
<path id="TX_Gillespie" fill="#D0D0D0" stroke="#00FF00" stroke-width="0.9697" d="M323.2,330.5
            l14.8-0.1l16.2-0.3l0.5,18.2l-14.5,0.3l-16.6,0.4L323.2,330.5" />
<path id="TX_Blanco" fill="#D0D0D0" stroke="#00FF00" stroke-width="0.9697" d="M364.7,330.6l9.8,2.8
            l-2,3.6l-5.1,16.2l-5,5.2l-7.8-10l-0.5-18.2L364.7,330.6" />
<path id="TX_Kendall" fill="#D0D0D0" stroke="#00FF00" stroke-width="0.9697" d="M340.1,348.5
            l14.5-0.3l7.8,10l-10,9.9l-5.8,1.4l-6.1-3L340.1,348.5" />
<path id="TX_Bexar" fill="#D0D0D0" stroke="#00FF00" stroke-width="0.9697" d="M352.4,368.2l4-0.7
            l0.4,0l5.6,0.5l2.8,2l2.1,5.5l0.5,1.4l1.3,0.9l2.2,0.6l4.3,2.6l0.1,1.5l-0.4,0.5l-11.8,16.7l-17.7-6.5l-0.4-22.2l1.2-1.5
            L352.4,368.2" />
<path id="TX_Guadalupe" fill="#D0D0D0" stroke="#00FF00" stroke-width="0.9697" d="M386.2,361.8
            L397,372l-8.8,14l-10.8,0.1l-1.2,0.8l-0.4-0.7l-0.2-0.6l-0.4-2.6l0.4-0.5l-0.1-1.5l-4.3-2.6l-2.2-0.6l-1.3-0.9l-0.5-1.4l13.5-8.3
            L386.2,361.8" />
<path id="TX_Comal" fill="#D0D0D0" stroke="#00FF00" stroke-width="0.9697" d="M367.4,353.1l11.9,9.3
            l1.5,4.8l-13.5,8.3l-2.1-5.5l-2.8-2l-5.6-0.5l-0.4,0l-4,0.7l10-9.9L367.4,353.1" />
<path id="TX_Hays" fill="#D0D0D0" stroke="#00FF00" stroke-width="0.9697" d="M372.5,337l20.6,16.2
            l-2.3,2.3l-5.5,5l-0.2,1.3l0.4,0.1l0.7-0.1l-5.3,5.5l-1.5-4.8l-11.9-9.3L372.5,337" />
<path id="TX_Caldwell" fill="#D0D0D0" stroke="#00FF00" stroke-width="0.9697" d="M393.2,353.2
            l2.5-2.3l15.1,13.8l-0.1,0.1L397,372l-10.9-10.2l-0.7,0.1l-0.4-0.1l0.2-1.3l5.5-5L393.2,353.2" />
<path id="TX_Gonzales" fill="#D0D0D0" stroke="#00FF00" stroke-width="0.9697" d="M410.7,364.8
            l7.9,7.7l-2.6,2.5l0.2,3.7l-1.5,6.2l-16.1,14.3l-5.2-5.5l-5.2-7.7l8.8-14L410.7,364.8" />
<path id="TX_Lavaca" fill="#D0D0D0" stroke="#00FF00" stroke-width="0.9697" d="M418.6,372.4
            l11.8-0.6l0.4,0.1l0.8,0.5l2.5,2.1l10.7,11.8l-4.2,3.8l-12,10.5l-13.8-15.7l1.5-6.2l-0.2-3.7L418.6,372.4" />
<path id="TX_Jackson" fill="#D0D0D0" stroke="#00FF00" stroke-width="0.9697" d="M440.6,390l0.8,0.8
            l15.2,13.7l0,14.5l-11.5-1.5l-2.9,0.2l-5.5-9.1l-3.5-6.1l-0.3-0.2l-4.5-1.7L440.6,390" />
<path id="TX_Matagorda" fill="#D0D0D0" stroke="#00FF00" stroke-width="0.9697" d="M456.6,404.5
            l14.8-9.9l3.8-4.3l1.1,0.9l0.3,0.3l2.1,6l1.3,4.3l0.4,1.2l0.1,0.2l9,6.5l0.2,0.1l2.7,0.1l-0.8,0.6l-1.8,1.3l-0.8,0.5l-9.7,6.3
            l-3.1,1.7l-5.1,2.5l-3.4,1.7l-6.2,3.5l-2.2,1.6l-0.2,0.1l-2.9,2.2l-1.3,1l-0.3,0.6l-0.1-0.4l0.2-0.4l6.9-5.7l0.7-9.3l-0.2-0.2
            l-0.3-0.1l-0.9,0.2l-2,0.6l-0.9,0.3l-0.7,0.6l-0.8,1.5l-0.1-1.7L456.6,404.5" />
<path id="TX_Wharton" fill="#D0D0D0" stroke="#00FF00" stroke-width="0.9697" d="M465,372l4,8.5
            l2.7,4.6l3.3,3.4l1.4,0.1l-1.1,1.7l-3.8,4.3l-14.8,9.9l-15.2-13.7l1.5-1l11-7.6l0.6-2.1l1.9-4.4l4.6-5.1L465,372" />
<path id="TX_Colorado" fill="#D0D0D0" stroke="#00FF00" stroke-width="0.9697" d="M443.2,354.8
            l1.6,2.7l1.9,1.5l0.5,0.4l2.9,1.8l0.4,0.2l0.8,0.1l8.8,8l1.1,1.1l-4.6,5.1l-1.9,4.4l-0.6,2.1l-11,7.6l-1.5,1l-0.8-0.8l4.2-3.8
            l-10.7-11.8l-2.5-2.1l-0.8-0.5l-0.4-0.1L443.2,354.8" />
<path id="TX_Bastrop" fill="#D0D0D0" stroke="#00FF00" stroke-width="0.9697" d="M409,333.7l6,3.1
            l5.3,3.8l2.9,10.4l-12.3,13.7l-15.1-13.8l1.8-1.8l4.9-5.4l5-10.7L409,333.7" />
<path id="TX_Fayette" fill="#D0D0D0" stroke="#00FF00" stroke-width="0.9697" d="M433,345.1l1.2,0.9
            l1.4-0.4l1.4-0.6l0.6-0.4l1.7,1l0.7,1.8l0.5,2l0.1,1.1l2.4,4.1l-12.7,17.1l-11.8,0.6l-7.9-7.6l0.1-0.1l12.3-13.7L433,345.1" />
<path id="TX_Lee" fill="#D0D0D0" stroke="#00FF00" stroke-width="0.9697" d="M416.7,330.7l8.2-5.3
            l5.3,6.2l4.2,4.4l5,2l-6.5,7.1l-9.9,5.9l-2.9-10.4l-5.3-3.8l-6-3.1L416.7,330.7" />


<path id="TX_Austin" fill="#D0D0D0" stroke="#00FF00" stroke-width="0.9697" d="
            M440.7,350.7l1.5-1.1l12.7-2.1l0.8,0.1l2.1,0.8l2.2,0.7l1,0l0.4-0.6l5.7,17L465,372l-3.9-1.5l-1.1-1.1l-8.8-8l-0.8-0.1l-0.4-0.2
            l-2.9-1.8l-0.5-0.4l-1.9-1.5l-1.6-2.7L440.7,350.7" />
<path id="TX_Washington" fill="#D0D0D0" stroke="#00FF00" stroke-width="0.9697" d="M454.1,333.2
            l0.5,0.6l0.5,0.3l0.3,0.1l2.3-0.9l0.7-0.9l0.3-0.2l0.6,0l1.3,1.2l-0.1,2l2.9,5.2l-1.9,7.9l-0.4,0.6l-1,0l-2.2-0.7l-2-0.8l-0.8-0.1
            l-12.7,2.1l-1.5,1.1l-0.1-1.1l-0.5-2l-0.7-1.8l-1.7-1l-0.6,0.4l-1.4,0.6l-1.4,0.4l-1.2-0.9l6.5-7.1l6.4-1.9l1.3-0.4l6.5-2.7l0.4,0
            L454.1,333.2" />
<path id="TX_Waller" fill="#D0D0D0" stroke="#00FF00" stroke-width="0.9697" d="M463.4,340.6L476,339
            l0.4,7.8l-2.4-0.5l-2.4-1.2l-0.9-0.8l-1.3-0.9l0.7,1.9l6.1,16.7l-8.9,3.5l-5.7-17L463.4,340.6" />
<path id="TX_Fort_Bend" fill="#D0D0D0" stroke="#00FF00" stroke-width="0.9697" d="M467.2,365.5
            l8.9-3.5l18.1,9.6l-1.3,7.2l-5.4,5.9l-1.5,0.8l-3.9,0.1l-1.7-0.5l-2,0.9l-2.1,2.4l-1.4-0.1l-3.3-3.4l-2.7-4.6l-4-8.5L467.2,365.5" />
<path id="TX_Brazoria" fill="#D0D0D0" stroke="#00FF00" stroke-width="0.9697" d="M494.3,371.7
            l9.2,0.8L503,377l5.4,8.3l3.1,4.7l-2.9,5.9l0.5,0.4l-0.2,0.6L498.1,407l-5.6,2.9l-2.7-0.1l-0.2-0.1l-9-6.5l-0.1-0.2l-0.4-1.2
            l-1.3-4.3l-2.1-6l-0.3-0.3l-1.1-0.9l1.1-1.7l2.1-2.4l2-0.9l1.7,0.5l3.9-0.1l1.5-0.8l5.4-5.9L494.3,371.7" />
<path id="TX_Galveston" fill="#D0D0D0" stroke="#00FF00" stroke-width="0.9697" d="M540.6,370.4
            l-1.3,0.7l-3.8,2l-0.3,0.2l-0.2,0.1l-3.4,1.8l-0.5,0.3l-1.5,0.9l-0.3,0.2l-0.9,0.6l-0.5,0.3l-0.2,0.1l-0.5,0.4l-0.4,0.3l-0.2,0.2
            l-0.1,0.1l-0.3,0.4l-0.1,0.2l-0.4,0.6l-0.2,0.3l-0.2,0.5l-0.1,0.2l-1.3,0.4l-0.8,0.1l-0.2-0.1l-0.1-0.6l0.7-0.9l3.5-4.1l0.4-0.3
            l3.3-1.8l2.2-0.9l0.6-0.1l0.4-0.2l-0.3-0.5l0-0.7L540.6,370.4 M512.2,372l2.1,2.2l7.6,7.4l3.6,0.9l-2.3,2.2l-0.7,0.6l-4.1,3.1
            l-5.1,3.8l-0.3,0.2l-0.5,0.5l-1.5,1.3l-0.3,0.2l-0.2,0.1l-0.6,0.6l-0.5,0.5l-0.3,0.5l-0.5-0.4l2.9-5.9l-3.1-4.7L503,377l0.5-4.6
            l2.2,2l4.3-2.5L512.2,372" />
<path id="TX_Montgomery" fill="#D0D0D0" stroke="#00FF00" stroke-width="0.9697" d="M474,319.7
            l10.3,5.7l4.7-0.2l2.8-0.1l2.9,0.1l8.8,7.6l3.5,8.8l-4.2,4.4l-2.7,2.8l-1.3,0.2l-0.8-0.1l-0.5-1l-1.3-1.1L493,345l-5.6-2.7l-2,1.9
            l-3,1.6l-2.9,0.7l-0.9,0.1l-2.1,0.2L476,339L474,319.7" />
<path id="TX_Harris" fill="#D0D0D0" stroke="#00FF00" stroke-width="0.9697" d="M476.4,346.8l2.1-0.2
            l1-0.1l2.9-0.7l3-1.6l2-1.9l5.6,2.7l3.3,1.6l1.3,1.1l0.5,1l0.8,0.1l1.3-0.2l2.7-2.8l4.2-4.4l5.9,14l2.7,10.4l-3.4,6.3l-2.2,0
            l-4.3,2.5l-2.2-2l-9.2-0.8l-18.1-9.6l-6.1-16.7l-0.7-1.9l1.3,0.9l0.9,0.8l2.4,1.2L476.4,346.8" />
<path id="TX_Chambers" fill="#D0D0D0" stroke="#00FF00" stroke-width="0.9697" d="M536.4,353.7
            l3.7-0.1l1.2,15.7l0,0.7l-0.7,0.4l-6.8,0.6l-9.2-1.1l1-2.1l0.5-3.5l0-0.5l-0.2-1l-1.4-2.5l-0.5-0.5l-0.3-0.1l-2.2,1.1l-1,0.6
            l-4.9,4.4l-2.7-10.4L536.4,353.7" />
<path id="TX_Hardin" fill="#D0D0D0" stroke="#00FF00" stroke-width="0.9697" d="M530,321.9l20.6-1.2
            l-1,2.7l-0.3,1.2l-0.4,2l0.2,0.7l0.9,1.8l0.1,0l0.5,0.4l-0.6,5l-0.4,0.7l0.3,4.1l-0.3-0.3l-3.3-0.9l-0.6,0.1l-2.8,1l-0.1,0.1
            l0,0.6l0.1,0.8l-0.1,0.3l-0.5,0.9l-0.3,0.2l-4.4,1.1l-0.7-0.1l-1.2-0.6l-6.6,0.4l-7.1-18.7L530,321.9" />
<path id="TX_Liberty" fill="#D0D0D0" stroke="#00FF00" stroke-width="0.9697" d="M516.9,324.4
            l5.1-0.1l7.1,18.7l6.6-0.4l0.8,11.2l-23.5,1.6l-5.9-14l-3.5-8.8L516.9,324.4" />
<path id="TX_Jefferson" fill="#D0D0D0" stroke="#00FF00" stroke-width="0.9697" d="M535.6,342.5
            l1.2,0.6l0.7,0.1l4.4-1.1l0.3-0.2l0.5-0.9l0.1-0.3l-0.1-0.8l0-0.6l0.1-0.1l2.8-1l0.6-0.1l3.3,0.9l0.3,0.3l0.1,0.6l1.1,3.1l0.1,0.1
            l6.2,3.7l3.7,0.8l0.6,0.2l0.7,1l0.2,0.4l0.1,0.5l0,1.1l0.9,11.2l-4,0.8l-1.1,0l-2,0.1l-2.4,0.7l-3.3,1.5l-9.5,4.9l0-0.7l-1.2-15.7
            l-3.7,0.1L535.6,342.5" />
<path id="TX_Orange" fill="#D0D0D0" stroke="#00FF00" stroke-width="0.9697" d="M567,333.8l0.4,9.7
            l-4.7,7.2l0-1.1l-0.1-0.5l-0.2-0.4l-0.7-1l-0.6-0.2l-3.7-0.8l-6.2-3.7l-0.1-0.1l-1.1-3.1l-0.1-0.6l-0.3-4.1l9.4-0.7L567,333.8" />
<path id="TX_Travis" fill="#D0D0D0" stroke="#00FF00" stroke-width="0.9697" d="M374.5,333.4
            l3.1-10.1l4-0.3l1.8,1.1l2.2,2.9l0.9,3.7l1.7,1.3l1.4,0.4l1-0.1l2.9-1.2l4-2.1l0.9,0l2.8,0.8l6.3,3.1l-5,10.7l-4.9,5.4l-1.8,1.9
            l-2.5,2.3L372.5,337L374.5,333.4" />
<path id="TX_Kent" fill="#D0D0D0" stroke="#00FF00" stroke-width="0.9697" d="M270.8,184l-0.1,22.1
            l-5.8,0l-16.2-0.4l0.2-21.7L270.8,184" />
<path id="TX_Kimble" fill="#D0D0D0" stroke="#00FF00" stroke-width="0.9697" d="M315.3,319.9
            l0.1,10.7l7.9-0.1l0.2,10.8l-19.7,0l-15.8,0.1l0-21.2L315.3,319.9" />
<path id="TX_Sutton" fill="#D0D0D0" stroke="#00FF00" stroke-width="0.9697" d="M287.8,320.1l0,21.2
            l-25.5,0.1l-11.3,0l0.2-21.1L287.8,320.1" />
<path id="TX_Schleicher" fill="#D0D0D0" stroke="#00FF00" stroke-width="0.9697" d="M263.1,301
            l24.8,0l0,19.1l-36.7,0.1l0.1-19L263.1,301" />
<path id="TX_Menard" fill="#D0D0D0" stroke="#00FF00" stroke-width="0.9697" d="M287.8,301l22.1-0.1
            l5.2,7.4l0.1,11.6l-27.4,0.1L287.8,301" />
<path id="TX_Mason" fill="#D0D0D0" stroke="#00FF00" stroke-width="0.9697" d="M315.1,308.3l17-0.2
            l5.5,0.9l0.3,21.3l-14.8,0.1l-7.9,0.1l-0.1-10.7L315.1,308.3" />
<path id="TX_Llano" fill="#D0D0D0" stroke="#00FF00" stroke-width="0.9697" d="M337.7,309.1l22.5-0.4
            l3.1,4.4l0.8,13.2l0.7,4.4l-10.5-0.5l-16.2,0.3L337.7,309.1" />
<path id="TX_Burnet" fill="#D0D0D0" stroke="#00FF00" stroke-width="0.9697" d="M383.1,302.5l3.7,6.4
            l-9.2,14.5l-3.1,10.1l-9.8-2.8l-0.7-4.4l-0.8-13.2l-3.1-4.4l0.2-5.5L383.1,302.5" />
<path id="TX_Williamson" fill="#D0D0D0" stroke="#00FF00" stroke-width="0.9697" d="M386.8,308.9
            l7.6,1.3l1.3,0.3l13.6,5.6l7.4,14.7l-7.7,3l-1.6-0.8l-6.3-3.1l-2.8-0.8l-0.9,0l-4,2.1l-2.9,1.2l-1,0.1l-1.4-0.4l-1.7-1.3l-0.9-3.7
            l-2.2-2.9l-1.8-1.1l-4,0.3L386.8,308.9" />
<path id="TX_Burleson" fill="#D0D0D0" stroke="#00FF00" stroke-width="0.9697" d="M439.4,316.1
            l2.4,1.7l-0.2,0.3l-1.1,2.4l0,0.1l4.1,0.8l3.8,1.6l5,6.5l0.8,3.8l-0.2-0.1l-0.4,0l-6.5,2.7l-1.3,0.4l-6.4,1.9l-5-2l-4.2-4.4
            l-5.3-6.2L439.4,316.1" />
<path id="TX_San_Jacinto" fill="#D0D0D0" stroke="#00FF00" stroke-width="0.9697" d="
            M495.2,307.1l5.6,1.5l3.1,3l11.5,10.1l1.5,2.8l-13.3,8.2l-8.8-7.6L495.2,307.1" />
<path id="TX_Walker" fill="#D0D0D0" stroke="#00FF00" stroke-width="0.9697" d="M490,297.3l5.1,9.8
            l-0.4,18l-2.9-0.1l-2.8,0.1l-4.7,0.2l-10.3-5.7l-2-11.7l10.4-3.9L490,297.3" />
<path id="TX_Grimes" fill="#D0D0D0" stroke="#00FF00" stroke-width="0.9697" d="M458.9,310.6L472,308
            l2,11.7l2,19.3l-12.6,1.6l-2.9-5.2l2.8-4.7l-1.6-1l-0.3-0.5l-0.5-0.9l-2.3-6.7l0.1-5.2L458.9,310.6" />
<path id="TX_Brazos" fill="#D0D0D0" stroke="#00FF00" stroke-width="0.9697" d="M458.9,310.6
            l-0.2,5.8l-0.1,5.2l2.3,6.7l0.5,0.9l0.3,0.5l1.6,1l-2.8,4.7l0.1-2l-1.3-1.2l-0.6,0l-0.3,0.2l-0.7,0.9l-2.3,0.9l-0.3-0.1l-0.5-0.3
            l-0.5-0.6l-0.8-3.8l-5-6.5l-3.8-1.6l-4.1-0.8l0-0.1l1.1-2.4l0.2-0.3l4.7-2.6l1.1-2.1l0.8-2l0.9-1.9l1.1-1.9l0.5-0.7l0.7-0.6
            l1.2-0.9l1.7-1.2l0.9-0.5L458.9,310.6" />
<path id="TX_Madison" fill="#D0D0D0" stroke="#00FF00" stroke-width="0.9697" d="M455.4,303.2l3-1.2
            l3.8-2.8l4.4-2.5l9.1-0.5l6.7,8L472,308l-13.1,2.6L455.4,303.2" />
<path id="TX_Leon" fill="#D0D0D0" stroke="#00FF00" stroke-width="0.9697" d="M475.8,275.4l0.5,0.7
            l0.9,1.7l2.2,5.4l-0.9,2.5l-0.2,0l-0.4,0.2l-0.9,1.1l-1.9,7l0.1,0.7l0.5,1.4l-9.1,0.5l-4.4,2.5l-3.8,2.8l-3,1.2l-4.2-19.2l3.4-3
            l18.8-11.2L475.8,275.4" />
<path id="TX_Robertson" fill="#D0D0D0" stroke="#00FF00" stroke-width="0.9697" d="M439.5,291.3
            l11.7-7.4l4.2,19.2l-0.9,0.5l-1.7,1.2l-1.2,0.9l-0.7,0.6l-0.5,0.7l-1.1,1.9l-0.9,1.9l-0.8,2l-1.1,2.1l-4.7,2.6l-2.4-1.7l-2.3-5.1
            l-3.9-4.6l-2.9-7.3l-0.6-1.6L439.5,291.3" />
<path id="TX_Milam" fill="#D0D0D0" stroke="#00FF00" stroke-width="0.9697" d="M429.7,297.5l0.6,1.6
            l2.9,7.3l3.9,4.6l2.3,5.1l-14.6,9.3l-8.2,5.3l-7.4-14.7l2.2-7l8-5.1L429.7,297.5" />
<path id="TX_Bell" fill="#D0D0D0" stroke="#00FF00" stroke-width="0.9697" d="M404,287.5l6.1,1.9
            l9.5,14.5l-8,5.1l-2.2,7l-13.6-5.6l-1.3-0.3l-7.6-1.3l-3.7-6.4l0.2-1.7L404,287.5" />
<path id="TX_Coryell" fill="#D0D0D0" stroke="#00FF00" stroke-width="0.9697" d="M395.6,274.2
            l8.4,13.3l-20.7,13.2L371,281l17.5-11L395.6,274.2" />
<path id="TX_Lampasas" fill="#D0D0D0" stroke="#00FF00" stroke-width="0.9697" d="M367.2,283.5
            l3.9-2.5l12.2,19.7l-0.2,1.7l-22.8,0.8l-5.5-10.1L367.2,283.5" />
<path id="TX_Mills" fill="#D0D0D0" stroke="#00FF00" stroke-width="0.9697" d="M358.6,270.2l8.5,13.4
            l-12.4,9.6l-0.1-0.6l-1.8-3.5l-5.9-4.7l-1.3,1.4l-8.5-2.8l-1.2-1.4l0.1-0.9l2.2-1.5l6.8-5l0.8-3.9l3.9-0.7L358.6,270.2" />
<path id="TX_San_Saba" fill="#D0D0D0" stroke="#00FF00" stroke-width="0.9697" d="M336.1,280.6
            l-0.1,0.9l1.2,1.4l8.5,2.8l1.3-1.4l5.9,4.7l1.8,3.5l0.1,0.6l5.5,10.1l-0.2,5.5l-22.5,0.4l-5.5-0.9l-0.2-26.3L336.1,280.6" />
<path id="TX_McCulloch" fill="#D0D0D0" stroke="#00FF00" stroke-width="0.9697" d="M327.1,281.6
            l4.8,0.3l0.2,26.3l-17,0.2l-5.2-7.4l-0.1-20.5l2.8,0.4l3.9,0.4l8.3-0.2L327.1,281.6" />
<path id="TX_Concho" fill="#D0D0D0" stroke="#00FF00" stroke-width="0.9697" d="M304.7,276.2l5.2,4.3
            l0.1,20.5l-22.1,0.1l0.1-24.9L304.7,276.2" />
<path id="TX_Tom_Green" fill="#D0D0D0" stroke="#00FF00" stroke-width="0.9697" d="M257.4,270.2
            l25.3,0.2l5.4,5.7l-0.1,24.9l-24.8,0l-0.1-22.1l-12.8-0.3l-11.9-0.2l0-1.4l17.3-0.2l0.2-7.2L257.4,270.2" />
<path id="TX_Coke" fill="#D0D0D0" stroke="#00FF00" stroke-width="0.9697" d="M257.6,250.4l6.7,0.1
            l18.4,0.2l0,19.7l-25.3-0.2L257.6,250.4" />
<path id="TX_Runnels" fill="#D0D0D0" stroke="#00FF00" stroke-width="0.9697" d="M286.2,250.7
            l18.7,0l-0.2,25.6l-16.7-0.1l-5.4-5.7l0-19.7L286.2,250.7" />
<path id="TX_Coleman" fill="#D0D0D0" stroke="#00FF00" stroke-width="0.9697" d="M308.4,250.7
            l18.6-0.1l0,31l-2.1-0.4l-8.3,0.2l-3.9-0.4l-2.8-0.4l-5.2-4.3l0.2-25.6L308.4,250.7" />
<path id="TX_Brown" fill="#D0D0D0" stroke="#00FF00" stroke-width="0.9697" d="M330.3,250.6l8.3,0
            l11.2,18.9l-3.9,0.7l-0.8,3.9l-6.8,5l-2.2,1.5l-4.2,1.2l-4.8-0.3l0-31L330.3,250.6" />
<path id="TX_Comanche" fill="#D0D0D0" stroke="#00FF00" stroke-width="0.9697" d="M354.4,241
            l9.9,16l3.2-2l1.9,3.1l2.3,3.8l-13,8.2l-8.8-0.7l-11.2-18.9L354.4,241" />
<path id="TX_Hamilton" fill="#D0D0D0" stroke="#00FF00" stroke-width="0.9697" d="M369.3,258.1
            l8.6-5.3l10.6,17.2L371,281l-3.9,2.5l-8.5-13.4l13-8.2L369.3,258.1" />
<path id="TX_Bosque" fill="#D0D0D0" stroke="#00FF00" stroke-width="0.9697" d="M394.3,243l6,1.4
            l-0.3,3.1l-0.2,2.6l0.3,2.1l7.3,11.9l0.5,0.8l1.5,0.8l-13.8,8.4l-7-4.1l-10.6-17.2l5.9-3.7L394.3,243" />
<path id="TX_Falls" fill="#D0D0D0" stroke="#00FF00" stroke-width="0.9697" d="M430.2,276.4l9.4,14.9
            l-9.8,6.2l-10.2,6.4l-9.5-14.5L430.2,276.4" />
<path id="TX_McLennan" fill="#D0D0D0" stroke="#00FF00" stroke-width="0.9697" d="M424.2,267.2
            l6,9.2l-20.1,13l-6.1-1.9l-8.4-13.3l13.8-8.4l10.1-6.3L424.2,267.2" />
<path id="TX_Hill" fill="#D0D0D0" stroke="#00FF00" stroke-width="0.9697" d="M400.3,244.4l16.4-5.2
            l8.4,9.4l8,12.8l-8.9,5.7l-4.8-7.6l-10.1,6.3l-1.5-0.8l-0.5-0.8l-7.3-11.9l-0.3-2.1l0.2-2.6L400.3,244.4" />
<path id="TX_Limestone" fill="#D0D0D0" stroke="#00FF00" stroke-width="0.9697" d="M433.2,261.5
            l9.5,0.6l12,18.9l-3.4,3l-11.7,7.4l-9.4-14.9l-6-9.2L433.2,261.5" />
<path id="TX_Freestone" fill="#D0D0D0" stroke="#00FF00" stroke-width="0.9697" d="M461.3,250.7
            L461,253l4.1,6.9l2.9,2.6l1.5,0.5l3.6,3.9l0.5,2.9l-18.8,11.2l-12-18.9l18.4-11.7L461.3,250.7" />
<path id="TX_Navarro" fill="#D0D0D0" stroke="#00FF00" stroke-width="0.9697" d="M425.1,248.6
            l21.3-13.7l4.1,1.7l2.4,2l1.6,1.7l3.8,4.2l2.1,2.9l0.7,2.9l-18.4,11.7l-9.5-0.6L425.1,248.6" />
<path id="TX_Somervell" fill="#D0D0D0" stroke="#00FF00" stroke-width="0.9697" d="M380.2,241.9
            l13.9-4.7l0.2,5.8l-10.5,6.2L380.2,241.9" />
<path id="TX_Ellis" fill="#D0D0D0" stroke="#00FF00" stroke-width="0.9697" d="M416.2,224.8l2.1,0
            l21.6-0.6l3.7,9.3l3,1.4l-21.3,13.7l-8.4-9.4L416.2,224.8" />
<path id="TX_Johnson" fill="#D0D0D0" stroke="#00FF00" stroke-width="0.9697" d="M393.7,225.2
            l2.8-0.1l19.7-0.3l0.5,14.4l-16.4,5.2l-6-1.4l-0.2-5.8L393.7,225.2" />
<path id="TX_Hood" fill="#D0D0D0" stroke="#00FF00" stroke-width="0.9697" d="M374.6,225.5l19.1-0.3
            l0.4,12l-13.9,4.7l-5.6-14L374.6,225.5" />
<path id="TX_Erath" fill="#D0D0D0" stroke="#00FF00" stroke-width="0.9697" d="M374.6,227.9l5.6,14
            l3.6,7.3l-5.9,3.7l-8.6,5.3l-1.9-3.1l-3.2,2l-9.9-16l3-12.8L374.6,227.9" />
<path id="TX_Eastland" fill="#D0D0D0" stroke="#00FF00" stroke-width="0.9697" d="M331,228.5
            l22-0.3l4.3,0l-3,12.8l-15.8,9.5l-8.3,0l-0.1-22L331,228.5" />
<path id="TX_Callahan" fill="#D0D0D0" stroke="#00FF00" stroke-width="0.9697" d="M309.1,228.7
            l21.1-0.2l0.1,22l-3.3,0l-18.6,0.1l-0.1-22L309.1,228.7" />
<path id="TX_Taylor" fill="#D0D0D0" stroke="#00FF00" stroke-width="0.9697" d="M308.4,228.7l0.1,22
            l-3.5,0l-18.7,0l0.2-22.3L308.4,228.7" />
<path id="TX_Nolan" fill="#D0D0D0" stroke="#00FF00" stroke-width="0.9697" d="M286.4,228.4l-0.2,22.3
            l-3.5,0l-18.4-0.2l0.3-22.3L286.4,228.4" />
<path id="TX_Fisher" fill="#D0D0D0" stroke="#00FF00" stroke-width="0.9697" d="M270.7,206.1
            l15.8,0.2l-0.1,22.1l-21.8-0.2l0.3-22.2L270.7,206.1" />
<path id="TX_Jones" fill="#D0D0D0" stroke="#00FF00" stroke-width="0.9697" d="M286.5,206.3l6.6,0
            l15.9,0.1l0.2,22.4l-0.7,0l-21.9-0.3L286.5,206.3" />
<path id="TX_Shackelford" fill="#D0D0D0" stroke="#00FF00" stroke-width="0.9697" d="M309,206.3
            l6,0l15.8-0.2l0.3,22.4l-0.8,0l-21.1,0.2L309,206.3" />
<path id="TX_Stephens" fill="#D0D0D0" stroke="#00FF00" stroke-width="0.9697" d="M336.9,206.1
            l15.8-0.1l0.4,22.3l-22,0.3l-0.3-22.4L336.9,206.1" />
<path id="TX_Palo_Pinto" fill="#D0D0D0" stroke="#00FF00" stroke-width="0.9697" d="M358.9,203.1
            l15.6-0.1l0.1,22.5l0,2.4l-17.3,0.3l-4.3,0l-0.4-22.3L358.9,203.1" />
<path id="TX_Parker" fill="#D0D0D0" stroke="#00FF00" stroke-width="0.9697" d="M374.6,203l5.7,0
            l15.9-0.1l0.4,22.3l-2.8,0.1l-19.1,0.3L374.6,203" />
<path id="TX_Tarrant" fill="#D0D0D0" stroke="#00FF00" stroke-width="0.9697" d="M396.2,202.9l6.1,0
            l15.5-0.2l0.5,22.1l-2.1,0l-19.7,0.3L396.2,202.9" />
<path id="TX_Dallas" fill="#D0D0D0" stroke="#00FF00" stroke-width="0.9697" d="M417.8,202.7l7.9-0.4
            l13.8-0.2l0.2,8.5l0.1,13.6l-21.6,0.6L417.8,202.7" />
<path id="TX_Rockwall" fill="#D0D0D0" stroke="#00FF00" stroke-width="0.9697" d="M448.8,201.7
            l0.3,7.1l-9.3,1.8l-0.2-8.5L448.8,201.7" />
<path id="TX_Kaufman" fill="#D0D0D0" stroke="#00FF00" stroke-width="0.9697" d="M449.1,208.8
            l9.3-0.2l1.1,24.3l-16,0.6l-3.7-9.3l-0.1-13.6L449.1,208.8" />
<path id="TX_Rains" fill="#D0D0D0" stroke="#00FF00" stroke-width="0.9697" d="M467.1,201l8.4,0.6
            l1.8,12.1l-12.9-5.3L467.1,201" />
<path id="TX_Van_Zandt" fill="#D0D0D0" stroke="#00FF00" stroke-width="0.9697" d="M464.4,208.4
            l12.9,5.3l1.8,1.6l0.5,10.5l5.5,5.3l1,0.7l-26.6,1.1l-1.1-24.3L464.4,208.4" />
<path id="TX_Henderson" fill="#D0D0D0" stroke="#00FF00" stroke-width="0.9697" d="M459.5,232.9
            l26.6-1.1l0.1,11.1l1.5,2.5l-26.4,5.2l-0.1-0.3l-0.7-2.9l-2.1-2.9l-3.8-4.2l-1.6-1.7l-2.4-2l-4.1-1.7l-3-1.4L459.5,232.9" />
<path id="TX_Anderson" fill="#D0D0D0" stroke="#00FF00" stroke-width="0.9697" d="M487.7,245.4
            l-0.5,6.9l0.8,3.6l1.8,5.6l3.1,2.6l0.6,0.1l1,1.1l0.7,1.2l0.7,1.9l0.1,0.5l-0.6,0.9l-9.4,1.9l-6.8,1.5l-3.7,2.1l-2.3-5.7l-0.5-2.9
            l-3.6-3.9l-1.5-0.5l-2.9-2.6L461,253l0.3-2.4L487.7,245.4" />
<path id="TX_Houston" fill="#D0D0D0" stroke="#00FF00" stroke-width="0.9697" d="M475.8,275.4
            l3.7-2.1l6.8-1.5l9.4-1.9l2.8,0.9l4.5,4.2l4.8,2.7l2.1,1.9L490,297.3l-7.6,6.8l-6.7-8l-0.5-1.4l-0.1-0.7l1.9-7l0.9-1.1l0.4-0.2
            l0.2,0l0.9-2.5l-2.2-5.4l-0.9-1.7L475.8,275.4" />
<path id="TX_Trinity" fill="#D0D0D0" stroke="#00FF00" stroke-width="0.9697" d="M515.3,291.4
            l-14.5,17.1l-5.6-1.5l-5.1-9.8l19.6-17.7L515.3,291.4" />
<path id="TX_Polk" fill="#D0D0D0" stroke="#00FF00" stroke-width="0.9697" d="M527.7,295.1l-4,2.6
            l6.3,24.2l-8,2.3l-5.1,0.1l-1.5-2.8l-11.5-10.1l-3.1-3l14.5-17.1l5,1.8l3.8,0.6L527.7,295.1" />
<path id="TX_Newton" fill="#D0D0D0" stroke="#00FF00" stroke-width="0.9697" d="M568.8,286.6l2-0.6
            l0.9,16l-0.6,3.4l-5.7,11.9l-0.4,1.8l0,0l0.1,0.1l1.3,1.4l0.8,3.1l0,0.3l-0.2,0.4l-1.6,1.5l0,0.1l1.7,7.9l-8.1,0.6l-0.3-21.4
            l-0.5-14.1l-2.7-10.5L568.8,286.6" />
<path id="TX_Jasper" fill="#D0D0D0" stroke="#00FF00" stroke-width="0.9697" d="M550,289.9l5.4-1.6
            l2.7,10.5l0.5,14.1l0.3,21.4l-9.4,0.7l0.4-0.7l0.6-5l-0.5-0.4l-0.1,0l-0.9-1.8l-0.2-0.7l0.4-2l0.3-1.2l1-2.7l-0.7-1l-0.5-1.5
            l0.1-0.4l0.9-1.9l-0.3-2l-3.4-6l-0.4-0.3l-1-0.1l-0.3,0l-0.1-0.1l-3.3-8.4l0.2-1.7l-0.2-0.4l-0.5-0.5l-2-0.7l-2.6,0.2l-4.3,0.3
            l13.9-4.2L550,289.9" />
<path id="TX_Tyler" fill="#D0D0D0" stroke="#00FF00" stroke-width="0.9697" d="M532.3,296.2l4.3-0.3
            l2.6-0.2l2,0.7l0.5,0.5l0.2,0.4l-0.2,1.7l3.3,8.4l0.1,0.1l0.3,0l1,0.1l0.4,0.3l3.4,6l0.3,2l-0.9,1.9l-0.1,0.4l0.5,1.5l0.7,1
            l-20.6,1.2l-6.3-24.2l4-2.6L532.3,296.2" />
<path id="TX_Angelina" fill="#D0D0D0" stroke="#00FF00" stroke-width="0.9697" d="M513.3,272.3
            l1.9,1.9l8.1,1.7l1.9-0.4l1.7,0.6l2.3,1.1l0.6,0.6l7.5,8.4l8.9,5.8l-13.9,4.2l-4.6-1l-3.6-1.3l-3.8-0.6l-5-1.8l-5.6-11.8l-2.1-1.9
            L513.3,272.3" />
<path id="TX_Sabine" fill="#D0D0D0" stroke="#00FF00" stroke-width="0.9697" d="M557.3,266.6l4.9,4.7
            l4.2,5.6l1.5,5.6l0.4,1.6l0.6,2.6l-13.3,1.8l-5.4,1.6l-0.4-1.2l-0.5-7l-0.2-5.7l1.7-2.1l0.7-1l-0.4-5.2L557.3,266.6" />
<path id="TX_San_Augustine" fill="#D0D0D0" stroke="#00FF00" stroke-width="0.9697" d="
            M550.9,267.9l0.4,5.2l-0.7,1l-1.7,2.1l0.2,5.7l0.5,7l0.4,1.2l-3.8,2l-8.9-5.8l0-6l-0.2-11.5l-3.1-3.2l-1.1-0.7l13.3,0.8
            L550.9,267.9" />
<path id="TX_Shelby" fill="#D0D0D0" stroke="#00FF00" stroke-width="0.9697" d="M527.1,248.8
            l21.1-1.6l6.3,6.5l2.7,12.9l-6.4,1.3l-4.7-2.3l-13.3-0.8l-2.9-9.5L527.1,248.8" />
<path id="TX_Nacogdoches" fill="#D0D0D0" stroke="#00FF00" stroke-width="0.9697" d="
            M509.3,256.4l20.7-1.2l2.9,9.5l1.1,0.7l3.1,3.2l0.2,11.5l0,6l-7.5-8.4l-0.6-0.6l-2.3-1.1l-1.7-0.6l-1.9,0.4l-8.1-1.7l-1.9-1.9
            l-2.4-2.2l-0.2-0.3l-1.2-2.8l-0.9-2.9l-0.7-4.5L509.3,256.4" />
<path id="TX_Cherokee" fill="#D0D0D0" stroke="#00FF00" stroke-width="0.9697" d="M486.2,242.9
            l20.2-1.2l2.9,14.7l-1.5,3.2l0.7,4.5l0.9,2.9l1.2,2.8l0.2,0.3l2.4,2.2l-5.6,5.4l-4.8-2.7l-4.5-4.2l-2.8-0.9l0.6-0.9l-0.1-0.5
            l-0.7-1.9l-0.7-1.2l-1-1.1l-0.6-0.1l-3.1-2.6l-1.8-5.6l-0.8-3.6l0.5-6.9L486.2,242.9" />
<path id="TX_Panola" fill="#D0D0D0" stroke="#00FF00" stroke-width="0.9697" d="M545.7,226.5l0.7,9.9
            l1.9,10.8l-21.1,1.6l-3.8,0.3l-0.4-5.4l0.5-6.3l0.8-2.4l1.2-2.5l1.1-3.1l-0.1-1.9l1.3,1l4.7,1.8l0.4,0.1L545.7,226.5" />
<path id="TX_Rusk" fill="#D0D0D0" stroke="#00FF00" stroke-width="0.9697" d="M522.9,227.7l3.7-0.2
            l0.1,1.9l-1.1,3.1l-1.2,2.5l-0.8,2.4l-0.5,6.3l0.4,5.4l3.8-0.3l2.9,6.4l-20.7,1.2l-2.9-14.7l-0.7-11.7l7.5-0.5l7-0.4L522.9,227.7" />
<path id="TX_Gregg" fill="#D0D0D0" stroke="#00FF00" stroke-width="0.9697" d="M505.2,221.5l0.7-0.1
            l6.3-3l2.4-3.6l0.3-0.2l2,0.1l0.1,0.2l0.6,10.1l0.1,1.5l2.6,1.1l2.2,0.2l0.4-0.2l-2.7,1.4l-7,0.4l-7.5,0.5L505.2,221.5" />
<path id="TX_Smith" fill="#D0D0D0" stroke="#00FF00" stroke-width="0.9697" d="M479.1,215.3l4,3.3
            l1.2,0.5l12.3,2.5l0.3,0l0.8-0.4l0.4-0.8l7.1,1.3l0.5,8.5l0.7,11.7l-20.2,1.2l-0.1-11.1l-1-0.7l-5.5-5.3L479.1,215.3" />
<path id="TX_Wood" fill="#D0D0D0" stroke="#00FF00" stroke-width="0.9697" d="M496.9,197.8l0.3,5.6
            l0.9,16.8l-0.4,0.8l-0.8,0.4l-0.3,0l-12.3-2.5l-1.2-0.5l-4-3.3l-1.8-1.6l-1.8-12.1l15-0.9L496.9,197.8" />
<path id="TX_Harrison" fill="#D0D0D0" stroke="#00FF00" stroke-width="0.9697" d="M516.5,207.9
            l8.5,4.5l5.2-0.3l1.4-0.8l5-0.9l3-0.4l2.2,0.2l2.9,0.9l1,15.2l-12.7,3.9l-0.4-0.1l-4.7-1.8l-1.3-1l-3.7,0.2l-0.4,0.2l-2.2-0.2
            l-2.6-1.1l-0.1-1.5L517,215L516.5,207.9" />
<path id="TX_Upshur" fill="#D0D0D0" stroke="#00FF00" stroke-width="0.9697" d="M497.2,203.4
            l18.2-1.1l0.7,1.3l0.4,4.3l0.4,7.1l-0.1-0.2l-2-0.1l-0.3,0.2l-2.4,3.6l-6.3,3l-0.7,0.1l-7.1-1.3L497.2,203.4" />
<path id="TX_Camp" fill="#D0D0D0" stroke="#00FF00" stroke-width="0.9697" d="M496.9,197.8l1-1.1
            l3.5-2.1l0.9-0.2l0.8,0l2.5-0.1l0.6,0.2l2.4,2.7l2.4,1.5l4.4,3.7l-18.2,1.1L496.9,197.8" />
<path id="TX_Marion" fill="#D0D0D0" stroke="#00FF00" stroke-width="0.9697" d="M518.3,203.4
            l25.8-1.7l0.6,9.5l-2.9-0.9l-2.2-0.2l-3,0.4l-5,0.9l-1.4,0.8l-5.2,0.3l-8.5-4.5l-0.4-4.3L518.3,203.4" />
<path id="TX_Cass" fill="#D0D0D0" stroke="#00FF00" stroke-width="0.9697" d="M517.2,183.7l0.1,0.5
            l0.4,0.3l1.4,0.2l15.8-0.6l0.1-0.1l-0.2-0.5l-0.2-1.1l0.6-1.2l1.3-0.5l1-0.3l3.8,0.4l0.9,0.4l0.4,0.8l0.8,12.7l0.5,7l-25.8,1.7
            L517.2,183.7" />
<path id="TX_Morris" fill="#D0D0D0" stroke="#00FF00" stroke-width="0.9697" d="M510.4,179.3l2.7,1.6
            l4.2,2.8l1.1,19.7l-2.2,0.1l-0.7-1.3l-4.4-3.7L510.4,179.3" />
<path id="TX_Titus" fill="#D0D0D0" stroke="#00FF00" stroke-width="0.9697" d="M510.4,179.3l0.7,19.3
            l-2.4-1.5l-2.4-2.7l-0.6-0.2l-2.5,0.1l-0.8,0l-0.9,0.2l-3.5,2.1l-0.9-18L510.4,179.3" />
<path id="TX_Franklin" fill="#D0D0D0" stroke="#00FF00" stroke-width="0.9697" d="M497,178.7
            l0.9,18l-1,1.1l-6.5,2.9l-1.1-21l0.1-0.1L497,178.7" />
<path id="TX_Hopkins" fill="#D0D0D0" stroke="#00FF00" stroke-width="0.9697" d="M466.6,188.9
            l3.4-2.2l1.8-2.3l5.1-2.6l1-0.5l2.1-0.2l9.4-1.4l1.1,21l-15,0.9l-8.4-0.6L466.6,188.9" />
<path id="TX_Delta" fill="#D0D0D0" stroke="#00FF00" stroke-width="0.9697" d="M466.2,176.6l3.2-1.7
            l0.8-0.2l5.8,0.2l0.8,0.1l4.7,1.2l0.8,0.3l4.4,2.7l2.7,0.4l0.1,0.1l-0.1,0.1l-9.4,1.4l-2.1,0.2l-1,0.5l-5.1,2.6l-1.8,2.3l-3.4,2.2
            l-0.3-9.6L466.2,176.6" />
<path id="TX_Hunt" fill="#D0D0D0" stroke="#00FF00" stroke-width="0.9697" d="M466.3,179.2l0.3,9.6
            l0.5,12.1l-2.7,7.3l-6,0.2l-9.3,0.2l-0.3-7.1l-0.7-18.8L466.3,179.2" />
<path id="TX_Collin" fill="#D0D0D0" stroke="#00FF00" stroke-width="0.9697" d="M425.4,181.1
            l18.9-0.3l3.8,2.2l0.7,18.8l-9.3,0.3l-13.8,0.2L425.4,181.1" />
<path id="TX_Denton" fill="#D0D0D0" stroke="#00FF00" stroke-width="0.9697" d="M402.3,180.6
            l18.5,0.1l4.6,0.4l0.3,21.2l-7.9,0.4l-15.5,0.2L402.3,180.6" />
<path id="TX_Wise" fill="#D0D0D0" stroke="#00FF00" stroke-width="0.9697" d="M379.9,181l18.1-0.5
            l4.4,0l0,22.3l-6.1,0l-15.9,0.1L379.9,181" />
<path id="TX_Jack" fill="#D0D0D0" stroke="#00FF00" stroke-width="0.9697" d="M358.7,179.8l18.5-0.4l2.6,1.6
            l0.4,21.9l-5.7,0l-15.6,0.1l-0.1-19.7L358.7,179.8" />
<path id="TX_Young" fill="#D0D0D0" stroke="#00FF00" stroke-width="0.9697" d="M336.4,183.7l22.4-0.3
            l0.1,19.7l-6.2,2.8l-15.8,0.1L336.4,183.7" />
<path id="TX_Throckmorton" fill="#D0D0D0" stroke="#00FF00" stroke-width="0.9697" d="
            M314.7,183.9l21.8-0.2l0.4,22.3l-6.1,0.1l-15.8,0.2L314.7,183.9" />
<path id="TX_Haskell" fill="#D0D0D0" stroke="#00FF00" stroke-width="0.9697" d="M292.9,184.1
            l21.8-0.2l0.2,22.4l-6,0l-15.9-0.1L292.9,184.1" />
<path id="TX_Stonewall" fill="#D0D0D0" stroke="#00FF00" stroke-width="0.9697" d="M270.8,184
            l22.1,0l0.1,22.2l-6.6,0l-15.8-0.2L270.8,184" />
<path id="TX_Dickens" fill="#D0D0D0" stroke="#00FF00" stroke-width="0.9697" d="M249,161.8l21.8,0
            l0,22.2l-21.9-0.1L249,161.8" />
<path id="TX_Motley" fill="#D0D0D0" stroke="#00FF00" stroke-width="0.9697" d="M249.2,137.5l4,0
            l17.8,0l-0.1,24.3l-21.8,0L249.2,137.5" />
<path id="TX_Hall" fill="#D0D0D0" stroke="#00FF00" stroke-width="0.9697" d="M270.1,115.5l5.2,0
            l-0.1,22l-4.1,0l-17.8,0l0.2-22.1L270.1,115.5" />
<path id="TX_Donley" fill="#D0D0D0" stroke="#00FF00" stroke-width="0.9697" d="M270.2,93.4
            l-0.1,22.1l-16.7-0.1l-6-0.1l0.4-22L270.2,93.4" />
<path id="TX_Gray" fill="#D0D0D0" stroke="#00FF00" stroke-width="0.9697" d="M248,71.1l22.3,0.1
            l0,22.2l-22.4-0.1L248,71.1" />
<path id="TX_Roberts" fill="#D0D0D0" stroke="#00FF00" stroke-width="0.9697" d="M248.2,48.9l0-0.1
            L270,49l0.3,0l-0.1,22.2L248,71.1l0-0.3L248.2,48.9" />
<path id="TX_Ochiltree" fill="#D0D0D0" stroke="#00FF00" stroke-width="0.9697" d="M253.7,26.3
            l16.5,0.1L270,49l-21.9-0.2l0.2-22.5L253.7,26.3" />
<path id="TX_Lipscomb" fill="#D0D0D0" stroke="#00FF00" stroke-width="0.9697" d="M270.1,26.4
            l21.9,0l0.2,22.6L270.3,49l-0.3,0L270.1,26.4" />
<path id="TX_Hemphill" fill="#D0D0D0" stroke="#00FF00" stroke-width="0.9697" d="M292.2,49l0,8.9
            l0.1,13.3l-22,0l0.1-22.2L292.2,49" />
<path id="TX_Wheeler" fill="#D0D0D0" stroke="#00FF00" stroke-width="0.9697" d="M270.2,71.2l22,0
            l0,22.2l-22.1,0L270.2,71.2" />
<path id="TX_Collingsworth" fill="#D0D0D0" stroke="#00FF00" stroke-width="0.9697" d="
            M270.2,93.4l22.1,0l0,7.7l0,14.4l-17.1-0.1l-5.2,0L270.2,93.4" />
<path id="TX_Childress" fill="#D0D0D0" stroke="#00FF00" stroke-width="0.9697" d="M275.2,115.5
            l17.1,0.1l0.1,9.4l0,12.7l-17.4-0.1L275.2,115.5" />
<path id="TX_Cottle" fill="#D0D0D0" stroke="#00FF00" stroke-width="0.9697" d="M271,137.5l4.1,0
            l17.4,0.1l0,4.4l-0.5-0.9l-1.2,0.2l-0.4,0.5l0,20l-19.6,0L271,137.5" />
<path id="TX_King" fill="#D0D0D0" stroke="#00FF00" stroke-width="0.9697" d="M270.8,161.8l19.6,0
            l2.2,0l0.3,22.2l-22.1,0L270.8,161.8" />
<path id="TX_Knox" fill="#D0D0D0" stroke="#00FF00" stroke-width="0.9697" d="M314.4,166.9l0.2,17
            l-21.8,0.2l-0.3-22.2l6.7,0l5.7,0.8l6.5,1.1l2.2,1.4l0.6,1.1L314.4,166.9" />
<path id="TX_Foard" fill="#D0D0D0" stroke="#00FF00" stroke-width="0.9697" d="M292.5,142.1l7.8,5.5
            l10.9,3l2.5-0.5l0.5-0.5l0.1-0.5l0.1,12.8l0.1,5.1l-0.1-0.6l-0.6-1.1l-2.2-1.4l-6.5-1.1l-5.7-0.8l-6.7,0l-2.2,0l0-20l0.4-0.5
            l1.2-0.2L292.5,142.1" />
<path id="TX_Hardeman" fill="#D0D0D0" stroke="#00FF00" stroke-width="0.9697" d="M298.7,127.7
            l2.3,2.7l1.1,1.2l3,2.6l1.3,0.2l0.4,0l1.6-0.1l1.5-2.1l0.2-0.1l0.5,0l2,0.1l0.6,0.2l1.1,0.6l0.1,15.9l-0.1,0.5l-0.5,0.5l-2.5,0.5
            l-10.9-3l-7.8-5.5l0-4.4l0-12.7L298.7,127.7" />
<path id="TX_Archer" fill="#D0D0D0" stroke="#00FF00" stroke-width="0.9697" d="M336.2,161.6
            l22.1-0.5l0.5,18.7l0.1,3.6l-22.4,0.3L336.2,161.6" />
<path id="TX_Baylor" fill="#D0D0D0" stroke="#00FF00" stroke-width="0.9697" d="M336.2,161.6
            l0.3,22.1l-21.8,0.2l-0.2-17l-0.1-5.1L336.2,161.6" />
<path id="TX_Wilbarger" fill="#D0D0D0" stroke="#00FF00" stroke-width="0.9697" d="M325.1,136.2
            l0,1.2l0,1.1l0.9,3.9l0,0l0,0l0.5,0.1l0.9,0.2l1.6,0.3l0.8-0.1l1.7-0.1l3.8,0.1l0.1,0l0.6,0.3l0.2,18.4l-21.8,0.2l-0.1-12.8
            l-0.1-15.9l1.4,1.2l1.4,0.1l0.3-0.2l0,0l0-0.1l0,0l1.6-3.3l1.9,0.9l2.1,1L325.1,136.2L325.1,136.2" />
<path id="TX_Wichita" fill="#D0D0D0" stroke="#00FF00" stroke-width="0.9697" d="M350.2,144.8l0.4,0
            l0.9,0.6l1,0.8l2.1,3.1l1.2,0.4l0,0l0,0l2.1-2.1l0.2,13.7l-22.1,0.5l-0.2-18.4l3.9,2.1l3.9,0.8l2.7,0L350.2,144.8" />
<path id="TX_Clay" fill="#D0D0D0" stroke="#00FF00" stroke-width="0.9697" d="M371.3,150.8l0.8,1.4
            l0.1,0.1l0.1,0l1.8,0.4l0.9,0l0,0l1.4-0.4l1.6,0.5l0,0l-0.3,2.7l-1,2.4l0.5,21.5l-18.5,0.4l-0.5-18.7l-0.2-13.7l1.6-2.2l0.8-0.5
            l1.6,0.3l6.5,1.7L371.3,150.8" />
<path id="TX_Montague" fill="#D0D0D0" stroke="#00FF00" stroke-width="0.9697" d="M397.4,156.1
            l0.6,24.5l-18.1,0.5l-2.6-1.6l-0.5-21.5l0.5,0.4l3.8,1.5l0.5,0l1.3-0.4l2-1.7l2.1-2.4l1.3-1.9l4.4,2.6l1.5,1L397.4,156.1" />
<path id="TX_Cooke" fill="#D0D0D0" stroke="#00FF00" stroke-width="0.9697" d="M419.8,153.7l1,27
            l-18.5-0.1l-4.4,0l-0.6-24.5l1,3.7l0.1,0.3l0,0.1l0,0l0.3,0.3l0.4,0.2l12.4,4.8l0.6,0.2l0.7,0.1l0.6-0.2l0.4-0.4l0.2-0.3
            L419.8,153.7" />
<path id="TX_Fannin" fill="#D0D0D0" stroke="#00FF00" stroke-width="0.9697" d="M465.9,157.4
            l0.3,19.2l0.1,2.6l-18.2,3.7l-3.8-2.2l-0.5-16.7l0.4,0.5l6.2-1.8l0.9-0.3l0.7-0.4l0.1-0.1l0.4-0.4l0-0.1l0,0l0.1-0.3l0.1-0.4
            l0-0.1l0-0.1l0.2-1.2l0.3-1.3l2.1-0.6l4.7-0.6l0.9-0.1l0.6-0.1l2.4,0.4L465.9,157.4" />
<path id="TX_Grayson" fill="#D0D0D0" stroke="#00FF00" stroke-width="0.9697" d="M420.2,153.5
            l2.3,4.3l0.7,0.7l0.4,0.3l4,1l2-0.4l0,0l4.1-2.1l-0.1,0.8l0.1,0.6l0,0.2l0,0.1l4.4,2.7l0.4,0.2l0.1,0l2.1-0.5l0.5,0l0.6,0.2l0,0
            l1.9,2.4l0.5,16.7l-18.9,0.3l-4.6-0.4l-1-27L420.2,153.5" />
<path id="TX_Lamar" fill="#D0D0D0" stroke="#00FF00" stroke-width="0.9697" d="M488,154.7l1.4,24.9
            l-2.7-0.4l-4.4-2.7l-0.8-0.3l-4.7-1.2l-0.8-0.1l-5.8-0.2l-0.8,0.2l-3.2,1.7l-0.3-19.2l3.5-1.5l0,0l3.4-2l3-1.7l1.4,0l0.3,0.1
            l0.5,1.1l0,0.3l-0.1,0.4l0,0.3l0,0l0.2,0.3l0.2,0.1l4.2,0.4l1.6,0.1l2.8-0.3l0,0L488,154.7" />
<path id="TX_Arkansas" fill="#D0D0D0" stroke="#00FF00" stroke-width="0.9697" d="M415.9,450.6
            l0.9,0.7l0.1,0l3.9-2.1l5.5-4.5l0.2-0.8l-0.9,0l-1-0.1l-1.8-0.9l-1.1-1.3l-0.1-1l14.7-2.8l-0.3,2.3l0.6,0.8l0,0.3l-0.5,1.3
            l-0.4,0.4l-5.4,4.9l-1.3,0.1l-3.7,5.2l-3.7,6.1L415.9,450.6 M435.1,448.1l-1,2.6l-8.2,11.5l-0.3-0.6L435.1,448.1" />
<path id="TX_Cameron" fill="#D0D0D0" stroke="#00FF00" stroke-width="0.9697" d="M391.1,537.8
            l15.4,2l4.8-3.5l1.7-2.3l0.2,0.1l2.2,2.9l0.1,4.2l1.9,7.8l3.6,5.5l0.1,0.1l-0.5,1.8l-8.1,5.4l-4.1-1.1l-0.7-0.4l-0.6-0.5l-2.7-1.9
            l-4-4.1l-0.2-0.6l-5.3-0.7l-3.5-0.4L391.1,537.8 M419.4,533.8l0.8,0l1.5,5.2l0.5,2l0.7,3.7l1.1,6.2l-0.2,0l-0.1,0l-0.4-0.5
            l-0.6-3.4l0-1.6l-0.3-1.8l-0.6-2.8l-1.1-4.1l-0.6-1.6L419.4,533.8" />
</g>
<g id="Outer_border">
<polyline fill="#D0D0D0" stroke="#00FF00" stroke-width="0.9697" stroke-linecap="round" stroke-linejoin="round" points="
    391.1,537.8 406.5,539.8 411.3,536.3 413,534 413.198,534.1 415.4,537 415.5,541.2 417.4,549 421,554.5 421.1,554.6 420.6,556.4
    412.5,561.8 408.4,560.7 407.698,560.3 407.1,559.8 404.4,557.9 400.4,553.8 400.198,553.2 394.9,552.5 391.4,552.1 391.1,537.8 " />
<polygon fill="none" stroke="#FF0000" stroke-width="1.2" stroke-linecap="round" stroke-linejoin="round" points="448.198,437.1
        445.9,438.2 445.4,438.5 435.6,445.8 435.1,448.1 425.698,461.6 417.198,475.3 412.1,490.7 411.698,493.2 411.5,494.4 411.5,496.8
        411.5,499.9 411.6,502 411.8,507.3 412.1,513.6 415.6,524.5 419.4,533.8 420.1,535.1 420.698,536.7 421.8,540.8 422.4,543.6
        422.698,545.4 422.698,547 423.3,550.4 423.698,550.9 423.8,550.9 424,550.9 422.9,544.7 422.198,541 421.698,539 420.198,533.8
        417,524.5 416.5,523.1 416.4,522.9 416.3,522.7 414.698,517.7 413.698,514.2 413,511 413,510.8 412.698,509.1 412.3,505
        412.1,502.2 412.198,499.6 412.3,496.6 412.6,494.1 413.1,491.2 413.198,490.7 418.4,475.6 425.9,462.3 434.1,450.7 434.198,450.6
        434.3,450.5 438.3,446.8 441,444.4 444.198,441.9 447.4,439.7 448,439.4 452.198,437.1 451.6,436.2 	" />
<polygon fill="none" stroke="#FF0000" stroke-width="1.2" stroke-linecap="round" stroke-linejoin="round" points="571,305.4
        571.6,301.9 570.8,285.9 568.8,286.6 568.198,284 567.9,282.3 566.3,276.8 562.1,271.2 557.3,266.6 554.5,253.7 548.198,247.2
        546.4,236.4 545.698,226.5 544.698,211.3 544.1,201.8 543.6,194.8 542.8,182 541.8,167.8 540.8,167 540,166.7 535.9,166.1
        533.6,166.5 533,166.6 532.8,166.8 528.8,169.1 526.5,167.9 525.9,167.6 524.1,166.5 523.8,166.2 523.5,165.5 523.1,164.6 512,162
        506.8,160.1 499.3,154.7 494.3,150.7 491.6,149.9 491.3,149.9 491.1,150 490.3,151.4 490.198,151.5 490.198,151.6 490.198,151.7
        490.4,152 490.4,152.1 490.5,152.5 490.5,153 490.3,153.6 490,153.8 489,154.6 488.6,154.6 488,154.7 486.8,154.9 484,155.2
        482.4,155.1 478.198,154.8 478.1,154.6 477.9,154.4 477.9,154.3 477.9,154.1 478,153.7 478,153.4 477.5,152.3 477.198,152.2
        475.8,152.1 472.8,153.9 469.4,155.8 469.4,155.9 465.9,157.4 463.8,157.1 461.4,156.7 460.8,156.8 460,156.9 455.3,157.5
        453.198,158.1 452.9,159.3 452.698,160.6 452.698,160.7 452.6,160.8 452.5,161.2 452.4,161.6 452.4,161.7 452,162.1 452,162.2
        451.198,162.5 450.4,162.8 444.198,164.6 443.8,164.1 441.8,161.7 441.3,161.5 440.8,161.5 438.698,162 438.6,162 438.198,161.7
        433.8,159 433.8,158.9 433.698,158.7 433.698,158.1 433.8,157.2 429.698,159.3 429.6,159.3 427.6,159.8 423.6,158.7 423.198,158.5
        422.5,157.7 420.198,153.5 419.8,153.7 414,164.9 413.8,165.2 413.4,165.5 412.8,165.7 412.1,165.7 411.5,165.5 399.198,160.7
        398.8,160.5 398.5,160.2 398.5,160.1 398.4,159.9 397.6,157.2 397.4,156.1 396.3,156.5 394.198,157.1 392.6,156.2 388.3,153.5
        386.9,155.4 384.8,157.7 382.8,159.5 381.5,159.9 381,159.9 377.3,158.4 376.8,158 377.8,155.6 378,152.9 376.4,152.3 375,152.7
        374.9,152.7 374,152.8 372.3,152.3 372.198,152.3 372.1,152.2 371.3,150.8 368.6,146.8 362,145 360.4,144.8 359.6,145.2
        358.1,147.4 355.9,149.5 355.64,149.514 354.698,149.2 352.6,146.1 351.6,145.3 350.6,144.8 350.198,144.8 346.5,146.1
        343.8,146.1 339.9,145.3 336,143.2 335.4,142.9 335.3,143 331.5,142.8 329.8,142.9 329,143 327.4,142.7 326.6,142.5 326.1,142.4
        326,142.3 325.1,138.4 325.1,137.3 325.1,136.2 325.1,136.1 323,132.8 320.9,131.8 319,130.9 317.4,134.1 317.4,134.2 317.3,134.3
        317,134.4 315.6,134.4 314.198,133.1 313.1,132.6 312.5,132.4 310.5,132.2 310,132.2 309.8,132.3 308.3,134.4 306.698,134.5
        306.3,134.5 305.1,134.2 302,131.6 300.9,130.4 298.7,127.7 292.5,125 292.4,115.6 292.3,101.2 292.3,93.4 292.3,71.2 292.2,57.9
        292.2,49 292,26.4 270.1,26.4 253.7,26.3 248.4,26.3 226.7,26 210.2,25.7 205,25.6 171.1,24.8 169.5,25.8 169.3,34 168.9,47.4
        168.4,63.4 168.2,69.4 167.5,91.7 167.2,103.3 166.9,113.8 166.2,135.9 166.2,136.4 165.3,160.7 164.7,173.5 164.2,182.8
        163.3,204.5 162.6,226.6 162,248.7 161.8,253.1 160.8,253 158.4,252.9 155.4,252.8 153.2,252.8 150.6,252.7 133.7,252.1
        122.7,251.7 120.8,251.7 85.7,250.1 82.7,249.9 36.7,247.3 20.5,246.3 11.2,245.8 11,245.7 11,245.8 10.2,248 10.1,248.3
        9.3,252.7 9.4,253 9.8,253.5 13.3,256.9 17.9,258.8 19.4,259.9 20.4,261.5 24.3,269.6 25.6,273.1 26,273.7 26.2,273.9 26.8,274.4
        29.1,276.1 30.5,276.7 34.8,278.4 38.7,283 44.8,290.2 52.6,299.5 59.2,306.5 64.7,309.7 65.3,309.9 67,309.9 70.4,312.6
        73.9,316.1 76.3,319.3 78.7,320.6 87.4,339.4 88.2,342.3 88.1,346.7 87.6,350.4 88,355.3 88.2,355.8 93.6,367.9 94.5,369.7
        110.3,383.4 113.6,385.8 115.2,387 115.4,387.1 115.7,387.2 118.1,388 125.6,390.1 126.6,392 128.4,393.8 128.9,394.2 143.2,402.7
        147.7,404.6 152.9,405.6 153.2,405.6 155,405.1 166.2,386.8 169.4,378.4 174.9,368.5 175,368.4 175.9,367.8 183.8,365.5
        189.3,362.7 191.4,361.2 200.1,365.5 203,366 203.4,365.7 207.6,365.2 210.3,365.5 214.6,366.3 214.9,366.4 215.7,366.6 221.6,367
        222.6,367 228.9,367.1 229.1,367.1 231.3,367.8 238,374.6 238.1,374.9 247.3,385.2 258,394 263.5,402 264.4,407 270.6,419.3
        277.7,436 280.2,442.7 281.6,444.4 283.8,446.6 289.2,449.1 289.5,449.2 293.6,456.7 298.8,466.2 300.3,467.8 308.3,474.5
        310,474.5 310.1,474.3 310.198,474.2 311.198,474.4 313.3,475.7 313.9,476.1 314.9,477.7 316.698,482.1 316.4,485.9 316.198,486.9
        315.6,488.6 314.4,490.3 314.198,490.6 314.198,490.8 314.3,490.9 314.6,491.1 316.1,492.6 316.198,492.6 317.198,493.1
        318.1,493.2 318.5,493.9 319.3,497.6 319.1,501.7 318.4,502.9 318.198,503.1 318.1,503.3 318.4,505.3 321.5,509.7 324.1,511
        326.6,514.2 327.8,516.9 329.4,521.8 329.4,521.9 330.3,525.1 331.1,527.8 331.198,528 331.3,528.4 334.198,534.3 336.9,535.9
        352.6,542.1 356,543.4 358.1,543 363.5,544.6 363.6,544.6 364.9,545.2 367.3,547.8 372.3,550.9 373,551.3 374.1,551.8 377.4,552.3
        383.1,553.2 384.6,552.5 384.8,552.3 386.1,552.2 390.198,552 391.198,552.1 391.5,552.1 395,552.6 400.198,553.2 400.4,553.8
        404.4,557.9 407.198,559.9 407.8,560.3 408.5,560.7 412.6,561.7 420.698,556.4 421.1,554.6 421,554.5 417.4,549 415.5,541.2
        415.4,537 413.1,534.1 409.9,524.6 409.8,523 408.4,516.8 406.6,514.6 407.4,504.7 409.1,498.9 409.9,491.8 409.8,491.5
        408.6,491.6 407,492.2 406.4,492.6 406.198,492.8 405.9,493 405.5,493.2 404.5,493.4 400.5,492.8 400.3,492.6 400.1,492.3
        400,491.4 400.1,491 405.9,491 409.9,488.8 410.198,488.6 410.5,488.2 410.698,487.9 411.9,484.5 413.8,476.5 415,473.8
        416.3,470.5 413.9,468.9 412.6,468.3 411.6,467.5 410.698,466.3 410.4,465.5 410.4,463.9 410.9,462.7 411.8,462 414.698,460.6
        415.5,460.4 421.8,459.1 422.1,458.6 425.5,453 429.1,447.8 430.4,447.7 435.8,442.8 436.198,442.5 436.8,441.1 436.8,440.9
        436.198,440 436.5,437.7 437.198,433.1 437.3,433.1 440.198,436.1 440.6,436.3 441.698,436.7 444.9,435.6 445.3,435.4 453.5,430.8
        453.6,430.5 453.198,430 452.698,429.6 447.4,425.2 446.1,424.4 444.1,424.1 444,424 441.4,418.5 442,417.9 442.3,417.8
        445.1,417.5 445.5,419.8 446,421 449.698,424.1 454,422.1 456.698,420.7 457.5,420.2 458.198,418.5 459,418.2 461,417.7
        461.9,417.5 462.198,417.6 462.4,417.8 461.8,427.1 454.8,432.8 454.6,433.3 454.698,433.6 455.1,433 456.3,432 459.3,429.7
        459.4,429.6 461.6,428 467.8,424.5 471.1,422.8 476.198,420.3 479.3,418.5 489.1,412.3 489.9,411.7 491.698,410.5 492.5,409.9
        498.1,407 508.8,396.8 509,396.2 509.4,395.7 509.8,395.3 510.4,394.6 510.6,394.5 510.9,394.2 512.4,393 512.9,392.5
        513.198,392.3 518.3,388.4 522.4,385.4 523.1,384.8 525.4,382.5 521.9,381.7 523.1,381 523.3,381.2 524,381.1 525.3,380.7
        525.4,380.5 525.6,379.9 525.8,379.7 526.1,379.1 526.198,378.9 526.5,378.6 526.6,378.4 526.8,378.2 527.198,377.9 527.698,377.5
        527.8,377.4 528.3,377.1 529.198,376.5 529.5,376.3 531,375.3 531.6,375.1 535,373.3 535.198,373.2 535.5,373 539.3,371
        540.6,370.4 541.3,370 550.8,365.1 554,363.6 556.4,363 558.4,362.9 559.5,362.9 563.6,362 562.698,350.8 567.4,343.6 567,333.8
        565.3,326 565.3,325.9 566.9,324.5 567.1,324 567.1,323.7 566.4,320.6 565.1,319.2 564.9,319.1 565.4,317.3 	" />
</g>
<g id="CountyNames">
<text id="TX_Dallam_Name" transform="matrix(1 0 0 1 182.0774 39.7988)" font-family="'Arial'" font-size="4">Dallam</text>
<text id="TX_Hartley_Name" transform="matrix(1 0 0 1 179.7146 60.0996)" font-family="'Arial'" font-size="4">Hartley</text>
<text id="TX_Oldham_Name" transform="matrix(1 0 0 1 179.7146 82.6909)" font-family="'Arial'" font-size="4">Oldham</text>
<text id="TX_Deaf Smith_Name" transform="matrix(1 0 0 1 176.7146 103.8501)" font-family="'Arial'" font-size="4">Deaf Smith</text>
<text id="TX_Parmer_Name" transform="matrix(1 0 0 1 171.4514 126.5977)" font-family="'Arial'" font-size="4">Parmer</text>
<text id="TX_Bailey_Name" transform="matrix(1 0 0 1 169.7634 149.5137)" font-family="'Arial'" font-size="4">Bailey</text>
<text id="TX_Lamb_Name" transform="matrix(1 0 0 1 189.5051 149.5137)" font-family="'Arial'" font-size="4">Lamb</text>
<text id="TX_Hale_Name" transform="matrix(1 0 0 1 212.1941 149.5137)" font-family="'Arial'" font-size="4">Hale</text>
<text id="TX_Floyd_Name" transform="matrix(1 0 0 1 233.2141 149.5137)" font-family="'Arial'" font-size="4">Floyd</text>
<text id="TX_Motley_Name" transform="matrix(1 0 0 1 253.8606 149.5137)" font-family="'Arial'" font-size="4">Motley</text>
<text id="TX_Cottle_Name" transform="matrix(1 0 0 1 275.2571 149.5137)" font-family="'Arial'" font-size="4">Cottle</text>
<text id="TX_Hardeman_Name" transform="matrix(1 0 0 1 293.5764 141.2197)" font-family="'Arial'" font-size="4">Hardeman</text>
<text id="TX_Wilbarger_Name" transform="matrix(1 0 0 1 316.8372 154.3921)" font-family="'Arial'" font-size="4">Wilbarger</text>
<text id="TX_Wichita_Name" transform="matrix(1 0 0 1 339.3538 154.3921)" font-family="'Arial'" font-size="4">Wichita</text>
<text id="TX_Clay_Name" transform="matrix(1 0 0 1 363.0696 171.3145)" font-family="'Arial'" font-size="4">Clay</text>
<text id="TX_Archer_Name" transform="matrix(1 0 0 1 341.7961 173.3145)" font-family="'Arial'" font-size="4">Archer</text>
<text id="TX_Baylor_Name" transform="matrix(1 0 0 1 320.6428 173.3145)" font-family="'Arial'" font-size="4">Baylor</text>
<text id="TX_Knox_Name" transform="matrix(1 0 0 1 299.3557 173.3145)" font-family="'Arial'" font-size="4">Knox</text>
<text id="TX_King_Name" transform="matrix(1 0 0 1 277.8665 173.3145)" font-family="'Arial'" font-size="4">King</text>
<text id="TX_Dickens_Name" transform="matrix(1 0 0 1 252.8845 173.3145)" font-family="'Arial'" font-size="4">Dickens</text>
<text id="TX_Crosby_Name" transform="matrix(1 0 0 1 232.3953 173.3145)" font-family="'Arial'" font-size="4">Crosby</text>
<text id="TX_Lubbock_Name" transform="matrix(1 0 0 1 208.9011 173.3145)" font-family="'Arial'" font-size="4">Lubbock</text>
<text id="TX_Hockley_Name" transform="matrix(1 0 0 1 187.3948 173.3145)" font-family="'Arial'" font-size="4">Hockley</text>
<text id="TX_Cochran_Name" transform="matrix(1 0 0 1 166.3752 173.3145)" font-family="'Arial'" font-size="4">Cochran</text>
<text id="TX_Yoakum_Name" transform="matrix(1 0 0 1 166.7815 195.0981)"><tspan x="0" y="0" font-family="'Arial'" font-size="4">Y</tspan><tspan x="2.3" y="0" font-family="'Arial'" font-size="4">oakum</tspan></text>
<text id="TX_Gaines_Name" transform="matrix(1 0 0 1 175.7405 217.4292)" font-family="'Arial'" font-size="4">Gaines</text>
<text id="TX_Dawson_Name" transform="matrix(1 0 0 1 203.4397 217.4292)" font-family="'Arial'" font-size="4">Dawson</text>
<text id="TX_Borden_Name" transform="matrix(1 0 0 1 225.1375 217.4292)" font-family="'Arial'" font-size="4">Borden</text>
<text id="TX_Scurry_Name" transform="matrix(1 0 0 1 248.0764 217.4292)" font-family="'Arial'" font-size="4">Scurry</text>
<text id="TX_Fisher_Name" transform="matrix(1 0 0 1 269.8113 217.4292)" font-family="'Arial'" font-size="4">Fisher</text>
<text id="TX_Jones_Name" transform="matrix(1 0 0 1 291.406 217.4292)" font-family="'Arial'" font-size="4">Jones</text>
<text id="TX_Shackelford_Name" transform="matrix(1 0 0 1 311.5608 217.4292)"><tspan x="0" y="0" font-family="'Arial'" font-size="4">Shackel-</tspan><tspan x="4.3" y="4" font-family="'Arial'" font-size="4">ford</tspan></text>
<text id="TX_Callahan_Name" transform="matrix(1 0 0 1 311.4475 239.228)" font-family="'Arial'" font-size="4">Callahan</text>
<text id="TX_Taylor_Name" transform="matrix(1 0 0 1 291.9905 239.228)"><tspan x="0" y="0" font-family="'Arial'" font-size="4">T</tspan><tspan x="2" y="0" font-family="'Arial'" font-size="4">aylor</tspan></text>
<text id="TX_Nolan_Name" transform="matrix(1 0 0 1 269.8323 239.228)" font-family="'Arial'" font-size="4">Nolan</text>
<text id="TX_Mitchell_Name" transform="matrix(1 0 0 1 246.6091 239.228)" font-family="'Arial'" font-size="4">Mitchell</text>
<text id="TX_Howard_Name" transform="matrix(1 0 0 1 224.6956 239.228)" font-family="'Arial'" font-size="4">Howard</text>
<text id="TX_Martin_Name" transform="matrix(1 0 0 1 204.1086 239.228)" font-family="'Arial'" font-size="4">Martin</text>
<text id="TX_Andrews_Name" transform="matrix(1 0 0 1 174.2961 239.228)" font-family="'Arial'" font-size="4">Andrews</text>
<text id="TX_Winkler_Name" transform="matrix(1 0 0 1 154.9773 261.2139)" font-family="'Arial'" font-size="4">Winkler</text>
<text id="TX_Loving_Name" transform="matrix(1 0 0 1 133.532 261.2139)" font-family="'Arial'" font-size="4">Loving</text>
<text id="TX_Reeves_Name" transform="matrix(1 0 0 1 127.0588 289.4805)" font-family="'Arial'" font-size="4">Reeves</text>
<text id="TX_Pecos_Name" transform="matrix(1 0 0 1 164.3718 314.9526)" font-family="'Arial'" font-size="4">Pecos</text>
<text id="TX_Terrell_Name" transform="matrix(1 0 0 1 195.5339 343.5234)"><tspan x="0" y="0" font-family="'Arial'" font-size="4">T</tspan><tspan x="2" y="0" font-family="'Arial'" font-size="4">errell</tspan></text>
<text id="TX_Crockett_Name" transform="matrix(1 0 0 1 225.7566 320.6304)" font-family="'Arial'" font-size="4">Crockett</text>
<text id="TX_Schleicher_Name" transform="matrix(1 0 0 1 260.6741 311.3931)" font-family="'Arial'" font-size="4">Schleicher</text>
<text id="TX_Menard_Name" transform="matrix(1 0 0 1 294.4612 311.3931)" font-family="'Arial'" font-size="4">Menard</text>
<text id="TX_Mason_Name" transform="matrix(1 0 0 1 320.5452 320.6304)" font-family="'Arial'" font-size="4">Mason</text>
<text id="TX_Llano_Name" transform="matrix(1 0 0 1 344.9338 320.6304)" font-family="'Arial'" font-size="4">Llano</text>
<text id="TX_Burnet_Name" transform="matrix(1 0 0 1 365.8479 316.0039)" font-family="'Arial'" font-size="4">Burnet</text>
<text id="TX_Williamson_Name" transform="matrix(1 0 0 1 386.5608 322.019)" font-family="'Arial'" font-size="4">Williamson</text>
<text id="TX_Travis_Name" transform="matrix(1 0 0 1 385.9182 339.5049)"><tspan x="0" y="0" font-family="'Arial'" font-size="4">T</tspan><tspan x="2.3" y="0" font-family="'Arial'" font-size="4">ravis</tspan></text>
<text id="TX_Bastrop_Name" transform="matrix(1 0 0 1 402.7893 350.0313)" font-family="'Arial'" font-size="4">Bastrop</text>
<text id="TX_Fayette_Name" transform="matrix(1 0 0 1 420.7971 359.5439)" font-family="'Arial'" font-size="4">Fayette</text>
<text id="TX_Colorado_Name" transform="matrix(1 0 0 1 436.6643 371.9766)" font-family="'Arial'" font-size="4">Colorado</text>
<text id="TX_Wharton_Name" transform="matrix(1 0 0 1 451.8303 390.0156)" font-family="'Arial'" font-size="4">Wharton</text>
<text id="TX_Jackson_Name" transform="matrix(1 0 0 1 437.9807 406.7715)" font-family="'Arial'" font-size="4">Jackson</text>
<text id="TX_Victoria_Name" transform="matrix(1 0 0 1 420.8342 413.4805)"><tspan x="0" y="0" font-family="'Arial'" font-size="4">V</tspan><tspan x="2.6" y="0" font-family="'Arial'" font-size="4">ictoria</tspan></text>
<text id="TX_Matagorda_Name" transform="matrix(1 0 0 1 461.2952 409.8564)" font-family="'Arial'" font-size="4">Matagorda</text>
<text id="TX_Fort Bend_Name" transform="matrix(1 0 0 1 470.8596 375.335)" font-family="'Arial'" font-size="4">Fort Bend</text>
<text id="TX_Hays_Name" transform="matrix(1 0 0 1 374.0569 353.2061)" font-family="'Arial'" font-size="4">Hays</text>
<text id="TX_Caldwell_Name" transform="matrix(1 0 0 1 388.6702 363.3145)" font-family="'Arial'" font-size="4">Caldwell</text>
<text id="TX_Blanco_Name" transform="matrix(1 0 0 1 357.2346 342.8945)" font-family="'Arial'" font-size="4">Blanco</text>
<text id="TX_Gillespie_Name" transform="matrix(1 0 0 1 331.8342 339.9951)" font-family="'Arial'" font-size="4">Gillespie</text>
<text id="TX_Kerr_Name" transform="matrix(1 0 0 1 318.2483 354.2803)" font-family="'Arial'" font-size="4">Kerr</text>
<text id="TX_Kendall_Name" transform="matrix(1 0 0 1 342.0999 358.582)" font-family="'Arial'" font-size="4">Kendall</text>
<text id="TX_Comal_Name" transform="matrix(1 0 0 1 362.2678 365.5439)" font-family="'Arial'" font-size="4">Comal</text>
<text id="TX_Guadalupe_Name" transform="matrix(1 0 0 1 371.803 376.3926)" font-family="'Arial'" font-size="4">Guadalupe</text>
<text id="TX_Gonzales_Name" transform="matrix(1 0 0 1 394.2991 382.9775)" font-family="'Arial'" font-size="4">Gonzales</text>
<text id="TX_Lavaca_Name" transform="matrix(1 0 0 1 421.5745 382.9775)" font-family="'Arial'" font-size="4">Lavaca</text>
<text id="TX_DeWitt_Name" transform="matrix(1 0 0 1 406.2346 398.5654)" font-family="'Arial'" font-size="4">DeWitt</text>
<text id="TX_Karnes_Name" transform="matrix(1 0 0 1 380.7385 411.1914)" font-family="'Arial'" font-size="4">Karnes</text>
<text id="TX_Wilson_Name" transform="matrix(1 0 0 1 371.5784 396.2617)" font-family="'Arial'" font-size="4">Wilson</text>
<text id="TX_Edwards_Name" transform="matrix(1 0 0 1 270.2058 359.5439)" font-family="'Arial'" font-size="4">Edwards</text>
<text id="TX_Kinney_Name" transform="matrix(1 0 0 1 268.1609 388.9746)" font-family="'Arial'" font-size="4">Kinney</text>
<text id="TX_Uvalade_Name" transform="matrix(1 0 0 1 296.0432 388.9746)" font-family="'Arial'" font-size="4">Uvalade</text>
<text id="TX_Val Verde_Name" transform="matrix(1 0 0 1 230.3723 359.5439)"><tspan x="0" y="0" font-family="'Arial'" font-size="4">V</tspan><tspan x="2.4" y="0" font-family="'Arial'" font-size="4">al </tspan><tspan x="6.6" y="0" font-family="'Arial'" font-size="4">V</tspan><tspan x="9" y="0" font-family="'Arial'" font-size="4">erde</tspan></text>
<text id="TX_Real_Name" transform="matrix(1 0 0 1 297.1292 366.5049)" font-family="'Arial'" font-size="4">Real</text>
<text id="TX_Bandera_Name" transform="matrix(1 0 0 1 315.6272 368.7598)" font-family="'Arial'" font-size="4">Bandera</text>
<text id="TX_Medina_Name" transform="matrix(1 0 0 1 324.7913 388.9746)" font-family="'Arial'" font-size="4">Medina</text>
<text id="TX_Bexar_Name" transform="matrix(1 0 0 1 352.6565 384.248)" font-family="'Arial'" font-size="4">Bexar</text>
<text id="TX_Atascosa_Name" transform="matrix(1 0 0 1 349.6545 411.957)" font-family="'Arial'" font-size="4">Atascosa</text>
<text id="TX_Frio_Name" transform="matrix(1 0 0 1 328.9709 411.957)" font-family="'Arial'" font-size="4">Frio</text>
<text id="TX_Zavala_Name" transform="matrix(1 0 0 1 296.9104 411.957)" font-family="'Arial'" font-size="4">Zavala</text>
<text id="TX_Dimmit_Name" transform="matrix(1 0 0 1 296.6936 435.2393)" font-family="'Arial'" font-size="4">Dimmit</text>
<text id="TX_La Salle_Name" transform="matrix(1 0 0 1 325.5159 438.8799)" font-family="'Arial'" font-size="4">La Salle</text>
<text id="TX_McMullen_Name" transform="matrix(1 0 0 1 348.8167 438.8799)" font-family="'Arial'" font-size="4">McMullen</text>
<text id="TX_Live Oak_Name" transform="matrix(1 0 0 1 368.9241 438.8799)" font-family="'Arial'" font-size="4">Live Oak</text>
<text id="TX_Bee_Name" transform="matrix(1 0 0 1 392.6702 438.8799)" font-family="'Arial'" font-size="4">Bee</text>
<text id="TX_San Patricio_Name" transform="matrix(1 0 0 1 391.8655 454.7813)" font-family="'Arial'" font-size="4">San Patricio</text>
<text id="TX_Jim Wells_Name" transform="matrix(1 0 0 1 376.1096 464.0186)"><tspan x="0" y="0" font-family="'Arial'" font-size="4">Jim</tspan><tspan x="-1.7" y="4" font-family="'Arial'" font-size="4">W</tspan><tspan x="2" y="4" font-family="'Arial'" font-size="4">ells</tspan></text>
<text id="TX_Nueces_Name" transform="matrix(1 0 0 1 391.1292 469.6162)" font-family="'Arial'" font-size="4">Nueces</text>
<text id="TX_Kleberg_Name" transform="matrix(1 0 0 1 391.0159 484.2002)" font-family="'Arial'" font-size="4">Kleberg</text>
<text id="TX_Kenedy_Name" transform="matrix(1 0 0 1 389.4456 508.583)" font-family="'Arial'" font-size="4">Kenedy</text>
<text id="TX_Brooks_Name" transform="matrix(1 0 0 1 368.5549 504.9307)" font-family="'Arial'" font-size="4">Brooks</text>
<text id="TX_Hidalgo_Name" transform="matrix(1 0 0 1 368.0002 537.3691)" font-family="'Arial'" font-size="4">Hidalgo</text>
<text id="TX_Cameron_Name" transform="matrix(1 0 0 1 396.2014 547.7705)" font-family="'Arial'" font-size="4">Cameron</text>
<text id="TX_Willacy_Name" transform="matrix(1 0 0 1 392.5081 532.1475)" font-family="'Arial'" font-size="4">Willacy</text>
<text id="TX_Jim Hogg_Name" transform="matrix(1 0 0 1 342.8225 504.9307)" font-family="'Arial'" font-size="4"> Jim Hogg</text>
<text id="TX_Starr_Name" transform="matrix(1 0 0 1 345.4944 528.668)" font-family="'Arial'" font-size="4">Starr</text>
<text id="TX_Zapata_Name" transform="matrix(1 0 0 1 324.217 504.9307)" font-family="'Arial'" font-size="4">Zapata</text>
<text id="TX_Goliad_Name" transform="matrix(1 0 0 1 401.7249 422.7686)" font-family="'Arial'" font-size="4">Goliad</text>
<text id="TX_Refugio_Name" transform="matrix(1 0 0 1 413.3323 437.2695)" font-family="'Arial'" font-size="4">Refugio</text>
<text id="TX_Calhoun_Name" transform="matrix(1 0 0 1 433.9905 429.5352)" font-family="'Arial'" font-size="4">Calhoun</text>
<text id="TX_Arkansas_Name" transform="matrix(1 0 0 1 423.6702 448.1396)" font-family="'Arial'" font-size="4">Aransas</text>
<text id="TX_Duval_Name" transform="matrix(1 0 0 1 356.0217 470.792)" font-family="'Arial'" font-size="4">Duval</text>
<text id="TX_Webb_Name" transform="matrix(1 0 0 1 320.2053 470.792)"><tspan x="0" y="0" font-family="'Arial'" font-size="4">W</tspan><tspan x="3.7" y="0" font-family="'Arial'" font-size="4">ebb</tspan></text>
<text id="TX_Maverick_Name" transform="matrix(1 0 0 1 269.3494 411.957)" font-family="'Arial'" font-size="4">Maverick</text>
<text id="TX_Kimble_Name" transform="matrix(1 0 0 1 295.1292 332.1396)" font-family="'Arial'" font-size="4">Kimble</text>
<text id="TX_Sutton_Name" transform="matrix(1 0 0 1 264.2297 331.3716)" font-family="'Arial'" font-size="4">Sutton</text>
<text id="TX_Jeff Davis_Name" transform="matrix(1 0 0 1 104.7952 316.0107)"><tspan x="0" y="0" font-family="'Arial'" font-size="4">Je</tspan><tspan x="4.2" y="0" font-family="'Arial'" font-size="4">f</tspan><tspan x="5.3" y="0" font-family="'Arial'" font-size="4">f Davis</tspan></text>
<text id="TX_Presidio_Name" transform="matrix(1 0 0 1 99.5471 353.8203)" font-family="'Arial'" font-size="4">Presidio</text>
<text id="TX_Brewster_Name" transform="matrix(1 0 0 1 141.8464 353.8203)" font-family="'Arial'" font-size="4">Brewster</text>
<text id="TX_Culberson_Name" transform="matrix(1 0 0 1 91.0125 277.2354)" font-family="'Arial'" font-size="4">Culberson</text>
<text id="TX_Hudspeth_Name" transform="matrix(1 0 0 1 49.3547 277.2354)" font-family="'Arial'" font-size="4">Hudspeth</text>
<text id="TX_El Paso_Name" transform="matrix(1 0 0 1 18.718 256.8271)" font-family="'Arial'" font-size="4">El Paso</text>
<text id="TX_Ector_Name" transform="matrix(1 0 0 1 178.4119 261.2139)" font-family="'Arial'" font-size="4">Ector</text>
<text id="TX_Midland_Name" transform="matrix(1 0 0 1 198.7644 261.2139)" font-family="'Arial'" font-size="4">Midland</text>
<text id="TX_Glasscock_Name" transform="matrix(1 0 0 1 218.4353 261.2139)" font-family="'Arial'" font-size="4">Glasscock</text>
<text id="TX_Sterling_Name" transform="matrix(1 0 0 1 240.9714 261.2139)" font-family="'Arial'" font-size="4">Sterling</text>
<text id="TX_Coke_Name" transform="matrix(1 0 0 1 265.343 261.2139)" font-family="'Arial'" font-size="4">Coke</text>
<text id="TX_Runnels_Name" transform="matrix(1 0 0 1 286.427 261.2139)" font-family="'Arial'" font-size="4">Runnels</text>
<text id="TX_Coleman_Name" transform="matrix(1 0 0 1 308.1272 261.2139)" font-family="'Arial'" font-size="4">Coleman</text>
<text id="TX_Brown_Name" transform="matrix(1 0 0 1 330.0852 267.1597)" font-family="'Arial'" font-size="4">Brown</text>
<text id="TX_Comanche_Name" transform="matrix(1 0 0 1 343.6819 258.6094)" font-family="'Arial'" font-size="4">Comanche</text>
<text id="TX_Hamilton_Name" transform="matrix(1 0 0 1 366.7278 270.4097)" font-family="'Arial'" font-size="4">Hamilton</text>
<text id="TX_Coryell_Name" transform="matrix(1 0 0 1 381.0071 285.9492)" font-family="'Arial'" font-size="4">Coryell</text>
<text id="TX_Lampasas_Name" transform="matrix(1 0 0 1 358.217 296.1519)" font-family="'Arial'" font-size="4">Lampasas</text>
<text id="TX_Mills_Name" transform="matrix(1 0 0 1 349.3547 280.4897)" font-family="'Arial'" font-size="4">Mills</text>
<text id="TX_San Saba_Name" transform="matrix(1 0 0 1 335.0081 298.6421)" font-family="'Arial'" font-size="4">San Saba</text>
<text id="TX_McCulloch_Name" transform="matrix(1 0 0 1 312.4377 295.144)" font-family="'Arial'" font-size="4">McCulloch</text>
<text id="TX_Concho_Name" transform="matrix(1 0 0 1 292.009 290.1255)" font-family="'Arial'" font-size="4">Concho</text>
<text id="TX_Tom Green_Name" transform="matrix(1 0 0 1 265.1653 290.125)"><tspan x="0" y="0" font-family="'Arial'" font-size="4">T</tspan><tspan x="2" y="0" font-family="'Arial'" font-size="4">om Green</tspan></text>
<text id="TX_Irion_Name" transform="matrix(1 0 0 1 246.5125 290.125)" font-family="'Arial'" font-size="4">Irion</text>
<text id="TX_Reagan_Name" transform="matrix(1 0 0 1 220.2224 290.125)" font-family="'Arial'" font-size="4">Reagan</text>
<text id="TX_Upton_Name" transform="matrix(1 0 0 1 199.4309 290.125)" font-family="'Arial'" font-size="4">Upton</text>
<text id="TX_Crane_Name" transform="matrix(1 0 0 1 178.0344 283.1646)" font-family="'Arial'" font-size="4">Crane</text>
<text id="TX_Ward_Name" transform="matrix(1 0 0 1 155.6843 278.9756)"><tspan x="0" y="0" font-family="'Arial'" font-size="4">W</tspan><tspan x="3.6" y="0" font-family="'Arial'" font-size="4">ard</tspan></text>
<text id="TX_Bosque_Name" transform="matrix(1 0 0 1 385.344 258.6094)" font-family="'Arial'" font-size="4">Bosque</text>
<text id="TX_McLennan_Name" transform="matrix(1 0 0 1 403.6448 276.3784)" font-family="'Arial'" font-size="4">McLennan</text>
<text id="TX_Hill_Name" transform="matrix(1 0 0 1 411.2073 253.313)" font-family="'Arial'" font-size="4">Hill</text>
<text id="TX_Navarro_Name" transform="matrix(1 0 0 1 436.0129 250.313)" font-family="'Arial'" font-size="4">Navarro</text>
<text id="TX_Freestone_Name" transform="matrix(1 0 0 1 449.0979 267.1597)" font-family="'Arial'" font-size="4">Freestone</text>
<text id="TX_Limestone_Name" transform="matrix(1 0 0 1 430.2463 274.8931)" font-family="'Arial'" font-size="4">Limestone</text>
<text id="TX_Leon_Name" transform="matrix(1 0 0 1 460.3127 287.02)" font-family="'Arial'" font-size="4">Leon</text>
<text id="TX_Robertson_Name" transform="matrix(1 0 0 1 433.8987 300.8384)" font-family="'Arial'" font-size="4">Robertson</text>
<text id="TX_Falls_Name" transform="matrix(1 0 0 1 419.9915 290.125)" font-family="'Arial'" font-size="4">Falls</text>
<text id="TX_Bell_Name" transform="matrix(1 0 0 1 398.8596 301.7412)" font-family="'Arial'" font-size="4">Bell</text>
<text id="TX_Milam_Name" transform="matrix(1 0 0 1 418.8811 314.9526)" font-family="'Arial'" font-size="4">Milam</text>
<text id="TX_Burleson_Name" transform="matrix(1 0 0 1 431.6555 328.7017)" font-family="'Arial'" font-size="4">Burleson</text>
<text id="TX_Brazos_Name" transform="matrix(1 0 0 1 444.3967 319.8345)" font-family="'Arial'" font-size="4">Brazos</text>
<text id="TX_Grimes_Name" transform="matrix(1 0 0 1 460.1809 325.3628)" font-family="'Arial'" font-size="4">Grimes</text>
<text id="TX_Waller_Name" transform="matrix(-4.371139e-008 -1 1 -4.371139e-008 470.0442 358.834)"><tspan x="0" y="0" font-family="'Arial'" font-size="4">W</tspan><tspan x="3.6" y="0" font-family="'Arial'" font-size="4">aller</tspan></text>
<text id="TX_Montgomery_Name" transform="matrix(1 0 0 1 478.4211 335.4199)" font-family="'Arial'" font-size="4">Montgomery</text>
<text id="TX_Lee_Name" transform="matrix(1 0 0 1 421.5491 337.5098)" font-family="'Arial'" font-size="4">Lee</text>
<text id="TX_Madison_Name" transform="matrix(1 0 0 1 460.425 303.8711)" font-family="'Arial'" font-size="4">Madison</text>
<text id="TX_Stephens_Name" transform="matrix(1 0 0 1 333.4495 217.4292)" font-family="'Arial'" font-size="4">Stephens</text>
<text id="TX_Palo Pinto_Name" transform="matrix(1 0 0 1 354.2327 217.4478)" font-family="'Arial'" font-size="4">Palo Pinto</text>
<text id="TX_Erath_Name" transform="matrix(1 0 0 1 363.2678 241.9023)" font-family="'Arial'" font-size="4">Erath</text>
<text id="TX_Eastland_Name" transform="matrix(1 0 0 1 334.592 239.228)" font-family="'Arial'" font-size="4">Eastland</text>
<text id="TX_Parker_Name" transform="matrix(1 0 0 1 379.6565 215.6172)" font-family="'Arial'" font-size="4">Parker</text>
<text id="TX_Hood_Name" transform="matrix(1 0 0 1 380.7659 233.9844)" font-family="'Arial'" font-size="4">Hood</text>
<text id="TX_Somervell_Name" transform="matrix(1 0 0 1 380.6995 243.7119)" font-family="'Arial'" font-size="3">Somervell</text>
<text id="TX_Tarrant_Name" transform="matrix(1 0 0 1 399.9963 215.6172)"><tspan x="0" y="0" font-family="'Arial'" font-size="4">T</tspan><tspan x="2" y="0" font-family="'Arial'" font-size="4">arrant</tspan></text>
<text id="TX_Johnson_Name" transform="matrix(1 0 0 1 397.6389 234.6235)" font-family="'Arial'" font-size="4">Johnson</text>
<text id="TX_Dallas_Name" transform="matrix(1 0 0 1 422.467 215.6172)" font-family="'Arial'" font-size="4">Dallas</text>
<text id="TX_Ellis_Name" transform="matrix(1 0 0 1 426.5217 234.9321)" font-family="'Arial'" font-size="4">Ellis</text>
<text id="TX_Kaufman_Name" transform="matrix(1 0 0 1 441.6155 221.0508)" font-family="'Arial'" font-size="4">Kaufman</text>
<text id="TX_Van Zandt_Name" transform="matrix(1 0 0 1 458.7815 221.0508)"><tspan x="0" y="0" font-family="'Arial'" font-size="4"> </tspan><tspan x="1.1" y="0" font-family="'Arial'" font-size="4">V</tspan><tspan x="3.5" y="0" font-family="'Arial'" font-size="4">an Zandt</tspan></text>
<text id="TX_Wood_Name" transform="matrix(1 0 0 1 481.1995 211.0615)"><tspan x="0" y="0" font-family="'Arial'" font-size="4">W</tspan><tspan x="3.7" y="0" font-family="'Arial'" font-size="4">ood</tspan></text>
<text id="TX_Upshur_Name" transform="matrix(1 0 0 1 500.6487 211.0615)" font-family="'Arial'" font-size="4">Upshur</text>
<g>
<text id="TX_Camp_Name" transform="matrix(1 0 0 1 499.7395 200.7476)" font-family="'Arial'" font-size="3">Camp</text>
        </g>
<g>
<text id="TX_Rains_Name" transform="matrix(1 0 0 1 467.0198 207.3647)" font-family="'Arial'" font-size="3">Rains</text>
        </g>
<text id="TX_Rock-wall_Name" transform="matrix(1 0 0 1 440.3186 205.2168)"><tspan x="0" y="0" font-family="'Arial'" font-size="3">Rock-</tspan><tspan x="1.3" y="3" font-family="'Arial'" font-size="3">wall</tspan></text>
<text id="TX_Terry_Name" transform="matrix(1 0 0 1 189.7937 195.0981)"><tspan x="0" y="0" font-family="'Arial'" font-size="4">T</tspan><tspan x="2" y="0" font-family="'Arial'" font-size="4">erry</tspan></text>
<text id="TX_Lynn_Name" transform="matrix(1 0 0 1 211.1355 195.0981)"><tspan x="0" y="0" font-family="'Arial'" font-size="4">L</tspan><tspan x="2.1" y="0" font-family="'Arial'" font-size="4">ynn</tspan></text>
<text id="TX_Garza_Name" transform="matrix(1 0 0 1 232.7693 195.0981)" font-family="'Arial'" font-size="4">Garza</text>
<text id="TX_Kent_Name" transform="matrix(1 0 0 1 254.6736 195.0981)" font-family="'Arial'" font-size="4">Kent</text>
<text id="TX_Stonewall_Name" transform="matrix(1 0 0 1 273.1975 195.0981)" font-family="'Arial'" font-size="4">Stonewall</text>
<text id="TX_Haskell_Name" transform="matrix(1 0 0 1 296.8245 195.0981)" font-family="'Arial'" font-size="4">Haskell</text>
<text id="TX_Throckmorton_Name" transform="matrix(1 0 0 1 318.6155 192.9448)"><tspan x="0" y="0" font-family="'Arial'" font-size="4">Throck-</tspan><tspan x="0.6" y="4" font-family="'Arial'" font-size="4">morton</tspan></text>
<text id="TX_Young_Name" transform="matrix(1 0 0 1 341.5129 194.8555)"><tspan x="0" y="0" font-family="'Arial'" font-size="4">Y</tspan><tspan x="2.3" y="0" font-family="'Arial'" font-size="4">oung</tspan></text>
<text id="TX_Montague_Name" transform="matrix(1 0 0 1 378.4719 171.3145)" font-family="'Arial'" font-size="4">Montague</text>
<text id="TX_Cooke_Name" transform="matrix(1 0 0 1 403.0686 171.3145)" font-family="'Arial'" font-size="4">Cooke</text>
<text id="TX_Denton_Name" transform="matrix(1 0 0 1 407.5354 192.4746)" font-family="'Arial'" font-size="4">Denton</text>
<text id="TX_Wise_Name" transform="matrix(1 0 0 1 386.843 192.4746)" font-family="'Arial'" font-size="4">Wise</text>
<text id="TX_Jack_Name" transform="matrix(1 0 0 1 364.9573 192.4746)" font-family="'Arial'" font-size="4">Jack</text>
<text id="TX_Grayson_Name" transform="matrix(1 0 0 1 424.4475 171.3145)" font-family="'Arial'" font-size="4">Grayson</text>
<text id="TX_Collin_Name" transform="matrix(1 0 0 1 431.0647 192.4746)" font-family="'Arial'" font-size="4">Collin</text>
<text id="TX_Fannin_Name" transform="matrix(1 0 0 1 448.8967 171.3145)" font-family="'Arial'" font-size="4">Fannin</text>
<text id="TX_Hunt_Name" transform="matrix(1 0 0 1 453.3596 194.6226)" font-family="'Arial'" font-size="4">Hunt</text>
<text id="TX_Lamar_Name" transform="matrix(1 0 0 1 471.9729 169.3145)" font-family="'Arial'" font-size="4">Lamar</text>
<text id="TX_Delta_Name" transform="matrix(1 0 0 1 468.677 180.3906)" font-family="'Arial'" font-size="4">Delta</text>
<text id="TX_Hopkins_Name" transform="matrix(1 0 0 1 471.8831 191.9106)" font-family="'Arial'" font-size="4">Hopkins</text>
<text id="TX_Red River_Name" transform="matrix(1 0 0 1 491.092 169.3145)" font-family="'Arial'" font-size="4">Red River</text>
<text id="TX_Bowie_Name" transform="matrix(1 0 0 1 521.2815 176.4033)" font-family="'Arial'" font-size="4">Bowie</text>
<text id="TX_Cass_Name" transform="matrix(1 0 0 1 526.1086 192.9448)" font-family="'Arial'" font-size="4">Cass</text>
<text id="TX_Marion_Name" transform="matrix(1 0 0 1 524.552 207.9219)" font-family="'Arial'" font-size="4">Marion</text>
<text id="TX_Harrison_Name" transform="matrix(1 0 0 1 523.1077 220.646)" font-family="'Arial'" font-size="4">Harrison</text>
<text id="TX_Smith_Name" transform="matrix(1 0 0 1 491.0403 232.5684)" font-family="'Arial'" font-size="4">Smith</text>
<text id="TX_Henderson_Name" transform="matrix(1 0 0 1 461.0715 241.0186)" font-family="'Arial'" font-size="4">Henderson</text>
<text id="TX_Anderson_Name" transform="matrix(1 0 0 1 469.094 260.4204)" font-family="'Arial'" font-size="4">Anderson</text>
<text id="TX_Cherokee_Name" transform="matrix(1 0 0 1 489.1428 256.3882)" font-family="'Arial'" font-size="4">Cherokee</text>
<text id="TX_Rusk_Name" transform="matrix(1 0 0 1 510.7043 243.7119)" font-family="'Arial'" font-size="4">Rusk</text>
<text id="TX_Panola_Name" transform="matrix(1 0 0 1 528.1526 239.228)" font-family="'Arial'" font-size="4">Panola</text>
<text id="TX_Shelby_Name" transform="matrix(1 0 0 1 536.7502 258.6094)" font-family="'Arial'" font-size="4">Shelby</text>
<text id="TX_Sabine_Name" transform="matrix(1 0 0 1 551.0305 279.5913)" font-family="'Arial'" font-size="4">Sabine</text>
<text id="TX_Angelina_Name" transform="matrix(1 0 0 1 516.5735 285.9492)" font-family="'Arial'" font-size="4">Angelina</text>
<text id="TX_Tyler_Name" transform="matrix(1 0 0 1 532.1125 310.2134)"><tspan x="0" y="0" font-family="'Arial'" font-size="4">T</tspan><tspan x="2.2" y="0" font-family="'Arial'" font-size="4">yler</tspan></text>
<text id="TX_Polk_Name" transform="matrix(1 0 0 1 511.7307 310.2134)" font-family="'Arial'" font-size="4">Polk</text>
<text id="TX_Walker_Name" transform="matrix(1 0 0 1 478.968 314.0649)"><tspan x="0" y="0" font-family="'Arial'" font-size="4">W</tspan><tspan x="3.6" y="0" font-family="'Arial'" font-size="4">alker</tspan></text>
<text id="TX_Jacinto_Name" transform="matrix(1 0 0 1 500.0032 320.6304)"><tspan x="0" y="0" font-family="'Arial'" font-size="4">San</tspan><tspan x="-2.8" y="4" font-family="'Arial'" font-size="4">Jacinto</tspan></text>
<text id="TX_Liberty_Name" transform="matrix(1 0 0 1 511.845 341.418)" font-family="'Arial'" font-size="4">Liberty</text>
<text id="TX_Hardin_Name" transform="matrix(1 0 0 1 530.5549 331.9448)" font-family="'Arial'" font-size="4">Hardin</text>
<text id="TX_Orange_Name" transform="matrix(1 0 0 1 551.7874 341.3984)" font-family="'Arial'" font-size="4">Orange</text>
<text id="TX_Jefferson_Name" transform="matrix(1 0 0 1 542.4065 353.6133)"><tspan x="0" y="0" font-family="'Arial'" font-size="4">Je</tspan><tspan x="4.2" y="0" font-family="'Arial'" font-size="4">f</tspan><tspan x="5.3" y="0" font-family="'Arial'" font-size="4">ferson</tspan></text>
<text id="TX_Chambers_Name" transform="matrix(1 0 0 1 520.2581 359.5439)" font-family="'Arial'" font-size="4">Chambers</text>
<text id="TX_Galveston_Name" transform="matrix(1 0 0 1 506.2561 382.7441)" font-family="'Arial'" font-size="4">Galveston</text>
<text id="TX_Brazoria_Name" transform="matrix(1 0 0 1 485.9377 393.0557)" font-family="'Arial'" font-size="4">Brazoria</text>
<text id="TX_Harris_Name" transform="matrix(1 0 0 1 488.052 359.7412)" font-family="'Arial'" font-size="4">Harris</text>
<text id="TX_Austin_Name" transform="matrix(1 0 0 1 450.8547 359.7412)" font-family="'Arial'" font-size="4">Austin</text>
<text id="TX_Washington_Name" transform="matrix(1 0 0 1 439.5891 342.3252)"><tspan x="0" y="0" font-family="'Arial'" font-size="4">W</tspan><tspan x="3.6" y="0" font-family="'Arial'" font-size="4">ashington</tspan></text>
<text id="TX_Trinity_Name" transform="matrix(1 0 0 1 497.3196 296.1519)"><tspan x="0" y="0" font-family="'Arial'" font-size="4">T</tspan><tspan x="2.3" y="0" font-family="'Arial'" font-size="4">rinity</tspan></text>
<text id="TX_Houston_Name" transform="matrix(1 0 0 1 483.053 284.2437)" font-family="'Arial'" font-size="4">Houston</text>
<text id="TX_Jasper_Name" transform="matrix(1 0 0 1 544.594 303.1055)" font-family="'Arial'" font-size="4">Jasper</text>
<text id="TX_Newton_Name" transform="matrix(1 0 0 1 556.885 295.144)" font-family="'Arial'" font-size="4">Newton</text>
<text id="TX_Nacogdo-ches_Name" transform="matrix(1 0 0 1 513.3127 266.561)"><tspan x="0" y="0" font-family="'Arial'" font-size="4">Nacogdo-</tspan><tspan x="4.4" y="4" font-family="'Arial'" font-size="4">ches</tspan></text>
<text id="TX_Augustine_Name" transform="matrix(1 0 0 1 539.4875 272.9419)"><tspan x="0" y="0" font-family="'Arial'" font-size="4">San</tspan><tspan x="-2.8" y="4" font-family="'Arial'" font-size="4">Augus-</tspan><tspan x="0.3" y="8" font-family="'Arial'" font-size="4">tine</tspan></text>
<text id="TX_Gregg_Name" transform="matrix(1 0 0 1 507.8684 225.3921)" font-family="'Arial'" font-size="3">Gregg</text>
<text id="TX_Morris_Name" transform="matrix(1.311342e-007 -1 1 1.311342e-007 515.5208 197.4321)" font-family="'Arial'" font-size="4">Morris</text>
<text id="TX_Titus_Name" transform="matrix(1.311342e-007 -1 1 1.311342e-007 505.1985 191.5181)"><tspan x="0" y="0" font-family="'Arial'" font-size="4">T</tspan><tspan x="2.3" y="0" font-family="'Arial'" font-size="4">itus</tspan></text>
<text id="TX_Franklin_Name" transform="matrix(1.311342e-007 -1 1 1.311342e-007 495.5315 195.3716)" font-family="'Arial'" font-size="4">Franklin</text>
<text id="TX_Foard_Name" transform="matrix(1 0 0 1 297.6897 156.3647)" font-family="'Arial'" font-size="4">Foard</text>
<text id="TX_Castro_Name" transform="matrix(1 0 0 1 192.2893 126.5977)" font-family="'Arial'" font-size="4">Castro</text>
<text id="TX_Swisher_Name" transform="matrix(1 0 0 1 214.2083 126.5977)" font-family="'Arial'" font-size="4">Swisher</text>
<text id="TX_Briscoe_Name" transform="matrix(1 0 0 1 236.0461 126.5977)" font-family="'Arial'" font-size="4">Briscoe</text>
<text id="TX_Hall_Name" transform="matrix(1 0 0 1 260.7512 126.5977)" font-family="'Arial'" font-size="4">Hall</text>
<text id="TX_Childress_Name" transform="matrix(1 0 0 1 277.573 126.5977)"><tspan x="0" y="0" font-family="'Arial'" font-size="4">Child-</tspan><tspan x="1.4" y="4" font-family="'Arial'" font-size="4">ress</tspan></text>
<text id="TX_Randall_Name" transform="matrix(1 0 0 1 207.9675 103.8501)" font-family="'Arial'" font-size="4">Randall</text>
<text id="TX_Armstrong_Name" transform="matrix(1 0 0 1 227.2371 103.8501)" font-family="'Arial'" font-size="4">Armstrong</text>
<text id="TX_Donley_Name" transform="matrix(1 0 0 1 252.5623 103.8501)" font-family="'Arial'" font-size="4">Donley</text>
<text id="TX_Collingsworth_Name" transform="matrix(1 0 0 1 273.3284 103.8501)"><tspan x="0" y="0" font-family="'Arial'" font-size="4">Collings-</tspan><tspan x="2.9" y="4.8" font-family="'Arial'" font-size="4">worth</tspan></text>
<text id="TX_Potter_Name" transform="matrix(1 0 0 1 209.1785 82.6909)" font-family="'Arial'" font-size="4">Potter</text>
<text id="TX_Carson_Name" transform="matrix(1 0 0 1 230.6663 82.6909)" font-family="'Arial'" font-size="4">Carson</text>
<text id="TX_Gray_Name" transform="matrix(1 0 0 1 254.2971 82.6909)" font-family="'Arial'" font-size="4">Gray</text>
<text id="TX_Wheeler_Name" transform="matrix(1 0 0 1 274.2761 82.6909)" font-family="'Arial'" font-size="4">Wheeler</text>
<text id="TX_Sherman_Name" transform="matrix(1 0 0 1 207.4651 39.7988)" font-family="'Arial'" font-size="4">Sherman</text>
<text id="TX_Moore_Name" transform="matrix(1 0 0 1 209.3699 60.0996)" font-family="'Arial'" font-size="4">Moore</text>
<text id="TX_Hansford_Name" transform="matrix(1 0 0 1 229.7693 39.7988)" font-family="'Arial'" font-size="4">Hansford</text>
<text id="TX_Hutchinson_Name" transform="matrix(1 0 0 1 227.343 60.0996)" font-family="'Arial'" font-size="4">Hutchinson</text>
<text id="TX_Roberts_Name" transform="matrix(1 0 0 1 251.3489 60.0996)" font-family="'Arial'" font-size="4">Roberts</text>
<text id="TX_Hemphill_Name" transform="matrix(1 0 0 1 273.2278 60.0996)" font-family="'Arial'" font-size="4">Hemphill</text>
<text id="TX_Ochiltree_Name" transform="matrix(1 0 0 1 251.3489 39.7988)" font-family="'Arial'" font-size="4">Ochiltree</text>
<text id="TX_Lipscomb_Name" transform="matrix(1 0 0 1 272.4006 39.7988)" font-family="'Arial'" font-size="4">Lipscomb</text>
</g>
<g id="Legend">
<text id="Ref_WithPresence_text" transform="matrix(1 0 0 1 47.1904 616.7529)" font-family="'ArialMT'" font-size="13">City or County with COPsync Presence</text>
<rect id="Ref_WithPresence_box" x="29.441" y="608.285" fill="#D0D0D0" stroke="#FF0000" stroke-width="0.9697" width="10" height="10" />
<text id="Ref_WithoutPresence_text" transform="matrix(1 0 0 1 47.1904 646.7529)" font-family="'ArialMT'" font-size="13">City or County without COPsync Presence</text>
<rect id="Ref_WithoutPresence_box" x="29.441" y="638.285" fill="#D0D0D0" stroke="#FF0000" stroke-width="0.9697" width="10" height="10" />
</g>
</svg>
