<?xml version="1.0" encoding="utf-8"?>
<!-- Generator: Adobe Illustrator 16.0.0, SVG Export Plug-In . SVG Version: 6.00 Build 0)  -->
<!DOCTYPE svg PUBLIC "-//W3C//DTD SVG 1.1//EN" "http://www.w3.org/Graphics/SVG/1.1/DTD/svg11.dtd">
<svg version="1.1" id="Plan_1" xmlns="http://www.w3.org/2000/svg" xmlns:xlink="http://www.w3.org/1999/xlink" x="0px" y="0px"
	 width="640px" height="531px" viewBox="0 0 640 531" enable-background="new 0 0 640 531" xml:space="preserve">
<g id="Counties">
	
		<path id="CO_Fremont" fill-rule="evenodd" clip-rule="evenodd" fill="#D0D0D0" stroke="#666666" stroke-width="0.2835" stroke-miterlimit="22.9256" d="
		M281.568,266.828h49.777l0,0h6.891v4.706h23.312l0,0v12.858l0,0v26.364h-8.454l0,0l-57.964-0.518l0,0l-2.633-1.653
		c-0.402-0.32-1.196-0.688-1.47-1.071c-1.193-0.434-2.667-3.03-3.306-4.133c-1.053-1.815-2.38-2.778-3.857-4.255
		c-0.937-0.937-1.635-2.503-2.541-3.582c-1.079-1.285-3.155-2.117-3.612-3.857l0,0l3.367-3.092c0.904-0.903,2.761-2.878,4.042-2.878
		c1.727,0,0.826-2.913,1.102-3.889c0.34-1.2,1.194-1.5,1.194-2.908c0-1.424,0.643-2.338,0.643-3.581
		c-0.328-0.41-0.379-1.099-0.704-1.531c-1.901-0.475-2.045-1.466-2.418-3.337C284.512,268.346,282.765,268.286,281.568,266.828
		L281.568,266.828z"/>
	
		<polygon id="CO_Phillips" fill-rule="evenodd" clip-rule="evenodd" fill="#D0D0D0" stroke="#666666" stroke-width="0.2835" stroke-miterlimit="22.9256" points="
		541.254,58.725 541.254,63 540.348,63 540.316,90.498 540.316,90.498 588.791,90.062 588.791,90.062 588.7,58.686 588.7,58.686 
		541.254,58.725 	"/>
	
		<polygon id="CO_Montrose" fill-rule="evenodd" clip-rule="evenodd" fill="#D0D0D0" stroke="#666666" stroke-width="0.2835" stroke-miterlimit="22.9256" points="
		112.194,303.627 112.194,305.165 113.98,305.165 113.98,308.448 115.407,308.448 115.407,311.102 121.343,311.102 126.782,315.082 
		126.782,319.427 125.854,319.427 125.522,321.516 125.522,321.516 39.663,321.476 39.663,321.476 39.627,286.638 39.627,286.638 
		92.003,286.638 92.003,269.121 92.003,269.121 160.467,269.121 160.467,269.121 160.467,306.112 150.555,306.112 150.555,306.112 
		150.555,303.627 112.194,303.627 	"/>
	
		<path id="CO_Ouray" fill-rule="evenodd" clip-rule="evenodd" fill="#D0D0D0" stroke="#666666" stroke-width="0.2835" stroke-miterlimit="22.9256" d="
		M150.555,306.112v-2.485h-38.361l0,0v1.538h1.787v3.283h1.426v2.653h5.937l5.439,3.98v4.345h-0.929l-0.332,2.089l0,0v3.85h4.28
		c-0.002,0.792,0.095,1.843-0.134,2.585c-0.479,1.548-0.358,5.125,0.796,6.367c0.616,0.664,0.889,0.951,1.725,1.261
		c1.229,0.456,1.385,0.603,2.123,1.625c0.325,0.45,1.896,0.239,2.388,0.929c0.267,0.037,0.479,0.358,0.796,0.397
		c0.448,0.324,0.77,0.52,1.061,1.028c0.074,0.019,0.057,0.025,0.1,0.1c0.061,0.015,0.051,0.006,0.066,0.066
		c1.016,0.581,1.66,1.648,2.819,2.089c0.742,0.283,1.318,2.007,0.962,2.72l0.066,2.189l0,0c1.007-0.065,1.246,0.862,2.288,0.862
		c1.086,0,1.762-0.433,2.753-0.763c1.634-0.545,1.791-1.069,1.791-2.753c0-0.548,0.004-1.076,0.132-1.592
		c0.102-0.408,0.567-0.672,0.63-0.929c0.273-0.039,0.541-0.381,0.796-0.432c0.045-0.138,0.749-0.284,0.929-0.464l2.62-0.896l0,0
		l0.102-1.75c0.304-0.507-0.124-0.909,0.704-1.255c0.644-0.27,1.254-0.215,1.898-0.368c1.131-0.269,1.062-2.42,1.164-3.337
		c0.552-0.631,0.917-1.748,1.53-2.449c0.025-0.2,0.123-0.337,0.123-0.551c-0.043-0.058-0.051-0.079-0.061-0.153l-0.123-0.122
		c-0.511-0.073-1.437-0.812-1.929-1.071c-0.745-0.393-1.478-0.715-1.684-1.592c-0.325-1.389-0.451-3.513-0.368-4.93l0,0l0.031-3.367
		c0-0.748-0.098-1.957-0.398-2.633c0-1.488-0.874-3.088-1.837-4.163c-0.967-1.08-2.54-3.167-2.664-4.653
		C150.796,307.016,150.676,306.5,150.555,306.112L150.555,306.112z"/>
	
		<path id="CO_San_Miguel" fill-rule="evenodd" clip-rule="evenodd" fill="#D0D0D0" stroke="#666666" stroke-width="0.2835" stroke-miterlimit="22.9256" d="
		M39.691,349.143h17.643l0.332-1.525h43.673c0.954,1.297,3.447,6.546,4.656,7.013c0.87,0.336,2.999-0.842,3.919-1.071
		c0.747-0.187,3.197-2.463,3.337-1.347c0.701,0.5,1.193,1.067,2.235,0.918c0.557-0.779,1.514-0.259,2.143-0.888
		c0.487-0.487,3.249-0.766,4.01-0.766c1.409,0,1.108,2.174,3.031,2.174c0.628-0.054,1.149-0.17,1.776-0.092
		c0.067,0.054,0.139,0.11,0.214,0.153c0.178,0.312,0.67,0.673,0.918,0.979c0.548,0.679,1.109,1.329,1.745,1.929
		c0.326,0.308,0.654,0.652,0.98,0.949c0.327,0.299,0.641,0.756,0.979,1.01l0.939,1.375l0,0l1.293-0.298
		c0.259-0.098,0.585-0.082,0.829-0.232c0.225-0.14,0.444-0.291,0.564-0.53c0.246-0.153,0.254-0.379,0.332-0.631
		c0.092-0.299,0.062-0.582,0.033-0.896c0.338-1.016,0.092-1.969,1.194-2.421c0.969-0.397,2.013-0.722,2.321-1.957
		c0.783-0.558,0.248-2.734,1.128-3.614c0.892-0.892,1.538-2.006,2.653-2.653l0,0l-0.066-2.189c0.356-0.713-0.22-2.437-0.962-2.72
		c-1.159-0.44-1.803-1.508-2.819-2.089c-0.015-0.061-0.006-0.052-0.066-0.066c-0.042-0.074-0.025-0.081-0.1-0.1
		c-0.291-0.509-0.613-0.704-1.061-1.028c-0.317-0.039-0.53-0.36-0.796-0.397c-0.492-0.689-2.062-0.479-2.388-0.929
		c-0.738-1.022-0.893-1.169-2.123-1.625c-0.836-0.31-1.108-0.597-1.725-1.261c-1.154-1.242-1.275-4.819-0.796-6.367
		c0.229-0.742,0.132-1.793,0.134-2.585h-4.28v-3.85l0,0l-85.859-0.04l0,0L39.691,349.143L39.691,349.143z"/>
	
		<path id="CO_Dolores" fill-rule="evenodd" clip-rule="evenodd" fill="#D0D0D0" stroke="#666666" stroke-width="0.2835" stroke-miterlimit="22.9256" d="
		M39.731,389.316l10.271-14.879l74.423-0.734l0,0l0.765-1.623c0.9-1.44-1.5-2.377-1.5-3.979c0.518-0.647,1.011-0.781,1.837-0.919
		c0.88-0.146,1.889-0.488,2.725-0.581c0.589-0.59,1.337-0.982,2.143-1.133c0.94-0.176,1.307-0.487,1.5-1.408
		c0.292-1.395,0.649-2.664,0.327-4.105l0,0l-0.939-1.375c-0.338-0.254-0.652-0.711-0.979-1.01c-0.326-0.297-0.654-0.642-0.98-0.949
		c-0.636-0.6-1.197-1.25-1.745-1.929c-0.248-0.307-0.74-0.668-0.918-0.979c-0.075-0.043-0.147-0.1-0.214-0.153
		c-0.626-0.078-1.147,0.038-1.776,0.092c-1.923,0-1.622-2.174-3.031-2.174c-0.761,0-3.523,0.278-4.01,0.766
		c-0.629,0.629-1.586,0.108-2.143,0.888c-1.042,0.149-1.534-0.418-2.235-0.918c-0.14-1.116-2.59,1.16-3.337,1.347
		c-0.92,0.229-3.049,1.407-3.919,1.071c-1.209-0.467-3.703-5.716-4.656-7.013H57.666l-0.332,1.525H39.691l0,0L39.731,389.316
		L39.731,389.316z"/>
	
		<path id="CO_Montezuma" fill-rule="evenodd" clip-rule="evenodd" fill="#D0D0D0" stroke="#666666" stroke-width="0.2835" stroke-miterlimit="22.9256" d="
		M39.731,389.316l0.049,48.045l0,0l52.438,0.054l0,0l1.683-2.674c0.645-0.574,0.825-1.583,1.349-2.106
		c0.101-0.811,0.845-1.869,1.102-2.663l1.653-5.112c0.673-2.08,0.288-4.468,0.612-6.582c0.207-1.346,0.532-1.787,1.47-2.725
		c0.993-0.993,1.792-2.222,2.755-3.185c0.568-0.484,1.652-3.108,1.959-3.949c0.283-0.774-0.002-4.105,0.214-4.286
		c0.02-0.157,1.134-1.465,1.316-1.775c0.517-0.877,2.707-0.66,3.613-1.286c1.003-0.693,2.127-0.513,3.123-1.102
		c0.477-0.282,0.516-1.641,0.704-2.174c0.945-2.676,3.101-4.003,5.296-5.571v-8.146c0.939-0.972,0.982-2.635,1.041-3.917
		c0.053-1.158,0.354-3.365,1.623-3.826c0.298-0.477,1.106-0.822,1.531-1.194l1.164-1.438l0,0l-74.423,0.734L39.731,389.316
		L39.731,389.316z"/>
	
		<path id="CO_San_Juan" fill-rule="evenodd" clip-rule="evenodd" fill="#D0D0D0" stroke="#666666" stroke-width="0.2835" stroke-miterlimit="22.9256" d="
		M142.569,346.722c-1.115,0.647-1.762,1.762-2.653,2.653c-0.88,0.88-0.345,3.057-1.128,3.614c-0.309,1.235-1.352,1.56-2.321,1.957
		c-1.102,0.452-0.855,1.405-1.194,2.421c0.029,0.313,0.059,0.597-0.033,0.896c-0.077,0.252-0.086,0.478-0.332,0.631
		c-0.12,0.239-0.339,0.391-0.564,0.53c-0.244,0.15-0.57,0.135-0.829,0.232l-1.293,0.298l0,0c0.323,1.441-0.035,2.711-0.327,4.105
		c-0.193,0.921-0.56,1.232-1.5,1.408c-0.806,0.15-1.554,0.543-2.143,1.133c-0.836,0.093-1.845,0.436-2.725,0.581
		c-0.826,0.138-1.319,0.271-1.837,0.919c0,1.603,2.4,2.539,1.5,3.979l-0.765,1.623l0,0h37.666l0,0l0.082-13.409h1.438v-3
		c-0.396-1.091-0.557-2.591-1.684-3.153c-0.669-0.334-2.274-0.425-2.51-1.194c-0.314-1.025-0.922-4.778-0.214-5.664
		c0-0.876-0.452-1.189-0.949-1.867c-0.398-0.543-0.351-1.451-0.459-2.082c-0.22-1.273-2.233-2.828-3.286-3.576l0,0l-2.62,0.896
		c-0.18,0.18-0.883,0.326-0.929,0.464c-0.255,0.051-0.523,0.393-0.796,0.432c-0.063,0.257-0.528,0.521-0.63,0.929
		c-0.128,0.516-0.132,1.044-0.132,1.592c0,1.684-0.157,2.208-1.791,2.753c-0.991,0.33-1.667,0.763-2.753,0.763
		C143.815,347.584,143.576,346.656,142.569,346.722L142.569,346.722z"/>
	
		<path id="CO_La_Plata" fill-rule="evenodd" clip-rule="evenodd" fill="#D0D0D0" stroke="#666666" stroke-width="0.2835" stroke-miterlimit="22.9256" d="
		M92.219,437.415l1.683-2.674c0.645-0.574,0.825-1.583,1.349-2.106c0.101-0.811,0.845-1.869,1.102-2.663l1.653-5.112
		c0.673-2.08,0.288-4.468,0.612-6.582c0.207-1.346,0.532-1.787,1.47-2.725c0.993-0.993,1.792-2.222,2.755-3.185
		c0.568-0.484,1.652-3.108,1.959-3.949c0.283-0.774-0.002-4.105,0.214-4.286c0.02-0.157,1.134-1.465,1.316-1.775
		c0.517-0.877,2.707-0.66,3.613-1.286c1.003-0.693,2.127-0.513,3.123-1.102c0.477-0.282,0.516-1.641,0.704-2.174
		c0.945-2.676,3.101-4.003,5.296-5.571v-8.146c0.939-0.972,0.982-2.635,1.041-3.917c0.053-1.158,0.354-3.365,1.623-3.826
		c0.298-0.477,1.106-0.822,1.531-1.194l1.164-1.438l0,0h37.666l0,0v21.472l0,0l0.82,42.313l0,0L92.219,437.415L92.219,437.415z"/>
	
		<path id="CO_Hinsdale" fill-rule="evenodd" clip-rule="evenodd" fill="#D0D0D0" stroke="#666666" stroke-width="0.2835" stroke-miterlimit="22.9256" d="
		M155.866,322.179c-0.083,1.417,0.042,3.541,0.368,4.93c0.206,0.877,0.939,1.199,1.684,1.592c0.492,0.259,1.418,0.998,1.929,1.071
		l0.123,0.122c0.01,0.074,0.018,0.096,0.061,0.153c0,0.214-0.098,0.351-0.123,0.551c-0.613,0.701-0.979,1.818-1.53,2.449
		c-0.102,0.917-0.032,3.068-1.164,3.337c-0.644,0.153-1.254,0.099-1.898,0.368c-0.828,0.346-0.4,0.748-0.704,1.255l-0.102,1.75l0,0
		c1.052,0.748,3.066,2.303,3.286,3.576c0.109,0.631,0.061,1.539,0.459,2.082c0.497,0.678,0.949,0.991,0.949,1.867
		c-0.708,0.886-0.1,4.639,0.214,5.664c0.236,0.77,1.841,0.86,2.51,1.194c1.127,0.562,1.288,2.062,1.684,3.153v3h-1.438
		l-0.082,13.409l0,0v21.472l0,0h28.332l0,0l0.185-23.93h-1.403v-26.688l0.337-0.612c0.411-0.41,1.353-0.494,1.868-0.673
		c0.754-0.262,1.514-0.635,2.265-0.888c0.476-0.161,1.039-0.326,1.47-0.612c0.594-0.396,0.988-0.475,1.684-0.184
		c0.183,0.076,0.999,0.417,1.072,0.489c0.961,0,1.822-0.073,2.426-0.912l0,0v-18.987l0,0H155.866L155.866,322.179z"/>
	
		<polygon id="CO_Archuleta" fill-rule="evenodd" clip-rule="evenodd" fill="#D0D0D0" stroke="#666666" stroke-width="0.2835" stroke-miterlimit="22.9256" points="
		162.091,395.175 190.422,395.175 190.422,395.175 190.422,398.064 223.27,398.064 225.5,398.064 225.36,414.795 232.373,418.794 
		232.373,422.792 239.145,435.901 239.515,438.057 239.515,438.057 217.523,438.092 211.463,438.602 209.712,437.536 
		162.911,437.488 162.911,437.488 162.091,395.175 	"/>
	
		<path id="CO_Mineral" fill-rule="evenodd" clip-rule="evenodd" fill="#D0D0D0" stroke="#666666" stroke-width="0.2835" stroke-miterlimit="22.9256" d="
		M200.325,341.166c0.782-0.179,1.654-1.445,2.227-1.445c0.732,0.732,0.41,2.1,1.868,1.653c2.64-0.808,3.748-2.197,5.755,0.429
		c0.822,1.075,1.646,2.893,3.031,3.123c1.521,0.252,2.084,0.408,3.245,1.438c1.579,1.401,1.625,2.04,3.888,2.388
		c0.699,0.107,3.704,0.229,3.704,1.071l-0.061,3.949l0,0v17.294h-1.021l0.309,26.998l0,0h-32.847v-2.89l0,0l0.185-23.93h-1.403
		v-26.688l0.337-0.612c0.411-0.41,1.353-0.494,1.868-0.673c0.754-0.262,1.514-0.635,2.265-0.888c0.476-0.161,1.039-0.326,1.47-0.612
		c0.594-0.396,0.988-0.475,1.684-0.184c0.183,0.076,0.999,0.417,1.072,0.489C198.86,342.078,199.722,342.005,200.325,341.166
		L200.325,341.166z"/>
	
		<path id="CO_Gunnison" fill-rule="evenodd" clip-rule="evenodd" fill="#D0D0D0" stroke="#666666" stroke-width="0.2835" stroke-miterlimit="22.9256" d="
		M155.866,322.179h44.459l0,0v-27.576l59.017-0.619l0,0l-0.031-1.286c-0.097-0.778-1.521-1.374-2.235-1.438
		c-1.014-0.789-1.406-1.427-2.173-2.449c-0.613-0.817-0.906-1.677-1.684-2.357c-1.794-0.224-1.466-1.454-1.806-2.816
		c-0.316-1.27-0.796-2.019-0.367-3.307c0.71-0.532,0.371-2.189,0.245-2.081c-0.146-0.584-0.513-1.5-0.582-2.052
		c-1.455-1.212-2.259-4.31-4.072-4.775c-0.562-0.145-1.167-0.346-1.316-0.979c-0.237-1.009-0.588-2.083-1.132-2.97
		c-1.202-1.954,0.212-1.1,1.102-2.296c0.414-0.558,0.52-1.162,0.857-1.775c0.671-1.217,0.727-5.327,0.275-6.643
		c0-2.603-0.718-1.979,1.99-3.245c1.654-0.774,3.632-3.576,4.408-5.205c0.863-1.811,0.886-1.516,0.612-3.429
		c-0.64-0.16-1.966,0-2.755,0c-0.609,0-2.096-0.792-2.296-0.704c-0.353,0.156-1.098,1.018-1.469,0.704
		c-0.67-0.566-0.737-1.656-1.225-2.143h-0.184c-0.893,0.894-1.766,2.232-3,2.725c-1.163,0.464-1.221-1.555-1.867-1.959
		c-0.293-1.172-1.519-1.767-2.021-2.816l-1.378-2.877c-1.791-3.74-2.59-0.379-4.924-1.36l0,0l-2.156-0.763
		c-0.611-0.306-0.928-1.006-1.393-1.393c-0.062-0.501-0.707-1.646-0.961-2.156c-0.367-0.734-1.833-0.601-2.487-0.929
		c-0.573-0.287-0.648-0.648-1.062-1.061c-0.607,0-1.452,0.74-2.089,0.995c-0.802,0.32-1.312,0.469-1.924,1.127
		c-1.042,1.122-1.606,2.977-2.918,3.781c-0.481,1.926-3.158,2.954-4.577,1.426c-1.177-1.267-1.493-2.354-3.35-2.354
		c-0.391,1.178-0.084,2.279-1.725,1.592c-1.06-0.444-2.087-1.721-3.151-2.321c-1.141-0.645-4.271-2.055-4.179-3.35
		c0.102-1.437,1.742-1.808,0.066-3.018c-1.906-1.376-3.646-2.959-5.336-4.61h-16.354c-0.226-0.452-0.766-1.015-0.829-1.525
		c-0.103-0.129-0.125-0.265-0.232-0.398c-0.217-1.754-4.119-3.009-5.273-4.246c-0.597-0.639-0.914-1.397-1.426-2.056
		c-0.135-1.64-0.563-3.395-0.763-5.008l-0.298-0.431l0,0l-1.327,0.298c-0.461,0.153-0.96,0.255-1.426,0.398
		c-0.516,0.159-0.562,0.355-0.862,0.763c-0.615,0.838-1.251,1.505-2.388,1.525l-1.891,0.033c-0.083,0.05-0.334,0.152-0.431,0.166
		c-0.091,0.079-0.128,0.088-0.232,0.132l-0.066,0.066c-0.111,0.194-0.27,0.266-0.464,0.398l0,0l-0.343,55.592l0,0v36.991h-9.912l0,0
		c0.122,0.388,0.242,0.903,0.443,1.25c0.124,1.486,1.696,3.573,2.664,4.653c0.963,1.075,1.837,2.675,1.837,4.163
		c0.3,0.676,0.398,1.885,0.398,2.633L155.866,322.179L155.866,322.179z"/>
	
		<path id="CO_Delta" fill-rule="evenodd" clip-rule="evenodd" fill="#D0D0D0" stroke="#666666" stroke-width="0.2835" stroke-miterlimit="22.9256" d="
		M160.467,269.121l0.343-55.592l0,0l-1.924,1.691c-0.598,0.479-1.684,2.339-2.056,3.084c-0.984,0.615-1.781,0.391-2.852,0.564
		c-1.212,0.195-1.593,1.224-2.521,1.957c-1.536,1.214-3.309,3.271-4.146,5.041c-0.857,1.814-1.432,1.063-2.918,1.99
		c-0.368,0.81-2.591,2.633-3.516,2.752c-1.919,0-6.727-3.697-7.959-2.62c-1.839,0.166-3.208,1.294-5.373,1.294
		c-1.453,0-3.99-0.416-4.942,0.763c-0.888,1.099-1.936,1.878-2.952,2.852l-4.046,3.88c-0.126,0.89-1.153,3.729-1.592,4.577
		c-0.477,0.477-1.456,2.123-2.222,2.123l-0.066,0.066h-0.066c-2.521,2.521-5.684,3.806-8.955,5.207l-10.701,4.585v15.785l0,0
		H160.467L160.467,269.121z"/>
	
		<path id="CO_Mesa" fill-rule="evenodd" clip-rule="evenodd" fill="#D0D0D0" stroke="#666666" stroke-width="0.2835" stroke-miterlimit="22.9256" d="
		M92.003,269.121v-15.785l10.701-4.585c3.271-1.401,6.434-2.686,8.955-5.207h0.066l0.066-0.066c0.766,0,1.746-1.646,2.222-2.123
		c0.438-0.848,1.466-3.687,1.592-4.577l4.046-3.88c1.016-0.974,2.064-1.753,2.952-2.852c0.952-1.178,3.489-0.763,4.942-0.763
		c2.165,0,3.534-1.128,5.373-1.294c1.233-1.077,6.041,2.62,7.959,2.62c0.925-0.119,3.148-1.943,3.516-2.752
		c1.486-0.927,2.061-0.176,2.918-1.99c0.837-1.771,2.61-3.827,4.146-5.041c0.927-0.733,1.308-1.761,2.521-1.957
		c1.071-0.173,1.868,0.051,2.852-0.564c0.373-0.746,1.458-2.605,2.056-3.084l1.924-1.691l0,0c0.195-0.132,0.353-0.204,0.464-0.398
		l0.066-0.066c0.104-0.044,0.141-0.053,0.232-0.132c0.097-0.014,0.348-0.116,0.431-0.166l1.891-0.033
		c1.136-0.02,1.772-0.688,2.388-1.525c0.3-0.408,0.347-0.604,0.862-0.763c0.466-0.143,0.965-0.245,1.426-0.398l1.327-0.298l0,0
		l0.232-1.26c0.029-0.323,0.329-1.208-0.033-1.459c-0.579-0.403-1.017-0.791-1.691-1.127c-1.295-0.647-2.69-1.463-3.714-2.487
		c-0.486-0.486,0.271-1.848,0.696-1.99c0.026-0.091,1.111-1.94,1.161-1.957c0-0.206,0.109-0.507,0.166-0.706l0,0H39.538l0,0
		l0.089,87.876l0,0h52.376V269.121L92.003,269.121z"/>
	
		<polygon id="CO_Garfield" fill-rule="evenodd" clip-rule="evenodd" fill="#D0D0D0" stroke="#666666" stroke-width="0.2835" stroke-miterlimit="22.9256" points="
		191.554,198.761 191.554,142.426 198.288,142.423 198.288,142.423 198.288,134.065 197.461,134.065 197.461,125.238 
		197.461,125.238 176.078,125.238 176.078,134.63 174.946,134.63 174.946,142.557 165.699,142.557 165.699,152.573 126.688,152.573 
		126.688,165.524 77.623,165.524 77.623,169.529 52.348,169.529 50.95,167.885 39.507,167.885 39.507,167.885 39.538,198.761 
		39.538,198.761 166.713,198.761 166.713,198.761 191.554,198.761 	"/>
	
		<polygon id="CO_Rio_Blanco" fill-rule="evenodd" clip-rule="evenodd" fill="#D0D0D0" stroke="#666666" stroke-width="0.2835" stroke-miterlimit="22.9256" points="
		39.507,167.885 50.95,167.885 52.348,169.529 77.623,169.529 77.623,165.524 126.688,165.524 126.688,152.573 165.699,152.573 
		165.699,142.557 174.946,142.557 174.946,134.63 176.078,134.63 176.078,125.238 197.461,125.238 197.461,125.238 197.528,112.52 
		165.846,112.52 165.846,112.52 39.45,112.528 39.45,112.528 39.507,167.885 	"/>
	
		<path id="CO_Pitkin" fill-rule="evenodd" clip-rule="evenodd" fill="#D0D0D0" stroke="#666666" stroke-width="0.2835" stroke-miterlimit="22.9256" d="
		M245.69,198.761c-0.255,0.276-0.433,0.463-0.64,0.739c0,1.492,0.545,4.378-1.525,4.378c-0.786,0-1.486-0.283-2.222,0.132
		c-0.514,0.291-1.424,1.358-1.857,1.791c-0.011,0.088-0.01,0.095-0.066,0.166c0,0.86,1.093,1.408,1.492,2.189
		c0.853,1.667-1.028,1.762-1.028,3.184c0,1.084,0.529,2.787,0.232,3.781c-0.355,1.138-0.343,3.128-1.161,3.946
		c-0.515,0.516-1.612,0.739-2.355,0.63c-0.337-0.049-1.338-0.313-1.492,0.066c-0.151,0.372,0.133,1.085,0.133,1.525v2.521
		c0,1.006-0.458,0.731-0.995,1.161c-0.729,0-0.848,1.122-1.161,1.592c-0.396,0.594,0.166,1.307,0.166,1.957v1.095l0,0
		c-0.005,0.088-0.029,0.226-0.029,0.318c-0.089,0.111-0.136,0.354-0.213,0.493c-0.338,0.607-0.986,1.691-0.74,2.417
		c0.112,0.333,0.333,0.677,0.378,1.02c0.054,0.407-0.046,1.014-0.165,1.397l-0.127,1.187l0,0l-2.156-0.763
		c-0.611-0.306-0.928-1.006-1.393-1.393c-0.062-0.501-0.707-1.646-0.961-2.156c-0.367-0.734-1.833-0.601-2.487-0.929
		c-0.573-0.287-0.648-0.648-1.062-1.061c-0.607,0-1.452,0.74-2.089,0.995c-0.802,0.32-1.312,0.469-1.924,1.127
		c-1.042,1.122-1.606,2.977-2.918,3.781c-0.481,1.926-3.158,2.954-4.577,1.426c-1.177-1.267-1.493-2.354-3.35-2.354
		c-0.391,1.178-0.084,2.279-1.725,1.592c-1.06-0.444-2.087-1.721-3.151-2.321c-1.141-0.645-4.271-2.055-4.179-3.35
		c0.102-1.437,1.742-1.808,0.066-3.018c-1.906-1.376-3.646-2.959-5.336-4.61h-16.354c-0.226-0.452-0.766-1.015-0.829-1.525
		c-0.103-0.129-0.125-0.265-0.232-0.398c-0.217-1.754-4.119-3.009-5.273-4.246c-0.597-0.639-0.914-1.397-1.426-2.056
		c-0.135-1.64-0.563-3.395-0.763-5.008l-0.298-0.431l0,0l0.232-1.26c0.029-0.323,0.329-1.208-0.033-1.459
		c-0.579-0.403-1.017-0.791-1.691-1.127c-1.295-0.647-2.69-1.463-3.714-2.487c-0.486-0.486,0.271-1.848,0.696-1.99
		c0.026-0.091,1.111-1.94,1.161-1.957c0-0.206,0.109-0.507,0.166-0.706l0,0h24.841l0,0H245.69L245.69,198.761z"/>
	
		<path id="CO_Lake" fill-rule="evenodd" clip-rule="evenodd" fill="#D0D0D0" stroke="#666666" stroke-width="0.2835" stroke-miterlimit="22.9256" d="
		M245.69,198.761c0.485-0.485,1.231-2.364,1.947-1.848c0.927,0.669,1.998,2.885,3.284,2.885c0.558,0,1.17-0.558,1.725-0.729
		c0.715-0.221,1.353-0.199,2.056-0.1c0.044,0.18,0.921,0.957,1.127,0.995c0.848,0.158,1.664-0.621,2.455-0.929
		c0.846-0.329,1.354-0.887,2.123-1.327l1.459-0.896l0,0l5.744,0.993l0,0c-0.011,0.237,0.021,0.437-0.172,0.565
		c0,1.68,1.594,3.042-0.563,4.246c-2.464,1.374-2.804,4.864-2.057,7.296c0.156,0.507,0.752,0.819,0.862,1.393
		c0.205,1.067-0.967,1.748-1.161,2.753c-0.208,1.082,0.339,2.258,0.033,3.383c0.325,1.267,1.415,3.224,0,4.245
		c-0.402,0.291-0.698,0.958-0.929,1.393c-0.306,0.577-0.829,0.778-0.829,1.525l0.133,0.133c1.171,0,3.018,0.193,3.018,1.691
		c-0.964,0.964-1.689,1.873-2.554,2.952l-0.462,0.232l0,0H233.21l0,0v-1.095c0-0.65-0.562-1.362-0.166-1.957
		c0.313-0.47,0.433-1.592,1.161-1.592c0.537-0.43,0.995-0.155,0.995-1.161v-2.521c0-0.44-0.284-1.154-0.133-1.525
		c0.154-0.38,1.155-0.116,1.492-0.066c0.743,0.109,1.84-0.115,2.355-0.63c0.818-0.818,0.805-2.808,1.161-3.946
		c0.297-0.995-0.232-2.697-0.232-3.781c0-1.421,1.881-1.516,1.028-3.184c-0.399-0.781-1.492-1.329-1.492-2.189
		c0.056-0.071,0.056-0.078,0.066-0.166c0.433-0.433,1.343-1.5,1.857-1.791c0.736-0.416,1.437-0.132,2.222-0.132
		c2.07,0,1.525-2.886,1.525-4.378C245.257,199.224,245.435,199.038,245.69,198.761L245.69,198.761z"/>
	
		<path id="CO_Eagle" fill-rule="evenodd" clip-rule="evenodd" fill="#D0D0D0" stroke="#666666" stroke-width="0.2835" stroke-miterlimit="22.9256" d="
		M191.554,198.761h54.136c0.485-0.485,1.231-2.364,1.947-1.848c0.927,0.669,1.998,2.885,3.284,2.885c0.558,0,1.17-0.558,1.725-0.729
		c0.715-0.221,1.353-0.199,2.056-0.1c0.044,0.18,0.921,0.957,1.127,0.995c0.848,0.158,1.664-0.621,2.455-0.929
		c0.846-0.329,1.354-0.887,2.123-1.327l1.459-0.896l0,0l-0.1-2.023c0.075-0.601,0.028-0.847-0.099-1.36
		c-0.382-0.094-1.26-0.057-1.26-0.597c0-0.716,0.438-0.82,0.63-1.359c0.461-1.296-1.494-2.429-1.559-3.715
		c-0.057-1.115-0.042-2.05-0.265-3.117c-0.103-0.492-0.572-1.519-0.498-1.957c0.117-0.691,0.584-1.283,0.763-1.957
		c0.213-0.806,0.916,0.087,1.293,0.365c2.903,2.133,2.503-1.493,1.227-3.118c0.174-0.464-0.1-1.084-0.1-1.559
		c0-0.458,0.29-0.614,0.365-0.995c0.616-0.308,0.644-0.594,1.493-0.796c0.67-0.16,0.962-0.409,0.962-1.161
		c0-1.079,0.252-2.433,0-3.449l-0.033-0.033c-1.387,0-4.537-0.571-4.776-2.255c-0.082-0.02-0.372-0.592-0.398-0.696
		c-0.091-0.022-0.061-0.107-0.166-0.133c-0.08-0.323-1.347-0.199-1.658-1.062c-0.33-0.913-0.507-1.116-1.492-1.359
		c-0.351-1.415-1.583-1.55-2.554-2.521c-0.406-0.407-1.663-3.086-1.791-3.117v-0.066c-0.077-0.025-0.068-0.066-0.199-0.066
		c-0.328,0.989-2.456,0.63-2.653-0.365c-0.062-0.031-0.514-0.613-0.563-0.663c-0.163-0.82-1.011-1.547-1.095-2.222
		c-0.065-0.082-0.087-0.13-0.1-0.232c-0.118-0.147-0.242-0.546-0.265-0.729c-0.116-0.135-0.12-0.325-0.232-0.464
		c-0.031-0.256-0.245-1.135-0.397-1.327c-0.108-0.875-0.755-1.795-0.929-2.72c-0.196-1.042-0.427-2.05-0.498-3.117
		c-0.026-0.4,0.107-1.601-0.066-1.891l-0.064-2.553h-15.695h-30.804l0,0l-6.733,0.002V198.761L191.554,198.761z"/>
	
		<path id="CO_Routt" fill-rule="evenodd" clip-rule="evenodd" fill="#D0D0D0" stroke="#666666" stroke-width="0.2835" stroke-miterlimit="22.9256" d="
		M165.846,112.52h31.682l-0.066,12.718l0,0v8.828h0.826v8.358l0,0h30.804l0,0v-8.822h-0.758v-33.498h-0.729l0.034-9.882l0,0
		l0.033-2.819c0-1.48-0.36-6.149-1.459-7.064c-0.043-0.31-0.646-0.995-0.895-1.194c-0.017-0.116-1.078-1.742-1.128-1.791
		c-0.027-0.304-0.301-0.584-0.365-0.896c-0.064-0.317-0.033-0.83-0.033-1.161c0-0.884-0.049-1.786,0.1-2.653
		c-0.12-1.332,0.247-1.752,0.862-2.753c0.339-0.55-0.367-2.38,0.199-2.521c0.177-0.713-0.012-1.285,0.531-1.89
		c0.341-0.38,1.007-1.436,0.896-1.924c-0.102-0.441-0.366-0.965-0.464-1.393c-0.391-1.699,0.703-3.957,1.127-5.671
		c0.151-0.038,0.275-0.293,0.432-0.332c0.022-0.093,0.076-0.04,0.099-0.133c0.19-0.047,1.161-1.612,1.161-1.89
		c0-0.735-0.239-1.847-0.498-2.521c-0.264-0.686-0.609-0.465-1.293-0.862c-0.432-0.863-0.38-1.044,0.099-1.857
		c0.273-0.463-0.343-1.081-0.563-1.426c-0.301-0.471-2.143-2.693-2.355-2.587c-1.06,0.53-0.929,2.089-2.521,1.293
		c-1.221-0.61-1.333-2.072-2.454-2.288c-0.598-0.115-1.833-0.431-2.355-0.431c-0.766,0-1.014,0.934-1.492-0.232
		c-0.274-0.668-1.148-1.801-1.293-2.388c-1.281-0.317-2.043-0.604-2.687-1.891c-0.194-0.388-1.343-3.596-0.729-3.748
		c0.019-0.077,0.798-0.353,0.872-0.388l0.033-1.485l0,0l-36.052-0.024l0,0v40.586h-4.228v5.652h-4.862l0,21.24l-0.508-0.01V112.52
		L165.846,112.52z"/>
	
		<polygon id="CO_Moffat" fill-rule="evenodd" clip-rule="evenodd" fill="#D0D0D0" stroke="#666666" stroke-width="0.2835" stroke-miterlimit="22.9256" points="
		175.443,33.302 175.443,73.888 171.215,73.888 171.215,79.54 166.353,79.54 166.354,100.78 165.846,100.77 165.846,112.52 
		165.846,112.52 39.45,112.528 39.45,112.528 39.369,32.181 39.369,32.181 43.173,32.181 43.67,33.342 127.46,33.213 
		134.112,32.612 136.566,33.276 175.443,33.302 	"/>
	
		<path id="CO_Jackson" fill-rule="evenodd" clip-rule="evenodd" fill="#D0D0D0" stroke="#666666" stroke-width="0.2835" stroke-miterlimit="22.9256" d="
		M227.638,90.221c0.223,0.021,0.364,0.066,0.564,0.066c0.035,0.106,0.681,0.103,0.729,0.298c0.124,0.017,0.204,0.119,0.232,0.232
		c0.597,0.198,1.457,4.19,1.559,4.909c0.029,0.009,0.153,0.182,0.166,0.232c0.055,0.014,0.085,0.022,0.099,0.066
		c0.879,0,2.932-0.06,3.648,0.299c0.274,0.137,1.794,1.818,1.957,1.161c0.308-0.154,0.915-1.777,1.36-2.222
		c0.401-0.401,1.616-1.45,1.725-1.891c1.994-0.494,0.951-0.611,1.725,1.128c0.197,0.443,1.045,2.811,1.327,2.952
		c0.081,0.569,1.188,1.857,1.791,1.857c0.047-0.143,0.318-0.308,0.365-0.498c0.174-0.043,0.256,0,0.431,0
		c0.013,0.04,0.077,0.086,0.133,0.1c0.015,0.062,1.237,0.365,1.393,0.365c0.094,0.141,0.681,0.995,0.796,0.995
		c0.081,0.245,0.45-0.504,0.464-0.563c0.104-0.026,0.104-0.201,0.199-0.232c0.12-0.842,2.178-1.312,2.653-1.194l0.033,0.033
		c0.032,0.132,1.067,1.197,1.194,1.26c0.01,0.042,0.022,0.057,0.033,0.1c0.59,0.52,1.686,1.362,2.521,1.293
		c0.702-0.058,0.695-1.617,0.862-2.123c0.391-0.056,2.203-1.212,2.487-0.697c0.933,1.691,1.411,3.516,3.748,3.516
		c1.5,0,2.591-2.189,3.284-2.189c0.797,0,1.307,1.393,2.454,1.393c1.89,0,1.679-2.729,3.482-1.99
		c0.81,0.332,3.618,0.162,3.914-1.028c0.992-0.248,1.045-0.862,2.189-0.862c1.054,0,1.183,0.896,2.454,0.896
		c0.631,0.082,2.57,1.424,2.952,0.896c0.589-0.817,0.231-1.83,0.696-2.62c0.841-1.426,2.717-1.391,2.985-3.217
		c0.227-1.543,0.232-3.343,0.232-4.909c0.451-0.322,0.51-1.084,1.26-1.459l2.952-1.194l0,0l-0.464-1.194
		c-0.042-0.467-0.413-1.146-0.663-1.493c-0.183-0.253-0.836-0.744-0.896-0.862c-0.421-0.059-2.184-0.51-2.488-0.729
		c-0.938-0.677-0.285-2.468-0.597-3.482c-0.209-0.679-0.649-1.263-0.862-1.957c-0.241-0.786-0.301-1.716-0.663-2.487
		c-0.504-1.075-1.214-1.89-1.459-3.084c-0.133-1.616-1.234-4.426-1.957-5.871c-0.638-1.275-1.571-3.962-2.62-4.743
		c-0.751-0.558-1.382-2.072-1.658-2.918c-0.409-1.253-1.744-3.124-1.891-4.312c-1.746-0.699-3.399-3.47-4.212-5.041
		c-0.521-0.595-1.16-0.827-1.526-1.559c-0.216-0.432-0.47-1.534-0.531-2.023c-1.092-0.908-3.202-2.282-3.748-3.714
		c-0.664-1.744-0.14-3.379-0.542-5.179l-0.165-1.368l0,0l-52.25-0.035l0,0l-0.033,1.485c-0.074,0.035-0.853,0.311-0.872,0.388
		c-0.613,0.152,0.536,3.36,0.729,3.748c0.643,1.287,1.406,1.573,2.687,1.891c0.145,0.586,1.02,1.719,1.293,2.388
		c0.478,1.167,0.727,0.232,1.492,0.232c0.522,0,1.757,0.316,2.355,0.431c1.122,0.216,1.233,1.678,2.454,2.288
		c1.591,0.796,1.46-0.763,2.521-1.293c0.212-0.106,2.054,2.116,2.355,2.587c0.22,0.345,0.837,0.963,0.563,1.426
		c-0.479,0.813-0.531,0.994-0.099,1.857c0.685,0.397,1.029,0.176,1.293,0.862c0.259,0.674,0.498,1.786,0.498,2.521
		c0,0.278-0.971,1.843-1.161,1.89c-0.023,0.093-0.077,0.04-0.099,0.133c-0.156,0.039-0.281,0.294-0.432,0.332
		c-0.425,1.714-1.518,3.972-1.127,5.671c0.099,0.428,0.363,0.952,0.464,1.393c0.112,0.488-0.555,1.544-0.896,1.924
		c-0.543,0.605-0.354,1.177-0.531,1.89c-0.565,0.14,0.14,1.97-0.199,2.521c-0.615,1.001-0.982,1.421-0.862,2.753
		c-0.148,0.867-0.1,1.77-0.1,2.653c0,0.331-0.031,0.843,0.033,1.161c0.063,0.312,0.338,0.592,0.365,0.896
		c0.05,0.049,1.111,1.675,1.128,1.791c0.249,0.199,0.852,0.884,0.895,1.194c1.1,0.915,1.459,5.583,1.459,7.064L227.638,90.221
		L227.638,90.221z"/>
	
		<path id="CO_Larimer" fill-rule="evenodd" clip-rule="evenodd" fill="#D0D0D0" stroke="#666666" stroke-width="0.2835" stroke-miterlimit="22.9256" d="
		M263.745,33.361l0.165,1.368c0.402,1.8-0.122,3.436,0.542,5.179c0.545,1.432,2.656,2.806,3.748,3.714
		c0.061,0.49,0.315,1.591,0.531,2.023c0.366,0.731,1.005,0.963,1.526,1.559c0.812,1.571,2.466,4.342,4.212,5.041
		c0.147,1.188,1.481,3.058,1.891,4.312c0.276,0.847,0.907,2.36,1.658,2.918c1.049,0.78,1.982,3.467,2.62,4.743
		c0.722,1.445,1.823,4.254,1.957,5.871c0.246,1.195,0.955,2.009,1.459,3.084c0.362,0.771,0.422,1.702,0.663,2.487
		c0.213,0.694,0.653,1.277,0.862,1.957c0.312,1.015-0.342,2.805,0.597,3.482c0.304,0.219,2.066,0.67,2.488,0.729
		c0.059,0.118,0.712,0.609,0.896,0.862c0.25,0.347,0.621,1.026,0.663,1.493l0.464,1.194l0,0c0.122,0.069,0.408,0.206,0.498,0.332
		c1.84,0.366,3.153,1.575,2.587,3.416c-0.809,2.631,1.523,5.524,2.72,7.794c0.634,1.205,1.813,2.517,2.985,3.151
		c1.237,0.67,2.343,1.424,2.819,2.852c0.072,0.361,0.283,0.818,0.298,1.161c0.026,0.578,0.193,1.164,0.365,1.692
		c0.086,0.263,0.241,0.536,0.398,0.763c0.159,0.23,0.407,0.41,0.563,0.63c0.14,0.02,0.445,0.256,0.597,0.332l1.36,0.435l0,0
		l46.896-0.037l0,0v-8.872h8.912v-65.6l0,0L263.745,33.361L263.745,33.361z"/>
	
		<path id="CO_Grand" fill-rule="evenodd" clip-rule="evenodd" fill="#D0D0D0" stroke="#666666" stroke-width="0.2835" stroke-miterlimit="22.9256" d="
		M305.875,107.935c-0.278,0.442-0.122,0.287-0.232,0.361c-0.113,0.8-0.763,1.562-0.763,2.487c0,1.322-0.628,2.268-0.796,3.449
		c0.575,0.384,0.63,2.357,0.63,3.051c0,2.004,1.789,1.663,2.72,2.952c0.436,0.603,0.962,1.215,0.962,1.99
		c0,0.709-0.89,1.504-0.995,2.355c-0.247,0.791-0.009,2.099-0.597,2.686c-0.555,0.556-0.955,1.086-0.431,1.791
		c0.428,0.576,1.125,0.978,0.697,1.891c-0.11,0.235-0.363,0.229-0.498,0.431c-0.806,1.21-0.574,1.464-2.189,1.725
		c-3.124,0.503,0.037,2.281-0.729,3.914c-0.292,0.621-0.852,0.9-0.664,1.691c0.138,0.578-0.313,1.03-0.166,1.625
		c0.086,0.021,0.13,0.086,0.199,0.133l0.796,0.995l0,0c-0.009,0.317,0.065,0.301-0.066,0.464v0.1
		c-0.318,0.396-0.546,1.166-0.796,1.658c-0.413,0.815-0.597,1.706-0.597,2.653c0,0.536,0.168,1.239,0.398,1.725
		c0.13,0.275,0.274,0.538,0.332,0.829c0.049,0.244,0.112,0.662,0.232,0.862v0.398l0,0l-1.957,0.63
		c-1.827,0.457-1.132,1.441-1.923,2.719c-0.839,1.356-2.925,1.327-4.312,1.327c-1.625,0-1.194,0.575-2.156,1.426
		c-0.751,0.665-2.298-1.555-3.084-1.658c-0.625-0.083-1.279-0.166-1.891-0.166c-0.49,0.857-0.71,3.368-0.398,4.345
		c0.652,2.042-1.118,2.541-2.023,3.98c-0.551,0.876-0.714,2.44-1.227,3.051l0,0h-2.72c-0.779,0.194-1.575,0.305-2.354,0.53
		c-0.684,0.198-0.988,0.166-1.691,0.066c-0.406-0.406-0.891-0.9-1.194-1.36c-0.36-0.545-0.625-1.258-1.062-1.758
		c-0.036-0.403-0.511-0.855-0.696-1.227c-0.208-0.414-0.419-0.787-0.597-1.227c-0.405-1.895-0.302-4.105-1.526-5.737
		c-0.537-0.716-2.611-4.387-3.184-4.577c-0.015-0.061-0.006-0.051-0.066-0.066c-0.051-0.208-1.119-0.066-1.327-0.066
		c-0.562,0-1.143-0.1-1.691-0.1c-1.102,0-1.698-0.842-2.255-1.592c-0.435-0.586-4.207-5.141-4.51-5.141
		c-0.031-0.124-0.264-0.216-0.463-0.364h-11.211v-0.763h-3.017l0,0h-15.695l0,0v-8.822h-0.758v-33.498h-0.729l0.034-9.882l0,0
		c0.223,0.021,0.364,0.066,0.564,0.066c0.035,0.106,0.681,0.103,0.729,0.298c0.124,0.017,0.204,0.119,0.232,0.232
		c0.597,0.198,1.457,4.19,1.559,4.909c0.029,0.009,0.153,0.182,0.166,0.232c0.055,0.014,0.085,0.022,0.099,0.066
		c0.879,0,2.932-0.06,3.648,0.299c0.274,0.137,1.794,1.818,1.957,1.161c0.308-0.154,0.915-1.777,1.36-2.222
		c0.401-0.401,1.616-1.45,1.725-1.891c1.994-0.494,0.951-0.611,1.725,1.128c0.197,0.443,1.045,2.811,1.327,2.952
		c0.081,0.569,1.188,1.857,1.791,1.857c0.047-0.143,0.318-0.308,0.365-0.498c0.174-0.043,0.256,0,0.431,0
		c0.013,0.04,0.077,0.086,0.133,0.1c0.015,0.062,1.237,0.365,1.393,0.365c0.094,0.141,0.681,0.995,0.796,0.995
		c0.081,0.245,0.45-0.504,0.464-0.563c0.104-0.026,0.104-0.201,0.199-0.232c0.12-0.842,2.178-1.312,2.653-1.194l0.033,0.033
		c0.032,0.132,1.067,1.197,1.194,1.26c0.01,0.042,0.022,0.057,0.033,0.1c0.59,0.52,1.686,1.362,2.521,1.293
		c0.702-0.058,0.695-1.617,0.862-2.123c0.391-0.056,2.203-1.212,2.487-0.697c0.933,1.691,1.411,3.516,3.748,3.516
		c1.5,0,2.591-2.189,3.284-2.189c0.797,0,1.307,1.393,2.454,1.393c1.89,0,1.679-2.729,3.482-1.99
		c0.81,0.332,3.618,0.162,3.914-1.028c0.992-0.248,1.045-0.862,2.189-0.862c1.054,0,1.183,0.896,2.454,0.896
		c0.631,0.082,2.57,1.424,2.952,0.896c0.589-0.817,0.231-1.83,0.696-2.62c0.841-1.426,2.717-1.391,2.985-3.217
		c0.227-1.543,0.232-3.343,0.232-4.909c0.451-0.322,0.51-1.084,1.26-1.459l2.952-1.194l0,0c0.122,0.069,0.408,0.206,0.498,0.332
		c1.84,0.366,3.153,1.575,2.587,3.416c-0.809,2.631,1.523,5.524,2.72,7.794c0.634,1.205,1.813,2.517,2.985,3.151
		c1.237,0.67,2.343,1.424,2.819,2.852c0.072,0.361,0.283,0.818,0.298,1.161c0.026,0.578,0.193,1.164,0.365,1.692
		c0.086,0.263,0.241,0.536,0.398,0.763c0.159,0.23,0.407,0.41,0.563,0.63c0.14,0.02,0.445,0.256,0.597,0.332L305.875,107.935
		L305.875,107.935z"/>
	
		<path id="CO_Summit" fill-rule="evenodd" clip-rule="evenodd" fill="#D0D0D0" stroke="#666666" stroke-width="0.2835" stroke-miterlimit="22.9256" d="
		M244.787,142.423h3.017v0.763h11.211c0.199,0.147,0.432,0.24,0.463,0.364c0.303,0,4.075,4.555,4.51,5.141
		c0.558,0.75,1.153,1.592,2.255,1.592c0.548,0,1.129,0.1,1.691,0.1c0.208,0,1.275-0.142,1.327,0.066
		c0.061,0.015,0.051,0.006,0.066,0.066c0.573,0.19,2.646,3.861,3.184,4.577c1.224,1.632,1.121,3.842,1.526,5.737
		c0.178,0.44,0.39,0.813,0.597,1.227c0.186,0.372,0.66,0.824,0.696,1.227c0.437,0.5,0.701,1.213,1.062,1.758
		c0.303,0.459,0.788,0.954,1.194,1.36c0.703,0.1,1.008,0.131,1.691-0.066c0.78-0.225,1.575-0.336,2.354-0.53h2.72l0,0
		c0.455,0.732,0.883,3.399,2.156,2.985c0.584-0.191,2.474-0.625,2.918-0.1c0.679,0.802,0.58,1.521,1.592,2.222
		c0.642,0.444,1.351,0.597,2.123,0.597c1.244,0,1.82-0.507,2.421,0.697c0.238,0.476,0.493,0.902,0.663,1.426
		c0.188,0.575-0.062,0.599-0.132,1.028c-0.757,0.324-1.105,1.203-1.824,1.525c-0.399,0.179-0.785,0.274-1.194,0.431
		c-0.137,0.053-0.831,0.138-0.862,0.266c-0.131,0.032-0.094,0.249-0.132,0.365l-0.265,0.929l0,0l0.132,1.161
		c0.18,0.206,0.435,0.63,0.73,0.63c0.015,0.063,0.036,0.083,0.099,0.099c0,0.299-0.107,0.704-0.033,0.995
		c0.168,0.657-0.397,0.635-0.862,0.829c-0.439,0.184-0.878,0.409-1.36,0.431c-0.915,0.042-0.911,0.603-1.393,0.763
		c0,0.258-0.048,0.451,0.033,0.73c0.095,0.326,0.413,0.493,0.497,0.763c0.035,0.11-0.086,0.438-0.132,0.497
		c-0.137,0.175-0.34,0.292-0.464,0.465c-0.25,0.346-0.387,0.723-0.63,1.094c-0.102,0.413-1.242,0.983-1.559,1.459
		c-0.273,0.409-0.492,0.737-0.697,1.194c-0.43,0.96-2.734,0.739-2.786,0.896h-0.066c-0.229,0.924-0.187,1.426-1.426,1.426
		c0,1.542,0.523,2.228-1.028,3.051c-0.856,0.454-2.176,1.723-2.985,1.924c-0.097,0.389-0.379,2.293-0.597,2.487
		c-0.818,0.726-2.496,0.702-3.416,0.133c-1.556-0.963-4.341-2.601-6.262-1.395l0,0l-5.744-0.993l0,0l-0.1-2.023
		c0.075-0.601,0.028-0.847-0.099-1.36c-0.382-0.094-1.26-0.057-1.26-0.597c0-0.716,0.438-0.82,0.63-1.359
		c0.461-1.296-1.494-2.429-1.559-3.715c-0.057-1.115-0.042-2.05-0.265-3.117c-0.103-0.492-0.572-1.519-0.498-1.957
		c0.117-0.691,0.584-1.283,0.763-1.957c0.213-0.806,0.916,0.087,1.293,0.365c2.903,2.133,2.503-1.493,1.227-3.118
		c0.174-0.464-0.1-1.084-0.1-1.559c0-0.458,0.29-0.614,0.365-0.995c0.616-0.308,0.644-0.594,1.493-0.796
		c0.67-0.16,0.962-0.409,0.962-1.161c0-1.079,0.252-2.433,0-3.449l-0.033-0.033c-1.387,0-4.537-0.571-4.776-2.255
		c-0.082-0.02-0.372-0.592-0.398-0.696c-0.091-0.022-0.061-0.107-0.166-0.133c-0.08-0.323-1.347-0.199-1.658-1.062
		c-0.33-0.913-0.507-1.116-1.492-1.359c-0.351-1.415-1.583-1.55-2.554-2.521c-0.406-0.407-1.663-3.086-1.791-3.117v-0.066
		c-0.077-0.025-0.068-0.066-0.199-0.066c-0.328,0.989-2.456,0.63-2.653-0.365c-0.062-0.031-0.514-0.613-0.563-0.663
		c-0.163-0.82-1.011-1.547-1.095-2.222c-0.065-0.082-0.087-0.13-0.1-0.232c-0.118-0.147-0.242-0.546-0.265-0.729
		c-0.116-0.135-0.12-0.325-0.232-0.464c-0.031-0.256-0.245-1.135-0.397-1.327c-0.108-0.875-0.755-1.795-0.929-2.72
		c-0.196-1.042-0.427-2.05-0.498-3.117c-0.026-0.4,0.107-1.601-0.066-1.891L244.787,142.423L244.787,142.423z"/>
	
		<path id="CO_Boulder" fill-rule="evenodd" clip-rule="evenodd" fill="#D0D0D0" stroke="#666666" stroke-width="0.2835" stroke-miterlimit="22.9256" d="
		M352.771,107.898v26.333l0,0c0.088,0.456,0.111,1.222,0,1.658c-0.123,0.478,0.056,1.048-0.066,1.526
		c-0.18,0.703-0.812,1.074-1.194,1.691c-0.188,0.302-0.331,0.603-0.464,0.929c-0.117,0.286-0.47,0.584-0.531,0.896
		c-0.121,0.03-0.105,0.099-0.299,0.099c-0.027-0.116-1.007-0.749-1.193-0.862c-0.617-0.376-1.204-1.148-1.791-0.199
		c-0.43,0.694-0.82,1.389-1.16,2.156l-0.598,0.961l0,0l-19.44,0.138l0,0v-1.763h-22.215l0,0l-0.796-0.995
		c-0.069-0.046-0.113-0.112-0.199-0.133c-0.147-0.595,0.303-1.047,0.166-1.625c-0.188-0.792,0.372-1.07,0.664-1.691
		c0.767-1.633-2.395-3.41,0.729-3.914c1.615-0.261,1.383-0.515,2.189-1.725c0.135-0.202,0.387-0.196,0.498-0.431
		c0.428-0.913-0.269-1.315-0.697-1.891c-0.523-0.705-0.124-1.235,0.431-1.791c0.588-0.587,0.351-1.896,0.597-2.686
		c0.105-0.851,0.995-1.646,0.995-2.355c0-0.775-0.526-1.387-0.962-1.99c-0.931-1.289-2.72-0.948-2.72-2.952
		c0-0.694-0.055-2.667-0.63-3.051c0.167-1.182,0.796-2.127,0.796-3.449c0-0.925,0.649-1.687,0.763-2.487
		c0.111-0.074-0.045,0.081,0.232-0.361l0,0L352.771,107.898L352.771,107.898z"/>
	
		<path id="CO_Clear_Creek" fill-rule="evenodd" clip-rule="evenodd" fill="#D0D0D0" stroke="#666666" stroke-width="0.2835" stroke-miterlimit="22.9256" d="
		M303.322,150.15c0.805-0.431,3.512-0.571,4.278-0.133c0.474,1.913,1.799,1.941,3.084,2.985c1,0.813,2.165,1.539,3.151,2.455
		c0.895,0.831,0.968,1.881,2.189,2.587c1.356,0.784,3.125,1.658,4.743,1.658c0.793,0,1.509-0.173,2.256,0.132
		c0.706,0.29,0.936,0.543,1.69,0.166l0.332-0.133h1.03l0,0l-0.019,18.308l0,0h-34.243l0,0l0.265-0.929
		c0.039-0.116,0.001-0.333,0.132-0.365c0.032-0.127,0.726-0.213,0.862-0.266c0.41-0.157,0.795-0.252,1.194-0.431
		c0.719-0.322,1.067-1.202,1.824-1.525c0.071-0.429,0.32-0.453,0.132-1.028c-0.17-0.524-0.425-0.95-0.663-1.426
		c-0.602-1.204-1.178-0.697-2.421-0.697c-0.771,0-1.48-0.152-2.123-0.597c-1.012-0.701-0.913-1.42-1.592-2.222
		c-0.444-0.525-2.334-0.091-2.918,0.1c-1.273,0.415-1.701-2.252-2.156-2.985l0,0c0.513-0.611,0.676-2.175,1.227-3.051
		c0.905-1.439,2.675-1.938,2.023-3.98c-0.312-0.977-0.092-3.487,0.398-4.345c0.611,0,1.266,0.083,1.891,0.166
		c0.786,0.103,2.333,2.323,3.084,1.658c0.961-0.851,0.531-1.426,2.156-1.426c1.387,0,3.472,0.03,4.312-1.327
		c0.791-1.278,0.096-2.263,1.923-2.719L303.322,150.15L303.322,150.15z"/>
	
		<path id="CO_Gilpin" fill-rule="evenodd" clip-rule="evenodd" fill="#D0D0D0" stroke="#666666" stroke-width="0.2835" stroke-miterlimit="22.9256" d="
		M326.034,143.224l0.041,16.644l0,0h-1.03L324.713,160c-0.755,0.377-0.984,0.124-1.69-0.166c-0.747-0.306-1.463-0.132-2.256-0.132
		c-1.618,0-3.387-0.875-4.743-1.658c-1.221-0.706-1.294-1.756-2.189-2.587c-0.986-0.916-2.15-1.641-3.151-2.455
		c-1.285-1.044-2.61-1.072-3.084-2.985c-0.766-0.438-3.473-0.298-4.278,0.133l0,0v-0.398c-0.121-0.201-0.184-0.618-0.232-0.862
		c-0.058-0.292-0.202-0.554-0.332-0.829c-0.229-0.486-0.398-1.188-0.398-1.725c0-0.948,0.184-1.838,0.597-2.653
		c0.25-0.492,0.479-1.262,0.796-1.658v-0.1c0.131-0.164,0.057-0.147,0.066-0.464l0,0h22.215V143.224L326.034,143.224z"/>
	
		<path id="CO_Broomfield" fill-rule="evenodd" clip-rule="evenodd" fill="#D0D0D0" stroke="#666666" stroke-width="0.2835" stroke-miterlimit="22.9256" d="
		M352.903,143.02c0.403-0.012,2.171-0.135,2.256-0.73c0.109-0.054,0.517-0.616,0.663-0.763c0.391-0.391,1.393-0.791,0.929-1.426
		c-0.507-0.695-1.041-1.657-0.763-2.62c0.172-0.595,0.504-0.393,0.995-0.299c0.318,0.062,0.636,0.214,0.961,0.232
		c0.274,0.016,0.308-0.147,0.465-0.199c0-0.268-0.279-0.392-0.332-0.663c-0.101-0.526,0.199-0.831,0.199-1.293l1.319-0.963l0,0
		l0.246-1.397c0.148-0.704,0.63-2.311-0.081-2.844c-0.1,0-0.171,0.022-0.264,0.033c-0.179,0.251-0.491,0.472-0.69,0.74l-0.608,0.822
		c-0.125,0.168-0.182,0.399-0.296,0.576c-0.18,0.279-0.375,0.499-0.542,0.805c-0.23,0.422-0.441,0.815-0.741,1.201h-3.848l0,0
		c0.088,0.456,0.111,1.222,0,1.658c-0.123,0.478,0.056,1.048-0.066,1.526c-0.18,0.703-0.812,1.074-1.194,1.691
		c-0.188,0.302-0.331,0.603-0.464,0.929c-0.117,0.286-0.47,0.584-0.531,0.896c-0.121,0.03-0.105,0.099-0.299,0.099
		c-0.027-0.116-1.007-0.749-1.193-0.862c-0.617-0.376-1.204-1.148-1.791-0.199c-0.43,0.694-0.82,1.389-1.16,2.156l-0.598,0.961l0,0
		c0.245,0.524,0.169,0.996,0.332,1.526c0.087,0.284,0.24,0.594,0.299,0.829c0.352,0.058,0.326,0.261,0.729-0.066
		c0.575-0.467,0.858-1.09,1.26-1.691c0.187-0.279,0.519-0.663,0.862-0.663c0.348,0,0.395,0.114,0.531,0.431
		c0.238,0.554,0.343,1.105,0.63,1.625c0.085,0.156,0.251,0.357,0.464,0.199c0.312-0.232,0.464-0.53,0.796-0.729L352.903,143.02
		L352.903,143.02z"/>
	
		<path id="CO_Jefferson" fill-rule="evenodd" clip-rule="evenodd" fill="#D0D0D0" stroke="#666666" stroke-width="0.2835" stroke-miterlimit="22.9256" d="
		M345.475,143.086c0.245,0.524,0.169,0.996,0.332,1.526c0.087,0.284,0.24,0.594,0.299,0.829c0.352,0.058,0.326,0.261,0.729-0.066
		c0.575-0.467,0.858-1.09,1.26-1.691c0.187-0.279,0.519-0.663,0.862-0.663c0.348,0,0.395,0.114,0.531,0.431
		c0.238,0.554,0.343,1.105,0.63,1.625c0.085,0.156,0.251,0.357,0.464,0.199c0.312-0.232,0.464-0.53,0.796-0.729l1.525-1.525l0,0
		v12.73l0,0v11.654c0.337,0.726-0.363,0.597-0.559,1.088c-0.213,0.536,0.038,1.155-0.18,1.71c-0.373,0.944-0.604,1.108-1.562,1.299
		c-0.574,0.114-1.399-0.191-1.874-0.033l0.049,2.45c0.475,0,0.906,0.079,1.365,0.099c0.598,0.027,1.171-0.065,1.759-0.065h0.954l0,0
		v4.954l0,0l-1.335,2.33c-0.253,1.272-0.904,2.251-0.984,3.629c-0.092,1.609-0.951,2.153-2.46,2.153
		c-0.089,0.357-1.03,0.833-1.169,1.415c-0.126,0.531,0.246,0.926,0.246,1.477c0,1.412-0.253,3.139-1.968,3.383
		c-0.734,1.284-1.538,1.795-1.538,3.445c0,1.39,0.019,2.555-0.492,3.875c0,2.525-2.199,5.078-3.075,7.381
		c-0.268,0.702-0.539,2.506-1.047,3.014c-1.292,1.292-1.981-1.046-2.398,1.907c-0.109,0.771-0.383,1.406-0.554,2.091
		c-0.096,0.023-0.665,0.444-0.677,0.492c-0.15,0.037-0.519,0.291-0.553,0.431c-0.717,0.178-0.396,2.311-1.23,2.891
		c-0.969,0.674-1.303,2.85-2.151,3.774l0,0h-5.413v-44.417l0,0l0.019-18.308l0,0l-0.041-16.644l0,0L345.475,143.086L345.475,143.086
		z"/>
	
		<path id="CO_Park" fill-rule="evenodd" clip-rule="evenodd" fill="#D0D0D0" stroke="#666666" stroke-width="0.2835" stroke-miterlimit="22.9256" d="
		M267.609,197.807c1.921-1.206,4.706,0.432,6.262,1.395c0.92,0.569,2.598,0.593,3.416-0.133c0.218-0.194,0.5-2.099,0.597-2.487
		c0.809-0.201,2.128-1.47,2.985-1.924c1.552-0.823,1.028-1.51,1.028-3.051c1.239,0,1.197-0.501,1.426-1.426h0.066
		c0.052-0.157,2.355,0.064,2.786-0.896c0.205-0.457,0.424-0.785,0.697-1.194c0.317-0.476,1.457-1.046,1.559-1.459
		c0.243-0.371,0.38-0.749,0.63-1.094c0.124-0.172,0.327-0.29,0.464-0.465c0.046-0.059,0.167-0.387,0.132-0.497
		c-0.084-0.27-0.402-0.437-0.497-0.763c-0.081-0.279-0.033-0.472-0.033-0.73c0.482-0.16,0.478-0.721,1.393-0.763
		c0.481-0.022,0.92-0.248,1.36-0.431c0.465-0.194,1.031-0.172,0.862-0.829c-0.074-0.291,0.033-0.696,0.033-0.995
		c-0.063-0.016-0.084-0.036-0.099-0.099c-0.295,0-0.55-0.425-0.73-0.63l-0.132-1.161l0,0h34.243l0,0v44.417h5.413l0,0l-0.125,44.236
		l0,0h-49.777l0,0l0.49-1.132c0.103-0.165,0.373-0.432,0.398-0.612c1.299-1.299,1.01-2.653,1.01-4.316
		c0-1.999,1.722-2.836,2.112-4.592c0.097-0.097,0.079-0.05,0.092-0.184c0.84-0.96-1.212-3.722-1.959-4.255
		c-0.333-0.889,0.265-2.209,0.674-3c0.48-1.763-2.253-1.286-3.276-1.286c-0.241-0.241,0.245-2.508,0.245-3.153
		c0-0.859-2.481-0.587-3.184-0.98c-0.637-0.355-0.63-1.181-1.377-1.439c-1.829-0.63-9.598,1.972-5.817-3.184
		c1.223-1.668-4.154-2.266-4.868-2.602c-1.867-0.88-1.58-4.929-3.179-6.478l0,0l0.462-0.232c0.864-1.079,1.59-1.988,2.554-2.952
		c0-1.499-1.847-1.691-3.018-1.691l-0.133-0.133c0-0.747,0.523-0.949,0.829-1.525c0.23-0.435,0.526-1.103,0.929-1.393
		c1.415-1.021,0.325-2.979,0-4.245c0.306-1.125-0.241-2.301-0.033-3.383c0.193-1.005,1.366-1.686,1.161-2.753
		c-0.11-0.574-0.706-0.885-0.862-1.393c-0.748-2.433-0.407-5.923,2.057-7.296c2.158-1.203,0.563-2.566,0.563-4.246
		C267.63,198.244,267.598,198.044,267.609,197.807L267.609,197.807z"/>
	
		<path id="CO_Chaffee" fill-rule="evenodd" clip-rule="evenodd" fill="#D0D0D0" stroke="#666666" stroke-width="0.2835" stroke-miterlimit="22.9256" d="
		M233.21,229.615h29.719l0,0c1.599,1.549,1.312,5.598,3.179,6.478c0.713,0.336,6.091,0.934,4.868,2.602
		c-3.781,5.155,3.988,2.553,5.817,3.184c0.748,0.258,0.741,1.084,1.377,1.439c0.703,0.393,3.184,0.121,3.184,0.98
		c0,0.645-0.486,2.912-0.245,3.153c1.022,0,3.756-0.477,3.276,1.286c-0.409,0.791-1.007,2.111-0.674,3
		c0.747,0.534,2.799,3.295,1.959,4.255c-0.013,0.134,0.005,0.086-0.092,0.184c-0.39,1.756-2.112,2.594-2.112,4.592
		c0,1.664,0.289,3.017-1.01,4.316c-0.025,0.18-0.295,0.448-0.398,0.612l-0.49,1.132l0,0c1.197,1.458,2.944,1.518,3.367,3.644
		c0.373,1.871,0.518,2.862,2.418,3.337c0.325,0.433,0.376,1.121,0.704,1.531c0,1.243-0.643,2.157-0.643,3.581
		c0,1.408-0.854,1.708-1.194,2.908c-0.276,0.976,0.625,3.889-1.102,3.889c-1.281,0-3.138,1.975-4.042,2.878l-3.367,3.092l0,0
		l-1.151-0.575c-0.336-0.149-0.636-0.232-1.003-0.232c-0.332,0.146-0.68,0.137-1.019,0.325c-0.351,0.194-0.469,0.408-0.679,0.742
		c-0.398,0.636-0.465,1.541-1.076,2.036h-13.44l0,0l-0.031-1.286c-0.097-0.778-1.521-1.374-2.235-1.438
		c-1.014-0.789-1.406-1.427-2.173-2.449c-0.613-0.817-0.906-1.677-1.684-2.357c-1.794-0.224-1.466-1.454-1.806-2.816
		c-0.316-1.27-0.796-2.019-0.367-3.307c0.71-0.532,0.371-2.189,0.245-2.081c-0.146-0.584-0.513-1.5-0.582-2.052
		c-1.455-1.212-2.259-4.31-4.072-4.775c-0.562-0.145-1.167-0.346-1.316-0.979c-0.237-1.009-0.588-2.083-1.132-2.97
		c-1.202-1.954,0.212-1.1,1.102-2.296c0.414-0.558,0.52-1.162,0.857-1.775c0.671-1.217,0.727-5.327,0.275-6.643
		c0-2.603-0.718-1.979,1.99-3.245c1.654-0.774,3.632-3.576,4.408-5.205c0.863-1.811,0.886-1.516,0.612-3.429
		c-0.64-0.16-1.966,0-2.755,0c-0.609,0-2.096-0.792-2.296-0.704c-0.353,0.156-1.098,1.018-1.469,0.704
		c-0.67-0.566-0.737-1.656-1.225-2.143h-0.184c-0.893,0.894-1.766,2.232-3,2.725c-1.163,0.464-1.221-1.555-1.867-1.959
		c-0.293-1.172-1.519-1.767-2.021-2.816l-1.378-2.877c-1.791-3.74-2.59-0.379-4.924-1.36l0,0l0.127-1.187
		c0.118-0.384,0.219-0.99,0.165-1.397c-0.045-0.342-0.266-0.687-0.378-1.02c-0.246-0.725,0.401-1.81,0.74-2.417
		c0.078-0.139,0.125-0.382,0.213-0.493C233.181,229.841,233.205,229.703,233.21,229.615L233.21,229.615z"/>
	
		<polygon id="CO_Teller" fill-rule="evenodd" clip-rule="evenodd" fill="#D0D0D0" stroke="#666666" stroke-width="0.2835" stroke-miterlimit="22.9256" points="
		331.47,222.592 355.027,222.592 355.027,222.592 355.027,249.452 351.89,249.452 351.89,256.587 361.548,256.587 361.548,271.534 
		361.548,271.534 338.235,271.534 338.235,266.828 331.345,266.828 331.345,266.828 331.47,222.592 	"/>
	
		<path id="CO_Douglas" fill-rule="evenodd" clip-rule="evenodd" fill="#D0D0D0" stroke="#666666" stroke-width="0.2835" stroke-miterlimit="22.9256" d="
		M331.47,222.592c0.849-0.924,1.183-3.1,2.151-3.774c0.834-0.58,0.514-2.712,1.23-2.891c0.034-0.14,0.402-0.394,0.553-0.431
		c0.012-0.048,0.581-0.469,0.677-0.492c0.171-0.686,0.444-1.32,0.554-2.091c0.417-2.953,1.106-0.614,2.398-1.907
		c0.508-0.508,0.779-2.312,1.047-3.014c0.876-2.303,3.075-4.856,3.075-7.381c0.511-1.321,0.492-2.486,0.492-3.875
		c0-1.649,0.804-2.161,1.538-3.445c1.715-0.244,1.968-1.971,1.968-3.383c0-0.551-0.372-0.945-0.246-1.477
		c0.139-0.581,1.08-1.057,1.169-1.415c1.509,0,2.368-0.544,2.46-2.153c0.08-1.378,0.731-2.357,0.984-3.629l1.335-2.33l0,0h30.592
		l0,0v43.687l0,0h-28.42l0,0H331.47L331.47,222.592z"/>
	
		<polygon id="CO_El_Paso" fill-rule="evenodd" clip-rule="evenodd" fill="#D0D0D0" stroke="#666666" stroke-width="0.2835" stroke-miterlimit="22.9256" points="
		361.548,284.393 431.548,284.021 431.548,284.021 431.373,249.328 431.373,249.328 431.373,222.592 383.447,222.592 
		383.447,222.592 355.027,222.592 355.027,222.592 355.027,249.452 351.89,249.452 351.89,256.587 361.548,256.587 361.548,271.534 
		361.548,271.534 361.548,284.393 	"/>
	
		<path id="CO_Custer" fill-rule="evenodd" clip-rule="evenodd" fill="#D0D0D0" stroke="#666666" stroke-width="0.2835" stroke-miterlimit="22.9256" d="
		M295.13,310.239c0.293,1.043,2.015,3.601,2.847,4.225c0.416,1.145,1.962,2.104,2.847,2.939c0.888,0.839,1.883,2.056,2.816,2.755
		c0.252,0.694,0.479,2.596,0.827,3.031l0.03,0.122c0.829,0.592,1.072,2.429,1.072,3.368c0.191,0.418,0.556,1.193,0.949,1.438
		c0.565,1.244,1.684,2.667,2.418,3.857c1.229,1.992,1.417,4.468,2.174,6.612c0.908,2.569,1.406,2.792,4.041,3.031
		c1.127,0.986,2.76,2.774,3.643,4.011l1.316,1.469l0,0c2.704-1.014,3.421,1.829,6.276-0.551c0.992-0.827,5.065-3.452,6.275-2.847
		c0.523,0.914,0.86,1.841,1.47,2.693c1.78,0.647,2.71-2.828,3.307-3.979c0.513-0.988,1.771-1.948,2.449-2.878
		c1.301-1.784,2.104-3.219,3.674-4.867c1.685-1.769,2.031,2.828,2.204,3.521c0.67,0.315,1.165,1.188,1.562,1.807
		c0.454,0.708,0.949,2.632,1.929,2.632c1.018,0,1.138-1.598,2.326-0.918c0.024,0.165,0.192,0.507,0.275,0.674l1.623,2.816l0,0
		l-0.387-34.444l0,0L295.13,310.239L295.13,310.239z"/>
	
		<path id="CO_Saguache" fill-rule="evenodd" clip-rule="evenodd" fill="#D0D0D0" stroke="#666666" stroke-width="0.2835" stroke-miterlimit="22.9256" d="
		M200.325,322.179v-27.576l59.017-0.619l0,0h13.44c0.611-0.495,0.678-1.4,1.076-2.036c0.21-0.334,0.329-0.548,0.679-0.742
		c0.339-0.188,0.687-0.179,1.019-0.325c0.367,0,0.667,0.083,1.003,0.232l1.151,0.575l0,0c0.458,1.74,2.533,2.572,3.612,3.857
		c0.906,1.079,1.604,2.646,2.541,3.582c1.477,1.477,2.805,2.439,3.857,4.255c0.64,1.103,2.113,3.699,3.306,4.133
		c0.273,0.384,1.068,0.751,1.47,1.071l2.633,1.653l0,0c0.293,1.043,2.015,3.601,2.847,4.225c0.416,1.145,1.962,2.104,2.847,2.939
		c0.888,0.839,1.883,2.056,2.816,2.755c0.252,0.694,0.479,2.596,0.827,3.031l0.03,0.122c0.829,0.592,1.072,2.429,1.072,3.368
		c0.191,0.418,0.556,1.193,0.949,1.438c0.565,1.244,1.684,2.667,2.418,3.857c1.229,1.992,1.417,4.468,2.174,6.612
		c0.908,2.569,1.406,2.792,4.041,3.031c1.127,0.986,2.76,2.774,3.643,4.011l1.316,1.469l0,0c-1.067,1.29,0.645,2.205,1.714,2.603
		c2.836,1.054,2.021,3.067,1.348,5.266c-0.252,0.821-0.617,1.575-1.042,2.327c-0.444,0.788,0.092,1.125,0.092,1.836l-0.061,0.062
		c0,0.467-0.581,0.966-0.581,1.592l-0.263,1.85l0,0h-46.011l0,0h-42.505v-8.86h-8.82l0,0l0.061-3.949
		c0-0.843-3.005-0.964-3.704-1.071c-2.264-0.348-2.31-0.986-3.888-2.388c-1.161-1.03-1.724-1.187-3.245-1.438
		c-1.385-0.23-2.209-2.048-3.031-3.123c-2.007-2.626-3.115-1.236-5.755-0.429c-1.458,0.446-1.136-0.921-1.868-1.653
		c-0.573,0-1.445,1.267-2.227,1.445l0,0V322.179L200.325,322.179z"/>
	
		<polygon id="CO_Rio_Grande" fill-rule="evenodd" clip-rule="evenodd" fill="#D0D0D0" stroke="#666666" stroke-width="0.2835" stroke-miterlimit="22.9256" points="
		223.982,353.772 232.803,353.772 232.803,362.633 275.308,362.633 275.308,362.633 275.505,398.064 275.505,398.064 225.5,398.064 
		225.5,398.064 223.27,398.064 223.27,398.064 222.961,371.066 223.982,371.066 223.982,353.772 	"/>
	
		<path id="CO_Alamosa" fill-rule="evenodd" clip-rule="evenodd" fill="#D0D0D0" stroke="#666666" stroke-width="0.2835" stroke-miterlimit="22.9256" d="
		M275.308,362.633l0.197,35.432l0,0v4.079h22.534l0,0l20.572-22.257l0,0l-0.123-1.867c0-1.307-0.628-1.948-0.184-3.184
		c0.43-1.194,0.56-2.525,1.041-3.674c0.402-0.963,0.643-1.552,0.643-2.633c0-1.104-0.363-1.773,0.429-2.664
		c1.104-1.24,0.858-1.761,0.858-3.232h0.043H275.308L275.308,362.633z"/>
	
		<path id="CO_Conejos" fill-rule="evenodd" clip-rule="evenodd" fill="#D0D0D0" stroke="#666666" stroke-width="0.2835" stroke-miterlimit="22.9256" d="
		M239.515,438.057l-0.37-2.155l-6.772-13.109v-3.998l-7.013-3.999l0.141-16.73l0,0h50.004l0,0v4.079h22.534l0,0l0.183,2.021
		c0.257,0.515,0.206,1.173,0.459,1.714c0.209,0.446,0.363,0.711,0.643,1.103c0.831,0.166,0.883,0.953,1.164,1.592
		c0.303,0.69-0.201,1.136-0.521,1.775c-0.197,0.396-0.485,0.838-0.643,1.225c-0.235,0.577-0.137,1.212-0.428,1.775
		c0,0.392-0.306,0.69-0.306,1.133c0,0.512,0.279,0.898,0.367,1.378l0.306,1.653c1.247,0.312,0.047,3.809,0.337,4.562
		c0.113,0.293-2.398,4.468-1.041,4.807c0.56,2.238-1.623,3.175-1.623,5.633c0,2.513,1.153,3.661,3.316,4.239l-0.016,1.206l0,0
		L239.515,438.057L239.515,438.057z"/>
	
		<path id="CO_Costilla" fill-rule="evenodd" clip-rule="evenodd" fill="#D0D0D0" stroke="#666666" stroke-width="0.2835" stroke-miterlimit="22.9256" d="
		M298.039,402.144l20.572-22.257l0,0c1.878-0.215,3.995-2.611,4.899-4.194c0.826-0.165,1.968,0.467,2.785-0.184
		c0.6-0.477,1.246-1.786,2.021-1.745c1.942,0.104,3.581-0.769,5.021-2.051c0.646-0.576,2.538,1.497,3,1.959
		c1.775,1.775,3.656,0.12,5.389,0.888c0.406,0.18,0.715,2.083,0.612,2.511c-0.164,0.687-1.714,1.133-2.266,1.684
		c0,0.332,2.418,3.046,2.816,3.521c1.036,1.236,1.525,4.021,0.796,5.48l0.46,3.612c0.254,0.17,0.304,0.162,0.429,0.337
		c0.307,0.062,0.621,0.393,0.888,0.459c0.173,0.231,0.122,0.977,0.122,1.286c0.389,0.486,1.607,3.205,1.01,3.643
		c-0.936,0.687-1.952,0.366-2.295,1.807c-0.134,0.558-0.033,1.313-0.123,1.897c-0.208,1.35,0.082,1.914,0.307,3.215
		c0.118,0.691,0.306,2.509,0.122,3.184l0.367,1.807l0,0l0.753,28.884l0,0l-45.486,0.073l0,0l0.016-1.206
		c-2.163-0.578-3.316-1.727-3.316-4.239c0-2.458,2.182-3.395,1.623-5.633c-1.357-0.339,1.154-4.514,1.041-4.807
		c-0.29-0.753,0.91-4.25-0.337-4.562l-0.306-1.653c-0.088-0.479-0.367-0.866-0.367-1.378c0-0.442,0.306-0.741,0.306-1.133
		c0.292-0.563,0.193-1.198,0.428-1.775c0.158-0.387,0.446-0.829,0.643-1.225c0.319-0.64,0.824-1.085,0.521-1.775
		c-0.281-0.639-0.333-1.426-1.164-1.592c-0.279-0.392-0.434-0.656-0.643-1.103c-0.253-0.541-0.202-1.199-0.459-1.714
		L298.039,402.144L298.039,402.144z"/>
	
		<path id="CO_Huerfano" fill-rule="evenodd" clip-rule="evenodd" fill="#D0D0D0" stroke="#666666" stroke-width="0.2835" stroke-miterlimit="22.9256" d="
		M320.111,347.099c-1.067,1.29,0.645,2.205,1.714,2.603c2.836,1.054,2.021,3.067,1.348,5.266c-0.252,0.821-0.617,1.575-1.042,2.327
		c-0.444,0.788,0.092,1.125,0.092,1.836l-0.061,0.062c0,0.467-0.581,0.966-0.581,1.592l-0.263,1.85h-0.043
		c0,1.472,0.245,1.992-0.858,3.232c-0.792,0.891-0.429,1.56-0.429,2.664c0,1.081-0.24,1.67-0.643,2.633
		c-0.481,1.148-0.611,2.479-1.041,3.674c-0.445,1.235,0.184,1.877,0.184,3.184l0.123,1.867l0,0c1.878-0.215,3.995-2.611,4.899-4.194
		c0.826-0.165,1.968,0.467,2.785-0.184c0.6-0.477,1.246-1.786,2.021-1.745c1.942,0.104,3.581-0.769,5.021-2.051
		c0.646-0.576,2.538,1.497,3,1.959c1.775,1.775,3.656,0.12,5.389,0.888c0.406,0.18,0.715,2.083,0.612,2.511
		c-0.164,0.687-1.714,1.133-2.266,1.684c0,0.332,2.418,3.046,2.816,3.521c1.036,1.236,1.525,4.021,0.796,5.48l0.46,3.612
		c0.254,0.17,0.304,0.162,0.429,0.337c0.307,0.062,0.621,0.393,0.888,0.459c0.173,0.231,0.122,0.977,0.122,1.286
		c0.389,0.486,1.607,3.205,1.01,3.643c-0.936,0.687-1.952,0.366-2.295,1.807c-0.134,0.558-0.033,1.313-0.123,1.897
		c-0.208,1.35,0.082,1.914,0.307,3.215c0.118,0.691,0.306,2.509,0.122,3.184l0.367,1.807l0,0l1.604-0.764
		c1.334-0.007,1.695-0.537,2.835-1.012c1.457-2.004,5.231-2.396,6.276-4.286c0.942-1.705,4.45-2.805,6.001-4.011
		c0.708-0.059,1.325-0.512,2.081-0.245c3.261,1.152,4.66-0.888,7.807-0.888c1.265,0,2.741,0.059,3.919-0.275
		c2.033-0.577,1.982-1.442,3.521-2.541c1.377-0.755,1.866-1.488,2.112-3c0.154-0.95,0.316-3.041,0.979-3.704
		c1.215,0,2.751,0.337,3.276-1.041c0.603-1.582,2.4-3.145,3.489-4.439c1.062-1.262,2.391-1.31,3.276-2.786
		c-0.057-1.011-0.426-3.396,0.214-4.255c1.354-1.82,2.397-3.742,3.367-5.848c0.636-1.379,2.206-5.057,3.398-5.908
		c0.15-0.301,0.465-0.515,0.643-0.826c1.706-0.975,2.812-3.274,4.654-4.194l3.673-3.276l0,0l-23.235-8.508l-28.787,2.215
		l-2.593-4.207l0,0l-1.623-2.816c-0.083-0.167-0.251-0.509-0.275-0.674c-1.188-0.68-1.309,0.918-2.326,0.918
		c-0.979,0-1.475-1.924-1.929-2.632c-0.396-0.619-0.892-1.491-1.562-1.807c-0.173-0.692-0.52-5.289-2.204-3.521
		c-1.57,1.648-2.373,3.083-3.674,4.867c-0.678,0.93-1.937,1.89-2.449,2.878c-0.597,1.151-1.526,4.627-3.307,3.979
		c-0.609-0.853-0.946-1.779-1.47-2.693c-1.21-0.605-5.283,2.02-6.275,2.847C323.532,348.928,322.814,346.085,320.111,347.099
		L320.111,347.099z"/>
	
		<polygon id="CO_Pueblo" fill-rule="evenodd" clip-rule="evenodd" fill="#D0D0D0" stroke="#666666" stroke-width="0.2835" stroke-miterlimit="22.9256" points="
		353.094,310.757 353.48,345.201 353.48,345.201 356.073,349.408 384.86,347.193 408.096,355.701 408.096,355.701 430.843,364.12 
		430.843,364.12 430.9,322.348 430.9,322.348 431.548,284.021 431.548,284.021 361.548,284.393 361.548,284.393 361.548,310.757 
		353.094,310.757 	"/>
	
		<polygon id="CO_Elbert" fill-rule="evenodd" clip-rule="evenodd" fill="#D0D0D0" stroke="#666666" stroke-width="0.2835" stroke-miterlimit="22.9256" points="
		383.447,222.592 431.373,222.592 431.373,249.328 431.373,249.328 457.567,249.328 458.151,178.905 458.151,178.905 
		383.447,178.905 383.447,178.905 383.447,222.592 	"/>
	
		<polygon id="CO_Lincoln" fill-rule="evenodd" clip-rule="evenodd" fill="#D0D0D0" stroke="#666666" stroke-width="0.2835" stroke-miterlimit="22.9256" points="
		431.373,249.328 457.567,249.328 458.151,178.905 458.151,178.905 501.948,178.395 501.948,178.395 501.917,223.187 
		501.293,223.187 501.293,231.923 501.293,231.923 501.293,267.353 500.52,267.353 500.52,274.668 500.52,274.668 500.52,283.885 
		474.191,283.885 474.191,284.708 474.191,284.708 465.837,284.647 465.837,284.021 431.548,284.021 431.548,284.021 
		431.373,249.328 	"/>
	
		<path id="CO_Crowley" fill-rule="evenodd" clip-rule="evenodd" fill="#D0D0D0" stroke="#666666" stroke-width="0.2835" stroke-miterlimit="22.9256" d="
		M431.548,284.021l-0.647,38.326l0,0c0.65-0.008,1.323,0.106,1.963,0.106c1.083,0,2.074-0.765,3.337-0.765
		c0.972,0,2.563,1.748,3.643,2.143c1.489,0.544,2.062-0.771,3.429-0.429c0.051,0.254,0.312,0.54,0.367,0.766
		c0.079,0.011,0.073-0.016,0.093,0.062c0.638,0,1.496-0.527,2.02-0.429c0.503,0.095,1.95,0.483,2.052,0.979
		c0.19,0.935,1.906,0.254,2.388,0.734h15.215l-0.03-5.877h8.848l-0.017-9.262l0,0l-0.015-25.669l0,0l-8.354-0.061v-0.626H431.548
		L431.548,284.021z"/>
	
		<path id="CO_Otero" fill-rule="evenodd" clip-rule="evenodd" fill="#D0D0D0" stroke="#666666" stroke-width="0.2835" stroke-miterlimit="22.9256" d="
		M430.9,322.348c0.65-0.008,1.323,0.106,1.963,0.106c1.083,0,2.074-0.765,3.337-0.765c0.972,0,2.563,1.748,3.643,2.143
		c1.489,0.544,2.062-0.771,3.429-0.429c0.051,0.254,0.312,0.54,0.367,0.766c0.079,0.011,0.073-0.016,0.093,0.062
		c0.638,0,1.496-0.527,2.02-0.429c0.503,0.095,1.95,0.483,2.052,0.979c0.19,0.935,1.906,0.254,2.388,0.734h15.215l-0.03-5.877h8.848
		l-0.017-9.262l0,0h8.681l0,0l-0.938,62.649l0,0l-51.106-0.306v-8.601l0,0L430.9,322.348L430.9,322.348z"/>
	
		<path id="CO_Las_Animas" fill-rule="evenodd" clip-rule="evenodd" fill="#D0D0D0" stroke="#666666" stroke-width="0.2835" stroke-miterlimit="22.9256" d="
		M344.97,409.001l1.604-0.764c1.334-0.007,1.695-0.537,2.835-1.012c1.457-2.004,5.231-2.396,6.276-4.286
		c0.942-1.705,4.45-2.805,6.001-4.011c0.708-0.059,1.325-0.512,2.081-0.245c3.261,1.152,4.66-0.888,7.807-0.888
		c1.265,0,2.741,0.059,3.919-0.275c2.033-0.577,1.982-1.442,3.521-2.541c1.377-0.755,1.866-1.488,2.112-3
		c0.154-0.95,0.316-3.041,0.979-3.704c1.215,0,2.751,0.337,3.276-1.041c0.603-1.582,2.4-3.145,3.489-4.439
		c1.062-1.262,2.391-1.31,3.276-2.786c-0.057-1.011-0.426-3.396,0.214-4.255c1.354-1.82,2.397-3.742,3.367-5.848
		c0.636-1.379,2.206-5.057,3.398-5.908c0.15-0.301,0.465-0.515,0.643-0.826c1.706-0.975,2.812-3.274,4.654-4.194l3.673-3.276l0,0
		l22.747,8.419l0,0v8.601l51.106,0.306l0,0h25.896l0,0l-0.515,64.597h0.003l-161.61,0.262l0,0L344.97,409.001L344.97,409.001z"/>
	
		<polygon id="CO_Bent" fill-rule="evenodd" clip-rule="evenodd" fill="#D0D0D0" stroke="#666666" stroke-width="0.2835" stroke-miterlimit="22.9256" points="
		482.887,310.377 481.949,373.026 481.949,373.026 507.845,373.026 507.845,373.026 533.985,373.026 533.985,373.026 
		534.334,310.225 534.334,310.225 482.887,310.377 	"/>
	
		<polygon id="CO_Baca" fill-rule="evenodd" clip-rule="evenodd" fill="#D0D0D0" stroke="#666666" stroke-width="0.2835" stroke-miterlimit="22.9256" points="
		507.333,437.623 514.337,437.612 514.337,437.612 534.396,437.612 541.515,438.49 564.772,438.49 568.462,438.141 589.74,438.688 
		589.74,438.688 589.562,372.845 589.562,372.845 533.985,373.026 533.985,373.026 507.845,373.026 507.845,373.026 507.33,437.623 
			"/>
	
		<polygon id="CO_Prowers" fill-rule="evenodd" clip-rule="evenodd" fill="#D0D0D0" stroke="#666666" stroke-width="0.2835" stroke-miterlimit="22.9256" points="
		534.334,310.225 533.985,373.026 533.985,373.026 589.562,372.845 589.562,372.845 589.394,309.812 589.394,309.812 
		534.334,310.225 	"/>
	
		<polygon id="CO_Kiowa" fill-rule="evenodd" clip-rule="evenodd" fill="#D0D0D0" stroke="#666666" stroke-width="0.2835" stroke-miterlimit="22.9256" points="
		482.887,310.377 534.334,310.225 534.334,310.225 589.394,309.812 589.394,309.812 589.299,274.778 589.299,274.778 
		500.52,274.668 500.52,274.668 500.52,283.885 474.191,283.885 474.191,284.708 474.191,284.708 474.206,310.377 474.206,310.377 
		482.887,310.377 	"/>
	
		<polygon id="CO_Cheyenne" fill-rule="evenodd" clip-rule="evenodd" fill="#D0D0D0" stroke="#666666" stroke-width="0.2835" stroke-miterlimit="22.9256" points="
		501.293,231.923 501.293,267.353 500.52,267.353 500.52,274.668 500.52,274.668 589.299,274.778 589.299,274.778 589.182,231.239 
		589.182,231.239 501.293,231.923 	"/>
	
		<polygon id="CO_Kit_Carson" fill-rule="evenodd" clip-rule="evenodd" fill="#D0D0D0" stroke="#666666" stroke-width="0.2835" stroke-miterlimit="22.9256" points="
		589.182,231.239 501.293,231.923 501.293,231.923 501.293,223.187 501.917,223.187 501.948,178.395 501.948,178.395 
		529.511,178.079 529.511,178.079 589.037,177.466 589.037,177.466 589.182,231.239 	"/>
	
		<path id="CO_Arapahoe" fill-rule="evenodd" clip-rule="evenodd" fill="#D0D0D0" stroke="#666666" stroke-width="0.2835" stroke-miterlimit="22.9256" d="
		M352.855,178.905h30.592l0,0h74.704l0,0l0.36-18.076l0,0h-92.076l0,0l0.033,1.194c0.142,0.855,0.385,0.882,0.862,1.36
		c0.898,0-0.172,1.079-0.432,1.227c-0.312,1.091-4.03,1.333-1.193,3.118c1.138,0.716,4.71,0.475,3.25,2.123
		c-0.675,0.76-1.695,1.323-2.454,2.023c-1.402,1.294-2.11-0.382-3.15-1.061c-1.438-0.938-3.089-1.562-4.312-2.786
		c-1.245,0-2.571,0.597-3.814,0.597c-1.286,0-0.269,1.905-0.796,2.487c-0.271,0.299-1.004,0.467-1.394,0.564
		c-0.042,0.071-0.034,0.101-0.099,0.166c0,0.661,0.211,1.558-0.082,2.111l0,0V178.905L352.855,178.905z"/>
	
		<path id="CO_Denver" fill-rule="evenodd" clip-rule="evenodd" fill="#D0D0D0" stroke="#666666" stroke-width="0.2835" stroke-miterlimit="22.9256" d="
		M352.855,173.952c0.293-0.553,0.082-1.45,0.082-2.111c0.064-0.065,0.057-0.095,0.099-0.166c0.39-0.097,1.122-0.265,1.394-0.564
		c0.527-0.583-0.49-2.487,0.796-2.487c1.243,0,2.569-0.597,3.814-0.597c1.223,1.224,2.874,1.848,4.312,2.786
		c1.04,0.679,1.748,2.355,3.15,1.061c0.759-0.7,1.779-1.263,2.454-2.023c1.46-1.647-2.112-1.407-3.25-2.123
		c-2.837-1.785,0.882-2.027,1.193-3.118c0.26-0.148,1.33-1.227,0.432-1.227c-0.478-0.478-0.721-0.504-0.862-1.36l-0.033-1.194l0,0
		v-1.559h1.824v-1.592h9.551v-2.918h-2.188v-2.753h11.441v-4.743h1.16v-2.454h-2.785v-0.796h-4.112v0.763h-3.517v5.638h-4.377v4.644
		h-5.805V153.5h-1.559v1.36h-1.559v1.625h-1.957v-0.734h-9.651l0,0v11.654c0.337,0.726-0.363,0.597-0.559,1.088
		c-0.213,0.536,0.038,1.155-0.18,1.71c-0.373,0.944-0.604,1.108-1.562,1.299c-0.574,0.114-1.399-0.191-1.874-0.033l0.049,2.45
		c0.475,0,0.906,0.079,1.365,0.099c0.598,0.027,1.171-0.065,1.759-0.065H352.855L352.855,173.952z"/>
	
		<path id="CO_Adams" fill-rule="evenodd" clip-rule="evenodd" fill="#D0D0D0" stroke="#666666" stroke-width="0.2835" stroke-miterlimit="22.9256" d="
		M352.903,155.75h9.651v0.734h1.957v-1.625h1.559v-1.36h1.559v1.559h5.805v-4.644h4.377v-5.638h3.517v-0.763h4.112v0.796h2.785
		v2.454h-1.16v4.743h-11.441v2.753h2.188v2.918h-9.551v1.592h-1.824v1.559l0,0h92.076l0,0l0.347-26.534l0,0H423.62l0,0h-64.024l0,0
		l-1.319,0.963c0,0.462-0.3,0.768-0.199,1.293c0.053,0.271,0.332,0.395,0.332,0.663c-0.157,0.052-0.19,0.215-0.465,0.199
		c-0.325-0.019-0.643-0.171-0.961-0.232c-0.491-0.094-0.823-0.296-0.995,0.299c-0.278,0.962,0.256,1.925,0.763,2.62
		c0.464,0.636-0.538,1.036-0.929,1.426c-0.146,0.147-0.554,0.708-0.663,0.763c-0.085,0.595-1.853,0.718-2.256,0.73l0,0V155.75
		L352.903,155.75z"/>
	
		<polygon id="CO_Morgan" fill-rule="evenodd" clip-rule="evenodd" fill="#D0D0D0" stroke="#666666" stroke-width="0.2835" stroke-miterlimit="22.9256" points="
		423.62,134.296 458.858,134.296 458.858,134.296 477.006,134.296 477.437,90.505 477.437,90.505 477.437,81.639 468.55,81.639 
		468.55,81.639 424.228,81.639 423.62,134.296 	"/>
	
		<path id="CO_Weld" fill-rule="evenodd" clip-rule="evenodd" fill="#D0D0D0" stroke="#666666" stroke-width="0.2835" stroke-miterlimit="22.9256" d="
		M352.771,134.231h3.848c0.3-0.386,0.511-0.779,0.741-1.201c0.167-0.307,0.362-0.526,0.542-0.805
		c0.114-0.177,0.171-0.407,0.296-0.576l0.608-0.822c0.199-0.268,0.512-0.488,0.69-0.74c0.093-0.01,0.164-0.033,0.264-0.033
		c0.711,0.534,0.229,2.14,0.081,2.844l-0.246,1.397l0,0h64.024l0,0l0.607-52.657h44.322l0,0l0.582-48.166l0,0h-37.203l0,0
		l-70.245-0.046l0,0v65.6h-8.912v8.872l0,0V134.231L352.771,134.231z"/>
	
		<polygon id="CO_Washington" fill-rule="evenodd" clip-rule="evenodd" fill="#D0D0D0" stroke="#666666" stroke-width="0.2835" stroke-miterlimit="22.9256" points="
		501.948,178.395 529.511,178.079 529.511,178.079 529.511,133.932 530.213,133.932 530.213,99.057 531.198,99.057 531.198,90.505 
		531.198,90.505 477.437,90.505 477.437,90.505 477.006,134.296 458.858,134.296 458.858,134.296 458.512,160.83 458.512,160.83 
		458.151,178.905 458.151,178.905 501.948,178.395 	"/>
	
		<polygon id="CO_Yuma" fill-rule="evenodd" clip-rule="evenodd" fill="#D0D0D0" stroke="#666666" stroke-width="0.2835" stroke-miterlimit="22.9256" points="
		589.037,177.466 529.511,178.079 529.511,178.079 529.511,133.932 530.213,133.932 530.213,99.057 531.198,99.057 531.198,90.505 
		540.316,90.498 588.791,90.062 588.791,90.062 588.929,136.813 588.929,136.813 589.037,177.466 	"/>
	
		<polygon id="CO_Logan" fill-rule="evenodd" clip-rule="evenodd" fill="#D0D0D0" stroke="#666666" stroke-width="0.2835" stroke-miterlimit="22.9256" points="
		477.437,90.505 531.198,90.505 531.198,90.505 540.316,90.498 540.316,90.498 540.348,63 541.254,63 541.254,58.725 
		541.254,58.725 541.238,33.473 541.238,33.473 469.132,33.473 469.132,33.473 468.55,81.639 468.55,81.639 477.437,81.639 
		477.437,90.505 	"/>
	
		<polygon id="CO_Sedgwick" fill-rule="evenodd" clip-rule="evenodd" fill="#D0D0D0" stroke="#666666" stroke-width="0.2835" stroke-miterlimit="22.9256" points="
		588.7,58.686 541.254,58.725 541.254,58.725 541.238,33.473 541.238,33.473 588.626,33.473 588.7,58.686 	"/>
</g>
<g id="Outer_Border">
	
		<polygon fill-rule="evenodd" clip-rule="evenodd" fill="none" stroke="#FF0000" stroke-width="2" stroke-miterlimit="22.9256" points="
		589.562,372.845 589.394,309.812 589.299,274.778 589.182,231.239 589.037,177.466 588.929,136.813 588.791,90.062 588.7,58.686 
		588.626,33.473 541.238,33.473 469.132,33.473 431.929,33.473 361.684,33.427 263.745,33.361 211.496,33.326 175.443,33.302 
		136.566,33.276 134.112,32.612 127.46,33.213 43.67,33.342 43.173,32.181 39.369,32.181 39.45,112.528 39.507,167.885 
		39.538,198.761 39.627,286.638 39.663,321.476 39.691,349.143 39.731,389.316 39.78,437.361 92.219,437.415 162.911,437.488 
		209.712,437.536 211.463,438.602 217.523,438.092 239.515,438.057 300.236,437.958 345.723,437.885 507.333,437.623 
		514.337,437.612 534.396,437.612 541.515,438.49 564.772,438.49 568.462,438.141 589.74,438.688 	"/>
</g>
<g id="CountiesNames">
	<text transform="matrix(1 0 0 1 406.7217 151.9541)"><tspan x="0" y="0" font-family="Arial Narrow" font-size="7.9999">A</tspan><tspan x="5.336" y="0" font-family="Arial Narrow" font-size="7.9999">dams</tspan></text>
	<text transform="matrix(1 0 0 1 281.5591 381.3242)"><tspan x="0" y="0" font-family="Arial Narrow" font-size="7.9999">A</tspan><tspan x="5.336" y="0" font-family="Arial Narrow" font-size="7.9999">lamosa </tspan></text>
	<text transform="matrix(1 0 0 1 388.4805 174.6851)"><tspan x="0" y="0" font-family="Arial Narrow" font-size="7.9999">A</tspan><tspan x="5.336" y="0" font-family="Arial Narrow" font-size="7.9999">rapahoe </tspan></text>
	<text transform="matrix(1 0 0 1 181.9307 422.5205)"><tspan x="0" y="0" font-family="Arial Narrow" font-size="7.9999">A</tspan><tspan x="5.336" y="0" font-family="Arial Narrow" font-size="7.9999">rchuleta </tspan></text>
	<text transform="matrix(1 0 0 1 541.0898 408.5898)"><tspan x="0" y="0" font-family="Arial Narrow" font-size="7.9999">B</tspan><tspan x="5.336" y="0" font-family="Arial Narrow" font-size="7.9999">aca </tspan></text>
	<text transform="matrix(1 0 0 1 500.5615 344.4102)"><tspan x="0" y="0" font-family="Arial Narrow" font-size="7.9999">B</tspan><tspan x="5.336" y="0" font-family="Arial Narrow" font-size="7.9999">ent </tspan></text>
	<text transform="matrix(1 0 0 1 316.2993 127.5718)"><tspan x="0" y="0" font-family="Arial Narrow" font-size="7.9999">B</tspan><tspan x="5.335" y="0" font-family="Arial Narrow" font-size="7.9999">oulder </tspan></text>
	<text transform="matrix(0.7464 0 0 1 338.9033 142.2744)"><tspan x="0" y="0" font-family="Arial Narrow" font-size="7.9999">B</tspan><tspan x="5.337" y="0" font-family="Arial Narrow" font-size="7.9999">roomfield</tspan></text>
	<text transform="matrix(1 0 0 1 251.2808 266.1475)"><tspan x="0" y="0" font-family="Arial Narrow" font-size="7.9999">C</tspan><tspan x="5.777" y="0" font-family="Arial Narrow" font-size="7.9999">haffee </tspan></text>
	<text transform="matrix(1 0 0 1 530.54 255.8384)"><tspan x="0" y="0" font-family="Arial Narrow" font-size="7.9999">C</tspan><tspan x="5.777" y="0" font-family="Arial Narrow" font-size="7.9999">heyenne</tspan></text>
	<text transform="matrix(0.8829 0 0 1 288.5659 170.3193)"><tspan x="0" y="0" font-family="Arial Narrow" font-size="7.9999">C</tspan><tspan x="5.777" y="0" font-family="Arial Narrow" font-size="7.9999">lear Creek </tspan></text>
	<text transform="matrix(1 0 0 1 252.1133 420.7695)"><tspan x="0" y="0" font-family="Arial Narrow" font-size="7.9999">C</tspan><tspan x="5.777" y="0" font-family="Arial Narrow" font-size="7.9999">onejos </tspan></text>
	<text transform="matrix(1 0 0 1 310.9521 416.9619)"><tspan x="0" y="0" font-family="Arial Narrow" font-size="7.9999">C</tspan><tspan x="5.777" y="0" font-family="Arial Narrow" font-size="7.9999">ostilla </tspan></text>
	<text transform="matrix(1 0 0 1 439.4932 308.2529)"><tspan x="0" y="0" font-family="Arial Narrow" font-size="7.9999">C</tspan><tspan x="5.777" y="0" font-family="Arial Narrow" font-size="7.9999">rowley</tspan></text>
	<text transform="matrix(1 0 0 1 317.5283 328.3584)"><tspan x="0" y="0" font-family="Arial Narrow" font-size="7.9999">C</tspan><tspan x="5.777" y="0" font-family="Arial Narrow" font-size="7.9999">uster </tspan></text>
	<text transform="matrix(1 0 0 1 122.6763 255.3901)"><tspan x="0" y="0" font-family="Arial Narrow" font-size="7.9999">D</tspan><tspan x="5.777" y="0" font-family="Arial Narrow" font-size="7.9999">elta</tspan></text>
	<text transform="matrix(0.7996 0 0 1 352.0918 162.9966)"><tspan x="0" y="0" font-family="Arial Narrow" font-size="7.9999">D</tspan><tspan x="5.777" y="0" font-family="Arial Narrow" font-size="7.9999">enver</tspan></text>
	<text transform="matrix(1 0 0 1 68.417 366.1943)"><tspan x="0" y="0" font-family="Arial Narrow" font-size="7.9999">D</tspan><tspan x="5.777" y="0" font-family="Arial Narrow" font-size="7.9999">olores</tspan></text>
	<text transform="matrix(1 0 0 1 349 207.3208)"><tspan x="0" y="0" font-family="Arial Narrow" font-size="7.9999">D</tspan><tspan x="5.777" y="0" font-family="Arial Narrow" font-size="7.9999">ouglas </tspan></text>
	<text transform="matrix(1 0 0 1 212.9775 178.5771)"><tspan x="0" y="0" font-family="Arial Narrow" font-size="7.9999">E</tspan><tspan x="5.336" y="0" font-family="Arial Narrow" font-size="7.9999">agle </tspan></text>
	<text transform="matrix(1 0 0 1 380.7305 258.4272)"><tspan x="0" y="0" font-family="Arial Narrow" font-size="7.9999">E</tspan><tspan x="5.336" y="0" font-family="Arial Narrow" font-size="7.9999">l Paso </tspan></text>
	<text transform="matrix(1 0 0 1 414.7852 206.3477)"><tspan x="0" y="0" font-family="Arial Narrow" font-size="7.9999">E</tspan><tspan x="5.336" y="0" font-family="Arial Narrow" font-size="7.9999">lbert </tspan></text>
	<text transform="matrix(1 0 0 1 307.2207 292.6592)"><tspan x="0" y="0" font-family="Arial Narrow" font-size="7.9999">F</tspan><tspan x="4.887" y="0" font-family="Arial Narrow" font-size="7.9999">remont </tspan></text>
	<text transform="matrix(1 0 0 1 126.9204 183.9438)"><tspan x="0" y="0" font-family="Arial Narrow" font-size="7.9999">G</tspan><tspan x="6.223" y="0" font-family="Arial Narrow" font-size="7.9999">arfield </tspan></text>
	<text transform="matrix(1 0 0 1 305.0083 150.0688)"><tspan x="0" y="0" font-family="Arial Narrow" font-size="7.9999">G</tspan><tspan x="6.223" y="0" font-family="Arial Narrow" font-size="7.9999">ilpin </tspan></text>
	<text transform="matrix(1 0 0 1 256.9878 125.3809)"><tspan x="0" y="0" font-family="Arial Narrow" font-size="7.9999">G</tspan><tspan x="6.223" y="0" font-family="Arial Narrow" font-size="7.9999">rand </tspan></text>
	<text transform="matrix(1 0 0 1 178.7383 274.3652)"><tspan x="0" y="0" font-family="Arial Narrow" font-size="7.9999">G</tspan><tspan x="6.223" y="0" font-family="Arial Narrow" font-size="7.9999">unnison </tspan></text>
	<text transform="matrix(0.8924 0 0 1 166.3887 338.7783)"><tspan x="0" y="0" font-family="Arial Narrow" font-size="7.9999">H</tspan><tspan x="5.777" y="0" font-family="Arial Narrow" font-size="7.9999">insdale </tspan></text>
	<text transform="matrix(1 0 0 1 346.1113 370.1445)"><tspan x="0" y="0" font-family="Arial Narrow" font-size="7.9999">H</tspan><tspan x="5.777" y="0" font-family="Arial Narrow" font-size="7.9999">uerfano </tspan></text>
	<text transform="matrix(1 0 0 1 239.5483 73.1895)"><tspan x="0" y="0" font-family="Arial Narrow" font-size="7.9999">J</tspan><tspan x="4" y="0" font-family="Arial Narrow" font-size="7.9999">ackson </tspan></text>
	<text transform="matrix(0.8147 -0.0023 0.0024 1 323.9385 187.0049)"><tspan x="0" y="0" font-family="Arial Narrow" font-size="7.9999">J</tspan><tspan x="4" y="0" font-family="Arial Narrow" font-size="7.9999">efferson </tspan></text>
	<text transform="matrix(1 0 0 1 527.0762 299.167)"><tspan x="0" y="0" font-family="Arial Narrow" font-size="7.9999">K</tspan><tspan x="5.336" y="0" font-family="Arial Narrow" font-size="7.9999">iowa </tspan></text>
	<text transform="matrix(1 0 0 1 528.9023 208.8574)"><tspan x="0" y="0" font-family="Arial Narrow" font-size="7.9999">K</tspan><tspan x="5.336" y="0" font-family="Arial Narrow" font-size="7.9999">it Carson </tspan></text>
	<text transform="matrix(1 0 0 1 120.9463 413.5156)"><tspan x="0" y="0" font-family="Arial Narrow" font-size="7.9999">L</tspan><tspan x="4.449" y="0" font-family="Arial Narrow" font-size="7.9999">a Plata </tspan></text>
	<text transform="matrix(0.8942 0 0 1 246.1987 219.0332)"><tspan x="0" y="0" font-family="Arial Narrow" font-size="7.9999">L</tspan><tspan x="4.449" y="0" font-family="Arial Narrow" font-size="7.9999">ake </tspan></text>
	<text transform="matrix(1 0 0 1 310.5049 69.1978)"><tspan x="0" y="0" font-family="Arial Narrow" font-size="7.9999">L</tspan><tspan x="4.449" y="0" font-family="Arial Narrow" font-size="7.9999">arimer </tspan></text>
	<text transform="matrix(1 0 0 1 411.9551 413.0156)"><tspan x="0" y="0" font-family="Arial Narrow" font-size="7.9999">L</tspan><tspan x="4.449" y="0" font-family="Arial Narrow" font-size="7.9999">as Animas </tspan></text>
	<text transform="matrix(1 0 0 1 466.584 240.3677)"><tspan x="0" y="0" font-family="Arial Narrow" font-size="7.9999">L</tspan><tspan x="4.449" y="0" font-family="Arial Narrow" font-size="7.9999">incoln </tspan></text>
	<text transform="matrix(1 0 0 1 494.3682 61.8853)"><tspan x="0" y="0" font-family="Arial Narrow" font-size="7.9999">L</tspan><tspan x="4.449" y="0" font-family="Arial Narrow" font-size="7.9999">ogan </tspan></text>
	<text transform="matrix(1 0 0 1 67.8301 232.6997)"><tspan x="0" y="0" font-family="Arial Narrow" font-size="7.9999">M</tspan><tspan x="6.664" y="0" font-family="Arial Narrow" font-size="7.9999">esa</tspan></text>
	<text transform="matrix(1 0 0 1 194.0371 370.0889)"><tspan x="0" y="0" font-family="Arial Narrow" font-size="7.9999">M</tspan><tspan x="6.664" y="0" font-family="Arial Narrow" font-size="7.9999">ineral </tspan></text>
	<text transform="matrix(1 0 0 1 91.5288 75.1558)"><tspan x="0" y="0" font-family="Arial Narrow" font-size="7.9999">M</tspan><tspan x="6.664" y="0" font-family="Arial Narrow" font-size="7.9999">offat </tspan></text>
	<text transform="matrix(1 0 0 1 51.3149 403.7422)"><tspan x="0" y="0" font-family="Arial Narrow" font-size="7.9999">M</tspan><tspan x="6.664" y="0" font-family="Arial Narrow" font-size="7.9999">ontezuma </tspan></text>
	<text transform="matrix(1 0 0 1 69.915 305.3184)"><tspan x="0" y="0" font-family="Arial Narrow" font-size="7.9999">M</tspan><tspan x="6.664" y="0" font-family="Arial Narrow" font-size="7.9999">ontrose </tspan></text>
	<text transform="matrix(1 0 0 1 438.124 110.5566)"><tspan x="0" y="0" font-family="Arial Narrow" font-size="7.9999">M</tspan><tspan x="6.664" y="0" font-family="Arial Narrow" font-size="7.9999">organ </tspan></text>
	<text transform="matrix(1 0 0 1 447.8467 351.1934)"><tspan x="0" y="0" font-family="Arial Narrow" font-size="7.9999">O</tspan><tspan x="6.223" y="0" font-family="Arial Narrow" font-size="7.9999">tero </tspan></text>
	<text transform="matrix(1 0 0 1 131.1025 325.249)"><tspan x="0" y="0" font-family="Arial Narrow" font-size="7.9999">O</tspan><tspan x="6.223" y="0" font-family="Arial Narrow" font-size="7.9999">uray </tspan></text>
	<text transform="matrix(1 0 0 1 291.3403 223.2886)"><tspan x="0" y="0" font-family="Arial Narrow" font-size="7.9999">P</tspan><tspan x="5.336" y="0" font-family="Arial Narrow" font-size="7.9999">ark </tspan></text>
	<text transform="matrix(1 0 0 1 552.5371 75.6978)"><tspan x="0" y="0" font-family="Arial Narrow" font-size="7.9999">P</tspan><tspan x="5.336" y="0" font-family="Arial Narrow" font-size="7.9999">hillips </tspan></text>
	<text transform="matrix(1 0 0 1 198.6973 216.4844)"><tspan x="0" y="0" font-family="Arial Narrow" font-size="7.9999">P</tspan><tspan x="5.336" y="0" font-family="Arial Narrow" font-size="7.9999">itkin </tspan></text>
	<text transform="matrix(1 0 0 1 545.8086 345.9336)"><tspan x="0" y="0" font-family="Arial Narrow" font-size="7.9999">P</tspan><tspan x="5.336" y="0" font-family="Arial Narrow" font-size="7.9999">rowers </tspan></text>
	<text transform="matrix(1 0 0 1 384.1318 321.4561)"><tspan x="0" y="0" font-family="Arial Narrow" font-size="7.9999">P</tspan><tspan x="5.336" y="0" font-family="Arial Narrow" font-size="7.9999">ueblo </tspan></text>
	<text transform="matrix(1 0 0 1 74.9048 139.728)"><tspan x="0" y="0" font-family="Arial Narrow" font-size="7.9999">R</tspan><tspan x="5.777" y="0" font-family="Arial Narrow" font-size="7.9999">io Blanco </tspan></text>
	<text transform="matrix(1 0 0 1 231.0005 384.4277)"><tspan x="0" y="0" font-family="Arial Narrow" font-size="7.9999">R</tspan><tspan x="5.777" y="0" font-family="Arial Narrow" font-size="7.9999">io Grande </tspan></text>
	<text transform="matrix(1 0 0 1 188.3213 88.2866)"><tspan x="0" y="0" font-family="Arial Narrow" font-size="7.9999">R</tspan><tspan x="5.777" y="0" font-family="Arial Narrow" font-size="7.9999">outt </tspan></text>
	<text transform="matrix(1 0 0 1 239.0376 328.9902)"><tspan x="0" y="0" font-family="Arial Narrow" font-size="7.9999">S</tspan><tspan x="5.336" y="0" font-family="Arial Narrow" font-size="7.9999">aguache</tspan></text>
	<text transform="matrix(0.8363 0 0 1 140.8311 360.2891)"><tspan x="0" y="0" font-family="Arial Narrow" font-size="7.9999">S</tspan><tspan x="5.336" y="0" font-family="Arial Narrow" font-size="7.9999">an</tspan><tspan x="0" y="8" font-family="Arial Narrow" font-size="7.9999">J</tspan><tspan x="4" y="8" font-family="Arial Narrow" font-size="7.9999">uan </tspan></text>
	<text transform="matrix(1 0 0 1 60.4668 339.0293)"><tspan x="0" y="0" font-family="Arial Narrow" font-size="7.9999">S</tspan><tspan x="5.336" y="0" font-family="Arial Narrow" font-size="7.9999">an Miguel </tspan></text>
	<text transform="matrix(1 0 0 1 549.0439 47.7544)"><tspan x="0" y="0" font-family="Arial Narrow" font-size="7.9999">S</tspan><tspan x="5.336" y="0" font-family="Arial Narrow" font-size="7.9999">edgwick</tspan></text>
	<text transform="matrix(0.7767 0.0049 -0.0049 1 264.5605 179.8979)"><tspan x="0" y="0" font-family="Arial Narrow" font-size="7.9999">S</tspan><tspan x="5.336" y="0" font-family="Arial Narrow" font-size="7.9999">ummit </tspan></text>
	<text transform="matrix(0.897 0 0 1 334.9307 249.4814)"><tspan x="0" y="0" font-family="Arial Narrow" font-size="7.9999">T</tspan><tspan x="4.887" y="0" font-family="Arial Narrow" font-size="7.9999">eller </tspan></text>
	<text transform="matrix(1 0 0 1 475.0166 152.4854)"><tspan x="0" y="0" font-family="Arial Narrow" font-size="7.9999">W</tspan><tspan x="7.551" y="0" font-family="Arial Narrow" font-size="7.9999">ashington</tspan></text>
	<text transform="matrix(1 0 0 1 398.1357 69.561)"><tspan x="0" y="0" font-family="Arial Narrow" font-size="7.9999">W</tspan><tspan x="7.551" y="0" font-family="Arial Narrow" font-size="7.9999">eld </tspan></text>
	<text transform="matrix(1 0 0 1 549.5928 138.1626)"><tspan x="0" y="0" font-family="Arial Narrow" font-size="7.9999">Y</tspan><tspan x="5.336" y="0" font-family="Arial Narrow" font-size="7.9999">uma </tspan></text>
</g>
<g id="Legend">
	<text id="Ref_WithPresence_text" transform="matrix(1 0 0 1 57.1182 471.75)" font-family="Arial Narrow" font-size="13">City or County with COPsync Presence</text>
	
		<rect id="Ref_WithPresence_box" x="39.369" y="463.282" fill="#D0D0D0" stroke="#FF0000" stroke-width="0.9697" width="10" height="10"/>
	<text id="Ref_WithoutPresence_text" transform="matrix(1 0 0 1 57.1182 501.75)" font-family="Arial Narrow" font-size="13">City or County without COPsync Presence</text>
	
		<rect id="Ref_WithoutPresence_box" x="39.369" y="493.282" fill="#D0D0D0" stroke="#FF0000" stroke-width="0.9697" width="10" height="10"/>
</g>
</svg>
