<?xml version="1.0" encoding="utf-8"?>
<!-- Generator: Adobe Illustrator 16.0.0, SVG Export Plug-In . SVG Version: 6.00 Build 0)  -->
<!DOCTYPE svg PUBLIC "-//W3C//DTD SVG 1.1//EN" "http://www.w3.org/Graphics/SVG/1.1/DTD/svg11.dtd">
<svg version="1.1" id="Plan_1" xmlns="http://www.w3.org/2000/svg" xmlns:xlink="http://www.w3.org/1999/xlink" x="0px" y="0px"
	 width="595px" height="842px" viewBox="0 0 595 842" enable-background="new 0 0 595 842" xml:space="preserve">
<g id="Counties">
	<path id="IL_Henry" fill="#D0D0D0" stroke="#666666" stroke-width="0.2835" stroke-miterlimit="22.9256" d="M335.824,144.5
		l0.395,46.678l0,0h-1.429v10.975l-11.452,0.055l0,0h-45.163l0,0l0.779-23.486l0,0V162.68c0.982-1.964,2.964-1.715,4.435-3.191
		c1.672-1.678,1.812-5.18,4.354-4.767c1.717,0.278,2.777-0.407,4.273-0.808l5.121-1.374c2.583-0.693,3.714-2.027,5.685-3.434
		c0.142-1.137,0.509-3.475,0.928-4.606l0,0H335.824L335.824,144.5z"/>
	<polygon id="IL_Saline" fill="#D0D0D0" stroke="#666666" stroke-width="0.2835" stroke-miterlimit="22.9256" points="
		484.185,628.717 484.596,669.371 484.596,669.371 480.644,669.371 480.644,669.371 451.179,669.371 451.179,669.371 
		451.098,634.513 451.098,634.513 451.15,629.029 451.15,629.029 	"/>
	<polygon id="IL_Hamilton" fill="#D0D0D0" stroke="#666666" stroke-width="0.2835" stroke-miterlimit="22.9256" points="
		451.15,629.029 484.185,628.717 484.185,628.717 484.507,582.749 484.507,582.749 451.312,582.568 451.312,582.568 
		451.259,600.219 451.259,600.219 	"/>
	<polygon id="IL_Jefferson" fill="#D0D0D0" stroke="#666666" stroke-width="0.2835" stroke-miterlimit="22.9256" points="
		451.259,600.219 451.312,582.568 451.312,582.568 451.741,554.288 451.741,554.288 407.406,554.288 407.406,554.288 
		406.82,588.706 406.82,588.706 406.82,600.021 407.893,600.021 407.893,600.021 	"/>
	<path id="IL_Perry" fill="#D0D0D0" stroke="#666666" stroke-width="0.2835" stroke-miterlimit="22.9256" d="M406.82,588.706v11.315
		h1.071l0,0c0.082,0.299,0.158,0.785,0.158,1.091c0.712,0.711-0.167,2.188,1.21,2.464c0.798,1.402,1.154,2.41,0.403,4
		c-0.544,1.149-1.428,1.74-2.057,2.707c-0.631,0.97-0.26,3.588-0.201,4.808c0.034,0.729,0.215,1.519,0.04,2.222
		c-0.219,0.879-0.935,1.297-1.25,2.143l-1.048,3.596l0,0l-42.444-0.451l0,0l-0.171-34.979l0,0L406.82,588.706L406.82,588.706z"/>
	<path id="IL_Franklin" fill="#D0D0D0" stroke="#666666" stroke-width="0.2835" stroke-miterlimit="22.9256" d="M407.893,600.021
		c0.082,0.299,0.158,0.785,0.158,1.091c0.712,0.711-0.167,2.188,1.21,2.464c0.798,1.402,1.154,2.41,0.403,4
		c-0.544,1.149-1.428,1.74-2.057,2.707c-0.631,0.97-0.26,3.588-0.201,4.808c0.034,0.729,0.215,1.519,0.04,2.222
		c-0.218,0.879-0.935,1.297-1.25,2.143l-1.048,3.596l0,0l1.895,0.121l-0.08,11.272l0,0l44.135,0.068l0,0l0.054-5.482l0,0
		l0.107-28.812l0,0L407.893,600.021L407.893,600.021z"/>
	<polygon id="IL_Williamson" fill="#D0D0D0" stroke="#666666" stroke-width="0.2835" stroke-miterlimit="22.9256" points="
		406.963,634.443 451.098,634.513 451.098,634.513 451.179,669.371 451.179,669.371 417.526,669.371 417.526,669.371 
		406.659,669.371 406.659,669.371 	"/>
	<path id="IL_Johnson" fill="#D0D0D0" stroke="#666666" stroke-width="0.2835" stroke-miterlimit="22.9256" d="M417.526,669.371
		v35.101l0,0v4.774c0.476-0.424,1.081-0.719,1.592-1.132c0.532-0.432,1.151-0.689,1.732-1.03c1.221-0.102,2.465-0.058,3.286,1.07
		c0.422,0.23,0.732,0.825,1.189,1.051c0.686,0.337,1.096,0.15,1.754-0.202l2.036-0.868l0,0c0.073-0.021,0.146-0.044,0.222-0.061
		c0.113-0.088,0.203-0.201,0.322-0.283c0.215-0.148,0.482-0.206,0.706-0.363c0.297-0.211,0.595-0.602,0.826-0.89
		c0.327-0.406,0.492-0.883,0.704-1.354l0.808-1.455l18.312,0.017l0,0l0.161-34.375l0,0H417.526L417.526,669.371z"/>
	<polygon id="IL_Wayne" fill="#D0D0D0" stroke="#666666" stroke-width="0.2835" stroke-miterlimit="22.9256" points="
		507.233,541.702 507.071,582.689 507.071,582.689 484.507,582.749 484.507,582.749 451.312,582.568 451.312,582.568 
		451.741,554.288 451.741,554.288 452.145,536.863 452.145,536.863 496.226,537.723 496.226,537.723 507.233,537.723 	"/>
	<path id="IL_Edwards" fill="#D0D0D0" stroke="#666666" stroke-width="0.2835" stroke-miterlimit="22.9256" d="M507.071,582.689
		l15.239-0.363l0,0l0.563-0.85c0-0.849,1.909-2.492,2.54-2.948c1.35-0.976,1.285-3.357,1.21-4.85
		c-0.062-1.229-0.571-2.696-1.048-3.838c-0.722-1.727-1.613-2.489-1.613-4.483c0-1.631,1.521-2.174,1.814-3.354
		c0.016,0.046-0.157,0.328,0.081-0.081l-0.121,0.202c1.172-1.882,1.128-3.909,1.25-6.06c0.046-0.812,0.213-1.413,0.121-2.264
		c-0.099-0.895-0.577-1.271-0.524-2.263c0.065-1.232,0.359-2.359,0.524-3.515c0.501-0.358,1.13-1.481,0.927-2.143
		c-0.34-1.105-1.707-1.188-1.977-2.061c-0.196-0.644-0.12-1.424-0.24-2.121l0,0h-18.586l0,0L507.071,582.689L507.071,582.689z"/>
	<path id="IL_Richland" fill="#D0D0D0" stroke="#666666" stroke-width="0.2835" stroke-miterlimit="22.9256" d="M507.233,541.702
		h18.586l0,0l4.654,0.051l0,0l0.79-37.32h-4.744H495.83l0,0v15.686c-0.845,0.304-1.089,0.031-1.822,0.031
		c-0.58-0.437-0.766,1.125-0.766,1.455c0,0.658,0.086,1.32,0.04,1.979c-0.074,1.062-0.315,1.426,0.041,2.585
		c0.354,1.155,0.685,1.991,0.685,3.192c-0.683,0.854-1.231,1.326-1.651,2.384c-1.883,1.074,1.271,3.129,2.056,3.757l1.813,2.222l0,0
		h11.009L507.233,541.702L507.233,541.702z"/>
	<path id="IL_Clay" fill="#D0D0D0" stroke="#666666" stroke-width="0.2835" stroke-miterlimit="22.9256" d="M495.83,504.433v15.686
		c-0.845,0.304-1.089,0.031-1.822,0.031c-0.58-0.437-0.766,1.125-0.766,1.455c0,0.658,0.086,1.32,0.04,1.979
		c-0.074,1.062-0.315,1.426,0.041,2.585c0.354,1.155,0.685,1.991,0.685,3.192c-0.683,0.854-1.231,1.326-1.651,2.384
		c-1.883,1.074,1.271,3.129,2.056,3.757l1.813,2.222l0,0l-44.081-0.858l0,0v-28.259l0,0v-11.759l0.019-0.073l33.815,0.007l0,0v7.652
		H495.83L495.83,504.433z"/>
	<polygon id="IL_Marion" fill="#D0D0D0" stroke="#666666" stroke-width="0.2835" stroke-miterlimit="22.9256" points="
		452.145,508.604 452.145,536.863 452.145,536.863 451.741,554.288 451.741,554.288 407.406,554.288 407.406,554.288 
		407.406,550.287 407.406,550.287 407.666,519.151 407.666,519.151 407.666,508.604 	"/>
	<path id="IL_Washington" fill="#D0D0D0" stroke="#666666" stroke-width="0.2835" stroke-miterlimit="22.9256" d="M350.7,561.818
		c1.239-0.6,2.667-1.818,3.366-3.047l0.119-0.08c1.267-0.182,1.904-0.715,2.984-1.414c1.025-0.665,1.349-1.875,2.258-2.506
		c0.812-0.562,3.256-2.091,4.192-1.736c1.872,0.706,2.045,0.121,3.871,0.121c1.931,0,3.425,1.252,5.321,1.252
		c2.426,0,3.666-3.11,5.806-3.11c1.519,0.047,2.7,1.054,4.151-0.242c0.892-0.795,2.252-2.828,3.348-2.828
		c1.531,1.227,6.367,0.261,8.588,0.809c3.203,0.79,9.359,1.252,12.7,1.252l0,0v4.001l0,0l-0.586,34.418l0,0l-44.287-1.088l0,0
		l-11.327-0.282l0,0L350.7,561.818L350.7,561.818z"/>
	<path id="IL_Clinton" fill="#D0D0D0" stroke="#666666" stroke-width="0.2835" stroke-miterlimit="22.9256" d="M350.7,561.818
		c1.239-0.6,2.667-1.818,3.366-3.047l0.119-0.08c1.267-0.182,1.904-0.715,2.984-1.414c1.025-0.665,1.349-1.875,2.258-2.506
		c0.812-0.562,3.256-2.091,4.192-1.736c1.872,0.706,2.045,0.121,3.871,0.121c1.931,0,3.425,1.252,5.321,1.252
		c2.426,0,3.666-3.11,5.806-3.11c1.519,0.047,2.7,1.054,4.151-0.242c0.892-0.795,2.252-2.828,3.348-2.828
		c1.531,1.227,6.367,0.261,8.588,0.809c3.203,0.79,9.359,1.252,12.7,1.252l0,0l0.26-31.136l0,0H396.21l0,0h-34.795l0,0l0.163,10.855
		H350.7l0,0V561.818L350.7,561.818z"/>
	<polygon id="IL_Effingham" fill="#D0D0D0" stroke="#666666" stroke-width="0.2835" stroke-miterlimit="22.9256" points="
		452.162,496.772 485.979,496.779 485.979,496.779 485.979,462.558 485.979,462.558 474.449,462.558 474.449,456.73 474.449,456.73 
		440.559,456.73 440.559,456.73 440.559,496.772 	"/>
	<polygon id="IL_Fayette" fill="#D0D0D0" stroke="#666666" stroke-width="0.2835" stroke-miterlimit="22.9256" points="
		407.666,519.151 407.666,508.604 452.145,508.604 452.145,508.604 452.145,496.847 452.162,496.772 440.559,496.772 
		440.559,456.73 440.559,456.73 407.625,456.73 407.625,456.73 396.278,456.839 396.278,481.606 396.278,481.606 396.211,519.151 
		396.211,519.151 	"/>
	<polygon id="IL_Bond" fill="#D0D0D0" stroke="#666666" stroke-width="0.2835" stroke-miterlimit="22.9256" points="
		396.211,519.151 396.278,481.606 396.278,481.606 363.299,481.606 363.299,485.098 358.058,485.098 358.058,485.098 
		358.058,501.441 361.416,501.441 361.416,519.151 361.416,519.151 	"/>
	<path id="IL_Greene" fill="#D0D0D0" stroke="#666666" stroke-width="0.2835" stroke-miterlimit="22.9256" d="M261.658,469.203
		c1.92-2.188,1.6-5.636,3.508-8c1.368-1.695,3.411-1.094,5.201-0.646c0.264,0.466,0.766,1.9,0.766,2.426
		c0.622,0.773,0.281,1.23,1.331,0.97c0.299-0.525,1.05-1.395,1.532-1.737l16.329-0.202v-5.979l11.249-0.202v-4.808h4.839l0,0
		l0.279-34.342l0,0h-15.197l0,0l-28.142,0.04l0,0c0.322,1.727-0.464,3.193-1.008,4.769c-0.292,0.847-0.761,1.632-1.048,2.465
		c-0.267,0.772-0.861,2.109-0.927,2.908c-0.432,0.648-0.294,1.984-0.484,2.748l0.39,2.203l0,0c-0.084,1.376,0.032,2.784-0.148,4.14
		c-0.236,1.772,0.363,3.122,0.363,4.727c0.417,0.833,0.081,1.896,0.081,2.788c1.273,2.555,0.363,4.255,0.363,6.908
		c1.145,2.583,1.532,4.899,1.532,7.757c-0.023,0.851-0.197,1.204-0.564,1.939c-0.165,0.118-0.23,0.3-0.322,0.483
		c-0.691,0.496-1.126,2.541-1.25,3.354c-0.074,0.481-0.203,1.043-0.081,1.535c0.127,0.514,0.5,1.104,0.564,1.615L261.658,469.203
		L261.658,469.203z"/>
	<polygon id="IL_Macoupin" fill="#D0D0D0" stroke="#666666" stroke-width="0.2835" stroke-miterlimit="22.9256" points="
		329.295,416.682 351.769,416.682 351.917,485.098 351.917,485.098 307.319,485.5 307.319,485.5 306.411,451.022 306.411,451.022 
		306.69,416.682 306.69,416.682 	"/>
	<polygon id="IL_Montgomery" fill="#D0D0D0" stroke="#666666" stroke-width="0.2835" stroke-miterlimit="22.9256" points="
		351.769,416.682 351.917,485.098 351.917,485.098 358.058,485.098 358.058,485.098 363.299,485.098 363.299,481.606 
		396.278,481.606 396.278,481.606 396.278,456.839 407.625,456.73 407.625,456.73 407.625,439.452 407.625,439.423 368.501,439.423 
		368.501,416.682 368.501,416.682 	"/>
	<path id="IL_Christian" fill="#D0D0D0" stroke="#666666" stroke-width="0.2835" stroke-miterlimit="22.9256" d="M368.501,416.682
		v22.741h39.124v0.029h11.597v-40.225l0,0h-11.516v-17.336l0,0l-0.563-1.449c-0.293-0.513-0.811-0.73-1.208-1.127
		c-0.139-0.139-0.78-0.779-0.885-0.805c-0.03-0.207-0.026-0.269-0.242-0.322c-0.061-0.245-0.156-0.341-0.401-0.402
		c-0.11-0.442-0.882-0.483-1.288-0.483c-0.634,0-1.133,0.174-1.69,0.242c-0.701,0.085-1.144,0.324-1.771,0.743l0,0l-2.173,0.384
		c-0.242-0.193-0.568-0.74-0.646-1.046c-0.287-0.072-1.101-0.159-1.207,0.161c-0.317,0-0.684,0.673-0.725,0.966
		c-0.332,0.166-0.867,1.386-1.208,1.771c-0.399,0.451-1.231,1.376-1.69,1.529c-0.037,0.147-0.014,0.124-0.161,0.161
		c-0.256,1.025-2.047,2.102-2.979,2.334c-0.658,1.317-3.672-1.11-4.669,0.886c-0.402,0.1-0.91,0.813-1.288,1.046
		c-0.754,0.463-1.475,0.722-2.335,1.127l-1.529-1.932v9.661h-5.312v5.956h-5.232v15.39H368.501z"/>
	<polygon id="IL_Shelby" fill="#D0D0D0" stroke="#666666" stroke-width="0.2835" stroke-miterlimit="22.9256" points="
		419.222,399.229 419.222,439.452 407.625,439.452 407.625,439.452 407.625,456.73 407.625,456.73 440.559,456.73 440.559,456.73 
		474.449,456.73 474.449,456.73 474.443,436.115 474.443,436.115 474.443,426.571 474.443,426.571 462.932,426.571 462.932,423.029 
		457.055,416.83 449.81,416.83 449.81,408.795 440.588,408.795 440.588,399.229 440.588,399.229 	"/>
	<polygon id="IL_Cumberland" fill="#D0D0D0" stroke="#666666" stroke-width="0.2835" stroke-miterlimit="22.9256" points="
		474.443,436.115 520.335,436.115 520.335,436.115 520.733,462.637 520.733,462.637 485.979,462.558 485.979,462.558 
		474.449,462.558 474.449,456.73 474.449,456.73 	"/>
	<polygon id="IL_Jasper" fill="#D0D0D0" stroke="#666666" stroke-width="0.2835" stroke-miterlimit="22.9256" points="
		485.979,462.558 520.733,462.637 520.733,462.637 526.767,462.598 526.767,462.598 526.52,504.433 526.52,504.433 495.83,504.433 
		495.83,504.433 485.979,504.433 485.979,496.779 485.979,496.779 	"/>
	<polygon id="IL_Coles" fill="#D0D0D0" stroke="#666666" stroke-width="0.2835" stroke-miterlimit="22.9256" points="
		525.86,421.818 524.932,395.391 524.932,395.391 514.782,395.391 514.782,399.042 474.293,399.042 474.293,399.042 
		474.443,426.571 474.443,426.571 474.443,436.115 474.443,436.115 520.335,436.115 520.335,436.115 520.335,421.818 	"/>
	<polygon id="IL_Moultrie" fill="#D0D0D0" stroke="#666666" stroke-width="0.2835" stroke-miterlimit="22.9256" points="
		474.443,426.571 474.293,399.042 474.293,399.042 474.293,381.25 474.293,381.25 446.917,381.25 446.917,381.25 445.909,381.25 
		445.909,387.472 440.588,387.472 440.588,399.229 440.588,399.229 440.588,408.795 449.81,408.795 449.81,416.83 457.055,416.83 
		462.932,423.029 462.932,426.571 	"/>
	<path id="IL_Sangamon" fill="#D0D0D0" stroke="#666666" stroke-width="0.2835" stroke-miterlimit="22.9256" d="M368.501,416.682
		v-15.39h5.232v-5.956h5.312v-9.661l1.529,1.932c0.86-0.405,1.581-0.664,2.335-1.127c0.378-0.233,0.886-0.946,1.288-1.046
		c0.997-1.996,4.011,0.431,4.669-0.886c0.932-0.233,2.723-1.31,2.979-2.334c0.147-0.037,0.124-0.014,0.161-0.161
		c0.459-0.153,1.291-1.079,1.69-1.529c0.341-0.385,0.876-1.606,1.208-1.771c0.041-0.293,0.405-0.966,0.725-0.966
		c0.106-0.32,0.92-0.233,1.207-0.161c0.076,0.306,0.402,0.853,0.646,1.046l2.173-0.384l0,0v-13.704l0,0H381.06v-2.254h-7.89
		l-0.241-5.32h-8.863l0,0h-12.378v7.474h-6.932v1.549h-22.178l0,0l-0.045,3.824l0,0v10.83l0.886,10.302l6.118,20.288l-0.242,5.405
		l0,0h22.474l0.148,68.416l-0.148-68.416H368.501L368.501,416.682z"/>
	<polygon id="IL_Morgan" fill="#D0D0D0" stroke="#666666" stroke-width="0.2835" stroke-miterlimit="22.9256" points="
		322.533,369.857 322.533,380.687 323.419,390.989 329.537,411.275 329.295,416.682 329.295,416.682 306.69,416.682 306.69,416.682 
		291.493,416.682 291.493,416.682 291.493,401.733 287.784,401.733 287.784,397.491 284.115,397.491 284.115,386.017 
		273.471,386.017 273.471,381.573 261.819,381.573 261.819,381.573 264.825,374.65 264.825,374.65 263.835,369.857 263.835,369.857 
			"/>
	<path id="IL_Scott" fill="#D0D0D0" stroke="#666666" stroke-width="0.2835" stroke-miterlimit="22.9256" d="M261.819,381.573
		h11.652v4.444h10.644v11.474h3.669v4.242h3.709v14.947l0,0l-28.142,0.04l0,0l0.363-2.223c0.153-0.46,0.06-1.054,0.161-1.535
		c0.066-0.312,0.184-0.653,0.202-0.969c0.026-0.469,0.167-1.477-0.121-1.858c0-0.875-0.771-1.876-1.209-2.586
		c-0.577-0.935-1.068-1.999-1.331-3.11c-0.815-3.26-2.179-6.526-3.467-9.615c-0.63-1.511-0.546-5.013,0.968-6.1
		C259.504,386.362,261.819,384.238,261.819,381.573L261.819,381.573z"/>
	<path id="IL_Brown" fill="#D0D0D0" stroke="#666666" stroke-width="0.2835" stroke-miterlimit="22.9256" d="M229.974,374.65h34.851
		l0,0l-0.989-4.793l0,0v-1.495c0.515-0.885,0.764-1.268,1.653-1.737c0.715-0.378,1.245-0.872,1.653-1.576
		c0.913-1.575,1.531-3.138,1.895-4.888c0.195-0.938,0.587-1.317,1.048-2.101c0.198-0.336,0.267-0.841,0.484-1.131
		c0-0.101-0.02-0.163,0.04-0.242c0-0.108,0.023-0.198-0.04-0.283v-1.293l0,0h-5.362v0.606h-4.112v-5.737h-2.459l-3.951-2.464v-4.444
		h-3.587v-3.312H230.87l0,0L229.974,374.65L229.974,374.65z"/>
	<path id="IL_Cass" fill="#D0D0D0" stroke="#666666" stroke-width="0.2835" stroke-miterlimit="22.9256" d="M270.568,355.11v1.293
		c0.063,0.085,0.04,0.174,0.04,0.283c-0.06,0.08-0.04,0.142-0.04,0.242c-0.217,0.291-0.286,0.795-0.484,1.131
		c-0.46,0.784-0.853,1.164-1.048,2.101c-0.364,1.75-0.982,3.313-1.895,4.888c-0.408,0.705-0.938,1.198-1.653,1.576
		c-0.889,0.469-1.138,0.852-1.653,1.737v1.495l0,0h58.698l0,0l0.045-3.824l0,0v-27.567l0,0l-2.298,1.616
		c-0.088,0.066-0.109,0.009-0.202,0.041c-0.024,0.008-0.097,0.072-0.12,0.081c-0.025,0.009-0.055,0-0.081,0h-0.121
		c-0.091,0-0.063-0.008-0.161-0.041c-0.078-0.026-0.139-0.013-0.161-0.081c-0.215,0-0.347-0.129-0.563-0.242
		c-0.125-0.1-0.332-0.18-0.403-0.323c-1.831-0.261-1.653,0.185-3.347,1.293c-1.718,1.124-1.935,1.744-4.152,2.101
		c-1.324,0.213-2.008,0.826-3.145,1.455c-1.534,0.849-13.4,1.734-14.435,0.283c-0.995-0.125-2.228-3.95-2.782-4.849
		c-0.848-1.376-2.133-2.279-2.822-3.515l0,0l-3.266,2.101c-1.674,0.84-1.795,3.237-2.419,4.727
		c-0.918,2.193-3.588,1.844-3.588,4.565c0,0.932-0.137,3.14-1.048,3.596c-1.16,0.581-3.442,1.722-4.677,1.898l-1.854,1.495
		C270.881,354.865,270.764,354.906,270.568,355.11L270.568,355.11z"/>
	<path id="IL_Menard" fill="#D0D0D0" stroke="#666666" stroke-width="0.2835" stroke-miterlimit="22.9256" d="M322.578,366.033
		h22.178v-1.549h6.933v-7.474h12.377l0,0l0.204-15.514h-2.702v-3.961l0,0l-2.404-2.013c-0.408-0.715-1.693-1.943-1.853-2.576
		c-1.613-0.403-2.384-1.077-4.104,0.322c-1.66,1.35-2.688,1.852-4.911,1.852c-0.682,1.365-2.948,1.126-4.104,0.805
		c-2.018-0.56-2.454,0.743-4.187,1.127c-2.743,0.609-5.216-1.938-7.89-1.047c-0.501,0.167-4.911,0.079-5.072-0.402
		c-0.138-0.034-0.163-0.081-0.321-0.081c-0.069-0.282-0.417-0.46-0.482-0.725c-1.121-0.28-2.522,2.933-3.658,3.668l0,0v27.568
		H322.578z"/>
	<path id="IL_Macon" fill="#D0D0D0" stroke="#666666" stroke-width="0.2835" stroke-miterlimit="22.9256" d="M399.655,378.287
		c0.628-0.418,1.069-0.657,1.771-0.743c0.559-0.068,1.058-0.242,1.69-0.242c0.406,0,1.178,0.041,1.288,0.483
		c0.245,0.061,0.342,0.157,0.401,0.402c0.216,0.054,0.212,0.116,0.242,0.322c0.104,0.025,0.746,0.666,0.885,0.805
		c0.397,0.397,0.915,0.614,1.208,1.127l0.563,1.449l0,0v17.336h11.516l0,0h21.366l0,0V387.47h5.321v-6.221h1.008l0,0l-0.24-34.78
		l0,0h-39.749l0,0l-0.08,18.113h-7.191l0,0L399.655,378.287L399.655,378.287z"/>
	<polygon id="IL_Douglas" fill="#D0D0D0" stroke="#666666" stroke-width="0.2835" stroke-miterlimit="22.9256" points="
		474.293,399.042 514.782,399.042 514.782,395.391 524.932,395.391 524.932,395.391 524.932,381.25 527.836,381.25 527.577,369.695 
		527.577,369.695 475.465,369.695 475.465,369.695 475.465,381.25 474.293,381.25 474.293,381.25 	"/>
	<polygon id="IL_Edgar" fill="#D0D0D0" stroke="#666666" stroke-width="0.2835" stroke-miterlimit="22.9256" points="
		527.577,369.695 559.62,369.695 559.62,371.069 565.048,371.069 565.048,369.574 569.104,369.594 569.104,369.594 568.878,422.6 
		568.878,422.6 553.314,422.6 553.314,421.567 525.86,421.818 525.86,421.818 524.932,395.391 524.932,395.391 524.932,381.25 
		527.836,381.25 	"/>
	<polygon id="IL_Champaign" fill="#D0D0D0" stroke="#666666" stroke-width="0.2835" stroke-miterlimit="22.9256" points="
		475.465,369.695 527.577,369.695 527.577,369.695 527.223,324.359 528.143,324.359 528.143,301.228 528.143,301.228 
		476.067,301.228 476.067,301.228 475.417,316.201 475.417,316.201 	"/>
	<polygon id="IL_Vermilion" fill="#D0D0D0" stroke="#666666" stroke-width="0.2835" stroke-miterlimit="22.9256" points="
		528.143,301.228 528.143,324.359 527.223,324.359 527.577,369.695 527.577,369.695 559.62,369.695 559.62,371.069 565.048,371.069 
		565.048,369.574 569.104,369.594 569.104,369.594 569.444,288.933 569.444,288.933 528.304,289.151 528.304,289.151 	"/>
	<polygon id="IL_Ford" fill="#D0D0D0" stroke="#666666" stroke-width="0.2835" stroke-miterlimit="22.9256" points="
		508.424,222.414 509.704,289.151 528.304,289.151 528.304,289.151 528.143,301.228 528.143,301.228 476.067,301.228 
		476.067,301.228 476.067,272.369 476.067,272.369 498.04,272.369 496.824,222.414 496.824,222.414 	"/>
	<polygon id="IL_Piatt" fill="#D0D0D0" stroke="#666666" stroke-width="0.2835" stroke-miterlimit="22.9256" points="
		446.917,381.25 446.677,346.47 446.677,346.47 446.677,340.605 452.788,340.605 452.788,334.314 464.059,316.201 464.059,316.201 
		475.417,316.201 475.417,316.201 475.465,369.695 475.465,369.695 475.465,381.25 474.293,381.25 474.293,381.25 	"/>
	<polygon id="IL_De_Witt" fill="#D0D0D0" stroke="#666666" stroke-width="0.2835" stroke-miterlimit="22.9256" points="
		446.677,346.47 446.677,340.605 452.788,340.605 452.788,334.314 464.059,316.201 464.059,316.201 406.928,316.166 
		406.928,316.166 406.928,346.47 406.928,346.47 	"/>
	<polygon id="IL_Logan" fill="#D0D0D0" stroke="#666666" stroke-width="0.2835" stroke-miterlimit="22.9256" points="
		364.064,357.009 372.929,357.009 373.17,362.329 381.06,362.329 381.06,364.583 399.655,364.583 399.655,364.583 406.848,364.583 
		406.928,346.47 406.928,346.47 406.928,316.166 406.928,316.166 395.149,316.166 395.149,310.888 395.149,310.888 361.566,311.318 
		361.566,311.318 361.566,337.534 361.566,337.534 361.566,341.496 364.27,341.496 	"/>
	<path id="IL_Mason" fill="#D0D0D0" stroke="#666666" stroke-width="0.2835" stroke-miterlimit="22.9256" d="M322.578,338.465
		c1.136-0.735,2.537-3.948,3.658-3.668c0.065,0.265,0.413,0.442,0.482,0.725c0.158,0,0.185,0.046,0.321,0.081
		c0.161,0.481,4.571,0.569,5.072,0.402c2.674-0.891,5.146,1.656,7.89,1.047c1.731-0.385,2.169-1.688,4.187-1.127
		c1.156,0.322,3.424,0.56,4.104-0.805c2.223,0,3.251-0.502,4.911-1.852c1.722-1.399,2.491-0.726,4.104-0.322
		c0.158,0.633,1.443,1.861,1.853,2.576l2.404,2.013l0,0v-26.216l0,0h-11.57v-15.476h-20.161l0,0l-2.499,1.454
		c-0.839,0.481-1.66,1.784-2.339,2.505c-0.864,0.919-1.444,1.667-2.459,2.424c-0.612,0.456-1.132,1.234-1.854,1.576
		c-0.715,0.338-1.809,0.209-2.581,0.364c-1.058,1.484-1.039,2.518-1.531,4.201c-0.143,0.715-0.281,1.796-0.281,2.505
		c-1.38,1.379-1.396,1.537-1.814,3.555c-0.317,1.529-1.831,3.406-3.063,4.404c-1.282,1.038-1.346,2.271-1.937,3.676
		c-0.534,1.28-1.802,2.01-3.022,2.303c-1.521,0.364-3.397,3.104-4.396,4.404l0,0l-0.242,4.121c-0.232,0.234-0.521,0.31-0.766,0.525
		c-0.927,0.084-1.344,0.223-2.258-0.162c-0.755-0.316-1.309-0.688-2.178-0.688c-1.868,0-3.588,0.49-5.12,1.576
		c-0.857,0.607-2.31,0.698-3.024,1.414c-0.193,0.027-0.417,0.222-0.686,0.283l0,0c0.689,1.236,1.975,2.139,2.822,3.515
		c0.554,0.898,1.787,4.724,2.782,4.849c1.034,1.451,12.9,0.565,14.435-0.283c1.137-0.629,1.819-1.242,3.145-1.455
		c2.219-0.357,2.436-0.977,4.152-2.101c1.693-1.108,1.516-1.554,3.347-1.293c0.071,0.143,0.278,0.223,0.403,0.323
		c0.218,0.113,0.35,0.242,0.563,0.242c0.022,0.068,0.083,0.055,0.161,0.081c0.098,0.032,0.07,0.041,0.161,0.041h0.121
		c0.026,0,0.056,0.009,0.081,0c0.023-0.009,0.096-0.073,0.12-0.081c0.093-0.032,0.114,0.026,0.202-0.041L322.578,338.465
		L322.578,338.465z"/>
	<path id="IL_Schuyler" fill="#D0D0D0" stroke="#666666" stroke-width="0.2835" stroke-miterlimit="22.9256" d="M230.868,327.7
		v12.059h20.228v3.312h3.587v4.444l3.951,2.464h2.459v5.737h4.112v-0.606h5.362l0,0c0.196-0.205,0.313-0.245,0.363-0.444
		l1.854-1.495c1.234-0.176,3.517-1.318,4.677-1.898c0.911-0.456,1.048-2.664,1.048-3.596c0-2.721,2.67-2.373,3.588-4.565
		c0.624-1.49,0.745-3.887,2.419-4.727l3.266-2.101l0,0c0.269-0.061,0.493-0.256,0.686-0.283c0.714-0.716,2.167-0.807,3.024-1.414
		c1.532-1.086,3.252-1.576,5.12-1.576c0.869,0,1.423,0.371,2.178,0.687c0.914,0.384,1.331,0.246,2.258,0.162
		c0.245-0.215,0.532-0.291,0.767-0.525l0.242-4.121l0,0h-25.281l0.03-12.127l0,0L231,316.361l0,0L230.868,327.7L230.868,327.7z"/>
	<polygon id="IL_McDonough" fill="#D0D0D0" stroke="#666666" stroke-width="0.2835" stroke-miterlimit="22.9256" points="
		231,316.361 276.807,317.086 276.807,317.086 277.209,270.555 277.209,270.555 243.374,269.831 243.374,269.831 231.823,269.42 
		231.823,269.42 	"/>
	<path id="IL_Fulton" fill="#D0D0D0" stroke="#666666" stroke-width="0.2835" stroke-miterlimit="22.9256" d="M302.057,329.213
		c0.998-1.3,2.875-4.04,4.396-4.404c1.222-0.292,2.488-1.022,3.022-2.303c0.591-1.406,0.653-2.638,1.937-3.676
		c1.232-0.998,2.746-2.875,3.063-4.404c0.419-2.018,0.436-2.176,1.814-3.555c0-0.709,0.14-1.791,0.281-2.505
		c0.492-1.684,0.475-2.717,1.531-4.201c0.772-0.154,1.866-0.026,2.581-0.364c0.724-0.342,1.242-1.12,1.854-1.576
		c1.015-0.757,1.595-1.505,2.459-2.424c0.679-0.721,1.5-2.024,2.339-2.505l2.499-1.454l0,0l0.692-0.885l-0.128,0.198
		c0.242-0.396,0.556-0.772,0.767-1.171c0.141-0.268,0.229-0.667,0.483-0.849c0.266-0.665,0.803-1.551,1.21-2.141
		c0.51-0.74,0.428-1.493,0.766-2.263c0.177-0.401,0.41-1.046,0.484-1.454c0.322-0.371,0.656-1.139,0.806-1.616l0,0l-0.442-14.342
		h-11.135v-11.552l0,0l-46.048-0.081l0,0l-0.081,10.868l0,0l-0.402,46.531l0,0l-0.03,12.127L302.057,329.213L302.057,329.213z"/>
	<path id="IL_Tazewell" fill="#D0D0D0" stroke="#666666" stroke-width="0.2835" stroke-miterlimit="22.9256" d="M334.915,285.661
		c0.956-0.185,3.957-1.657,4.476-2.384c2.425-0.538,4.17-2.141,6.896-2.141c1.339,0,3.315-1.671,4.556-1.131
		c2.328,1.014,4.727,0.3,4.999-2.545c0.123-1.276-0.032-2.446,0.847-3.474c0.933-1.089,1.935-2.201,2.661-3.515
		c0.436-0.597,0.491-1.375,0.524-2.101c0.031-0.695,0.361-1.359,0.443-2.02c0.584-0.419,1.231-1.979,1.773-2.626
		c0.898-1.076,2.312-1.6,3.226-2.585c0.399-0.432,0.751-0.922,0.928-1.454c0.217-0.656,0.035-1.481,0.242-2.102l0.482-2.141l0,0
		H388.9v16.928h6.249v2.99l0,0v35.529l0,0l-33.583,0.431l0,0h-11.57v-15.476h-20.161l0,0l0.692-0.885l-0.128,0.198
		c0.242-0.396,0.556-0.772,0.767-1.171c0.141-0.268,0.229-0.667,0.483-0.849c0.266-0.665,0.803-1.551,1.21-2.141
		c0.51-0.74,0.428-1.493,0.766-2.263c0.177-0.401,0.41-1.046,0.484-1.454C334.433,286.906,334.767,286.138,334.915,285.661
		L334.915,285.661z"/>
	<polygon id="IL_McLean" fill="#D0D0D0" stroke="#666666" stroke-width="0.2835" stroke-miterlimit="22.9256" points="
		395.149,275.359 408.132,275.359 408.132,273.218 411.478,273.218 411.438,270.915 417.163,270.915 417.163,266.551 
		423.331,266.551 423.331,254.512 428.693,254.512 428.693,254.512 463.097,254.512 463.097,265.3 464.173,265.3 464.173,272.369 
		476.067,272.369 476.067,272.369 476.067,301.228 476.067,301.228 475.417,316.201 475.417,316.201 464.059,316.201 
		464.059,316.201 406.928,316.166 406.928,316.166 395.149,316.166 395.149,310.888 395.149,310.888 	"/>
	<path id="IL_Woodford" fill="#D0D0D0" stroke="#666666" stroke-width="0.2835" stroke-miterlimit="22.9256" d="M395.149,275.359
		h12.981v-2.141h3.346l-0.04-2.303h5.727v-4.364h6.168v-12.039h5.362l0,0l0.132-23.083l0,0h-12.104l0,0l-41.974,1.023l0,0
		c-1.274,1.704-1.907,3.622-3.024,5.333c-0.901,1.382-1.36,2.9-2.338,4.282c-1.138,1.609-2.776,4.181-3.387,6.02
		c-0.48,1.451,0.08,3.257,0.08,4.767c0.172,0.227,0.118,0.76,0.242,1.051l0.646,1.535l0,0H388.9v16.928h6.249V275.359
		L395.149,275.359z"/>
	<path id="IL_Peoria" fill="#D0D0D0" stroke="#666666" stroke-width="0.2835" stroke-miterlimit="22.9256" d="M374.749,232.453
		c-1.274,1.704-1.907,3.622-3.024,5.333c-0.901,1.382-1.36,2.9-2.338,4.282c-1.138,1.609-2.776,4.181-3.387,6.02
		c-0.48,1.451,0.08,3.257,0.08,4.767c0.172,0.227,0.118,0.76,0.242,1.051l0.646,1.535l0,0l-0.482,2.141
		c-0.207,0.62-0.025,1.446-0.242,2.102c-0.177,0.532-0.527,1.022-0.928,1.454c-0.912,0.985-2.326,1.509-3.226,2.585
		c-0.542,0.648-1.189,2.208-1.773,2.626c-0.082,0.661-0.412,1.325-0.443,2.02c-0.033,0.726-0.09,1.504-0.524,2.101
		c-0.728,1.314-1.729,2.426-2.661,3.515c-0.879,1.028-0.724,2.198-0.847,3.474c-0.272,2.845-2.671,3.56-4.999,2.545
		c-1.239-0.54-3.217,1.131-4.556,1.131c-2.726,0-4.471,1.604-6.896,2.141c-0.519,0.727-3.52,2.199-4.476,2.384l0,0l-0.442-14.342
		h-11.135v-11.552l0,0v-34.304l0,0h34.698l0,0h19.023L374.749,232.453L374.749,232.453z"/>
	<polygon id="IL_Knox" fill="#D0D0D0" stroke="#666666" stroke-width="0.2835" stroke-miterlimit="22.9256" points="277.29,259.687 
		323.338,259.767 323.338,259.767 323.338,225.463 323.338,225.463 323.338,202.207 323.338,202.207 278.175,202.207 
		278.175,202.207 277.853,213.639 277.853,213.639 	"/>
	<polygon id="IL_Warren" fill="#D0D0D0" stroke="#666666" stroke-width="0.2835" stroke-miterlimit="22.9256" points="
		277.853,213.639 277.29,259.687 277.29,259.687 277.209,270.555 277.209,270.555 243.374,269.831 243.374,269.831 243.374,212.697 
		243.374,212.697 	"/>
	<polygon id="IL_Iroquois" fill="#D0D0D0" stroke="#666666" stroke-width="0.2835" stroke-miterlimit="22.9256" points="
		569.444,288.933 528.304,289.151 528.304,289.151 509.704,289.151 508.424,222.414 508.424,222.414 569.733,220.454 
		569.733,220.454 	"/>
	<polygon id="IL_Livingston" fill="#D0D0D0" stroke="#666666" stroke-width="0.2835" stroke-miterlimit="22.9256" points="
		428.693,254.512 463.097,254.512 463.097,265.3 464.173,265.3 464.173,272.369 476.067,272.369 476.067,272.369 498.04,272.369 
		496.824,222.414 496.824,222.414 496.824,207.279 496.824,207.279 462.852,207.923 462.852,207.923 428.825,207.923 
		428.825,231.43 428.825,231.43 	"/>
	<polygon id="IL_Kankakee" fill="#D0D0D0" stroke="#666666" stroke-width="0.2835" stroke-miterlimit="22.9256" points="
		496.824,222.414 508.424,222.414 508.424,222.414 569.733,220.454 569.733,220.454 569.892,183.366 569.892,183.366 
		520.251,183.369 520.251,195.243 497.76,195.243 497.76,195.243 497.798,207.162 496.824,207.279 496.824,207.279 	"/>
	<polygon id="IL_LaSalle" fill="#D0D0D0" stroke="#666666" stroke-width="0.2835" stroke-miterlimit="22.9256" points="
		428.825,231.43 428.825,207.923 462.852,207.923 462.852,207.923 461.464,161.33 461.464,161.33 461.464,139.01 461.464,139.01 
		427.673,139.01 427.673,139.01 404.999,139.01 404.999,144.5 404.999,144.5 405.188,181.022 405.188,181.022 405.753,208.091 
		405.753,208.091 416.645,208.091 416.723,231.43 416.723,231.43 	"/>
	<polygon id="IL_Grundy" fill="#D0D0D0" stroke="#666666" stroke-width="0.2835" stroke-miterlimit="22.9256" points="
		497.76,195.243 496.425,161.33 496.425,161.33 461.464,161.33 461.464,161.33 462.852,207.923 462.852,207.923 496.824,207.279 
		496.824,207.279 497.798,207.162 	"/>
	<polygon id="IL_Will" fill="#D0D0D0" stroke="#666666" stroke-width="0.2835" stroke-miterlimit="22.9256" points="497.76,195.243 
		520.251,195.243 520.251,183.369 569.892,183.366 569.892,183.366 569.99,159.933 569.99,159.933 542.644,159.933 542.644,148.511 
		530.958,148.511 530.958,137.321 518.842,137.321 518.804,131.41 518.804,131.41 518.804,126.855 495.375,126.855 495.375,126.855 
		496.425,161.33 496.425,161.33 	"/>
	<polygon id="IL_Kendall" fill="#D0D0D0" stroke="#666666" stroke-width="0.2835" stroke-miterlimit="22.9256" points="
		461.464,161.33 496.425,161.33 496.425,161.33 495.375,126.855 495.375,126.855 461.47,126.855 461.47,126.855 461.464,139.01 
		461.464,139.01 	"/>
	<polygon id="IL_Marshall" fill="#D0D0D0" stroke="#666666" stroke-width="0.2835" stroke-miterlimit="22.9256" points="
		374.749,232.453 416.723,231.43 416.723,231.43 416.645,208.091 405.753,208.091 405.753,208.091 387.408,208.091 388.902,202.282 
		375.505,202.282 375.505,202.282 358.036,202.282 358.036,202.282 358.036,225.463 358.036,225.463 377.061,225.463 	"/>
	<polygon id="IL_Stark" fill="#D0D0D0" stroke="#666666" stroke-width="0.2835" stroke-miterlimit="22.9256" points="
		323.338,225.463 358.036,225.463 358.036,225.463 358.036,202.282 358.036,202.282 358.041,191.178 336.219,191.178 
		336.219,191.178 334.79,191.178 334.79,202.152 323.338,202.207 323.338,202.207 	"/>
	<path id="IL_Putnam" fill="#D0D0D0" stroke="#666666" stroke-width="0.2835" stroke-miterlimit="22.9256" d="M375.505,202.282
		h13.397l-1.494,5.809h18.345l0,0l-0.563-27.068l0,0h-3.509c-1.941-0.215-3.651-0.5-5.482-0.97
		c-1.865-0.478-3.829,1.175-5.563,1.737c-0.927,0.301-1.769,0.808-2.74,1.051c-0.021,0.076-0.057,0.129-0.121,0.161
		c-0.162,1.14,0,2.11,0,3.232c0,0.876-0.817,1.891-1.09,2.707c-0.24,0.725-0.103,1.322-0.482,2.061h-10.694v11.28H375.505z"/>
	<path id="IL_Bureau" fill="#D0D0D0" stroke="#666666" stroke-width="0.2835" stroke-miterlimit="22.9256" d="M336.219,191.178
		h21.822l-0.005,11.104l0,0h17.469l0,0v-11.281h10.694c0.381-0.739,0.242-1.335,0.482-2.061c0.271-0.816,1.089-1.831,1.089-2.707
		c0-1.122-0.161-2.093,0-3.232c0.065-0.032,0.103-0.085,0.121-0.161c0.974-0.243,1.814-0.75,2.741-1.051
		c1.734-0.562,3.698-2.215,5.563-1.737c1.831,0.469,3.541,0.754,5.482,0.97h3.508l0,0l-0.188-36.522l0,0h-46.155l0,0h-23.02l0,0
		L336.219,191.178L336.219,191.178z"/>
	<polygon id="IL_Lee" fill="#D0D0D0" stroke="#666666" stroke-width="0.2835" stroke-miterlimit="22.9256" points="358.844,144.5 
		404.999,144.5 404.999,144.5 404.999,139.01 427.673,139.01 427.673,139.01 427.715,104.988 427.715,104.988 385.635,104.988 
		385.635,103.372 381.764,103.372 379.265,104.786 379.265,102.079 373.943,102.079 373.943,103.43 358.761,103.43 358.761,103.43 	
		"/>
	<polygon id="IL_DuPage" fill="#D0D0D0" stroke="#666666" stroke-width="0.2835" stroke-miterlimit="22.9256" points="
		495.375,126.855 518.804,126.855 518.804,131.41 518.844,131.41 525.858,131.41 529.75,127.584 529.75,91.736 495.54,91.736 
		495.54,91.736 	"/>
	<polygon id="IL_Kane" fill="#D0D0D0" stroke="#666666" stroke-width="0.2835" stroke-miterlimit="22.9256" points="497.871,70.386 
		497.871,81.151 495.54,81.151 495.54,91.736 495.54,91.736 495.375,126.855 495.375,126.855 461.47,126.855 461.47,126.855 
		461.47,81.07 462.844,81.07 462.844,70.386 462.844,70.386 	"/>
	<path id="IL_Cook" fill="#D0D0D0" stroke="#666666" stroke-width="0.2835" stroke-miterlimit="22.9256" d="M569.99,159.933
		l0.131-30.872l0,0c-0.063-0.195-0.116-0.395-0.154-0.6c-0.141-0.743,0.065-1.854-0.282-2.505c0-0.459-0.046-0.912-0.102-1.354
		c-0.406-0.509-1.349-1.054-1.451-1.777c-0.044-0.044-0.069-0.068-0.101-0.122c-0.045-0.025-0.064-0.045-0.102-0.081
		c-0.3,0-0.894,0.039-1.067-0.243c-0.711-0.323-1.63-1.823-1.915-2.525c-0.473-1.161-0.475-2.422-1.049-3.576
		c-0.347-0.695-1.022-1.243-1.352-1.899c-0.388-1.169-0.715-2.26-0.867-3.495c-0.098-0.799,0.005-1.75-0.181-2.504
		c-2.027-0.514,1.104-3.581,0.645-4.101c-0.255-0.29-0.935,0.078-1.27-0.162c-0.685-0.489-0.381-1.208-0.646-1.858
		c-0.138-0.339-0.285-0.487-0.402-0.889c-0.107-1.429-0.94-2.86-1.29-4.221c-0.258-1.009,0.063-1.348,0.646-2.081
		c-0.008-0.055-0.021-0.106-0.081-0.121c-0.021-0.087-0.821-0.278-0.967-0.424c-0.281-0.282-0.532-0.576-0.646-0.95
		c-0.384-1.256-0.599-2.558-0.767-3.878c-0.107-0.846-0.535-1.51-0.807-2.282c-0.457-1.774-0.354-3.419-0.666-5.151
		c-0.071-0.398-1.261-3.039-1.471-3.131c-0.456-0.201-1.844-0.977-2.098-1.333c-0.405-0.045-1.822-1.89-2.036-2.303
		c-0.478-0.929-1.02-1.933-1.37-2.929l-1.31-2.392l0,0l-45.032,0.211h-4.062V81.15h-2.331v10.585l0,0h34.21v35.848l-3.893,3.826
		h-7.015h-0.04l0.038,5.911h12.116v11.19h11.686v11.422L569.99,159.933L569.99,159.933z"/>
	<polygon id="IL_DeKalb" fill="#D0D0D0" stroke="#666666" stroke-width="0.2835" stroke-miterlimit="22.9256" points="
		462.844,70.386 462.844,81.07 461.47,81.07 461.47,126.855 461.47,126.855 461.464,139.01 461.464,139.01 427.673,139.01 
		427.673,139.01 427.715,104.988 427.715,104.988 428.22,70.386 428.22,70.386 451.233,70.386 	"/>
	<polygon id="IL_Ogle" fill="#D0D0D0" stroke="#666666" stroke-width="0.2835" stroke-miterlimit="22.9256" points="358.761,103.43 
		373.943,103.43 373.943,102.079 379.265,102.079 379.265,104.786 381.764,103.372 385.635,103.372 385.635,104.988 
		427.715,104.988 427.715,104.988 428.22,70.386 428.22,70.386 404.164,70.386 404.164,63.579 381.864,63.579 381.864,63.579 
		352.748,63.536 352.748,63.536 353.63,99.706 353.63,99.706 358.761,99.706 	"/>
	<polygon id="IL_Stephenson" fill="#D0D0D0" stroke="#666666" stroke-width="0.2835" stroke-miterlimit="22.9256" points="
		381.864,22.173 381.864,63.579 381.864,63.579 352.748,63.536 352.748,63.536 336.206,63.536 336.206,64.648 329.553,64.648 
		329.553,64.648 329.553,21.752 329.553,21.752 	"/>
	<polygon id="IL_Winnebago" fill="#D0D0D0" stroke="#666666" stroke-width="0.2835" stroke-miterlimit="22.9256" points="
		428.188,22.544 381.864,22.173 381.864,22.173 381.864,63.579 381.864,63.579 404.164,63.579 404.164,70.386 428.22,70.386 
		428.22,70.386 	"/>
	<polygon id="IL_Boone" fill="#D0D0D0" stroke="#666666" stroke-width="0.2835" stroke-miterlimit="22.9256" points="
		428.188,22.544 428.22,70.386 428.22,70.386 451.233,70.386 451.233,70.386 451.27,22.73 451.27,22.73 	"/>
	<polygon id="IL_McHenry" fill="#D0D0D0" stroke="#666666" stroke-width="0.2835" stroke-miterlimit="22.9256" points="
		462.844,70.386 497.871,70.386 501.935,70.386 501.978,22.496 501.978,22.496 500.083,22.487 490.46,22.691 485.683,22.307 
		461.472,22.812 451.27,22.73 451.27,22.73 451.233,70.386 451.233,70.386 	"/>
	<path id="IL_Lake" fill="#D0D0D0" stroke="#666666" stroke-width="0.2835" stroke-miterlimit="22.9256" d="M546.967,70.174
		l-1.433-2.618l-2.883-4.888c-0.479-0.812-0.616-2.496-1.13-3.151c-0.008-0.09-0.002-0.074-0.061-0.142
		c-0.018-0.147-0.091-0.311-0.121-0.464c-0.049-0.649-0.465-2.11-0.807-2.667c-0.148-0.709-0.552-1.36-0.745-2.04
		c-0.21-0.739-0.292-1.489-0.424-2.243c-0.215-1.23,0.104-3.113-0.304-4.202c0-0.291-0.008-0.721,0.081-0.99v-0.101
		c0.062-0.163,0.051-0.404,0.102-0.586c0-0.795,0.019-1.344,0.343-2.081c0.203-0.461-0.031-1.373,0.242-1.717
		c0.062-0.501,0.918-1.384,1.169-1.919c0.375-0.799,0.526-1.791,0.706-2.666c0.406-1.988,0.501-4.018,0.322-6.061
		c0-1.335,0.24-2.598,0.402-3.919c0.175-1.413-0.029-2.78-0.182-4.161l-0.04-0.081c-0.014-0.149-0.073-0.349-0.142-0.485
		c-0.02-0.231,0.034-0.11-0.069-0.32l0,0l-40.02-0.178l0,0l-0.044,47.89l0,0L546.967,70.174L546.967,70.174z"/>
	<path id="IL_Clahoun" fill="#D0D0D0" stroke="#666666" stroke-width="0.2835" stroke-miterlimit="22.9256" d="M261.658,469.203
		l-0.847-2.143c-0.063-0.513-0.437-1.103-0.564-1.615c-0.123-0.492,0.007-1.054,0.081-1.535c0.124-0.812,0.559-2.857,1.25-3.354
		c0.092-0.185,0.158-0.365,0.322-0.483c0.368-0.735,0.542-1.09,0.564-1.939c0-2.856-0.388-5.174-1.532-7.757
		c0-2.653,0.91-4.354-0.363-6.908c0-0.892,0.336-1.955-0.081-2.788c0-1.604-0.599-2.953-0.363-4.727
		c0.18-1.354,0.063-2.764,0.148-4.14l0,0l-41.938-0.056l0,0c1.157,0.742,2.351,1.444,3.408,2.255
		c1.059,0.812,2.35,1.312,3.508,1.939c1.094,0.594,1.767,1.797,2.661,2.464c0.325,0.243,3.405,2.709,3.628,2.788
		c0.19,0.065,0.762,0.514,0.887,0.646c0.598,0.637,2.073,1.506,2.782,2.264c1.89,2.017,3.726,2.714,5.927,4.242
		c1.444,1.002,1.687,2.525,2.419,3.998c0.491,0.985,1.892,1.411,2.581,2.385c1.111,1.57,0.935,4.549,1.209,6.464
		c0.39,2.721,0.794,5.438,1.169,8.161c0.027,0.2,0.027,0.403,0.04,0.605c0.136,2.044,3.205,3.742,2.298,6.021
		c-0.761,1.911-2.258,2.581-2.258,4.97c0,3.426,2.875,5.23,2.983,8.484c0.096,2.887,0.921,6.926,2.742,9.292
		c0.476,0.617,0.7,1.263,1.209,1.817c0.349,0.381,0.777,0.975,1.169,1.333c0.589,0.537,1.363,1.271,2.096,1.777
		c0.991,0.687,1.941,1.126,3.064,1.252c3.47,0.391,5.204-2.213,6.814-5.131c1.431-2.594,3.168-5.479,5.695-6.867l0,0l-3.963-1.395
		l-1.974-1.43c-0.29-0.236-0.688-0.532-0.807-0.65c-1.564-1.568-3.184-5.497-3.467-7.718c-0.252-1.976-0.541-3.925-0.968-5.857
		c-0.166-0.753-0.501-1.608-0.766-2.343c-0.35-0.974-0.259-1.989-0.564-2.909L261.658,469.203L261.658,469.203z"/>
	<path id="IL_Randolph" fill="#D0D0D0" stroke="#666666" stroke-width="0.2835" stroke-miterlimit="22.9256" d="M299.611,606.541
		l18.411-7.529v-11.479l13.747-0.197l0,0h19.437l0,0l11.327,0.282l0,0l0.171,34.979l0,0l-9.323,19.436l0,0
		c-0.787-0.708-1.938-0.934-3.104-1.449c-1.484-0.659-2.197-1.097-2.983-2.303c-0.522-0.803-3.486-4.089-4.313-4.565
		c-2.128-1.225-3.511-0.771-5.241-2.505c-0.425-0.425-0.784-0.828-1.146-1.194c-3.652-0.433-7.252,6.68-10.506,2.325
		c-0.804-1.074-5.57-7.123-1.976-7.636c0.398-0.56,2.048-0.844,2.7-1.575c0.536-0.6,0.139-2.635-0.854-2.433
		c-1.014,0.312-2.062,0.872-2.936,1.059c-2.733,0.585-4.344-0.839-5.967-3.312c-1.347-2.055-4.088-3.061-6.531-4
		c-2.521-0.971-1.717-3.113-2.62-4.768c-0.877-1.604-4.331-0.688-6.007-1.615C301.277,607.719,300.434,607.158,299.611,606.541
		L299.611,606.541z"/>
	<path id="IL_Jackson" fill="#D0D0D0" stroke="#666666" stroke-width="0.2835" stroke-miterlimit="22.9256" d="M353.381,642.033
		l9.323-19.436l0,0l42.444,0.451l0,0l1.895,0.121l-0.08,11.272l0,0l-0.304,34.928l0,0l-29.451,0.14
		c-0.304,0.176-0.596,0.914-0.746,1.232l-0.665,1.414c-0.374,0.795-1.163,1.824-2.116,1.879c-0.214,0.012-0.379-0.139-0.585-0.162
		c-0.173-0.134-0.324-0.203-0.504-0.363l-3.226-5.279l0,0c0.626-1.247,1.396-2.926,0.544-3.567
		c-0.563-0.426-0.797-0.859-0.887-1.616c-0.14-1.166-0.387-2.105-0.201-3.312c0.118-0.774,0.354-1.625,0.201-2.425
		c-0.334-1.733-1.911-2.33-3.508-2.707c-2.173-0.514-10.466-4.052-11.449-6.263c-0.434-0.969,0.453-3.521,0.2-4.687
		C354.106,642.907,353.794,642.403,353.381,642.033L353.381,642.033z"/>
	<path id="IL_Union" fill="#D0D0D0" stroke="#666666" stroke-width="0.2835" stroke-miterlimit="22.9256" d="M369.366,668.23
		l3.226,5.279c0.18,0.16,0.331,0.229,0.504,0.363c0.206,0.023,0.371,0.174,0.585,0.162c0.953-0.055,1.742-1.084,2.116-1.879
		l0.665-1.414c0.15-0.318,0.442-1.058,0.746-1.232l29.451-0.14l0,0h10.867l0,0v35.101l-18.003-0.338l-29.395-0.15l0,0
		c0.801-0.771,1.602-1.541,2.401-2.312c0.528-0.51,3.632-1.053,4.232-1.494c2.315-1.698,1.75-4.947,1.653-7.717
		c-0.129-3.661-6.034-6.909-6.895-10.343c-0.015-0.055-0.022-0.109-0.04-0.162c-0.628-1.779-1.265-3.556-1.896-5.332
		c-0.686-1.933-1.384-5.265-0.806-7.151C368.862,669.207,369.102,668.757,369.366,668.23L369.366,668.23z"/>
	<path id="IL_Alexander" fill="#D0D0D0" stroke="#666666" stroke-width="0.2835" stroke-miterlimit="22.9256" d="M370.13,703.982
		l29.395,0.15l0,0c0.134,0.753,0.897,1.77,1.148,2.587c0.463,1.507,1.109,3.114-0.403,4.08c-1.059,0.677-2.6,1.552-3.062,2.828
		c-0.322,0.885-0.021,1.813-0.283,2.667c-0.197,0.646-0.951,1.058-1.33,1.575c-0.628,0.857,0.785,3.846,0.524,4.889
		c-0.149,0.037-0.191,0.167-0.322,0.242c-0.114,0.567-0.081,1.013-0.081,1.616c-0.329,0.598-0.523,1.158-0.322,1.817
		c0.167,0.546,0.484,1.111,0.282,1.696c-0.146,0.422-0.473,0.866-0.646,1.334c-0.235,0.636,0.146,2.052,0.242,2.706
		c0.202,1.394,0.804,2.918,2.298,3.354c1.415,0.411,2.605,0.597,3.991,1.212c0.149,0.24,1.409,1.147,1.663,1.275l0,0
		c-0.022,0.605,0.006,1.247,0.029,1.956c0.039,1.104,0.48,1.829,0.847,2.626c0.224,0.484,1.387,1.617,1.774,2.102
		c0.498,0.62,1.219,1.113,1.743,1.718l0,0c-0.373,0.154-0.743,0.388-1.098,0.464c-1.259,0.271-3.717,2.42-4.799-0.04
		c-0.574-1.309-0.427-3.853-1.25-4.97c-0.963-1.307-2.877-1.459-3.709-3.029c-0.812-1.531-0.705-3.625-1.531-5.051
		c-2.297-3.957-7.829,2.741-5.08,4.728c1.571,1.137,3.338,1.729,4.717,3.11c1.977,1.979-2.096,5.204-4.072,2.747
		c-1.104-1.373-2.387-2.098-3.91-2.949c-0.889-0.496-3.985-1.308-4.354-2.141c-0.787-1.78,0.158-3.264,0.604-5.051
		c0.624-2.499-1.209-3.756-2.781-5.213c-2.562-2.371-2.969-3.28-4.436-6.343c-0.889-1.855-1.941-3.533-1.813-5.655
		c0.073-1.247,1.647-2.695,1.21-3.92c-0.903-2.512-6.089,1.354-7.379-2.02c-0.76-1.985,0.154-5.136,1.491-6.424
		C369.661,704.435,369.896,704.208,370.13,703.982L370.13,703.982z"/>
	<path id="IL_Pulaski" fill="#D0D0D0" stroke="#666666" stroke-width="0.2835" stroke-miterlimit="22.9256" d="M429.134,717.004
		l-0.017-8.869l0,0l-2.036,0.868c-0.658,0.354-1.068,0.539-1.754,0.202c-0.457-0.225-0.769-0.819-1.189-1.051
		c-0.821-1.128-2.065-1.171-3.286-1.07c-0.58,0.341-1.2,0.6-1.732,1.03c-0.511,0.413-1.116,0.708-1.592,1.132v-4.774l0,0
		l-18.003-0.338l0,0c0.134,0.753,0.897,1.77,1.148,2.587c0.463,1.508,1.109,3.114-0.403,4.08c-1.059,0.678-2.6,1.553-3.062,2.828
		c-0.322,0.885-0.021,1.813-0.283,2.667c-0.197,0.646-0.951,1.058-1.33,1.575c-0.628,0.857,0.785,3.846,0.524,4.889
		c-0.149,0.037-0.191,0.167-0.322,0.242c-0.114,0.567-0.081,1.013-0.081,1.616c-0.329,0.598-0.523,1.158-0.322,1.817
		c0.167,0.546,0.484,1.111,0.282,1.696c-0.146,0.422-0.473,0.866-0.646,1.334c-0.235,0.636,0.146,2.052,0.242,2.706
		c0.202,1.394,0.804,2.918,2.298,3.354c1.415,0.411,2.605,0.597,3.99,1.212c0.15,0.24,1.41,1.147,1.664,1.275l0,0
		c0.048-1.197,0.301-2.258,1.198-3.417c1.795-2.316,4.404-3.181,6.129-5.817c1.864-2.852,1.627-5.213,4.838-7.797
		C419.9,717.351,424.518,716.36,429.134,717.004L429.134,717.004z"/>
	<path id="IL_Massac" fill="#D0D0D0" stroke="#666666" stroke-width="0.2835" stroke-miterlimit="22.9256" d="M429.134,717.004
		l-0.017-8.869l0,0c0.073-0.021,0.146-0.044,0.222-0.061c0.113-0.088,0.203-0.201,0.322-0.283c0.215-0.148,0.482-0.206,0.706-0.363
		c0.297-0.211,0.595-0.602,0.826-0.89c0.327-0.406,0.492-0.883,0.705-1.354l0.807-1.454l18.312,0.016l0,0l21.722,23.902
		l-0.021,9.387l0,0c-5.438,2.097-10.271-6.691-14.052-7.044c-2.283-0.214-10.844-2.909-12.639-4.106
		c-2.148-1.432-3.507-3.347-5.798-4.669C436.569,719.102,432.852,717.521,429.134,717.004L429.134,717.004z"/>
	<path id="IL_Pope" fill="#D0D0D0" stroke="#666666" stroke-width="0.2835" stroke-miterlimit="22.9256" d="M480.69,691.422
		l-0.048-22.051l0,0h-29.465l0,0l-0.161,34.375l0,0l21.722,23.902l-0.021,9.387l0,0c0.907-0.352,1.834-1.005,2.773-2.053
		c5.981-6.673,3.167-11.052,1.369-17.792c-0.034-0.128-0.219-0.437-0.322-0.563c-0.085-0.104-0.095-0.17-0.161-0.322
		c-0.036-0.081-0.284-0.617-0.402-0.724c-0.164-0.149-0.38-0.531-0.645-0.725c-0.173-0.128-0.303-0.27-0.482-0.483
		c-0.122-0.145-1-0.768-1.208-0.886c-0.561-0.318-1.235-1.052-1.771-1.288c-0.146-0.064-0.909-0.934-0.966-1.047
		c-0.026-0.054-0.055-0.107-0.08-0.16c-1.819-3.639,1.274-6.153,2.736-9.661c1.857-4.46,0.211-7.426,4.991-10.062
		c0.525-0.29,1.285-0.176,2.104,0.14L480.69,691.422z"/>
	<path id="IL_Hardin" fill="#D0D0D0" stroke="#666666" stroke-width="0.2835" stroke-miterlimit="22.9256" d="M480.69,691.422
		l-0.048-22.051l0,0h3.952l0,0h18.43c0.375,0.099,0.591,0.216,0.922,0.383c0.087,0.121,0.336,0.304,0.464,0.384
		c0.522,0.836,1.689,1.172,2.479,1.696c1.035,0.688,3.142,0.55,4.086,0.957l0,0c1.858,1.633,4.123,3.279,4.123,5.838
		c0,6.244-3.693,4.962-8.212,6.36c-5.678,1.757-11.437,2.102-16.985,4.104c-2.319,0.837-3.397,6.111-5.556,4.508
		c-0.896-0.667-2.372-1.688-3.69-2.193L480.69,691.422z"/>
	<path id="IL_Gallatin" fill="#D0D0D0" stroke="#666666" stroke-width="0.2835" stroke-miterlimit="22.9256" d="M511.923,630.181
		l-3.018-1.736l-24.722,0.272l0,0l0.411,40.654l0,0h18.43c0.375,0.099,0.591,0.216,0.922,0.383c0.087,0.121,0.336,0.304,0.464,0.384
		c0.522,0.836,1.685,1.182,2.479,1.696c1.092,0.708,2.905,0.503,4.086,0.957l0,0c-0.075-0.066-0.149-0.133-0.225-0.199
		c-3.646-3.269-5.296-9.046-4.105-13.686c0.902-3.52,8.154-5.478,10.145-8.775c1.019-1.688,0.744-4.806,1.529-6.521
		c0.278-0.61,0.506-1.021,1.061-1.146l0,0c-0.038-1.114-0.215-1.404-1.301-1.071c-0.951,0.291-1.795,1.36-2.863,0.89
		c-0.932-0.412-2.202-1.315-2.378-2.424c-0.435-2.729,3.054-0.278,3.87-0.243c0.862,0.037,3.397-0.709,2.218-1.817
		c-0.633-0.594-1.771-0.721-2.54-1.253c-1.184-0.821-1.682-2.594-2.379-3.798C513.469,631.818,512.362,631.019,511.923,630.181
		L511.923,630.181z"/>
	<path id="IL_White" fill="#D0D0D0" stroke="#666666" stroke-width="0.2835" stroke-miterlimit="22.9256" d="M511.923,630.181
		l-3.018-1.736l-24.722,0.272l0,0l0.322-45.968l0,0l22.564-0.06l0,0l15.239-0.363l0,0l2.052,2.393l0,0
		c0.274,0.6,0.506,1.199,0.247,1.81c-0.912,2.143-0.566,3.941,0.402,5.776c1.036,1.962,3.667,2.462,3.991,4.688
		c0.156,1.074-0.316,1.531-1.169,2.263c-0.586,0.503-0.938,0.648-0.767,1.495c0.334,1.645-1.16,2.313-1.09,3.272
		c0.065,0.868,0.014,1.105-0.16,2.02c-0.195,1.024-1.061,2.729-1.936,3.354c-1.753,1.251-3.157,0.906-5.241,0.808
		c-1.346-0.063-1.775,1.946-0.928,2.747c0.945,0.894,2.272-0.838,3.104-0.242c0.821,0.589-1.29,2.229-1.29,3.637
		c0,1.576,1.168,3.324,1.088,4.93c-0.042,0.847-0.515,1.006-1.33,1.172c-0.354,0.07-0.767,0.287-0.767,0.687
		c0,1.035,0.609,2.416-0.767,2.909c-0.246,0.088-2.376,0.379-2.379,0.403c-0.039,0.353,0.43,0.729,0.726,0.89
		c1.315,0.712,2.717-0.717,3.71,0.242c1.491,1.439-0.828,3.284-2.982,3.191c-1.669-0.072-3.757-3.454-4.798-2.062
		C511.64,629.229,511.676,629.711,511.923,630.181L511.923,630.181z"/>
	<path id="IL_Wabash" fill="#D0D0D0" stroke="#666666" stroke-width="0.2835" stroke-miterlimit="22.9256" d="M558.237,541.588
		l-27.764,0.165l0,0l-4.654-0.051l0,0c0.12,0.697,0.044,1.479,0.24,2.121c0.27,0.872,1.637,0.954,1.977,2.061
		c0.203,0.66-0.426,1.783-0.927,2.143c-0.165,1.154-0.459,2.281-0.524,3.515c-0.053,0.992,0.427,1.368,0.524,2.263
		c0.092,0.851-0.075,1.45-0.121,2.264c-0.122,2.149-0.078,4.178-1.25,6.06l0.121-0.202c-0.238,0.409-0.065,0.127-0.081,0.081
		c-0.294,1.181-1.814,1.723-1.814,3.354c0,1.994,0.893,2.758,1.613,4.483c0.477,1.142,0.984,2.607,1.048,3.838
		c0.075,1.491,0.14,3.874-1.21,4.85c-0.631,0.456-2.54,2.101-2.54,2.948l-0.563,0.85l0,0l2.052,2.393l0,0
		c-0.393-0.847-0.875-1.69-0.196-2.555c0.944-1.2,1.807,0.882,3.306-1.01c0.523-0.66,2.271-3.056,3.023-2.505
		c1.199,0.874-1.597,3.396,0.121,3.959c2.171,0.711,2.191-4.634,4.072-5.413c1.358-0.564,1.4,0.632,1.129,1.695
		c-0.34,1.332-0.654,2.522,0.362,2.909c3.809,1.446,0.196-11.596,6.329-11.596c3.013,0,8.229-10.071,6.048-11.354
		c-3.37-1.979-1.375-4.262,0.646-3.636c3.24,1.004,3.976-3.416,6.289-2.949c4.275,0.863,0.153-3.357-0.242-4.483
		c-0.442-1.261,1.164-1.146,1.653-2.103c0.361-0.705-0.355-1.552,0.968-2.141C558.268,543.364,558.149,542.295,558.237,541.588
		L558.237,541.588z"/>
	<path id="IL_Monroe" fill="#D0D0D0" stroke="#666666" stroke-width="0.2835" stroke-miterlimit="22.9256" d="M294.983,547.32
		l11.792,12.058l0.384,3.084l11.108,11.512v1.728h12.384c0.319,0.604,0.997,1.383,0.758,2.101c-0.066,0.202-1.088,0.987-1.25,1.011
		c-0.041,0.146-0.336,0.27-0.442,0.403c-0.61,0.774,0.211,2.199,0.563,2.909c0.444,0.894,1.206,2.145,1.331,3.151l0.161,2.061l0,0
		l-13.748,0.197v11.479l-18.41,7.529l0,0c-0.932-0.699-1.836-1.471-2.354-2.075c-1.373-1.604-2.272-2.771-3.225-4.687
		c-1.105-2.221-2.11-4.281-4.314-5.333c-0.788-0.376-2.51-0.562-3.185-1.535c-0.824-1.188-2.991-6.312-3.387-7.838
		c-1.886-7.269,0.158-14.267,4.637-19.958c1.102-1.4,2.205-2.802,3.306-4.202c0.873-1.109,0.608-2.611,0.686-4.08
		C291.937,553.755,293.442,550.073,294.983,547.32L294.983,547.32z"/>
	<path id="IL_St_Clair" fill="#D0D0D0" stroke="#666666" stroke-width="0.2835" stroke-miterlimit="22.9256" d="M301.284,530.042
		l49.416-0.034l0,0v31.812l0,0l0.506,25.518l0,0H331.77l0,0l-0.16-2.061c-0.125-1.008-0.887-2.259-1.331-3.151
		c-0.354-0.71-1.175-2.135-0.563-2.909c0.106-0.135,0.401-0.258,0.442-0.403c0.162-0.022,1.184-0.809,1.25-1.011
		c0.239-0.718-0.438-1.497-0.758-2.101h-12.384v-1.728l-11.108-11.512l-0.384-3.084l-11.792-12.058l0,0
		c0.073-0.131,0.146-0.261,0.219-0.387c1.236-2.135,3.104-4.126,4.718-5.655c1.492-1.415,1.692-8.218,1.692-10.263
		c0-0.054,0-0.106,0-0.162C301.613,530.717,301.477,530.409,301.284,530.042L301.284,530.042z"/>
	<path id="IL_Madison" fill="#D0D0D0" stroke="#666666" stroke-width="0.2835" stroke-miterlimit="22.9256" d="M294.31,498.74
		l0.047-13.24h12.963l0,0l44.598-0.402l0,0h6.141l0,0v16.345h3.358v17.71l0,0l0.163,10.855H350.7l0,0l-49.416,0.034l0,0
		c-0.425-0.81-1.121-1.916-1.244-2.177c-0.112-0.239,0.169,0.168-0.281-0.404c-1.013-1.285-1.479-1.701-0.847-3.07
		c0.393-0.847,1.57-2.381,2.379-3.19c0.889-0.892,1.46-2.4,2.338-3.07c1.996-1.524,3.797-2.932,4.919-5.131
		c3.812-7.474-5.335-6.758-8.709-10.141C298.051,501.062,296.307,499.655,294.31,498.74L294.31,498.74z"/>
	<path id="IL_Jersey" fill="#D0D0D0" stroke="#666666" stroke-width="0.2835" stroke-miterlimit="22.9256" d="M294.31,498.74
		l0.047-13.24h12.963l0,0l-0.908-34.478l0,0h-4.839v4.808l-11.249,0.202v5.979l-16.329,0.202c-0.482,0.344-1.233,1.212-1.532,1.737
		c-1.049,0.262-0.708-0.195-1.331-0.97c0-0.524-0.501-1.961-0.766-2.426c-1.79-0.446-3.833-1.049-5.201,0.646
		c-1.908,2.364-1.587,5.812-3.508,8l0,0l0.202,1.414c0.306,0.92,0.214,1.937,0.564,2.909c0.265,0.733,0.6,1.59,0.766,2.343
		c0.427,1.934,0.715,3.883,0.968,5.857c0.283,2.221,1.903,6.148,3.467,7.718c0.119,0.118,0.517,0.414,0.807,0.65l1.974,1.43
		l3.963,1.395l0,0c0.103-0.057,0.207-0.111,0.312-0.162c2.402-1.171,4.371-0.069,6.612,1.454c3.258,2.216,4.402,3.03,8.627,3.395
		C291.552,497.745,292.987,498.135,294.31,498.74L294.31,498.74z"/>
	<path id="IL_Crawford" fill="#D0D0D0" stroke="#666666" stroke-width="0.2835" stroke-miterlimit="22.9256" d="M560.52,464.562
		l-5.51-1.968l-28.243,0.003l0,0l-0.247,41.835l0,0h4.745l0,0l35.643,0.167l0,0c-0.006-0.103-0.008-0.199-0.004-0.288
		c0.021-0.505,1.306-0.771,1.531-1.172c0.318-0.564-0.013-1.35,0.121-1.979c0.257-1.211,0.271-2.337,0.888-3.476
		c1.208-2.227,1.745-5.379-1.13-6.141c-1.45-0.386-4.516-2.222-4.516-3.879c0-1.271,1.463-1.454,0.646-3.312
		c-0.976-2.216,2.103-3.047-0.768-5.091c-0.901-0.644-2.031-0.979-2.822-1.616c-1.075-0.867,0.387-1.957-0.2-2.827
		c-0.54-0.8-3.745,0.091-4.112-1.051c-0.306-0.948,1.271-1.367,1.209-2.142c-0.071-0.88-1.923-0.459-1.572-1.818
		c0.243-0.943,1.94-3.335,2.701-3.717c0.469-0.233,0.863,0.156,1.29-0.483C560.384,465.285,560.307,464.87,560.52,464.562
		L560.52,464.562z"/>
	<path id="IL_Clark" fill="#D0D0D0" stroke="#666666" stroke-width="0.2835" stroke-miterlimit="22.9256" d="M560.52,464.562
		l-5.51-1.968l-28.243,0.003l0,0l-6.032,0.039l0,0l-0.398-26.521l0,0v-14.297h5.525l0,0l27.454-0.251v1.031l15.573,0.009l0,0
		l-0.087,20.076c-0.771,0.061-1.471-0.608-1.858,0.259c-0.821,1.832-1.763,0.603-2.701,1.252c-0.387,0.268-2.608,3.329-2.701,3.798
		c-0.176,0.889,0.92,1.472,0.564,2.142c-0.556,1.047-1.605,1.571-0.201,2.586c0.52,0.375,0.08,0.574,0.08,1.131
		c0,3.058,1.768,1.058,2.742,1.656c0.549,0.338,0.039,2.235,0.039,2.828c0,2.705-1.562,4.783-3.95,5.979
		C560.678,464.383,560.585,464.468,560.52,464.562L560.52,464.562z"/>
	<path id="IL_Adams" fill="#D0D0D0" stroke="#666666" stroke-width="0.2835" stroke-miterlimit="22.9256" d="M169.591,326.894
		l61.277,0.806l0,0v12.059l0,0l-0.895,34.892l0,0v11.053l-46.865,0.039l0,0c-0.199-0.769-0.665-1.604-1.118-2.229
		c-0.86-1.186-1.688-2.134-2.822-2.828c-2.545-1.557-3.691-2.622-4.798-5.131c-0.509-1.154-0.627-2.681,0-3.919
		c0.519-1.026,1.343-1.877,2.016-2.667c0.661-0.777,0.843-2.162,0.202-2.747c-1.921-1.754-2.564-4.479-3.588-6.585
		c-0.792-1.626-1.872-4.423-2.862-5.939c-0.942-1.441-0.39-2.983-0.887-4.525c-0.932-2.893-2.733-8.658-1.613-11.595
		c0.51-1.334,1.659-4.336,0.847-5.778c-0.265-0.47-0.016-0.927,0-1.535C168.519,328.95,169.062,327.922,169.591,326.894
		L169.591,326.894z"/>
	<path id="IL_Hancock" fill="#D0D0D0" stroke="#666666" stroke-width="0.2835" stroke-miterlimit="22.9256" d="M206.217,269.204
		l25.606,0.216l0,0L231,316.361l0,0l-0.132,11.338l0,0l-61.277-0.806l0,0c0.368-0.715,0.729-1.431,0.909-2.246
		c0.381-1.723-0.543-3.143-0.161-4.767c0.655-2.789,1.989-7.318,3.911-9.414c0.395-0.43,0.899-0.955,1.366-1.419l0,0
		c0.155-0.155,0.307-0.303,0.449-0.439c0.936-0.9,2.04-1.56,3.427-1.616c0.895-0.036,2.53-1.034,2.742-2.021
		c0.033-0.155,0.113-0.188,0.121-0.323c0.062-1.094-0.444-2.398-0.887-3.394c-1.549-3.48,0.069-5.088,1.008-8.282
		c0.997-3.391-1.395-4.253-3.387-6.141c-4.407-4.177,4.931-10.236,8.668-11.151c1.424-0.349,4.099-1.683,5.604-2.061
		c2.198-0.552,4.418-0.471,6.612-0.889c2.429-0.462,3.033-1.271,4.959-2.667C205.365,269.751,205.795,269.482,206.217,269.204
		L206.217,269.204z"/>
	<path id="IL_Menderson" fill="#D0D0D0" stroke="#666666" stroke-width="0.2835" stroke-miterlimit="22.9256" d="M206.217,269.204
		l25.606,0.216l0,0l11.551,0.411l0,0v-57.134l0,0l-18.753-0.221l-0.106-0.001c0.158,0.978-0.062,2.255,0.011,3.09
		c0.13,1.491,0.654,4.4,0.363,5.939c-0.32,1.692-0.281,3.718-1.008,5.252c-0.387,0.816,0.216,3.872-0.202,4.969
		c-0.203,0.533-0.733,1.548-1.331,2.101c-1.412,1.307-2.477,1.691-3.507,3.555c-0.736,1.332-1.782,2.272-2.701,3.394
		c-1.047,1.277-1.692,3.498-2.983,4.484c-1.621,1.237-2.928,2.297-2.983,4.525c-0.015,0.61-0.406,1.421-0.081,2.02
		c0.171,0.315,0.46,1.028,0.726,1.212c1.375,0.95,1.328,3.423,0.847,4.687c-0.748,1.966-1.741,3.301-2.096,5.454
		c-0.261,1.577-0.577,3.609-1.774,4.808C207.288,268.472,206.76,268.846,206.217,269.204L206.217,269.204z"/>
	<path id="IL_Mercer" fill="#D0D0D0" stroke="#666666" stroke-width="0.2835" stroke-miterlimit="22.9256" d="M224.514,212.475
		l18.86,0.222l0,0l34.479,0.941l0,0l0.322-11.432l0,0l0.779-23.486l0,0l-67.112-1.328l0,0c-0.264,1.875-0.351,4.817-0.742,5.932
		c-0.329,0.939-0.963,2.167-1.331,3.03c-0.416,0.98-1.066,2.196-1.29,3.232c-0.053,0.245-0.3,0.395-0.363,0.646
		c-0.215,0.861-0.805,1.31-0.403,2.222c0.188,0.425,1.124,1.396,1.412,1.656c0.866,0.782,1.59,1.724,2.5,2.343
		c0.111,0.076,0.248,0.281,0.282,0.445c0.272,1.272,2.769,5.627,4.152,5.696c2.131,0.106,2.695-0.783,3.992,1.414
		c1.399,2.37,2.443,5.415,4.112,7.555C224.35,211.807,224.457,212.121,224.514,212.475L224.514,212.475z"/>
	<path id="IL_Rock_Island" fill="#D0D0D0" stroke="#666666" stroke-width="0.2835" stroke-miterlimit="22.9256" d="M211.842,177.393
		l67.112,1.328l0,0V162.68c0.982-1.964,2.964-1.715,4.435-3.191c1.672-1.678,1.812-5.18,4.354-4.767
		c1.717,0.278,2.777-0.407,4.273-0.808l5.121-1.374c2.583-0.693,3.714-2.027,5.685-3.434c0.142-1.137,0.509-3.475,0.928-4.606l0,0
		l1.411-3.232c0.524-0.88,0.112-3.947-0.202-4.848c-0.309-0.886-3.706-2.823-4.717-2.949c-0.381-0.571-1.021-0.543-1.209-1.333
		c-0.163-0.681-0.121-1.239-0.121-1.939c0-1.409-1.271-1.782-0.889-3.556c0.162-0.745-0.067-2.202-0.442-2.788l-0.054-5.308l0,0
		c-0.698,0.435-1.343,0.901-1.8,1.268c-2.197,1.761-5.808,2.173-7.136,5.01c-1.45,3.095,1.35,5.796-1.169,8.686
		c-2.467,2.83-1.413,8.701-1.976,12.282c-0.01,0.064-0.045,0.108-0.121,0.121c-1.632,0.283-5.066,1.536-6.37,2.667
		c-2.652,2.299-4.374,6.828-8.507,6.828c-1.718,0-3.011-1.333-4.596-1.333c-0.948,0-3.644,1.353-4.556,1.656
		c-1.004,0.334-1.59,0.718-1.693,1.737c-0.02,0.198-0.2,0.376-0.363,0.485c-0.04,0.026-0.081,0.054-0.121,0.081
		c-0.359,0.24-0.314,0.073-0.483,0.243c-0.247,0.248-0.52,0.442-0.726,0.727c-0.163,0.227-0.338,0.481-0.524,0.687
		c-0.13,0.144-0.312,0.259-0.443,0.404c-0.642,0.708-1.549,1.59-2.258,2.061c-0.592,0.393-1.646,0.792-2.5,0.929
		c-1.83,0.294-3.538,1.006-5.403,1.292c-3.388,0.521-7.398-0.687-10.926-0.687c-1.775,0-2.676,0.446-3.87,1.737
		c-1.112,1.203-2.513,1.847-4.112,1.979c-0.161,0.014-0.323,0.027-0.484,0.041c-0.139,0.011-0.162,0.014-0.282,0.081
		c-1.63,0.904-5.432-0.732-7.177-0.808c-1.873-0.081-5.408,1.178-6.249,2.868c-0.537,1.079,0.28,2.281,0.04,3.434
		c-0.227,1.094-1.084,1.918-1.572,3.03C212.02,176.345,211.922,176.819,211.842,177.393L211.842,177.393z"/>
	<path id="IL_Whiteside" fill="#D0D0D0" stroke="#666666" stroke-width="0.2835" stroke-miterlimit="22.9256" d="M297.527,118.547
		l0.054,5.308c0.375,0.585,0.604,2.042,0.442,2.788c-0.383,1.773,0.889,2.147,0.889,3.556c0,0.7-0.042,1.258,0.121,1.939
		c0.188,0.79,0.828,0.762,1.209,1.333c1.011,0.126,4.408,2.063,4.717,2.949c0.314,0.901,0.727,3.968,0.202,4.848l-1.411,3.232l0,0
		h32.074l0,0h23.02l0,0l-0.083-41.07l0,0v-3.724h-5.131l0,0l-48.948-0.028l0,0c0,0.06,0.002,0.121,0.002,0.18
		c0,0.714-0.518,1.447-0.518,2.107l0.188,1.855c-0.107,0.292-0.221,0.931-0.321,1.208c-0.114,0.308-0.771,1.443-0.968,1.697
		c-0.836,1.071-0.443,4.283-0.443,5.616c0,2.999-0.473,2.713-2.057,4.808c-0.069,0.092-0.078,0.1-0.201,0.121
		C299.542,117.414,298.482,117.952,297.527,118.547L297.527,118.547z"/>
	<path id="IL_Carroll" fill="#D0D0D0" stroke="#666666" stroke-width="0.2835" stroke-miterlimit="22.9256" d="M304.682,99.678
		l48.948,0.028l0,0l-0.882-36.17l0,0h-16.542v1.112h-6.653l0,0l-39.574-0.014l0,0c1.318,0.767,2.601,1.524,4.216,2.053
		c0.968,0.317,3.185,1.156,3.911,1.778c1.021,0.874,0.668,2.01,1.33,3.111c0.934,1.549,2.476,0.427,3.791,1.172
		c1.885,1.065,0.281,5.24,0.281,6.868c0,1.295,0.114,2.924,0.727,4.081c0.55,1.04,0.984,2.508,1.613,3.556
		c0.039,0.067,0.101,0.126,0.119,0.202c0.089,0.332,0.136,0.673,0.202,1.01c0.01,0.053,0.092,0.66,0.168,0.685
		c0,1.854-1.294,3.216-1.653,4.94c-0.235,1.126-0.412,2.233-0.242,3.386C304.544,98.172,304.663,98.961,304.682,99.678
		L304.682,99.678z"/>
	<path id="IL_Jo_Daviess" fill="#D0D0D0" stroke="#666666" stroke-width="0.2835" stroke-miterlimit="22.9256" d="M289.979,64.634
		l39.574,0.014l0,0V21.752l0,0l-74.396-0.598l0,0c-0.159,0.38-0.367,0.77-0.634,1.172c-0.543,0.821-0.541,1.554-0.04,2.626
		c1.042,2.233,2.418,2.138,4.112,3.515c0.821,0.667,2.651,1.188,3.669,1.576c2.025,0.769,0.767,3.063,2.983,3.959
		c2.107,0.852,4.021,2.363,5.806,3.797c0.65,0.523,2.614,2.443,3.145,2.909c1.506,1.321,3.498,4.99,3.226,6.949
		c-0.827,5.94,0.803,8.227,4.233,12.807c1.228,1.64,4.244,2.062,6.007,2.909C288.489,63.771,289.239,64.205,289.979,64.634
		L289.979,64.634z"/>
	<path id="IL_Lawrence" fill="#D0D0D0" stroke="#666666" stroke-width="0.2835" stroke-miterlimit="22.9256" d="M566.906,504.6
		l-35.643-0.167l0,0l-0.79,37.32l0,0l27.764-0.165l0,0c0.048-0.384,0.155-0.661,0.439-0.633c0.925,0.094,1.006,1.454,2.259,0.202
		c0.715-0.715-0.837-1.261-1.09-1.737c-0.38-0.719,0.679-1.315,0.969-1.897c0.288-0.581-1.445-3.576,0.24-3.476
		c1.122,0.066,0.754-1.393,1.452-2.223c1.181-1.397,2.659-1.406,4.354-1.656c1.021-0.15,1.72-0.387,2.539-1.051
		c1.089-0.882,0.995-2.019,1.452-3.11c0.288-0.688-0.145-1.202,0.281-1.817c0.594-0.858,0.969-1.262,0.969-2.385
		c0-1.02,0.454-2.03,0.2-2.948c-0.137-0.495-1.196-0.139-1.37-0.728c-0.292-0.992,1.243-0.899,1.612-1.657
		c0.301-0.615,0.048-0.798-0.322-1.292c-0.269-0.358-0.524-0.734-0.807-1.091c-0.141-0.177-0.335-0.34-0.484-0.524
		c-0.146-0.185-0.3-0.392-0.442-0.565c-0.09-0.11-0.222-0.143-0.322-0.243c-0.08-0.078-0.146-0.133-0.161-0.242
		c-0.171-1.224,0.121-2.293,0.121-3.475c0-2.341-0.562-1.63-2.258-2.424C567.25,506.323,566.951,505.319,566.906,504.6
		L566.906,504.6z"/>
	<path id="IL_Pike" fill="#D0D0D0" stroke="#666666" stroke-width="0.2835" stroke-miterlimit="22.9256" d="M183.108,385.742
		l46.865-0.039V374.65l0,0h34.851l0,0l-3.005,6.923l0,0c0,2.665-2.315,4.789-2.903,7.151c-1.514,1.087-1.598,4.589-0.968,6.1
		c1.289,3.089,2.652,6.355,3.467,9.615c0.262,1.111,0.753,2.177,1.331,3.11c0.438,0.71,1.209,1.711,1.209,2.586
		c0.288,0.383,0.147,1.391,0.121,1.858c-0.018,0.314-0.135,0.656-0.202,0.969c-0.102,0.481-0.008,1.075-0.161,1.535l-0.363,2.223
		l0,0c0.322,1.727-0.464,3.193-1.008,4.769c-0.292,0.847-0.761,1.632-1.048,2.465c-0.267,0.772-0.861,2.108-0.927,2.908
		c-0.432,0.648-0.294,1.984-0.484,2.748l0.39,2.202l0,0l-41.938-0.055l0,0c-1.146-0.734-2.258-1.512-3.164-2.472
		c-2.694-2.854-2.9-8.582-5.806-11.354c-2.464-2.349-5.98,0.948-7.096-3.394c-1.142-4.446-2.947-5.675-6.572-8.16
		c-1.233-0.846-3.668-4.123-4.757-5.051c-1.976-1.685-3.951-3.367-5.927-5.05c-1.563-1.333-1.925-2.284-2.661-3.879
		c-0.483-1.044-0.374-1.838-0.121-3.03c0.221-1.042,1.058-2.039,0.968-3.111C183.186,386.093,183.154,385.919,183.108,385.742
		L183.108,385.742z"/>
</g>
<g id="Outer_Border">
	<path fill="none" stroke="#FF0000" stroke-width="2" stroke-miterlimit="22.9256" d="M572.547,516.472
		c0.301-0.616,0.048-0.798-0.322-1.292c-0.269-0.358-0.524-0.734-0.807-1.091c-0.141-0.177-0.335-0.34-0.484-0.524
		c-0.146-0.185-0.3-0.392-0.442-0.565c-0.09-0.11-0.223-0.144-0.322-0.243c-0.08-0.078-0.146-0.133-0.161-0.242
		c-0.171-1.224,0.121-2.293,0.121-3.475c0-2.341-0.562-1.63-2.258-2.424c-0.62-0.291-0.919-1.295-0.964-2.016
		c-0.006-0.103-0.009-0.199-0.004-0.288c0.021-0.505,1.306-0.771,1.531-1.172c0.318-0.564-0.013-1.35,0.121-1.979
		c0.257-1.211,0.271-2.337,0.888-3.476c1.207-2.227,1.745-5.379-1.13-6.141c-1.45-0.386-4.516-2.222-4.516-3.879
		c0-1.271,1.463-1.454,0.646-3.312c-0.975-2.216,2.104-3.047-0.767-5.091c-0.902-0.644-2.031-0.979-2.822-1.616
		c-1.075-0.867,0.387-1.958-0.2-2.827c-0.54-0.8-3.745,0.091-4.112-1.051c-0.307-0.948,1.271-1.367,1.209-2.142
		c-0.071-0.88-1.923-0.459-1.572-1.818c0.243-0.943,1.94-3.335,2.701-3.717c0.469-0.233,0.863,0.156,1.29-0.483
		c0.215-0.322,0.138-0.737,0.351-1.047c0.065-0.094,0.158-0.179,0.295-0.247c2.39-1.195,3.951-3.273,3.951-5.979
		c0-0.593,0.509-2.49-0.04-2.828c-0.975-0.6-2.742,1.4-2.742-1.656c0-0.557,0.439-0.756-0.08-1.131
		c-1.403-1.015-0.354-1.539,0.201-2.586c0.355-0.67-0.74-1.253-0.563-2.142c0.093-0.47,2.313-3.53,2.7-3.798
		c0.939-0.649,1.881,0.58,2.701-1.252c0.39-0.867,1.089-0.198,1.859-0.259l0.087-20.077l-0.011-0.008l0.225-53.005l0.342-80.661
		l0.289-68.479l0.158-37.088l0.099-23.433l0.132-30.872c-0.063-0.195-0.116-0.395-0.154-0.6c-0.141-0.743,0.064-1.854-0.282-2.505
		c0-0.459-0.046-0.912-0.102-1.354c-0.406-0.509-1.35-1.054-1.451-1.777c-0.044-0.044-0.07-0.068-0.102-0.122
		c-0.045-0.025-0.063-0.045-0.101-0.081c-0.3,0-0.894,0.039-1.068-0.243c-0.711-0.323-1.63-1.823-1.915-2.525
		c-0.472-1.161-0.474-2.422-1.049-3.576c-0.346-0.695-1.021-1.243-1.351-1.899c-0.389-1.169-0.715-2.26-0.867-3.495
		c-0.098-0.799,0.005-1.75-0.181-2.504c-2.027-0.514,1.104-3.581,0.645-4.101c-0.255-0.29-0.935,0.078-1.27-0.162
		c-0.685-0.489-0.382-1.208-0.646-1.858c-0.138-0.339-0.286-0.487-0.403-0.889c-0.106-1.429-0.939-2.86-1.289-4.221
		c-0.259-1.009,0.063-1.348,0.646-2.081c-0.008-0.055-0.021-0.106-0.081-0.121c-0.021-0.087-0.822-0.278-0.967-0.424
		c-0.281-0.282-0.532-0.576-0.646-0.95c-0.384-1.256-0.598-2.558-0.766-3.878c-0.108-0.846-0.535-1.51-0.807-2.282
		c-0.457-1.774-0.354-3.419-0.666-5.151c-0.071-0.398-1.262-3.039-1.472-3.131c-0.456-0.201-1.843-0.977-2.097-1.333
		c-0.406-0.045-1.823-1.89-2.036-2.303c-0.478-0.929-1.02-1.933-1.371-2.929l-1.309-2.392l-1.434-2.618l-2.883-4.888
		c-0.479-0.812-0.616-2.496-1.129-3.151c-0.008-0.09-0.002-0.074-0.061-0.142c-0.019-0.147-0.091-0.311-0.121-0.464
		c-0.049-0.649-0.465-2.11-0.808-2.667c-0.147-0.709-0.552-1.36-0.744-2.04c-0.211-0.739-0.292-1.489-0.425-2.243
		c-0.215-1.23,0.104-3.113-0.303-4.202c0-0.291-0.008-0.721,0.081-0.99v-0.101c0.061-0.163,0.05-0.404,0.102-0.586
		c0-0.795,0.019-1.344,0.343-2.081c0.203-0.461-0.031-1.373,0.242-1.717c0.062-0.501,0.918-1.384,1.169-1.919
		c0.375-0.799,0.525-1.791,0.706-2.666c0.405-1.988,0.501-4.018,0.321-6.061c0-1.335,0.241-2.598,0.403-3.919
		c0.174-1.413-0.03-2.78-0.182-4.161l-0.04-0.081c-0.015-0.149-0.073-0.349-0.143-0.485c-0.019-0.231,0.035-0.11-0.068-0.32
		l-40.021-0.178l-1.895-0.008l-9.623,0.204l-4.777-0.384l-24.211,0.505L451.27,22.73l-23.08-0.186l-46.324-0.372l-52.312-0.42
		l-74.397-0.598c-0.159,0.38-0.367,0.77-0.634,1.172c-0.543,0.821-0.541,1.554-0.04,2.626c1.042,2.233,2.418,2.138,4.112,3.515
		c0.821,0.667,2.651,1.188,3.669,1.576c2.025,0.769,0.767,3.063,2.983,3.959c2.107,0.852,4.021,2.363,5.806,3.797
		c0.65,0.523,2.614,2.443,3.145,2.909c1.506,1.321,3.498,4.99,3.226,6.949c-0.827,5.94,0.803,8.227,4.233,12.807
		c1.228,1.64,4.244,2.062,6.007,2.909c0.827,0.396,1.577,0.83,2.316,1.259c1.318,0.767,2.601,1.524,4.216,2.053
		c0.968,0.317,3.185,1.156,3.911,1.778c1.021,0.874,0.668,2.01,1.33,3.111c0.934,1.549,2.476,0.427,3.791,1.172
		c1.885,1.065,0.281,5.24,0.281,6.868c0,1.295,0.114,2.924,0.727,4.081c0.55,1.04,0.984,2.508,1.613,3.556
		c0.039,0.067,0.101,0.126,0.119,0.202c0.089,0.332,0.135,0.673,0.202,1.01c0.01,0.053,0.092,0.66,0.168,0.685
		c0,1.854-1.294,3.216-1.653,4.94c-0.235,1.126-0.412,2.233-0.242,3.386c0.104,0.697,0.223,1.486,0.24,2.203
		c0,0.06,0.002,0.121,0.002,0.18c0,0.714-0.518,1.447-0.518,2.107l0.188,1.855c-0.107,0.292-0.221,0.931-0.321,1.208
		c-0.114,0.308-0.771,1.443-0.968,1.697c-0.836,1.071-0.443,4.283-0.443,5.616c0,2.999-0.473,2.713-2.057,4.808
		c-0.069,0.092-0.078,0.1-0.201,0.121c-0.821,0.145-1.881,0.682-2.836,1.278c-0.698,0.435-1.343,0.901-1.8,1.268
		c-2.197,1.761-5.808,2.173-7.136,5.01c-1.45,3.095,1.35,5.796-1.169,8.686c-2.467,2.83-1.413,8.701-1.976,12.282
		c-0.01,0.064-0.045,0.108-0.121,0.121c-1.632,0.283-5.066,1.536-6.37,2.667c-2.652,2.299-4.374,6.828-8.507,6.828
		c-1.718,0-3.011-1.333-4.596-1.333c-0.948,0-3.644,1.353-4.556,1.656c-1.004,0.334-1.59,0.718-1.693,1.737
		c-0.02,0.198-0.2,0.376-0.363,0.485c-0.04,0.026-0.081,0.054-0.121,0.081c-0.359,0.24-0.314,0.073-0.483,0.243
		c-0.247,0.248-0.52,0.442-0.726,0.727c-0.163,0.227-0.338,0.481-0.524,0.687c-0.13,0.144-0.312,0.259-0.443,0.404
		c-0.642,0.708-1.549,1.59-2.258,2.061c-0.592,0.393-1.646,0.792-2.5,0.929c-1.83,0.294-3.538,1.006-5.403,1.292
		c-3.388,0.521-7.398-0.687-10.926-0.687c-1.775,0-2.676,0.446-3.87,1.737c-1.112,1.203-2.513,1.847-4.112,1.979
		c-0.161,0.014-0.323,0.027-0.484,0.041c-0.139,0.011-0.162,0.014-0.282,0.081c-1.63,0.904-5.432-0.732-7.177-0.808
		c-1.873-0.081-5.408,1.178-6.249,2.868c-0.537,1.079,0.28,2.281,0.04,3.434c-0.227,1.094-1.084,1.918-1.572,3.03
		c-0.128,0.292-0.226,0.766-0.306,1.34c-0.264,1.875-0.351,4.817-0.742,5.932c-0.329,0.939-0.963,2.167-1.331,3.03
		c-0.416,0.98-1.066,2.196-1.29,3.232c-0.053,0.245-0.3,0.395-0.363,0.646c-0.215,0.861-0.805,1.31-0.403,2.222
		c0.188,0.425,1.124,1.396,1.412,1.656c0.866,0.782,1.59,1.724,2.5,2.343c0.111,0.076,0.248,0.281,0.282,0.445
		c0.272,1.272,2.769,5.627,4.152,5.696c2.131,0.106,2.695-0.783,3.992,1.414c1.399,2.37,2.443,5.415,4.112,7.555
		c0.188,0.241,0.294,0.555,0.352,0.909c0.158,0.978-0.062,2.255,0.011,3.09c0.13,1.491,0.654,4.4,0.363,5.939
		c-0.32,1.692-0.281,3.718-1.008,5.252c-0.387,0.816,0.216,3.872-0.202,4.969c-0.203,0.533-0.733,1.548-1.331,2.101
		c-1.412,1.307-2.477,1.691-3.507,3.555c-0.736,1.332-1.782,2.272-2.701,3.394c-1.047,1.277-1.692,3.498-2.983,4.484
		c-1.621,1.237-2.928,2.297-2.983,4.525c-0.015,0.61-0.406,1.421-0.081,2.02c0.171,0.315,0.46,1.028,0.726,1.212
		c1.375,0.95,1.328,3.423,0.847,4.687c-0.748,1.966-1.741,3.301-2.096,5.454c-0.261,1.577-0.577,3.609-1.774,4.808
		c-0.506,0.506-1.034,0.88-1.577,1.238c-0.422,0.279-0.852,0.548-1.286,0.863c-1.926,1.396-2.53,2.205-4.959,2.667
		c-2.194,0.417-4.415,0.337-6.612,0.889c-1.505,0.378-4.18,1.712-5.604,2.061c-3.737,0.915-13.076,6.974-8.668,11.151
		c1.992,1.888,4.384,2.75,3.387,6.141c-0.939,3.194-2.558,4.802-1.008,8.282c0.443,0.995,0.949,2.3,0.887,3.394
		c-0.008,0.135-0.088,0.168-0.121,0.323c-0.211,0.986-1.847,1.984-2.742,2.021c-1.387,0.056-2.491,0.716-3.427,1.616
		c-0.142,0.136-0.293,0.285-0.449,0.439c-0.466,0.464-0.971,0.989-1.366,1.419c-1.922,2.096-3.256,6.625-3.911,9.414
		c-0.382,1.625,0.542,3.044,0.161,4.767c-0.18,0.814-0.542,1.531-0.909,2.246c-0.529,1.029-1.072,2.056-1.107,3.37
		c-0.016,0.608-0.265,1.065,0,1.535c0.812,1.442-0.337,4.443-0.847,5.778c-1.121,2.937,0.681,8.702,1.613,11.595
		c0.497,1.542-0.055,3.084,0.887,4.525c0.99,1.516,2.071,4.312,2.862,5.939c1.024,2.106,1.667,4.832,3.588,6.585
		c0.641,0.585,0.459,1.97-0.202,2.747c-0.672,0.79-1.497,1.641-2.016,2.667c-0.627,1.238-0.509,2.765,0,3.919
		c1.107,2.509,2.252,3.574,4.798,5.131c1.135,0.694,1.962,1.642,2.822,2.828c0.453,0.625,0.919,1.461,1.118,2.229
		c0.046,0.177,0.078,0.351,0.092,0.518c0.09,1.072-0.747,2.069-0.968,3.111c-0.253,1.191-0.362,1.985,0.121,3.03
		c0.736,1.595,1.098,2.547,2.661,3.879c1.976,1.683,3.951,3.366,5.927,5.05c1.089,0.928,3.524,4.205,4.757,5.051
		c3.625,2.485,5.43,3.714,6.572,8.16c1.116,4.342,4.632,1.045,7.096,3.395c2.905,2.771,3.112,8.498,5.806,11.354
		c0.906,0.96,2.018,1.736,3.164,2.472c1.157,0.742,2.351,1.444,3.408,2.255c1.059,0.812,2.35,1.312,3.508,1.939
		c1.094,0.594,1.767,1.797,2.661,2.464c0.325,0.243,3.405,2.709,3.628,2.788c0.19,0.066,0.762,0.514,0.887,0.646
		c0.598,0.636,2.073,1.505,2.782,2.263c1.89,2.017,3.726,2.714,5.927,4.242c1.444,1.002,1.687,2.525,2.419,3.999
		c0.491,0.984,1.892,1.41,2.581,2.384c1.111,1.571,0.935,4.549,1.209,6.464c0.39,2.721,0.794,5.439,1.169,8.161
		c0.027,0.2,0.027,0.404,0.04,0.605c0.136,2.044,3.205,3.742,2.298,6.021c-0.761,1.911-2.258,2.581-2.258,4.97
		c0,3.426,2.875,5.23,2.983,8.484c0.096,2.887,0.921,6.926,2.742,9.292c0.476,0.618,0.7,1.263,1.209,1.817
		c0.349,0.382,0.777,0.975,1.169,1.333c0.589,0.537,1.363,1.271,2.096,1.777c0.991,0.688,1.941,1.126,3.064,1.252
		c3.47,0.391,5.204-2.213,6.814-5.131c1.431-2.594,3.168-5.479,5.695-6.867c0.103-0.057,0.207-0.111,0.312-0.162
		c2.402-1.171,4.371-0.068,6.612,1.454c3.258,2.216,4.402,3.03,8.627,3.395c1.632,0.141,3.066,0.529,4.389,1.136
		c1.997,0.915,3.742,2.323,5.529,4.117c3.375,3.383,12.521,2.667,8.709,10.141c-1.122,2.199-2.923,3.605-4.919,5.131
		c-0.878,0.67-1.45,2.18-2.338,3.07c-0.81,0.811-1.987,2.345-2.379,3.19c-0.634,1.369-0.166,1.785,0.847,3.07
		c0.45,0.572,0.17,0.165,0.281,0.404c0.123,0.261,0.82,1.367,1.244,2.177c0.191,0.367,0.329,0.675,0.329,0.812
		c0,0.055,0,0.107,0,0.161c0,2.046-0.201,8.848-1.693,10.263c-1.614,1.529-3.481,3.521-4.718,5.656
		c-0.073,0.125-0.146,0.255-0.219,0.386c-1.541,2.753-3.046,6.435-3.208,9.513c-0.077,1.469,0.187,2.971-0.686,4.08
		c-1.102,1.4-2.204,2.802-3.306,4.202c-4.479,5.692-6.523,12.689-4.637,19.958c0.396,1.527,2.563,6.65,3.387,7.838
		c0.675,0.974,2.397,1.159,3.185,1.535c2.204,1.052,3.208,3.113,4.314,5.333c0.953,1.915,1.852,3.081,3.225,4.687
		c0.518,0.604,1.421,1.376,2.354,2.075c0.821,0.617,1.665,1.178,2.282,1.521c1.678,0.929,5.131,0.012,6.008,1.615
		c0.903,1.653,0.101,3.798,2.621,4.768c2.442,0.939,5.185,1.946,6.53,4c1.623,2.474,3.232,3.896,5.968,3.312
		c0.874-0.187,1.921-0.744,2.935-1.059c0.993-0.202,1.392,1.833,0.855,2.433c-0.653,0.731-2.303,1.017-2.701,1.575
		c-3.595,0.513,1.172,6.562,1.976,7.636c3.254,4.354,6.854-2.758,10.506-2.324c0.361,0.365,0.722,0.77,1.146,1.193
		c1.73,1.734,3.114,1.28,5.241,2.505c0.828,0.478,3.792,3.765,4.313,4.565c0.786,1.206,1.499,1.644,2.983,2.303
		c1.166,0.518,2.316,0.741,3.104,1.449c0.413,0.37,0.727,0.874,0.888,1.621c0.252,1.164-0.635,3.718-0.201,4.687
		c0.983,2.211,9.276,5.749,11.45,6.264c1.596,0.377,3.173,0.973,3.507,2.707c0.153,0.799-0.083,1.648-0.201,2.424
		c-0.186,1.206,0.062,2.146,0.201,3.312c0.09,0.757,0.322,1.19,0.887,1.616c0.852,0.643,0.082,2.32-0.544,3.567
		c-0.265,0.525-0.504,0.977-0.584,1.239c-0.578,1.888,0.12,5.22,0.806,7.151c0.632,1.777,1.27,3.553,1.896,5.332
		c0.018,0.053,0.025,0.108,0.04,0.162c0.859,3.434,6.766,6.682,6.895,10.343c0.097,2.771,0.662,6.02-1.653,7.717
		c-0.602,0.441-3.703,0.984-4.232,1.494c-0.801,0.771-1.602,1.542-2.401,2.312c-0.232,0.226-0.469,0.451-0.703,0.678
		c-1.337,1.288-2.251,4.438-1.49,6.424c1.29,3.372,6.475-0.492,7.378,2.021c0.438,1.224-1.137,2.672-1.21,3.919
		c-0.127,2.123,0.926,3.8,1.813,5.655c1.467,3.062,1.872,3.972,4.436,6.344c1.572,1.457,3.405,2.713,2.781,5.212
		c-0.445,1.788-1.392,3.271-0.604,5.051c0.368,0.833,3.466,1.645,4.354,2.141c1.523,0.853,2.806,1.576,3.91,2.949
		c1.978,2.457,6.049-0.767,4.072-2.747c-1.379-1.381-3.145-1.975-4.717-3.11c-2.749-1.985,2.784-8.685,5.08-4.728
		c0.826,1.426,0.721,3.521,1.531,5.051c0.832,1.57,2.746,1.725,3.709,3.029c0.823,1.117,0.676,3.661,1.25,4.97
		c1.082,2.46,3.54,0.312,4.799,0.04c0.354-0.076,0.725-0.31,1.098-0.464c-0.524-0.604-1.245-1.097-1.743-1.718
		c-0.389-0.483-1.552-1.616-1.773-2.102c-0.366-0.797-0.809-1.521-0.848-2.626c-0.023-0.709-0.053-1.351-0.028-1.956
		c0.047-1.197,0.3-2.258,1.197-3.417c1.795-2.316,4.404-3.181,6.129-5.817c1.864-2.852,1.627-5.213,4.839-7.797
		c4.512-3.633,9.129-4.622,13.744-3.979c3.719,0.52,7.437,2.098,11.097,4.212c2.291,1.322,3.647,3.237,5.797,4.669
		c1.795,1.197,10.354,3.894,12.639,4.106c3.781,0.353,8.614,9.141,14.052,7.044c0.907-0.352,1.834-1.005,2.773-2.053
		c5.982-6.672,3.167-11.052,1.369-17.792c-0.034-0.128-0.218-0.437-0.322-0.563c-0.085-0.104-0.095-0.17-0.161-0.322
		c-0.036-0.081-0.284-0.616-0.401-0.724c-0.164-0.149-0.381-0.531-0.646-0.725c-0.173-0.128-0.303-0.27-0.481-0.483
		c-0.122-0.145-1-0.768-1.208-0.886c-0.562-0.318-1.236-1.052-1.771-1.288c-0.146-0.064-0.909-0.934-0.966-1.047
		c-0.026-0.053-0.054-0.107-0.08-0.16c-1.819-3.639,1.275-6.153,2.737-9.661c1.856-4.46,0.211-7.426,4.99-10.062
		c0.525-0.29,1.285-0.176,2.104,0.14c1.319,0.506,2.794,1.527,3.691,2.194c2.156,1.604,3.234-3.672,5.555-4.509
		c5.55-2.004,11.309-2.349,16.985-4.104c4.519-1.398,8.213-0.116,8.213-6.36c0-2.559-2.266-4.205-4.123-5.838
		c-0.076-0.065-0.15-0.133-0.226-0.199c-3.646-3.269-5.296-9.046-4.104-13.686c0.901-3.519,8.153-5.478,10.144-8.775
		c1.02-1.688,0.744-4.806,1.529-6.521c0.278-0.61,0.506-1.021,1.061-1.146c-0.038-1.113-0.215-1.403-1.301-1.07
		c-0.951,0.291-1.795,1.359-2.863,0.889c-0.932-0.412-2.202-1.315-2.378-2.424c-0.435-2.729,3.055-0.278,3.87-0.243
		c0.862,0.037,3.398-0.709,2.218-1.817c-0.633-0.594-1.771-0.721-2.54-1.253c-1.184-0.82-1.682-2.594-2.379-3.798
		c-0.537-0.928-1.644-1.728-2.083-2.564c-0.247-0.471-0.282-0.952,0.107-1.476c1.041-1.394,3.129,1.988,4.798,2.062
		c2.154,0.093,4.475-1.752,2.983-3.191c-0.994-0.959-2.396,0.47-3.711-0.242c-0.296-0.161-0.765-0.537-0.726-0.89
		c0.003-0.024,2.133-0.315,2.379-0.403c1.376-0.493,0.768-1.874,0.768-2.909c0-0.398,0.411-0.614,0.766-0.687
		c0.816-0.166,1.288-0.325,1.33-1.172c0.08-1.604-1.088-3.354-1.088-4.93c0-1.408,2.112-3.048,1.29-3.637
		c-0.832-0.596-2.159,1.136-3.104,0.242c-0.849-0.801-0.418-2.811,0.929-2.747c2.084,0.1,3.487,0.443,5.24-0.808
		c0.875-0.625,1.739-2.329,1.936-3.354c0.174-0.913,0.227-1.149,0.161-2.02c-0.071-0.959,1.423-1.63,1.089-3.272
		c-0.172-0.847,0.181-0.992,0.767-1.495c0.853-0.73,1.325-1.188,1.169-2.263c-0.324-2.225-2.955-2.725-3.991-4.688
		c-0.97-1.835-1.314-3.635-0.402-5.776c0.259-0.609,0.027-1.21-0.247-1.81c-0.393-0.847-0.875-1.69-0.196-2.555
		c0.944-1.2,1.808,0.882,3.306-1.01c0.523-0.66,2.271-3.055,3.023-2.505c1.199,0.874-1.597,3.396,0.121,3.959
		c2.171,0.711,2.192-4.634,4.072-5.413c1.358-0.564,1.4,0.632,1.129,1.695c-0.34,1.332-0.654,2.522,0.363,2.909
		c3.808,1.446,0.195-11.596,6.328-11.596c3.013,0,8.229-10.071,6.049-11.354c-3.37-1.979-1.375-4.262,0.646-3.636
		c3.24,1.004,3.976-3.416,6.289-2.949c4.276,0.863,0.154-3.357-0.242-4.483c-0.442-1.26,1.164-1.146,1.653-2.103
		c0.361-0.705-0.355-1.552,0.968-2.141c0.396-0.177,0.278-1.246,0.366-1.953c0.048-0.384,0.156-0.661,0.439-0.633
		c0.926,0.094,1.007,1.454,2.259,0.202c0.715-0.715-0.836-1.261-1.089-1.737c-0.381-0.719,0.678-1.315,0.968-1.897
		c0.288-0.581-1.445-3.576,0.241-3.476c1.121,0.066,0.753-1.393,1.451-2.223c1.181-1.397,2.659-1.406,4.354-1.656
		c1.021-0.15,1.72-0.387,2.539-1.051c1.089-0.882,0.995-2.019,1.452-3.11c0.288-0.688-0.145-1.202,0.281-1.817
		c0.594-0.858,0.969-1.262,0.969-2.385c0-1.02,0.454-2.03,0.201-2.948c-0.138-0.495-1.197-0.139-1.371-0.728
		C570.642,517.137,572.178,517.229,572.547,516.472z M510.072,672.564c-0.383-0.061-0.811-0.106-1.235-0.166
		C509.255,672.453,509.675,672.499,510.072,672.564z"/>
</g>
<g id="CountiesNames">
	<text transform="matrix(1 0 0 1 188.4644 357.3145)" font-family="'ArialNarrow'" font-size="8">A</text>
	<text transform="matrix(1 0 0 1 193.8003 357.3145)" font-family="'ArialNarrow'" font-size="8">dams</text>
	<text transform="matrix(1 -0.004 -0.1019 0.9948 370.7627 728.2402)" font-family="'ArialNarrow'" font-size="8">A</text>
	<text transform="matrix(1 -0.004 -0.1019 0.9948 376.0986 728.2188)" font-family="'ArialNarrow'" font-size="8">lexander</text>
	<text transform="matrix(1 0 0 1 368.752 502.1523)" font-family="'ArialNarrow'" font-size="8">B</text>
	<text transform="matrix(1 0 0 1 374.0879 502.1523)" font-family="'ArialNarrow'" font-size="8">ond </text>
	<text transform="matrix(0.9999 -0.016 0.0131 0.9999 429.7725 44.5366)" font-family="'ArialNarrow'" font-size="8">B</text>
	<text transform="matrix(0.9999 -0.016 0.0131 0.9999 435.1074 44.4517)" font-family="'ArialNarrow'" font-size="8">oone </text>
	<text transform="matrix(1 0 0 1 236.1396 363.9072)" font-family="'ArialNarrow'" font-size="8">B</text>
	<text transform="matrix(1 0 0 1 241.4756 363.9072)" font-family="'ArialNarrow'" font-size="8">rown </text>
	<text transform="matrix(1 0 0 1 354.1279 170.1426)" font-family="'ArialNarrow'" font-size="8">B</text>
	<text transform="matrix(1 0 0 1 359.4639 170.1426)" font-family="'ArialNarrow'" font-size="8">ureau</text>
	<text transform="matrix(1 0.0057 -0.0048 1 242.2852 459.8291)" font-family="'ArialNarrow'" font-size="8">C</text>
	<text transform="matrix(1 0.0057 -0.0048 1 248.062 459.8623)" font-family="'ArialNarrow'" font-size="8">alhoun</text>
	<text transform="matrix(1 0 0 1 314.002 83.2275)" font-family="'ArialNarrow'" font-size="8">C</text>
	<text transform="matrix(1 0 0 1 319.7793 83.2275)" font-family="'ArialNarrow'" font-size="8">arroll </text>
	<text transform="matrix(1 0 0 1 287.791 359.8057)" font-family="'ArialNarrow'" font-size="8">C</text>
	<text transform="matrix(1 0 0 1 293.5679 359.8057)" font-family="'ArialNarrow'" font-size="8">ass </text>
	<text transform="matrix(1 0 0 1 480.7793 343.3271)" font-family="'ArialNarrow'" font-size="8">C</text>
	<text transform="matrix(1 0 0 1 486.5566 343.3271)" font-family="'ArialNarrow'" font-size="8">hampaign</text>
	<text transform="matrix(1 0 0 1 377.1602 419.7998)" font-family="'ArialNarrow'" font-size="8">C</text>
	<text transform="matrix(1 0 0 1 382.9375 419.7998)" font-family="'ArialNarrow'" font-size="8">hristian </text>
	<text transform="matrix(1 0 0 1 531.2051 444.5605)" font-family="'ArialNarrow'" font-size="8">C</text>
	<text transform="matrix(1 0 0 1 536.9824 444.5605)" font-family="'ArialNarrow'" font-size="8">lark </text>
	<text transform="matrix(1 0 0 1 463.6777 522.1504)" font-family="'ArialNarrow'" font-size="8">C</text>
	<text transform="matrix(1 0 0 1 469.4551 522.1504)" font-family="'ArialNarrow'" font-size="8">lay</text>
	<text transform="matrix(1 0 0 1 368.0312 538.9688)" font-family="'ArialNarrow'" font-size="8">C</text>
	<text transform="matrix(1 0 0 1 373.8086 538.9688)" font-family="'ArialNarrow'" font-size="8">linton</text>
	<text transform="matrix(1 0 0 1 489.1328 419.9766)" font-family="'ArialNarrow'" font-size="8">C</text>
	<text transform="matrix(1 0 0 1 494.9102 419.9766)" font-family="'ArialNarrow'" font-size="8">oles</text>
	<text transform="matrix(1 0 0 1 537.0586 117.792)" font-family="'ArialNarrow'" font-size="8">C</text>
	<text transform="matrix(1 0 0 1 542.8359 117.792)" font-family="'ArialNarrow'" font-size="8">ook </text>
	<text transform="matrix(1 0 0 1 528.873 489.5439)" font-family="'ArialNarrow'" font-size="8">C</text>
	<text transform="matrix(1 0 0 1 534.6504 489.5439)" font-family="'ArialNarrow'" font-size="8">rawford </text>
	<text transform="matrix(1 0 0 1 478.2227 452.6289)" font-family="'ArialNarrow'" font-size="8">C</text>
	<text transform="matrix(1 0 0 1 484 452.6289)" font-family="'ArialNarrow'" font-size="8">umberland</text>
	<text transform="matrix(1 0 0 1 416.2012 334.5322)" font-family="'ArialNarrow'" font-size="8">D</text>
	<text transform="matrix(1 0 0 1 421.9785 334.5322)" font-family="'ArialNarrow'" font-size="8">e Witt </text>
	<text transform="matrix(1 0 0 1 431.9238 110.0352)" font-family="'ArialNarrow'" font-size="8">D</text>
	<text transform="matrix(1 0 0 1 437.7012 110.0352)" font-family="'ArialNarrow'" font-size="8">eKalb</text>
	<text transform="matrix(1 0 0 1 482.0039 387.1318)" font-family="'ArialNarrow'" font-size="8">D</text>
	<text transform="matrix(1 0 0 1 487.7812 387.1318)" font-family="'ArialNarrow'" font-size="8">ouglas</text>
	<text transform="matrix(1 0 0 1 498.2051 113.9961)" font-family="'ArialNarrow'" font-size="8">D</text>
	<text transform="matrix(1 0 0 1 503.9824 113.9961)" font-family="'ArialNarrow'" font-size="8">uPage </text>
	<text transform="matrix(1 0 0 1 535.998 398.5098)" font-family="'ArialNarrow'" font-size="8">E</text>
	<text transform="matrix(1 0 0 1 541.334 398.5098)" font-family="'ArialNarrow'" font-size="8">dgar </text>
	<text transform="matrix(1 -0.0039 0.0027 1 502.917 566.3184)" font-family="'ArialNarrow'" font-size="8">E</text>
	<text transform="matrix(1 -0.0039 0.0027 1 508.2529 566.2979)" font-family="'ArialNarrow'" font-size="8">dwards </text>
	<text transform="matrix(1 0 0 1 444.9629 480.6162)" font-family="'ArialNarrow'" font-size="8">E</text>
	<text transform="matrix(1 0 0 1 450.2988 480.6162)" font-family="'ArialNarrow'" font-size="8">ffingham</text>
	<text transform="matrix(1 0 0 1 405.9902 489.9688)" font-family="'ArialNarrow'" font-size="8">F</text>
	<text transform="matrix(1 0 0 1 410.877 489.9688)" font-family="'ArialNarrow'" font-size="8">ayette </text>
	<text transform="matrix(1 0 0 1 483.5273 287.6523)" font-family="'ArialNarrow'" font-size="8">F</text>
	<text transform="matrix(1 0 0 1 488.4141 287.6523)" font-family="'ArialNarrow'" font-size="8">ord</text>
	<text transform="matrix(1 0 0 1 413.6699 620.0186)" font-family="'ArialNarrow'" font-size="8">F</text>
	<text transform="matrix(1 0 0 1 418.5566 620.0186)" font-family="'ArialNarrow'" font-size="8">ranklin</text>
	<text transform="matrix(1 0 0 1 289.8101 293.6396)" font-family="'ArialNarrow'" font-size="8">F</text>
	<text transform="matrix(1 0 0 1 294.6973 293.6396)" font-family="'ArialNarrow'" font-size="8">ulton </text>
	<text transform="matrix(1 0 0 1 487.4043 649.0771)" font-family="'ArialNarrow'" font-size="8">G</text>
	<text transform="matrix(1 0 0 1 493.627 649.0771)" font-family="'ArialNarrow'" font-size="8">allatin </text>
	<text transform="matrix(1 0 0 1 268.6226 440.7861)" font-family="'ArialNarrow'" font-size="8">G</text>
	<text transform="matrix(1 0 0 1 274.8457 440.7861)" font-family="'ArialNarrow'" font-size="8">reene </text>
	<text transform="matrix(1 0 0 1 466.0801 185.8789)" font-family="'ArialNarrow'" font-size="8">G</text>
	<text transform="matrix(1 0 0 1 472.3027 185.8789)" font-family="'ArialNarrow'" font-size="8">rundy</text>
	<text transform="matrix(1 0.0047 -0.0035 1 453.9668 611.3369)" font-family="'ArialNarrow'" font-size="8">H</text>
	<text transform="matrix(1 0.0047 -0.0035 1 459.7441 611.3643)" font-family="'ArialNarrow'" font-size="8">amilton </text>
	<text transform="matrix(1 0 0 1 190.4634 302.6846)" font-family="'ArialNarrow'" font-size="8">H</text>
	<text transform="matrix(1 0 0 1 196.2402 302.6846)" font-family="'ArialNarrow'" font-size="8">ancock</text>
	<text transform="matrix(1 0 0 1 484.4941 681.4453)" font-family="'ArialNarrow'" font-size="8">H</text>
	<text transform="matrix(1 0 0 1 490.2715 681.4453)" font-family="'ArialNarrow'" font-size="8">ardin</text>
	<text transform="matrix(1 -0.0047 0.0037 1 211.042 249.7363)" font-family="'ArialNarrow'" font-size="8">H</text>
	<text transform="matrix(1 -0.0047 0.0037 1 216.8188 249.709)" font-family="'ArialNarrow'" font-size="8">enderson</text>
	<text transform="matrix(1 0 0 1 298.8291 178.6191)" font-family="'ArialNarrow'" font-size="8">H</text>
	<text transform="matrix(1 0 0 1 304.6055 178.6191)" font-family="'ArialNarrow'" font-size="8">enry </text>
	<text transform="matrix(1 0 0 1 524.8418 257.2607)" font-family="'ArialNarrow'" font-size="8">I</text>
	<text transform="matrix(1 0 0 1 527.0645 257.2607)" font-family="'ArialNarrow'" font-size="8">roquois</text>
	<text transform="matrix(1 0 0 1 366.998 646.3994)" font-family="'ArialNarrow'" font-size="8">J</text>
	<text transform="matrix(1 0 0 1 370.998 646.3994)" font-family="'ArialNarrow'" font-size="8">ackson </text>
	<text transform="matrix(1 0 0 1 492.7109 486.4922)" font-family="'ArialNarrow'" font-size="8">J</text>
	<text transform="matrix(1 0 0 1 496.7109 486.4922)" font-family="'ArialNarrow'" font-size="8">asper </text>
	<text transform="matrix(1 0 0 1 411.2793 581.0908)" font-family="'ArialNarrow'" font-size="8">J</text>
	<text transform="matrix(1 0 0 1 415.2793 581.0908)" font-family="'ArialNarrow'" font-size="8">efferson</text>
	<text transform="matrix(1 0 0 1 272.4639 477.293)" font-family="'ArialNarrow'" font-size="8">J</text>
	<text transform="matrix(1 0 0 1 276.4639 477.293)" font-family="'ArialNarrow'" font-size="8">ersey </text>
	<text transform="matrix(1 0 0 1 282.96 43.7832)" font-family="'ArialNarrow'" font-size="8">J</text>
	<text transform="matrix(1 0 0 1 286.96 43.7832)" font-family="'ArialNarrow'" font-size="8">o Daviess </text>
	<text transform="matrix(1 0 0 1 420.2422 689.5439)" font-family="'ArialNarrow'" font-size="8">J</text>
	<text transform="matrix(1 0 0 1 424.2422 689.5439)" font-family="'ArialNarrow'" font-size="8">ohnson</text>
	<text transform="matrix(1 0 0 1 469.4707 104.0391)" font-family="'ArialNarrow'" font-size="8">K</text>
	<text transform="matrix(1 0 0 1 474.8066 104.0391)" font-family="'ArialNarrow'" font-size="8">ane </text>
	<text transform="matrix(1 0 0 1 520.0742 209.0527)" font-family="'ArialNarrow'" font-size="8">K</text>
	<text transform="matrix(1 0 0 1 525.4102 209.0527)" font-family="'ArialNarrow'" font-size="8">ankakee</text>
	<text transform="matrix(1 0 0 1 465.1562 147.792)" font-family="'ArialNarrow'" font-size="8">K</text>
	<text transform="matrix(1 0 0 1 470.4922 147.792)" font-family="'ArialNarrow'" font-size="8">endall </text>
	<text transform="matrix(1 0 0 1 291.0464 234.1934)" font-family="'ArialNarrow'" font-size="8">K</text>
	<text transform="matrix(1 0 0 1 296.3823 234.1934)" font-family="'ArialNarrow'" font-size="8">nox </text>
	<text transform="matrix(1 0 0 1 510.5938 47.5938)" font-family="'ArialNarrow'" font-size="8">L</text>
	<text transform="matrix(1 0 0 1 515.043 47.5938)" font-family="'ArialNarrow'" font-size="8">ake </text>
	<text transform="matrix(1 0 0 1 421.248 178.6191)" font-family="'ArialNarrow'" font-size="8">L</text>
	<text transform="matrix(1 0 0 1 425.6973 178.6191)" font-family="'ArialNarrow'" font-size="8">aSalle </text>
	<text transform="matrix(1 0 0 1 535.5371 524.9736)" font-family="'ArialNarrow'" font-size="8">L</text>
	<text transform="matrix(1 0 0 1 539.9863 524.9736)" font-family="'ArialNarrow'" font-size="8">awrence</text>
	<text transform="matrix(1 0 0 1 384.6934 124.1074)" font-family="'ArialNarrow'" font-size="8">L</text>
	<text transform="matrix(1 0 0 1 389.1426 124.1074)" font-family="'ArialNarrow'" font-size="8">ee</text>
	<text transform="matrix(1 0 0 1 447.041 238.9541)" font-family="'ArialNarrow'" font-size="8">L</text>
	<text transform="matrix(1 0 0 1 451.4902 238.9541)" font-family="'ArialNarrow'" font-size="8">ivingston</text>
	<text transform="matrix(1 0 0 1 374.0117 336.4873)" font-family="'ArialNarrow'" font-size="8">L</text>
	<text transform="matrix(1 0 0 1 378.4609 336.4873)" font-family="'ArialNarrow'" font-size="8">ogan</text>
	<text transform="matrix(1 0 0 1 413.1602 374.4961)" font-family="'ArialNarrow'" font-size="8">M</text>
	<text transform="matrix(1 0 0 1 419.8242 374.4961)" font-family="'ArialNarrow'" font-size="8">acon </text>
	<text transform="matrix(1 0 0 1 312.2656 453.3682)" font-family="'ArialNarrow'" font-size="8">M</text>
	<text transform="matrix(1 0 0 1 318.9297 453.3682)" font-family="'ArialNarrow'" font-size="8">acoupin </text>
	<text transform="matrix(1 0 0 1 318.0176 510.7773)" font-family="'ArialNarrow'" font-size="8">M</text>
	<text transform="matrix(1 0 0 1 324.6816 510.7773)" font-family="'ArialNarrow'" font-size="8">adison</text>
	<text transform="matrix(1 0 0 1 416.0234 535.8516)" font-family="'ArialNarrow'" font-size="8">M</text>
	<text transform="matrix(1 0 0 1 422.6875 535.8516)" font-family="'ArialNarrow'" font-size="8">arion </text>
	<text transform="matrix(1 0 0 1 372.5703 220.5059)" font-family="'ArialNarrow'" font-size="8">M</text>
	<text transform="matrix(1 0 0 1 379.2344 220.5059)" font-family="'ArialNarrow'" font-size="8">arshall </text>
	<text transform="matrix(1 0 0 1 320.9258 323.8184)" font-family="'ArialNarrow'" font-size="8">M</text>
	<text transform="matrix(1 0 0 1 327.5898 323.8184)" font-family="'ArialNarrow'" font-size="8">ason </text>
	<text transform="matrix(1 -0.0015 0.0012 1 437.1572 720.5908)" font-family="'ArialNarrow'" font-size="8">M</text>
	<text transform="matrix(1 -0.0015 0.0012 1 443.8213 720.5811)" font-family="'ArialNarrow'" font-size="8">assac </text>
	<text transform="matrix(1 0 0 1 235.7041 295.6768)" font-family="'ArialNarrow'" font-size="8">M</text>
	<text transform="matrix(1 0 0 1 242.3682 295.6768)" font-family="'ArialNarrow'" font-size="8">cDonough</text>
	<text transform="matrix(1 0 0 1 460.7617 49.7578)" font-family="'ArialNarrow'" font-size="8">M</text>
	<text transform="matrix(1 0 0 1 467.4258 49.7578)" font-family="'ArialNarrow'" font-size="8">cHenry</text>
	<text transform="matrix(1 0 0 1 420.9082 290.8232)" font-family="'ArialNarrow'" font-size="8">M</text>
	<text transform="matrix(1 0 0 1 427.5723 290.8232)" font-family="'ArialNarrow'" font-size="8">cLean </text>
	<text transform="matrix(1 0 0 1 327.9336 351.0107)" font-family="'ArialNarrow'" font-size="8">M</text>
	<text transform="matrix(1 0 0 1 334.5977 351.0107)" font-family="'ArialNarrow'" font-size="8">enard </text>
	<text transform="matrix(1 0 0 1 231.9644 198.2461)" font-family="'ArialNarrow'" font-size="8">M</text>
	<text transform="matrix(1 0 0 1 238.6284 198.2461)" font-family="'ArialNarrow'" font-size="8">ercer </text>
	<text transform="matrix(1 0 0 1 288.4053 584.2598)" font-family="'ArialNarrow'" font-size="8">M</text>
	<text transform="matrix(1 0 0 1 295.0693 584.2598)" font-family="'ArialNarrow'" font-size="8">onroe </text>
	<text transform="matrix(1 0 0 1 354.8906 452.2822)" font-family="'ArialNarrow'" font-size="8">M</text>
	<text transform="matrix(1 0 0 1 361.5547 452.2822)" font-family="'ArialNarrow'" font-size="8">ontgomery </text>
	<text transform="matrix(1 0 0 1 290.3154 395.4502)" font-family="'ArialNarrow'" font-size="8">M</text>
	<text transform="matrix(1 0 0 1 296.9795 395.4502)" font-family="'ArialNarrow'" font-size="8">organ</text>
	<text transform="matrix(1 0 0 1 443.1562 400.9131)" font-family="'ArialNarrow'" font-size="8">M</text>
	<text transform="matrix(1 0 0 1 449.8203 400.9131)" font-family="'ArialNarrow'" font-size="8">oultrie </text>
	<text transform="matrix(1 0 0 1 376.9941 88.0469)" font-family="'ArialNarrow'" font-size="8">O</text>
	<text transform="matrix(1 0 0 1 383.2168 88.0469)" font-family="'ArialNarrow'" font-size="8">gle </text>
	<text transform="matrix(1 0 0 1 330.7324 252.8008)" font-family="'ArialNarrow'" font-size="8">P</text>
	<text transform="matrix(1 0 0 1 336.0684 252.8008)" font-family="'ArialNarrow'" font-size="8">eoria</text>
	<text transform="matrix(1 0 0 1 373.0703 609.4912)" font-family="'ArialNarrow'" font-size="8">P</text>
	<text transform="matrix(1 0 0 1 378.4062 609.4912)" font-family="'ArialNarrow'" font-size="8">erry </text>
	<text transform="matrix(1 0 0 1 453.25 357.1797)" font-family="'ArialNarrow'" font-size="8">P</text>
	<text transform="matrix(1 0 0 1 458.5859 357.1797)" font-family="'ArialNarrow'" font-size="8">iatt </text>
	<text transform="matrix(1 0 0 1 221.1221 405.959)" font-family="'ArialNarrow'" font-size="8">P</text>
	<text transform="matrix(1 0 0 1 226.458 405.959)" font-family="'ArialNarrow'" font-size="8">ike</text>
	<text transform="matrix(1 0 0 1 455.9004 688.9492)" font-family="'ArialNarrow'" font-size="8">P</text>
	<text transform="matrix(1 0 0 1 461.2363 688.9492)" font-family="'ArialNarrow'" font-size="8">ope </text>
	<text transform="matrix(1 0.0036 -0.0032 1 401.0244 718.5527)" font-family="'ArialNarrow'" font-size="8">P</text>
	<text transform="matrix(1 0.0036 -0.0032 1 406.3604 718.5723)" font-family="'ArialNarrow'" font-size="8">ulaski </text>
	<text transform="matrix(1 0 0 1 378.2656 199.7637)" font-family="'ArialNarrow'" font-size="8">P</text>
	<text transform="matrix(1 0 0 1 383.6016 199.7637)" font-family="'ArialNarrow'" font-size="8">utnam </text>
	<text transform="matrix(1 0 0 1 322.0635 611.9951)" font-family="'ArialNarrow'" font-size="8">R</text>
	<text transform="matrix(1 0 0 1 327.8398 611.9951)" font-family="'ArialNarrow'" font-size="8">andolph </text>
	<text transform="matrix(1 0 0 1 498.3145 526.0732)" font-family="'ArialNarrow'" font-size="8">R</text>
	<text transform="matrix(1 0 0 1 504.0918 526.0732)" font-family="'ArialNarrow'" font-size="8">ichland </text>
	<text transform="matrix(1 -0.0053 0.0041 1 238.1255 172.4033)" font-family="'ArialNarrow'" font-size="8">R</text>
	<text transform="matrix(1 -0.0053 0.0041 1 243.9023 172.373)" font-family="'ArialNarrow'" font-size="8">ock Island </text>
	<text transform="matrix(1 0 0 1 455.9043 650.5273)" font-family="'ArialNarrow'" font-size="8">S</text>
	<text transform="matrix(1 0 0 1 461.2402 650.5273)" font-family="'ArialNarrow'" font-size="8">aline </text>
	<text transform="matrix(1 0 0 1 333.8887 387.8096)" font-family="'ArialNarrow'" font-size="8">S</text>
	<text transform="matrix(1 0 0 1 339.2246 387.8096)" font-family="'ArialNarrow'" font-size="8">angamon</text>
	<text transform="matrix(1 0 0 1 245.1987 336.9355)" font-family="'ArialNarrow'" font-size="8">S</text>
	<text transform="matrix(1 0 0 1 250.5347 336.9355)" font-family="'ArialNarrow'" font-size="8">chuyler </text>
	<text transform="matrix(1 0 0 1 265.9775 408.1445)" font-family="'ArialNarrow'" font-size="8">S</text>
	<text transform="matrix(1 0 0 1 271.3135 408.1445)" font-family="'ArialNarrow'" font-size="8">cott </text>
	<text transform="matrix(1 0 0 1 430.4102 438.0732)" font-family="'ArialNarrow'" font-size="8">S</text>
	<text transform="matrix(1 0 0 1 435.7461 438.0732)" font-family="'ArialNarrow'" font-size="8">helby </text>
	<text transform="matrix(1 0 0 1 310.833 556.7861)" font-family="'ArialNarrow'" font-size="8">S</text>
	<text transform="matrix(1 0 0 1 316.1689 556.7861)" font-family="'ArialNarrow'" font-size="8">t. Clair </text>
	<text transform="matrix(1 0 0 1 332.1396 214.2021)" font-family="'ArialNarrow'" font-size="8">S</text>
	<text transform="matrix(1 0 0 1 337.4756 214.2021)" font-family="'ArialNarrow'" font-size="8">tark </text>
	<text transform="matrix(1 0 0 1 333.9922 44.1396)" font-family="'ArialNarrow'" font-size="8">S</text>
	<text transform="matrix(1 0 0 1 339.3281 44.1396)" font-family="'ArialNarrow'" font-size="8">tephenson </text>
	<text transform="matrix(1 0 0 1 353.9297 291.0986)" font-family="'ArialNarrow'" font-size="8">T</text>
	<text transform="matrix(1 0 0 1 358.8164 291.0986)" font-family="'ArialNarrow'" font-size="8">azewell </text>
	<text transform="matrix(1 0 0 1 384.4668 689.2539)" font-family="'ArialNarrow'" font-size="8">U</text>
	<text transform="matrix(1 0 0 1 390.2441 689.2539)" font-family="'ArialNarrow'" font-size="8">nion </text>
	<text transform="matrix(1 0 0 1 532.082 334.2686)" font-family="'ArialNarrow'" font-size="8">V</text>
	<text transform="matrix(1 0 0 1 537.418 334.2686)" font-family="'ArialNarrow'" font-size="8">ermilion</text>
	<text transform="matrix(1 -0.0033 0.0026 1 525.8691 557.2344)" font-family="'ArialNarrow'" font-size="8">W</text>
	<text transform="matrix(1 -0.0033 0.0026 1 533.4189 557.208)" font-family="'ArialNarrow'" font-size="8">abash </text>
	<text transform="matrix(1 0 0 1 246.271 240.5596)" font-family="'ArialNarrow'" font-size="8">W</text>
	<text transform="matrix(1 0 0 1 253.8218 240.5596)" font-family="'ArialNarrow'" font-size="8">arren </text>
	<text transform="matrix(1 0 0 1 358.5801 573.7705)" font-family="'ArialNarrow'" font-size="8">W</text>
	<text transform="matrix(1 0 0 1 366.1309 573.7705)" font-family="'ArialNarrow'" font-size="8">ashington</text>
	<text transform="matrix(1 0 0 1 466.5234 561.8701)" font-family="'ArialNarrow'" font-size="8">W</text>
	<text transform="matrix(1 0 0 1 474.0742 561.8701)" font-family="'ArialNarrow'" font-size="8">ayne </text>
	<text transform="matrix(1 0 0 1 492.0977 609.1191)" font-family="'ArialNarrow'" font-size="8">W</text>
	<text transform="matrix(1 0 0 1 499.6484 609.1191)" font-family="'ArialNarrow'" font-size="8">hite </text>
	<text transform="matrix(1 0 0 1 313.4629 123.4102)" font-family="'ArialNarrow'" font-size="8">W</text>
	<text transform="matrix(1 0 0 1 321.0137 123.4102)" font-family="'ArialNarrow'" font-size="8">hiteside</text>
	<text transform="matrix(1 0 0 1 513.9355 165.4414)" font-family="'ArialNarrow'" font-size="8">W</text>
	<text transform="matrix(1 0 0 1 521.4863 165.4414)" font-family="'ArialNarrow'" font-size="8">ill </text>
	<text transform="matrix(1 0 0 1 410.9805 653.5146)" font-family="'ArialNarrow'" font-size="8">W</text>
	<text transform="matrix(1 0 0 1 418.5312 653.5146)" font-family="'ArialNarrow'" font-size="8">illiamson</text>
	<text transform="matrix(1 0 0 1 385.041 52.8857)" font-family="'ArialNarrow'" font-size="8">W</text>
	<text transform="matrix(1 0 0 1 392.5918 52.8857)" font-family="'ArialNarrow'" font-size="8">innebago </text>
	<text transform="matrix(1 0 0 1 381.1094 249.4941)" font-family="'ArialNarrow'" font-size="8">W</text>
	<text transform="matrix(1 0 0 1 388.6602 249.4941)" font-family="'ArialNarrow'" font-size="8">oodford </text>
</g>
<g id="Legend">
	<text id="Ref_WithPresence_text" transform="matrix(1 0 0 1 37.1895 676.7588)" font-family="'ArialNarrow'" font-size="13">City or County with COPsync Presence</text>
	
		<rect id="Ref_WithPresence_box" x="19.44" y="668.291" fill="#D0D0D0" stroke="#FF0000" stroke-width="0.9697" width="10" height="10"/>
	<text id="Ref_WithoutPresence_text" transform="matrix(1 0 0 1 37.1895 706.7588)" font-family="'ArialNarrow'" font-size="13">City or County without COPsync Presence</text>
	
		<rect id="Ref_WithoutPresence_box" x="19.44" y="698.291" fill="#D0D0D0" stroke="#FF0000" stroke-width="0.9697" width="10" height="10"/>
</g>
</svg>
