<?xml version="1.0" encoding="utf-8"?>
<!-- Generator: Adobe Illustrator 16.0.0, SVG Export Plug-In . SVG Version: 6.00 Build 0)  -->
<!DOCTYPE svg PUBLIC "-//W3C//DTD SVG 1.1//EN" "http://www.w3.org/Graphics/SVG/1.1/DTD/svg11.dtd">
<svg version="1.1" id="Plan_1" xmlns="http://www.w3.org/2000/svg" xmlns:xlink="http://www.w3.org/1999/xlink" x="0px" y="0px"
	 width="595px" height="842px" viewBox="0 0 595 842" enable-background="new 0 0 595 842" xml:space="preserve">
<g id="Counties">
	<path id="NM_Dona_Ana" fill="#D0D0D0" stroke="#666666" stroke-width="0.2835" stroke-miterlimit="22.9256" d="M257.225,542.6
		l-0.223,0.003l-59.628-0.244l0,0l-0.07-76.987l0,0v-16.389h32.062v-3.795l41.377-21.195l0,0v8.866h-2.569l0.026,89.325l0,0
		l-19.638,0.011c0.115,0.352,0.245,0.607,0.392,0.829c0.239,0.359,0.589,1.28,0.912,1.521c1.226,0.915,1.145,6.84,1.183,7.85
		c0.069,1.864-1.01,4.249-0.034,5.719c0.769,1.156,1.331,1.374,2.466,2.029c0.957,0.555,2.372-0.52,3.108,0.71
		c0.065,0.109,0.095,0.028,0.168,0.103c0.011,0.012,0.03,0.02,0.034,0.034C256.94,541.524,257.083,542.062,257.225,542.6
		L257.225,542.6z"/>
	<polygon id="NM_Torrance" fill="#D0D0D0" stroke="#666666" stroke-width="0.2835" stroke-miterlimit="22.9256" points="
		349.558,303.085 349.558,278.573 351.547,278.573 351.442,238.599 351.442,238.599 318.676,238.599 318.676,238.599 
		278.292,238.599 278.292,238.599 278.275,246.415 285.875,246.398 285.875,254.349 265.647,254.349 265.647,254.349 
		261.521,254.349 261.047,286.829 265.202,286.829 265.202,294.137 265.202,294.137 265.202,310.924 302.631,310.924 
		302.631,310.924 349.558,310.924 	"/>
	<path id="NM_Socorro" fill="#D0D0D0" stroke="#666666" stroke-width="0.2835" stroke-miterlimit="22.9256" d="M265.202,294.137
		v16.787h37.429l0,0v40.46h-9.594v16.003l-24.558-0.474l-0.025,17.131l0,0l-102.544-0.17l0,0l-0.675-102.798l0,0h39.568l0,0h24.668
		c0.606,0.263,1.754,1.245,2.289,1.32c0.588,1.034,5.071,2.659,6.25,3.214c7.23,3.41,15.335,3.918,22.396,7.85
		c0.144,0.139,0.488,0.374,0.608,0.542c0.155,0.062,0.308,0.166,0.439,0.271c0.187,0.026,0.328,0.068,0.54,0.068
		c0.218,0.13,0.753-0.09,1.014-0.102c0.239-0.011,0.441-0.022,0.676-0.068c0.284-0.056,0.314-0.141,0.608-0.034L265.202,294.137
		L265.202,294.137z"/>
	<polygon id="NM_Catron" fill="#D0D0D0" stroke="#666666" stroke-width="0.2835" stroke-miterlimit="22.9256" points="
		165.235,281.076 165.91,383.875 165.91,383.875 143.766,383.907 143.766,409.409 143.766,409.409 62.374,409.477 62.374,409.477 
		62.313,280.606 62.313,280.604 	"/>
	<path id="NM_Grant" fill="#D0D0D0" stroke="#666666" stroke-width="0.2835" stroke-miterlimit="22.9256" d="M62.393,449.197h16.401
		v16.868h16.09v8h8.411v40.531h0.629v20.165h23.422l0,0V514.8h-1.079v-40.803h23.61v-8.63l19.423,0.003l0,0l-2.364-1.049
		c-3.845-1.403-1.453-10.165-1.453-13.364c0-2.33-1.165-2.191-2.061-3.993c-0.926-1.86,0.1-3.924-1.791-5.277
		c-0.125-0.89-0.52-1.764-0.574-2.74c-0.077-1.365,0.557-1.114,1.081-2.165c-0.558-0.935-0.812-1.176-1.115-2.268
		c-0.34-1.229-0.705-1.069-1.993-1.388c-1.281-0.315-1.288-0.796-2.162-1.421c-0.188-1.521-1.419-2.635-1.419-4.297
		c0-1.861-0.932-2.475,0.169-4.229c0.821-1.309,0.654-1.083,0.439-2.604c-0.669-0.481-0.856-3.697-1.283-4.669
		c-0.854-1.942,1.444-2.837,1.554-4.264c0.062-0.8-1.251-1.671-1.814-2.232h-10.75l0,0l-81.392,0.067l0,0L62.393,449.197
		L62.393,449.197z"/>
	<polygon id="NM_Hidalgo" fill="#D0D0D0" stroke="#666666" stroke-width="0.2835" stroke-miterlimit="22.9256" points="
		62.393,449.197 78.794,449.197 78.794,466.065 94.884,466.065 94.884,474.065 103.295,474.065 103.295,514.598 103.925,514.598 
		103.925,534.763 127.347,534.763 127.347,534.763 127.414,542.071 127.431,542.07 127.458,582.883 62.456,582.749 62.456,582.749 	
		"/>
	<polygon id="NM_Luna" fill="#D0D0D0" stroke="#666666" stroke-width="0.2835" stroke-miterlimit="22.9256" points="
		127.347,534.763 127.347,514.8 126.268,514.8 126.268,473.997 149.878,473.997 149.878,465.367 169.301,465.37 169.301,465.37 
		197.305,465.37 197.305,465.37 197.375,542.357 197.375,542.357 127.431,542.07 127.414,542.071 	"/>
	<path id="NM_Sierra" fill="#D0D0D0" stroke="#666666" stroke-width="0.2835" stroke-miterlimit="22.9256" d="M143.766,409.409
		h10.75c0.563,0.562,1.876,1.433,1.814,2.232c-0.11,1.427-2.408,2.321-1.554,4.264c0.427,0.972,0.614,4.188,1.283,4.669
		c0.215,1.521,0.382,1.295-0.439,2.604c-1.101,1.756-0.169,2.368-0.169,4.229c0,1.662,1.23,2.776,1.419,4.297
		c0.874,0.625,0.881,1.104,2.162,1.421c1.288,0.317,1.653,0.159,1.993,1.388c0.303,1.093,0.557,1.333,1.115,2.268
		c-0.524,1.051-1.158,0.8-1.081,2.165c0.055,0.978,0.449,1.852,0.574,2.74c1.89,1.354,0.864,3.417,1.791,5.277
		c0.896,1.802,2.061,1.663,2.061,3.993c0,3.199-2.392,11.961,1.453,13.364l2.364,1.049l0,0h28.003l0,0V448.98h32.062v-3.795
		l41.377-21.195l0,0v-31.732l0,0h-2.291v-8.214l0,0l-102.544-0.17l0,0l-22.144,0.032L143.766,409.409L143.766,409.409z"/>
	<polygon id="NM_Otero" fill="#D0D0D0" stroke="#666666" stroke-width="0.2835" stroke-miterlimit="22.9256" points="
		270.744,423.991 270.744,432.857 268.175,432.857 268.193,522.256 268.193,522.256 384.916,522.229 384.916,522.229 
		385.021,473.32 385.021,473.32 346.679,473.32 346.679,435.663 345.294,435.663 345.294,432.483 344.349,432.483 344.349,428.391 
		349.213,428.391 349.213,416.548 349.213,416.548 349.213,400.105 318.011,400.105 318.011,392.259 270.744,392.259 
		270.744,392.259 	"/>
	<polygon id="NM_Lincoln" fill="#D0D0D0" stroke="#666666" stroke-width="0.2835" stroke-miterlimit="22.9256" points="
		302.631,310.924 349.558,310.924 349.558,303.085 349.558,303.085 381.507,303.085 381.507,303.085 381.403,327.141 
		381.403,327.141 381.403,391.645 382.287,391.645 382.287,400.172 380.764,400.172 380.764,416.548 349.213,416.548 
		349.213,416.548 349.213,400.105 318.011,400.105 318.011,392.259 270.744,392.259 270.744,392.259 268.454,392.259 
		268.454,384.045 268.454,384.045 268.479,366.914 293.037,367.388 293.037,351.384 302.631,351.384 	"/>
	<polygon id="NM_Chaves" fill="#D0D0D0" stroke="#666666" stroke-width="0.2835" stroke-miterlimit="22.9256" points="
		349.213,416.548 349.213,428.391 344.349,428.391 344.349,432.483 345.294,432.483 345.294,435.663 346.679,435.663 
		346.679,473.32 385.021,473.32 385.021,473.32 385.66,473.32 385.66,432.091 464.372,432.091 464.372,432.091 467.982,432.091 
		467.982,391.757 471.496,391.757 471.496,375.406 487.509,375.338 487.509,375.338 487.509,367.421 471.497,367.421 
		471.497,352.331 462.41,352.331 462.41,327.918 454.012,327.918 454.012,327.918 437.921,327.918 437.921,335.737 389.361,335.737 
		389.361,327.141 381.403,327.141 381.403,327.141 381.403,391.645 382.287,391.645 382.287,400.172 380.764,400.172 
		380.764,416.548 	"/>
	<polygon id="NM_Eddy" fill="#D0D0D0" stroke="#666666" stroke-width="0.2835" stroke-miterlimit="22.9256" points="
		464.372,432.091 464.372,473.041 471.477,473.041 471.489,522.206 471.489,522.206 384.916,522.229 385.021,473.32 385.66,473.32 
		385.66,432.091 	"/>
	<polygon id="NM_Lea" fill="#D0D0D0" stroke="#666666" stroke-width="0.2835" stroke-miterlimit="22.9256" points="464.372,432.091 
		464.372,473.041 471.477,473.041 471.489,522.206 471.489,522.206 522.29,522.193 522.863,375.34 522.863,375.34 487.509,375.338 
		487.509,375.338 471.496,375.406 471.496,391.757 467.982,391.757 467.982,432.091 	"/>
	<polygon id="NM_Roosevelt" fill="#D0D0D0" stroke="#666666" stroke-width="0.2835" stroke-miterlimit="22.9256" points="
		454.012,327.918 462.41,327.918 462.41,352.331 471.497,352.331 471.497,367.421 487.509,367.421 487.509,375.338 487.509,375.338 
		522.863,375.34 522.863,375.34 523.129,307.411 523.129,307.411 470.079,307.406 470.079,278.986 470.079,278.986 454.138,278.986 
		454.138,278.986 	"/>
	<polygon id="NM_Debaca" fill="#D0D0D0" stroke="#666666" stroke-width="0.2835" stroke-miterlimit="22.9256" points="
		440.159,262.817 440.159,278.986 454.138,278.986 454.138,278.986 454.012,327.918 454.012,327.918 437.921,327.918 
		437.921,335.737 389.361,335.737 389.361,327.141 381.403,327.141 381.403,327.141 381.507,303.085 381.507,303.085 
		381.507,279.047 415.901,279.047 415.901,271.23 423.9,271.23 423.9,262.817 	"/>
	<polygon id="NM_Guadalupe" fill="#D0D0D0" stroke="#666666" stroke-width="0.2835" stroke-miterlimit="22.9256" points="
		349.558,303.085 381.507,303.085 381.507,303.085 381.507,279.047 415.901,279.047 415.901,271.23 423.9,271.23 423.9,262.817 
		440.159,262.817 440.159,262.817 440.631,228.839 440.631,228.839 440.631,222.475 351.442,222.475 351.442,238.599 
		351.442,238.599 351.547,278.573 349.558,278.573 	"/>
	<polygon id="NM_Curry" fill="#D0D0D0" stroke="#666666" stroke-width="0.2835" stroke-miterlimit="22.9256" points="
		470.079,278.986 472.886,278.986 472.886,271.13 488.758,271.13 488.758,262.706 496.764,262.706 496.764,254.924 504.837,254.721 
		504.837,246.364 523.367,246.372 523.367,246.372 523.129,307.411 523.129,307.411 470.079,307.406 	"/>
	<polygon id="NM_Quay" fill="#D0D0D0" stroke="#666666" stroke-width="0.2835" stroke-miterlimit="22.9256" points="
		478.388,205.999 496.63,205.999 496.63,205.07 497.367,205.07 497.367,172.928 497.367,172.928 523.654,172.949 523.654,172.949 
		523.367,246.372 523.367,246.372 504.837,246.364 504.837,254.721 496.764,254.924 496.764,262.706 488.758,262.706 
		488.758,271.13 472.886,271.13 472.886,278.986 470.079,278.986 470.079,278.986 454.138,278.986 454.138,278.986 440.159,278.986 
		440.159,262.817 440.159,262.817 440.631,228.839 440.631,228.839 461.024,217.199 461.024,219.604 478.388,219.604 	"/>
	<path id="NM_San_Miguel" fill="#D0D0D0" stroke="#666666" stroke-width="0.2835" stroke-miterlimit="22.9256" d="M317.97,160.816
		h29.726l8.511,3.568c1.34,0.562,3.863,0.596,4.864,1.455c0.922,0.792,2.841,1.102,4.021,1.218c1.048,1.263,3.238,1.956,4.526,3.146
		c1.999,1.848,2.712,0.229,5.065-0.947h47.123l0,0h26.485l3.105-1.658l20.168,35.322h6.808l0.016,3.077l0,0v13.605h-17.362v-2.404
		l-20.395,11.64l0,0v-6.364h-89.188v16.125l0,0h-32.768l0,0L317.97,160.816L317.97,160.816z"/>
	<path id="NM_Valencia" fill="#D0D0D0" stroke="#666666" stroke-width="0.2835" stroke-miterlimit="22.9256" d="M215.444,246.025
		l3.514,8.222h22.937l2.889-2.927h19.796l1.067,3.028l0,0h-4.126l-0.473,32.48h4.155v7.308l0,0h-0.912
		c-0.294-0.107-0.324-0.022-0.608,0.034c-0.235,0.046-0.437,0.057-0.676,0.068c-0.261,0.012-0.795,0.231-1.014,0.102
		c-0.212,0-0.354-0.042-0.54-0.068c-0.131-0.105-0.284-0.208-0.439-0.271c-0.12-0.167-0.464-0.403-0.608-0.542
		c-7.061-3.932-15.166-4.44-22.396-7.85c-1.178-0.556-5.661-2.18-6.25-3.214c-0.535-0.076-1.682-1.058-2.289-1.32h-24.668l0,0
		l0.301-35.051L215.444,246.025L215.444,246.025z"/>
	<polygon id="NM_Bernalillo" fill="#D0D0D0" stroke="#666666" stroke-width="0.2835" stroke-miterlimit="22.9256" points="
		215.444,246.025 218.958,254.247 241.895,254.247 244.784,251.32 264.58,251.32 265.647,254.349 265.647,254.349 285.875,254.349 
		285.875,246.398 278.275,246.415 278.292,238.599 278.292,238.599 278.14,221.834 278.14,221.834 205.345,221.834 205.345,221.834 
			"/>
	<polygon id="NM_Cibola" fill="#D0D0D0" stroke="#666666" stroke-width="0.2835" stroke-miterlimit="22.9256" points="
		62.313,280.604 165.235,281.076 165.235,281.076 204.803,281.076 204.803,281.076 205.104,246.025 215.444,246.025 
		215.444,246.025 205.345,221.834 205.345,221.834 202.792,214.036 196.667,214.036 196.667,214.036 172.489,213.951 
		172.489,209.586 164.586,209.586 164.586,213.952 107.923,213.952 107.923,245.822 62.297,245.958 62.297,245.958 62.313,280.606 	
		"/>
	<path id="NM_Santa_Fe" fill="#D0D0D0" stroke="#666666" stroke-width="0.2835" stroke-miterlimit="22.9256" d="M278.14,155.725
		v6.263c-0.201-0.02-0.896,0.001-1.013,0.164c-0.052,0.008-0.08,0.029-0.118,0.068c0,0.357,0.505,0.732,0.743,1.015
		c0.701,0.83,1.071,1.407,2.263,1.556c1.057,0.132,2.748-0.32,3.665,0.135c0.322,0.517-0.062,1.058-0.422,1.438
		c-0.486,0.513-0.934,1.162-1.216,1.811c-0.073,0.107-0.105,0.143-0.152,0.236c-0.054,0.039-0.117,0.108-0.152,0.169
		c-0.321,0.201-0.63,0.518-0.912,0.778c-0.205,0.19-0.418,0.306-0.608,0.524c-0.178,0.205-0.457,0.339-0.659,0.542l-1.25,1.404l0,0
		l-0.169,50.006l0,0l0.152,16.765l0,0h40.384l0,0l-0.706-77.783l0,0v-9.828l0,0v-2.31h-25.98v1.884h0.913v5.162L278.14,155.725
		L278.14,155.725z"/>
	<path id="NM_Los_Alamos" fill="#D0D0D0" stroke="#666666" stroke-width="0.2835" stroke-miterlimit="22.9256" d="M278.14,152.069
		v3.656l0,0v6.263c-0.201-0.02-0.896,0.001-1.013,0.164c-0.052,0.008-0.08,0.029-0.118,0.068c0,0.357,0.505,0.732,0.743,1.015
		c0.701,0.83,1.071,1.407,2.263,1.556c1.057,0.132,2.748-0.32,3.665,0.135c0.322,0.517-0.062,1.058-0.422,1.438
		c-0.486,0.513-0.934,1.162-1.216,1.811c-0.073,0.107-0.105,0.143-0.152,0.236c-0.054,0.039-0.117,0.108-0.152,0.169
		c-0.321,0.201-0.63,0.518-0.912,0.778c-0.205,0.19-0.418,0.306-0.608,0.524c-0.178,0.205-0.457,0.339-0.659,0.542l-1.25,1.404l0,0
		l-1.453-2.267c-1.143-1.288-1.894-1.884-3.682-2.267c-1.521-0.325-2.305-1.319-3.884-1.319c-0.812,0-2.361,1.526-3.074,0.576
		c-0.189-0.253-0.483-1.022-0.676-1.151c-0.097-0.493,0.148-0.817,0.473-1.179v-11.238c0.749-0.374,1.983,0.041,2.77,0.237
		c1.022,0.256,3.563,0.139,4.493-0.372c0.818-0.45,1.037-1.151,1.723-1.692C275.395,150.844,278.18,151.712,278.14,152.069
		L278.14,152.069z"/>
	<path id="NM_Sandoval" fill="#D0D0D0" stroke="#666666" stroke-width="0.2835" stroke-miterlimit="22.9256" d="M196.667,214.036
		h6.125l2.553,7.799l0,0h72.795l0,0l0.169-50.006l0,0l-1.453-2.267c-1.143-1.288-1.894-1.884-3.682-2.267
		c-1.521-0.325-2.305-1.319-3.884-1.319c-0.812,0-2.361,1.526-3.074,0.576c-0.189-0.253-0.483-1.022-0.676-1.151
		c-0.097-0.493,0.148-0.817,0.473-1.179v-11.238c0.749-0.374,1.983,0.041,2.77,0.237c1.022,0.256,3.563,0.139,4.493-0.372
		c0.818-0.45,1.037-1.151,1.723-1.692c0.396-0.312,3.181,0.557,3.142,0.913l0,0v-3.417h-48.677l-0.237-19.759l-56.413-0.677l0,0
		l0.106,20.47l0,0h23.747V214.036L196.667,214.036z"/>
	<polygon id="NM_McKinley" fill="#D0D0D0" stroke="#666666" stroke-width="0.2835" stroke-miterlimit="22.9256" points="
		62.251,148.652 172.92,148.686 172.92,148.686 196.667,148.686 196.667,214.036 196.667,214.036 172.489,213.951 172.489,209.586 
		164.586,209.586 164.586,213.952 107.923,213.952 107.923,245.822 62.297,245.958 62.297,245.958 	"/>
	<path id="NM_San_Juan" fill="#D0D0D0" stroke="#666666" stroke-width="0.2835" stroke-miterlimit="22.9256" d="M188.354,55.025
		l-0.135,1.7c-0.118,0.104-0.413,0.322-0.439,0.507c-0.094,0.047-0.171,0.339-0.271,0.373c0,0.208-0.358,0.419-0.405,0.609
		c-0.146,0.037-0.257,0.2-0.405,0.237c-0.032,0.095-0.272,0.108-0.304,0.237c-0.181,0.045-0.242,0.283-0.372,0.304
		c-0.092,0.656-0.135,1.212-0.135,1.929c0,1.518,1.847,2.355,0.169,3.688c-0.733,0.582-2.255,1.646-3.175,1.996
		c-0.673,0.256-1.572,0.484-2.162,0.846c-1.194,0.734-0.734,2.199-2.804,2.199c-1.223,0-3.704,1.173-3.007,2.571v2.337h-1.385V85.96
		h-0.488l-0.221,42.256l0,0l0.106,20.47l0,0l-110.669-0.034l0,0l-0.044-93.617l0,0L188.354,55.025L188.354,55.025z"/>
	<path id="NM_Rio_Arriba" fill="#D0D0D0" stroke="#666666" stroke-width="0.2835" stroke-miterlimit="22.9256" d="M172.814,128.216
		l56.413,0.677l0.237,19.759h48.677v3.417l0,0v3.656l0,0h14.762v-5.162h-0.913v-1.884h25.98v2.31l0,0
		c0.264,0.02,0.399,0.037,0.604,0.066c0.946,0.946,1.938,0.305,2.938,0.575c0.383,0.104,0.605,0.684,1.014,0.879
		c0.903,0.434,1.339-0.735,2.026-0.981c1.075-0.383,2.455-0.135,3.581-0.135c1.562,0,1.992-0.3,3.142-1.218l1.823-2.233l0,0
		l-2.601-1.184c-1.315-0.292-2.591-0.48-3.683-1.354c-1.145-0.383-2.197-1.39-3.276-1.962c-0.957-0.508-2.654-1.271-3.276-2.131
		c-3.91-3.132-6.355-6.55-9.356-10.353c-3.464-4.39-5.97-4.968-11.147-6.631c-1.769-0.568-6.613-1.894-7.769-3.045
		c0-0.1,0.021-0.146,0.034-0.237c1.77-1.268,1.277-2.642,4.02-3.315c1.13-0.277,4.518-1.818,4.628-3.146
		c0.271-0.234,0.3-0.786,0.271-1.117c0-1.432-0.222-3.394,0.136-4.771c0.438-1.701,0.844-2.643,0.844-4.466
		c0-3.48-2.222-5.412-3.006-8.391c-0.433-1.639-0.932-3.724-0.474-5.38l0.676-2.436c0-0.251,0.181-0.545,0.304-0.745
		c0-1.888,0.418-2.999-0.709-4.635c-1.237-1.797-0.479-2.632-0.103-4.433c0.481-2.293-1.688-7.759,0.338-9.507
		c0.16-1.455-0.037-4.007-0.709-5.312c-0.592-1.154,0.052-3.386-0.48-4.787l0.025-3.23l0,0l-61.765,0.101
		c-1.746,0.292-3.442,0.788-5.337,0.474c-0.212-0.035-0.405-0.167-0.591-0.203c-0.031-0.11-0.726-0.497-0.862-0.722l-40.875,0.003
		l0,0l-0.135,1.7c-0.118,0.104-0.413,0.322-0.439,0.507c-0.094,0.047-0.171,0.339-0.271,0.373c0,0.208-0.358,0.419-0.405,0.609
		c-0.146,0.037-0.257,0.2-0.405,0.237c-0.032,0.095-0.272,0.108-0.304,0.237c-0.181,0.045-0.242,0.283-0.372,0.304
		c-0.092,0.656-0.135,1.212-0.135,1.929c0,1.518,1.847,2.355,0.169,3.688c-0.733,0.582-2.255,1.646-3.175,1.996
		c-0.673,0.256-1.572,0.484-2.162,0.846c-1.194,0.734-0.734,2.199-2.804,2.199c-1.223,0-3.704,1.173-3.007,2.571v2.337h-1.385v11.4
		h-0.488L172.814,128.216L172.814,128.216z"/>
	<path id="NM_Mora" fill="#D0D0D0" stroke="#666666" stroke-width="0.2835" stroke-miterlimit="22.9256" d="M317.97,150.988
		c0.264,0.02,0.399,0.037,0.604,0.066c0.945,0.946,1.938,0.305,2.938,0.575c0.384,0.104,0.605,0.684,1.014,0.879
		c0.903,0.434,1.339-0.735,2.026-0.981c1.075-0.383,2.455-0.135,3.581-0.135c1.562,0,1.992-0.3,3.142-1.218l1.823-2.233l0,0
		c2.194-1.067,4.425-3.211,6.148-4.94c1.421-1.423,1.323-2.598,2.263-4.094c0.56-0.889,1.831-1.841,2.129-2.808
		c0.248-0.811,0.284-4.378-0.136-5.007c-0.852-1.279-1.959-1.412-1.959-3.282l0.878-0.947l3.209-2.437h2.331l0,0H383.5v4.466h33.544
		l0,0l0.101,0.406c-1.734,2.914,3.028,3.328,1.521,5.887c-0.569,0.968-0.36,2.039,0.135,2.978c0.354,0.669,0.877,3.108,1.487,3.282
		c0.352,0.564,0.742,0.588,0.742,1.354c0,1.409,1.104,1.474,1.217,2.402c0.073,0.609,0.008,1.64,0.371,2.131
		c0.797,1.073,0.867,1.056,0.541,2.334c-0.14,0.543,0.142,0.906,0.54,1.218c0.592,0.464,0.574,1.227,0.574,1.929
		c-0.201,0.568-0.485,0.405-0.812,0.812c0,0.721,0.396,1.981,0.067,2.571c-0.35,0.629-0.818,1.162-1.148,1.861
		c-0.486,1.033-1.258,1.824-1.723,2.808c-0.215,0.456-0.207,1.1,0.102,1.489c0.361,0.457,0.661,1.051,1.015,1.455
		c0.099,0.899,0.235,1.668,0.235,2.605l-0.203,2.842l0,0h-47.123c-2.354,1.177-3.066,2.795-5.065,0.947
		c-1.288-1.19-3.479-1.883-4.526-3.146c-1.18-0.117-3.099-0.427-4.021-1.218c-1.001-0.859-3.524-0.893-4.864-1.455l-8.511-3.568
		H317.97l0,0V150.988L317.97,150.988z"/>
	<path id="NM_Taos" fill="#D0D0D0" stroke="#666666" stroke-width="0.2835" stroke-miterlimit="22.9256" d="M297.783,55.373
		l-0.025,3.23c0.532,1.401-0.111,3.633,0.48,4.787c0.672,1.305,0.869,3.857,0.71,5.312c-2.025,1.748,0.144,7.214-0.339,9.507
		c-0.377,1.8-1.134,2.636,0.103,4.433c1.127,1.636,0.709,2.747,0.709,4.635c-0.123,0.2-0.304,0.494-0.304,0.745l-0.676,2.436
		c-0.458,1.656,0.041,3.741,0.474,5.38c0.785,2.979,3.006,4.91,3.006,8.391c0,1.823-0.405,2.765-0.844,4.466
		c-0.356,1.377-0.136,3.338-0.136,4.771c0.029,0.331,0,0.883-0.271,1.117c-0.11,1.329-3.498,2.869-4.628,3.146
		c-2.743,0.673-2.25,2.048-4.02,3.315c-0.013,0.09-0.034,0.137-0.034,0.237c1.156,1.151,6,2.477,7.769,3.045
		c5.18,1.663,7.685,2.242,11.147,6.631c3.001,3.803,5.447,7.221,9.356,10.353c0.622,0.86,2.319,1.623,3.276,2.131
		c1.079,0.573,2.133,1.58,3.276,1.962c1.092,0.874,2.366,1.062,3.683,1.354l2.601,1.184l0,0c2.194-1.067,4.425-3.211,6.148-4.94
		c1.421-1.423,1.323-2.598,2.263-4.094c0.56-0.889,1.831-1.841,2.129-2.808c0.248-0.811,0.284-4.378-0.136-5.007
		c-0.852-1.279-1.959-1.412-1.959-3.282l0.878-0.947l3.209-2.437h2.331l0,0l0.169-1.861c0.038-0.498,0.409-1.625,0.034-2.064
		c0-0.121,0.018-0.069-0.068-0.169v-0.203c-0.327-0.423-0.469-0.952-0.438-1.488c0.028-0.507,0.348-0.973,0.371-1.455
		c0.068-1.393-0.911-2.521,0.271-3.62c0.195-0.85,0.394-2.28-0.271-2.943c-0.36-0.362-1.562-1.079-0.607-1.76
		c0.166-1.347-0.631-2.248-0.541-3.755c0.079-1.313,2.049-1.542,1.757-3.011c-0.163-0.825-1.154-2.077-1.757-2.639
		c-0.423-0.396-2.605-2.38-1.993-2.707c0.604-0.319,1.669-0.357,1.725-1.286c0.058-0.966-0.401-1.6-0.879-2.369
		c-1.639-2.639,1.342-2.86,0.372-4.939c-0.708-1.516-1.029-1.59-0.372-3.214c0.78-1.173,1.145-1.387,2.602-1.387
		c1.489,0,0.919-1.52,1.047-2.538c1.618-0.809,5.034,3.888,6.385,0.136c0.62-1.728,0.523-4.744,0.236-6.53
		c-0.21-1.303,0.304-2.185,0.304-3.417c-2.263-1.623,2.119-5.895,1.114-7.85c-0.86-1.676-3.199-4.881-1.723-6.564l0.608-1.515l0,0
		L297.783,55.373L297.783,55.373z"/>
	<path id="NM_Harding" fill="#D0D0D0" stroke="#666666" stroke-width="0.2835" stroke-miterlimit="22.9256" d="M417.044,128.893
		l0.101,0.406c-1.734,2.914,3.028,3.328,1.521,5.887c-0.569,0.968-0.36,2.039,0.135,2.978c0.354,0.669,0.877,3.108,1.487,3.282
		c0.352,0.564,0.742,0.588,0.742,1.354c0,1.409,1.104,1.474,1.217,2.402c0.073,0.609,0.008,1.64,0.371,2.131
		c0.797,1.073,0.867,1.056,0.541,2.334c-0.14,0.543,0.142,0.906,0.54,1.218c0.592,0.464,0.574,1.227,0.574,1.929
		c-0.201,0.568-0.485,0.405-0.812,0.812c0,0.721,0.396,1.981,0.067,2.571c-0.35,0.629-0.818,1.162-1.148,1.861
		c-0.486,1.033-1.258,1.824-1.723,2.808c-0.215,0.456-0.207,1.1,0.102,1.489c0.361,0.457,0.661,1.051,1.015,1.455
		c0.099,0.899,0.235,1.668,0.235,2.605l-0.203,2.842l0,0h26.485l3.105-1.658l20.168,35.322h6.808l0.016,3.077l0,0h18.242v-0.928
		h0.737v-32.143l0,0V148.77h1.268v-7.883H465.99v-8.442h-16.823l-0.03-3.552l0,0H417.044L417.044,128.893z"/>
	<path id="NM_Colfax" fill="#D0D0D0" stroke="#666666" stroke-width="0.2835" stroke-miterlimit="22.9256" d="M417.044,128.893
		h32.093l0,0l-0.04-73.766l0,0l-92.79,0.151l0,0l-0.607,1.515c-1.478,1.683,0.86,4.888,1.723,6.564
		c1.005,1.955-3.377,6.227-1.114,7.85c0,1.232-0.514,2.114-0.304,3.417c0.287,1.787,0.384,4.803-0.237,6.53
		c-1.35,3.752-4.766-0.944-6.384-0.136c-0.128,1.018,0.442,2.538-1.047,2.538c-1.457,0-1.82,0.214-2.602,1.387
		c-0.657,1.625-0.336,1.699,0.372,3.214c0.97,2.08-2.011,2.3-0.372,4.939c0.478,0.769,0.937,1.402,0.879,2.369
		c-0.057,0.928-1.121,0.966-1.725,1.286c-0.612,0.326,1.57,2.311,1.993,2.707c0.603,0.562,1.593,1.814,1.757,2.639
		c0.292,1.47-1.678,1.698-1.757,3.011c-0.09,1.507,0.707,2.409,0.541,3.755c-0.955,0.681,0.247,1.398,0.607,1.76
		c0.663,0.664,0.466,2.093,0.271,2.943c-1.182,1.099-0.201,2.228-0.271,3.62c-0.023,0.482-0.344,0.948-0.371,1.455
		c-0.03,0.536,0.109,1.065,0.438,1.488v0.203c0.086,0.1,0.068,0.048,0.068,0.169c0.375,0.439,0.004,1.566-0.034,2.064l-0.169,1.861
		l0,0H383.5v4.466L417.044,128.893L417.044,128.893z"/>
	<polygon id="NM_Union" fill="#D0D0D0" stroke="#666666" stroke-width="0.2835" stroke-miterlimit="22.9256" points="
		497.367,172.928 497.367,148.771 498.635,148.771 498.635,140.887 465.99,140.887 465.99,132.445 449.167,132.445 449.137,128.893 
		449.137,128.893 449.097,55.127 449.097,55.127 527.438,55 527.438,55 527.499,103.619 527.499,103.619 523.926,103.624 
		523.654,172.949 523.654,172.949 	"/>
</g>
<g id="Outer_Border">
	<path fill="none" stroke="#FF0000" stroke-width="2" stroke-miterlimit="22.9256" d="M527.438,55l-78.341,0.127l-92.79,0.151
		l-58.522,0.095l-61.765,0.101c-1.746,0.292-3.442,0.788-5.337,0.474c-0.212-0.035-0.405-0.167-0.591-0.203
		c-0.031-0.11-0.726-0.497-0.862-0.722l-40.875,0.003l-126.146,0.01l0.044,93.617l0.046,97.306l0.017,34.648l0.061,128.871
		l0.019,39.722l0.063,133.552l65.002,0.134l-0.028-40.812l69.944,0.287l59.628,0.244l0.223-0.003
		c-0.142-0.538-0.285-1.074-0.434-1.61c-0.004-0.016-0.023-0.022-0.034-0.034c-0.074-0.073-0.103,0.008-0.168-0.103
		c-0.736-1.229-2.151-0.155-3.108-0.71c-1.135-0.655-1.698-0.873-2.466-2.029c-0.976-1.47,0.104-3.854,0.034-5.719
		c-0.038-1.01,0.043-6.935-1.183-7.85c-0.323-0.241-0.673-1.162-0.912-1.521c-0.147-0.222-0.277-0.479-0.392-0.829l19.631-0.011
		v0.072l116.723-0.028l86.573-0.021l50.801-0.013l0.573-146.854l0.266-67.929l0.238-61.04l0.287-73.422l0.271-69.325l3.573-0.005
		L527.438,55z"/>
</g>
<g id="CountiesNames">
	<text transform="matrix(1 0 0 1 103.585 104.3994)" font-family="'ArialNarrow'" font-size="8">S</text>
	<text transform="matrix(1 0 0 1 108.9204 104.3994)" font-family="'ArialNarrow'" font-size="8">an Juan</text>
	<text transform="matrix(1 0 0 1 228.7812 102.8223)" font-family="'ArialNarrow'" font-size="8">R</text>
	<text transform="matrix(1 0 0 1 234.5581 102.8223)" font-family="'ArialNarrow'" font-size="8">io Arriba</text>
	<text transform="matrix(1 0 0 1 255.7158 164.3691)" font-family="'ArialNarrow'" font-size="8">L</text>
	<text transform="matrix(1 0 0 1 260.165 164.3691)" font-family="'ArialNarrow'" font-size="8">os Alamos</text>
	<text transform="matrix(1 0 0 1 315.0645 101.5781)" font-family="'ArialNarrow'" font-size="8">T</text>
	<text transform="matrix(1 0 0 1 319.9512 101.5781)" font-family="'ArialNarrow'" font-size="8">aos</text>
	<text transform="matrix(1 0 0 1 393.4316 95.6807)" font-family="'ArialNarrow'" font-size="8">C</text>
	<text transform="matrix(1 0 0 1 399.209 95.6807)" font-family="'ArialNarrow'" font-size="8">olfax</text>
	<text transform="matrix(1 0 0 1 479.3633 105.6689)" font-family="'ArialNarrow'" font-size="8">U</text>
	<text transform="matrix(1 0 0 1 485.1406 105.6689)" font-family="'ArialNarrow'" font-size="8">nion</text>
	<text transform="matrix(1 0 0 1 456.2969 159.293)" font-family="'ArialNarrow'" font-size="8">H</text>
	<text transform="matrix(1 0 0 1 462.0742 159.293)" font-family="'ArialNarrow'" font-size="8">arding</text>
	<text transform="matrix(1 0 0 1 373.0039 151.5332)" font-family="'ArialNarrow'" font-size="8">M</text>
	<text transform="matrix(1 0 0 1 379.668 151.5332)" font-family="'ArialNarrow'" font-size="8">ora</text>
	<text transform="matrix(0.9999 -0.0102 0.0083 1 281.6475 198.4976)" font-family="'ArialNarrow'" font-size="8.0006">S</text>
	<text transform="matrix(0.9999 -0.0102 0.0083 1 286.9829 198.4424)" font-family="'ArialNarrow'" font-size="8.0006">anta Fe</text>
	<text transform="matrix(1 0 0 1 368.0488 198.6172)" font-family="'ArialNarrow'" font-size="8">S</text>
	<text transform="matrix(1 0 0 1 373.3848 198.6172)" font-family="'ArialNarrow'" font-size="8">an Miguel</text>
	<text transform="matrix(1 0 0 1 223.3193 191.3262)" font-family="'ArialNarrow'" font-size="8">S</text>
	<text transform="matrix(1 0 0 1 228.6553 191.3262)" font-family="'ArialNarrow'" font-size="8">andoval</text>
	<text transform="matrix(1 0 0 1 112.2744 184.7617)" font-family="'ArialNarrow'" font-size="8">M</text>
	<text transform="matrix(1 0 0 1 118.9385 184.7617)" font-family="'ArialNarrow'" font-size="8">cKinley</text>
	<text transform="matrix(1 0 0 1 146.5952 253.4482)" font-family="'ArialNarrow'" font-size="8">C</text>
	<text transform="matrix(1 0 0 1 152.3721 253.4482)" font-family="'ArialNarrow'" font-size="8">ibola</text>
	<text transform="matrix(1 0 0 1 235.3335 243.0664)" font-family="'ArialNarrow'" font-size="8">B</text>
	<text transform="matrix(1 0 0 1 240.6694 243.0664)" font-family="'ArialNarrow'" font-size="8">ernalillo</text>
	<text transform="matrix(1 0 0 1 223.3813 274.1143)" font-family="'ArialNarrow'" font-size="8">V</text>
	<text transform="matrix(1 0 0 1 228.7173 274.1143)" font-family="'ArialNarrow'" font-size="8">alencia</text>
	<text transform="matrix(1 0 0 1 294.9385 280.5986)" font-family="'ArialNarrow'" font-size="8">T</text>
	<text transform="matrix(1 0 0 1 299.8262 280.5986)" font-family="'ArialNarrow'" font-size="8">orrance</text>
	<text transform="matrix(1 0 0 1 374.4746 254.5908)" font-family="'ArialNarrow'" font-size="8">G</text>
	<text transform="matrix(1 0 0 1 380.6973 254.5908)" font-family="'ArialNarrow'" font-size="8">uadalupe</text>
	<text transform="matrix(1 0 0 1 480.9502 234.1064)" font-family="'ArialNarrow'" font-size="8">Q</text>
	<text transform="matrix(1 0 0 1 487.1738 234.1064)" font-family="'ArialNarrow'" font-size="8">uay</text>
	<text transform="matrix(1 0 0 1 496.8008 286.168)" font-family="'ArialNarrow'" font-size="8">C</text>
	<text transform="matrix(1 0 0 1 502.5781 286.168)" font-family="'ArialNarrow'" font-size="8">urry</text>
	<text transform="matrix(1 0 0 1 477.1377 342.3584)" font-family="'ArialNarrow'" font-size="8">R</text>
	<text transform="matrix(1 0 0 1 482.9141 342.3584)" font-family="'ArialNarrow'" font-size="8">oosevelt</text>
	<text transform="matrix(1 0 0 1 404.2871 309.2539)" font-family="'ArialNarrow'" font-size="8">D</text>
	<text transform="matrix(1 0 0 1 410.0645 309.2539)" font-family="'ArialNarrow'" font-size="8">ebaca</text>
	<text transform="matrix(1 0 0 1 329.9355 361.3281)" font-family="'ArialNarrow'" font-size="8">L</text>
	<text transform="matrix(1 0 0 1 334.3848 361.3281)" font-family="'ArialNarrow'" font-size="8">incoln</text>
	<text transform="matrix(1 0 0 1 410.8691 387.2285)" font-family="'ArialNarrow'" font-size="8">C</text>
	<text transform="matrix(1 0 0 1 416.6465 387.2285)" font-family="'ArialNarrow'" font-size="8">haves</text>
	<text transform="matrix(1 0 0 1 214.7651 338.46)" font-family="'ArialNarrow'" font-size="8">S</text>
	<text transform="matrix(1 0 0 1 220.1011 338.46)" font-family="'ArialNarrow'" font-size="8">ocorro</text>
	<text transform="matrix(1 0 0 1 101.6562 350.0322)" font-family="'ArialNarrow'" font-size="8">C</text>
	<text transform="matrix(1 0 0 1 107.4326 350.0322)" font-family="'ArialNarrow'" font-size="8">atron</text>
	<text transform="matrix(1 0 0 1 200.3408 425.5967)" font-family="'ArialNarrow'" font-size="8">S</text>
	<text transform="matrix(1 0 0 1 205.6768 425.5967)" font-family="'ArialNarrow'" font-size="8">ierra</text>
	<text transform="matrix(1 0 0 1 106.2075 456.6611)" font-family="'ArialNarrow'" font-size="8">G</text>
	<text transform="matrix(1 0 0 1 112.4307 456.6611)" font-family="'ArialNarrow'" font-size="8">rant</text>
	<text transform="matrix(1 0 0 1 77.2686 554.7051)" font-family="'ArialNarrow'" font-size="8">H</text>
	<text transform="matrix(1 0 0 1 83.0449 554.7051)" font-family="'ArialNarrow'" font-size="8">idalgo</text>
	<text transform="matrix(1 0 0 1 152.8472 507.7725)" font-family="'ArialNarrow'" font-size="8">L</text>
	<text transform="matrix(1 0 0 1 157.2964 507.7725)" font-family="'ArialNarrow'" font-size="8">una</text>
	<text transform="matrix(1 0 0 1 214.6719 492.5166)" font-family="'ArialNarrow'" font-size="8">D</text>
	<text transform="matrix(1 0 0 1 220.4487 492.5166)" font-family="'ArialNarrow'" font-size="8">ona Ana</text>
	<text transform="matrix(1 0 0 1 303.7412 477.3496)" font-family="'ArialNarrow'" font-size="8">O</text>
	<text transform="matrix(1 0 0 1 309.9629 477.3496)" font-family="'ArialNarrow'" font-size="8">tero</text>
	<text transform="matrix(1 0 0 1 418.8984 485.6699)" font-family="'ArialNarrow'" font-size="8">E</text>
	<text transform="matrix(1 0 0 1 424.2344 485.6699)" font-family="'ArialNarrow'" font-size="8">ddy</text>
	<text transform="matrix(1 0 0 1 492.4258 452.6826)" font-family="'ArialNarrow'" font-size="8">L</text>
	<text transform="matrix(1 0 0 1 496.875 452.6826)" font-family="'ArialNarrow'" font-size="8">ea</text>
</g>
<g id="Legend">
	<text id="Ref_WithPresence_text" transform="matrix(1 0 0 1 47.1904 636.7549)" font-family="'ArialNarrow'" font-size="13">City or County with COPsync Presence</text>
	
		<rect id="Ref_WithPresence_box" x="29.441" y="628.287" fill="#D0D0D0" stroke="#FF0000" stroke-width="0.9697" width="10" height="10"/>
	<text id="Ref_WithoutPresence_text" transform="matrix(1 0 0 1 47.1904 666.7549)" font-family="'ArialNarrow'" font-size="13">City or County without COPsync Presence</text>
	
		<rect id="Ref_WithoutPresence_box" x="29.441" y="658.287" fill="#D0D0D0" stroke="#FF0000" stroke-width="0.9697" width="10" height="10"/>
</g>
</svg>
