<?xml version="1.0" encoding="utf-8"?>
<!-- Generator: Adobe Illustrator 16.0.0, SVG Export Plug-In . SVG Version: 6.00 Build 0)  -->
<!DOCTYPE svg PUBLIC "-//W3C//DTD SVG 1.1//EN" "http://www.w3.org/Graphics/SVG/1.1/DTD/svg11.dtd">
<svg version="1.1" id="Plan_1" xmlns="http://www.w3.org/2000/svg" xmlns:xlink="http://www.w3.org/1999/xlink" x="0px" y="0px"
	 width="595px" height="842px" viewBox="0 0 595 842" enable-background="new 0 0 595 842" xml:space="preserve">
<g id="Counties">
	
		<path id="AZ_Apache" fill-rule="evenodd" clip-rule="evenodd" fill="#D0D0D0" stroke="#666666" stroke-width="0.2835" stroke-miterlimit="22.9256" d="
		M495.807,363.758c0.223,0.165,0.28,0.187,0.423,0.331c2.821,0.403,5.767,4.528,6.088,7.11c0.813,0.931,3.118,2.537,4.476,1.858
		c0.49-0.862,0.58-1.85,1.048-2.788c0.725-1.453,2.573-3.096,3.951-4c1.074-0.705,1.533-2.144,2.178-3.272
		c0.207-0.104,0.421-0.096,0.604-0.243l1.048-0.121c1.039-0.812,1.917-1.074,2.621-2.303c2.036-3.555,5.051,0.017,7.378-2.909
		l1.854-1.333l0,0l0.847-1.333c0.249-0.125,0.688-0.606,0.807-0.646c0-0.649-0.121-1.201-0.121-1.818
		c0.188-0.125,0.221-0.408,0.564-0.525c0.324-0.11,0.612-0.086,0.927-0.161c0.85-0.204,0.848-0.058,1.13-0.97
		c0.203-0.658,2.986-0.596,3.709-0.768c0.688-0.164,1.204-0.481,1.935-0.525c0.587-0.035,0.61-0.556,0.928-0.768
		c0-0.612-0.562-1.318-0.443-1.818c0.246-1.037,0.246-1.451,0.962-2.283h24.426l0,0l-0.391-314.588l0,0l-76.16-0.057l0,0
		l0.242,129.574h13.246v14.688h-0.789v68.027h-0.785v20.607c-0.028,0.391-0.142,0.72-0.142,1.087
		c-0.055,0.018-0.191,1.073-0.201,1.212c-0.119,1.708-0.18,3.384-0.081,5.131c0.056,0.986,0.306,1.897,0.443,2.869
		c0.144,1.01,0.686,1.896,0.686,2.949v34.491h-1.252v34.137h-2.154V363.758L495.807,363.758z"/>
	
		<path id="AZ_Navajo" fill-rule="evenodd" clip-rule="evenodd" fill="#D0D0D0" stroke="#666666" stroke-width="0.2835" stroke-miterlimit="22.9256" d="
		M428.557,29.785l58.037,0.043l0,0l0.242,129.574h13.246v14.688h-0.789v68.027h-0.785v20.607c-0.028,0.391-0.142,0.72-0.142,1.087
		c-0.055,0.018-0.191,1.073-0.201,1.212c-0.119,1.708-0.18,3.384-0.081,5.131c0.056,0.986,0.306,1.897,0.443,2.869
		c0.144,1.01,0.686,1.896,0.686,2.949v34.491h-1.252v34.137h-2.154v19.157l0,0l-1.149,0.168c-0.47,0-0.928,0.207-1.371,0.364
		c-0.412,0.146-0.899,0.177-1.29,0.323c-0.393-0.107-0.732-0.114-1.129-0.283c-0.336-0.143-0.596-0.418-0.927-0.566
		c-0.848-1.361-2.655-0.821-3.722-0.165l0,0v-41.22h-59.918v-25.607l0,0L428.557,29.785L428.557,29.785z"/>
	
		<path id="AZ_Gila" fill-rule="evenodd" clip-rule="evenodd" fill="#D0D0D0" stroke="#666666" stroke-width="0.2835" stroke-miterlimit="22.9256" d="
		M426.301,296.772v25.607h59.918v41.22l0,0v11.275h-12.81l-0.483,0.283c-0.203,0.817-8.169,2.171-9.313,2.545
		c-1.128,0.369-2.295-0.409-3.346,0.242c-0.794,0.492-0.296,1.74-1.25,2.262c-1.753,0.96-4.546-0.086-6.451,0.728
		c-2.002,0.855-2.035,7.212-1.976,9.211l0.161,5.333c0.044,1.453,2.044,2.684,2.218,4.08c0.182,0.354,0.242,0.444,0.242,0.809
		c0,0.149,0.001,0.194-0.081,0.323c-0.063,0.1-0.109,0.187-0.201,0.242c-0.073,0.045-0.068,0.109-0.121,0.161
		c-0.066,0.066-0.096,0.019-0.121,0.122c-0.136,0.033-0.199,0.166-0.322,0.242c-0.153,0.095-0.273,0.152-0.403,0.282l-1.008,0.283
		l0,0h-5.161l-1.773,1.495c-0.347,0.347-0.956,0.795-1.492,0.646c-0.639-0.177-0.707,0.749-1.129,1.091
		c-0.552,0.446-2.148,1.077-2.862,1.414c-0.859,0.407-1.771-0.121-2.661-0.121c-1.452,0-1.718,1.062-2.661,2.061
		c-1.208,1.28-1.929,2.593-2.902,3.959c-0.838,0.119-0.945,0.584-1.411,1.051c0,1.639-0.433,3.463-1.612,4.646
		c-1.066,1.068-1.93,3.147-3.143,3.938l-13.202-25.601l-2.254-8.533l-5.108-13.033l0,0l-9.112-20.604l-1.895,1.212
		c-0.28,0.372-0.847,1.379-1.371,1.454c-0.404,0.569-0.825,0.816-1.089,1.576c-0.204,0.591-0.275,1.816-0.766,2.182
		c-0.686,0.512-2.167-1.194-2.741-1.535c-1.979-1.174-2.82-3.339-4.718-4.444c-1.416-0.824-2.301-2.527-2.499-4.121
		c-0.646-1.081-0.464-1.556-1.532-2.545c-0.754-0.698-1.487-1.099-2.057-2.021c-0.325-0.527-0.025-5.205,0.564-5.373
		c0.492-1.153-1.129-2.422-1.37-3.757c-0.292-1.608-1.434-2.811-1.613-4.283c-0.06-0.492,0.278-2.265-0.201-2.505
		c-1.047-0.524-2.298,1.615-2.943-0.202c-0.595-1.673,0.385-4.108,0.847-5.616c1.019-3.326-3.341-1.876-4.741-1.915l0,0l0.104-2.247
		c0.157-0.421-0.029-0.802,0.242-1.212c0.221-0.333,0.517-0.396,0.766-0.646c1.187-0.148,1.532-1.165,1.532-2.222
		c0-1.155-1.277-1.769-1.411-2.707c-0.675-0.674,0.194-1.603,0.282-2.222c0.072-0.072,0.106-0.129,0.161-0.202
		c0-0.316-0.163-0.459-0.201-0.727c-0.27-0.27-0.785-1.014-0.483-1.414v-0.081c0.095-0.127,0.157-0.239,0.281-0.363
		c0.017-0.082,0.034-0.139,0.081-0.202l0.002-0.545H349.08c0.382-0.354,1.089-3.61,1.522-3.858c0.195-0.392,0.365-0.775,0.161-1.212
		c-0.241-0.516-0.93-1.074-1.008-1.535c-0.164-0.97,0.262-2.443,0.564-3.354c0.223-0.159,0.667-0.638,0.847-0.848
		c0.225-0.263,0.236-0.626,0.403-0.849c0-0.375,0.178-0.769,0.282-1.131c0.251-0.36,0.494-0.998,0.403-1.454
		c-0.512-0.17,0.353-1.202,0.523-1.374c0.542-0.543,0.524-0.789,0.524-1.495c0-1.619,0.403-3.026,0.403-4.646
		c0-1.254,0.917-1.648,1.936-1.98c0.961-0.313,3.682-1.79,4.395-2.504c1.316-1.321,2.444-2.78,2.205-4.775l0,0
		c1.2-0.419,1.289-0.205,1.988-1.446c1.048-1.86,1.672-1.28,1.854,0.404c0.196,1.819,1.372,0.859-0.041,3.03
		c-0.722,1.109-1.75,1.292-2.258,2.748c-0.417,1.197-0.151,2.274,1.21,1.05c0.529-0.476,1.625-1.747,2.339-1.171
		c2.01,1.622,2.417-0.564,3.789-1.939c0.436-0.437,0.726,0.148,0.726,0.525c0,1.344-0.308,2.793,0.121,4.081
		c0.98,2.944,2.005,1.411,2.178-0.687c0.098-1.193,0.111-2.228,1.209-2.909c0.613-0.38,1.365-1.535,2.057-1.535
		c0.766,1.79,1.508,2.675,3.749,1.818c0.938-0.359,4.843-2.419,5.201-2.061c0.424,0.178,1.163,0.78,1.21,1.292
		c0.612,0.44,0.51,1.573,1.451,2.061c1.568,0.812,3.782,0.44,4.878,2.061c0.779,1.153,2.843,0.614,3.992,0.404
		c1.446-0.265,4.954,0.349,4.596,1.979c-0.504,2.294,0.353,4.267,1.814,1.091c0.921-2,1.306-0.895,2.379,0.242
		c1.543,1.635,2.745,4.213,5.281,4.323c2.178,0.094,3.415,1.834,4.556,3.434c0.611,0.44,2.075,1.166,2.702,0.484
		c0.814-0.884-0.01-1.792,0.443-2.585c0.065-0.016,0.069-0.029,0.12-0.081c0.591,0,1.268,0.114,1.854-0.122
		c0.922-0.369,2.492-1.587,2.984-0.081c0.132,0.405,0.185,0.895,0.322,1.293c0.116,0.338,0.272,1.021,0.322,1.374L426.301,296.772
		L426.301,296.772z"/>
	
		<path id="AZ_Yavapai" fill-rule="evenodd" clip-rule="evenodd" fill="#D0D0D0" stroke="#666666" stroke-width="0.2835" stroke-miterlimit="22.9256" d="
		M362.242,276.733c0.239,1.995-0.889,3.454-2.205,4.775c-0.713,0.715-3.434,2.191-4.395,2.504c-1.019,0.332-1.936,0.726-1.936,1.98
		c0,1.62-0.403,3.027-0.403,4.646c0,0.706,0.018,0.952-0.524,1.495c-0.171,0.172-1.035,1.204-0.523,1.374
		c0.091,0.457-0.152,1.094-0.403,1.454c-0.104,0.362-0.282,0.756-0.282,1.131c-0.167,0.222-0.179,0.586-0.403,0.849
		c-0.18,0.21-0.624,0.689-0.847,0.848c-0.303,0.911-0.729,2.383-0.564,3.354c0.078,0.461,0.767,1.02,1.008,1.535
		c0.204,0.437,0.034,0.82-0.161,1.212c-0.434,0.249-1.141,3.504-1.522,3.858h18.619l-0.002,0.545
		c-0.047,0.063-0.064,0.121-0.081,0.202c-0.124,0.125-0.187,0.236-0.281,0.363v0.081c-0.302,0.4,0.214,1.145,0.483,1.414
		c0.038,0.268,0.201,0.411,0.201,0.727c-0.055,0.073-0.089,0.13-0.161,0.202c-0.088,0.619-0.957,1.547-0.282,2.222
		c0.134,0.938,1.411,1.552,1.411,2.707c0,1.058-0.346,2.074-1.532,2.222c-0.249,0.25-0.545,0.313-0.766,0.646
		c-0.271,0.41-0.085,0.791-0.242,1.212l-0.104,2.247l0,0l-19.401,0.161l-33.754-4.549l-0.04,1.455c0,0.613-0.05,0.922-0.201,1.454
		c-1.208,0.607-1.693,0.495-1.693,2.061c0,1.14-0.908,2.396-1.896,2.909c-0.62,0.322-1.461,0.622-1.935,1.131
		c-0.693,0.747-0.374,1.641-0.242,2.586c0.187,1.339-0.647,2.144-1.733,2.788c-0.701,0.416-1.153,1.019-1.816,1.437l-36.705-11.35
		h-47.825l0,0v-29.144l0,0l-0.095-120.325l0,0h5.806c0.685,0.142,0.44,0.122,0.564,0.122c0.21,0.633,3.848,1.801,4.556,2.02
		c1.258,0.39,2.8,0.103,3.548,1.374c1.204,2.047,3.386,2.532,5.362,3.757c1.132,0.701,2.181,1.652,3.346,2.303
		c0.92,0.514,3.66,2.242,4.072,3.07c0.229,0.074,0.694,0.323,0.927,0.323c0.415,0.624,0.918,0.451,1.331,1.697
		c0.841,2.543,2.258,2.446,4.677,2.909c2.843,0.543,7.728,1.684,10.16,3.191c1.367,0.847,3.181,1.332,4.798,1.01
		c0.676-0.134,1.72-0.738,2.378-0.606c0.598,0.12,1.003,0.662,1.532,0.768c0.499,2,2.656,0.485,4.153,0.485
		c0.719,1.263,0.246,2.144,1.492,3.394c0.883,0.886,2.257,2.295,3.507,2.545c2.136,0,4.122,0.236,6.209-0.283
		c0.625-0.155,1.291-0.365,1.814-0.727c0.271-0.188,1.625-1.088,1.693-1.293c0.082,0,0.06-0.022,0.081,0.04v11.111h8.468v17.131
		h42.148v-0.752h2.764v17.469h17.849V276.733L362.242,276.733z"/>
	
		<path id="AZ_Coconino" fill-rule="evenodd" clip-rule="evenodd" fill="#D0D0D0" stroke="#666666" stroke-width="0.2835" stroke-miterlimit="22.9256" d="
		M362.242,276.733c1.2-0.419,1.289-0.205,1.988-1.446c1.048-1.86,1.672-1.28,1.854,0.404c0.196,1.819,1.372,0.859-0.041,3.03
		c-0.722,1.109-1.75,1.292-2.258,2.748c-0.417,1.197-0.151,2.274,1.21,1.05c0.529-0.476,1.625-1.747,2.339-1.171
		c2.01,1.622,2.417-0.564,3.789-1.939c0.436-0.437,0.726,0.148,0.726,0.525c0,1.344-0.308,2.793,0.121,4.081
		c0.98,2.944,2.005,1.411,2.178-0.687c0.098-1.193,0.111-2.228,1.209-2.909c0.613-0.38,1.365-1.535,2.057-1.535
		c0.766,1.79,1.508,2.675,3.749,1.818c0.938-0.359,4.843-2.419,5.201-2.061c0.424,0.178,1.163,0.78,1.21,1.292
		c0.612,0.44,0.51,1.573,1.451,2.061c1.568,0.812,3.782,0.44,4.878,2.061c0.779,1.153,2.843,0.614,3.992,0.404
		c1.446-0.265,4.954,0.349,4.596,1.979c-0.504,2.294,0.353,4.267,1.814,1.091c0.921-2,1.306-0.895,2.379,0.242
		c1.543,1.635,2.745,4.213,5.281,4.323c2.178,0.094,3.415,1.834,4.556,3.434c0.611,0.44,2.075,1.166,2.702,0.484
		c0.814-0.884-0.01-1.792,0.443-2.585c0.065-0.016,0.069-0.029,0.12-0.081c0.591,0,1.268,0.114,1.854-0.122
		c0.922-0.369,2.492-1.587,2.984-0.081c0.132,0.405,0.185,0.895,0.322,1.293c0.116,0.338,0.272,1.021,0.322,1.374l1.03,0.962l0,0
		l2.256-266.987l0,0l-145.666-0.108l0,0l0.222,1.174c1.404,1.524-0.606,3.506-0.606,5.101c-0.576,0.722-0.48,1.696-1.331,2.384
		c-1.388,1.122-1.018,3.055-1.693,4.484c-0.786,1.663-3.165,5.777-2.54,7.595c0.382,1.111-0.316,2.974-0.564,4.081l-0.806,3.596
		c-1.309,2.79,1.317,5.03,1.451,7.676c0.094,1.855-1.024,6.26-3.306,6.545c-0.417,0.586-1.618,0.483-1.33,1.576
		c0.513,1.947,1.002,6.585,3.709,6.585c0.743,0.746-0.371,1.217-0.766,1.858c-0.608,0.987-0.121,2.116-0.121,3.192
		c1.281,0.538,1.031,1.541,0.242,2.383c-1.219,1.301-1.572,3.333-2.419,4.929c-0.27,0.509-0.721,1.635-1.209,0.525
		c-0.247-0.561-0.683-1.131-1.331-0.97c-0.292,0.588-1.405,0.006-1.492,1.253c-0.038,0.538-0.099,2.015-0.766,2.181
		c-0.613-0.613-0.838-0.922-1.814-0.848c-1.116,0.084-0.671,2.012-1.734,2.101c-0.962,0.551-1.25,1.222-2.056,1.737
		c-0.662,0.424-1.797,0.009-2.742,0.404c-0.881,0.369-3.088-0.321-3.387,0.727l-0.121,0.041c-1.267,2.544-1.906,1.558-3.991,1.818
		c-1.687,2.371-4.049,2.641-6.814,2.142c-2.626-0.475-3.954,3.34-6.41,4.161c-1.786,0.404-2.175,2.393-3.75,2.464
		c-1.909,0.086-2.811-0.667-3.951,1.333c-1.909,0.272-0.04,5.225-3.588,5.979c-2.112,0.45-5.519-0.496-7.418,0.283
		c-0.536,0.219-2.469,3.378-2.661,4c-0.351,1.138,0.979,5.458,1.734,6.424c0.867,1.109,0.645,3.423,0.645,4.929
		c-0.122,0.181-0.28,0.442-0.443,0.606c-0.271,1.901,1.898,3.36,1.814,5.494c-0.044,1.115-0.735,1.997-1.209,2.949
		c-0.285,0.573-0.57,1.461-0.927,1.939v0.162c-0.399,0.53-0.403,27.832-0.403,28.482l0,0h5.806c0.685,0.142,0.44,0.122,0.564,0.122
		c0.21,0.633,3.848,1.801,4.556,2.02c1.258,0.39,2.8,0.103,3.548,1.374c1.204,2.047,3.386,2.532,5.362,3.757
		c1.132,0.701,2.181,1.652,3.346,2.303c0.92,0.514,3.66,2.242,4.072,3.07c0.229,0.074,0.694,0.323,0.927,0.323
		c0.415,0.624,0.918,0.451,1.331,1.697c0.841,2.543,2.258,2.446,4.677,2.909c2.843,0.543,7.728,1.684,10.16,3.191
		c1.367,0.847,3.181,1.332,4.798,1.01c0.676-0.134,1.72-0.738,2.378-0.606c0.598,0.12,1.003,0.662,1.532,0.768
		c0.499,2,2.656,0.485,4.153,0.485c0.719,1.263,0.246,2.144,1.492,3.394c0.883,0.886,2.257,2.295,3.507,2.545
		c2.136,0,4.122,0.236,6.209-0.283c0.625-0.155,1.291-0.365,1.814-0.727c0.271-0.188,1.625-1.088,1.693-1.293
		c0.082,0,0.06-0.022,0.081,0.04v11.111h8.468v17.131h42.148v-0.752h2.764v17.469h17.849V276.733L362.242,276.733z"/>
	
		<path id="AZ_Maricopa" fill-rule="evenodd" clip-rule="evenodd" fill="#D0D0D0" stroke="#666666" stroke-width="0.2835" stroke-miterlimit="22.9256" d="
		M219.102,322.622h47.825l36.705,11.35c0.663-0.417,1.115-1.021,1.816-1.437c1.086-0.644,1.92-1.449,1.733-2.788
		c-0.132-0.945-0.451-1.839,0.242-2.586c0.474-0.51,1.314-0.809,1.935-1.131c0.987-0.513,1.896-1.769,1.896-2.909
		c0-1.566,0.485-1.454,1.693-2.061c0.151-0.532,0.201-0.841,0.201-1.454l0.04-1.455l33.754,4.549l19.401-0.161l0,0
		c1.4,0.039,5.76-1.411,4.741,1.915c-0.462,1.507-1.441,3.942-0.847,5.616c0.646,1.817,1.896-0.323,2.943,0.202
		c0.479,0.24,0.142,2.013,0.201,2.505c0.18,1.472,1.321,2.674,1.613,4.283c0.241,1.335,1.862,2.604,1.37,3.757
		c-0.59,0.168-0.89,4.846-0.564,5.373c0.569,0.922,1.303,1.323,2.057,2.021c1.068,0.989,0.887,1.464,1.532,2.545
		c0.198,1.594,1.083,3.297,2.499,4.121c1.897,1.105,2.738,3.27,4.718,4.444c0.574,0.341,2.056,2.047,2.741,1.535
		c0.49-0.366,0.562-1.59,0.766-2.182c0.264-0.76,0.685-1.007,1.089-1.576c0.524-0.075,1.091-1.082,1.371-1.454l1.895-1.212
		l9.112,20.604l0,0l-43.838-0.252v25.906h-39.378l-1.089-1.132c-0.111-0.156-0.416-0.373-0.443-0.565
		c-0.172-0.086-0.451-0.673-0.686-0.848c-0.418-0.312-0.781-0.561-1.289-0.728c-0.786-0.258-1.291-0.622-1.814-1.293
		c-0.426-0.544-0.74-0.658-1.25-1.091c-0.545-0.462-1.409-0.521-1.936-1.091c-0.752-0.813-0.494-1.831-1.479-2.494v77.717l0,0
		h-91.083l0,0l-0.194-85.605l0,0V322.622L219.102,322.622z"/>
	
		<path id="AZ_Greenlee" fill-rule="evenodd" clip-rule="evenodd" fill="#D0D0D0" stroke="#666666" stroke-width="0.2835" stroke-miterlimit="22.9256" d="
		M563.145,344.474h-24.426c-0.716,0.832-0.716,1.246-0.962,2.283c-0.118,0.5,0.443,1.206,0.443,1.818
		c-0.317,0.212-0.341,0.732-0.928,0.768c-0.73,0.044-1.247,0.362-1.935,0.525c-0.723,0.171-3.506,0.109-3.709,0.768
		c-0.282,0.912-0.28,0.766-1.13,0.97c-0.314,0.075-0.603,0.051-0.927,0.161c-0.344,0.117-0.377,0.4-0.564,0.525
		c0,0.618,0.121,1.169,0.121,1.818c-0.119,0.04-0.558,0.521-0.807,0.646l-0.847,1.333l0,0v57.582l12.619,22.129h1.573l7.418,14.262
		c0.031,0.968,0.201,1.874,0.201,2.868c0,1.396,1.091,2.169,0.968,3.798c-0.103,1.359-1.382,1.17-0.927,2.99
		c1.427,0.355-0.11,3.347-0.282,3.999c-0.32,1.217-0.387,2.168,0.726,2.909c0.936,0.624,0.863,1.352,1.451,2.02
		c1.625,1.844,2.851,4.025,4.637,5.818l1.349,2.242l0,0h6.101l0,0L563.145,344.474L563.145,344.474z"/>
	
		<path id="AZ_Graham" fill-rule="evenodd" clip-rule="evenodd" fill="#D0D0D0" stroke="#666666" stroke-width="0.2835" stroke-miterlimit="22.9256" d="
		M486.219,363.6c1.066-0.656,2.874-1.196,3.722,0.165c0.331,0.147,0.591,0.423,0.927,0.566c0.396,0.168,0.736,0.176,1.129,0.283
		c0.391-0.146,0.878-0.177,1.29-0.323c0.443-0.157,0.901-0.364,1.371-0.364l1.149-0.168l0,0c0.223,0.165,0.28,0.187,0.423,0.331
		c2.821,0.403,5.767,4.528,6.088,7.11c0.813,0.931,3.118,2.537,4.476,1.858c0.49-0.862,0.58-1.85,1.048-2.788
		c0.725-1.453,2.573-3.096,3.951-4c1.074-0.705,1.533-2.144,2.178-3.272c0.207-0.104,0.421-0.096,0.604-0.243l1.048-0.121
		c1.039-0.812,1.917-1.074,2.621-2.303c2.036-3.555,5.051,0.017,7.378-2.909l1.854-1.333l0,0v57.582l12.619,22.129h1.573
		l7.418,14.262c0.031,0.968,0.201,1.874,0.201,2.868c0,1.396,1.091,2.169,0.968,3.798c-0.103,1.359-1.382,1.17-0.927,2.99
		c1.427,0.355-0.11,3.347-0.282,3.999c-0.32,1.217-0.387,2.168,0.726,2.909c0.936,0.624,0.863,1.352,1.451,2.02
		c1.625,1.844,2.851,4.025,4.637,5.818l1.349,2.242l0,0l-106.255-0.142l0,0v-8.493l0,0v-66.047l0,0l1.008-0.283
		c0.13-0.13,0.25-0.188,0.403-0.282c0.123-0.076,0.187-0.209,0.322-0.242c0.025-0.104,0.055-0.056,0.121-0.122
		c0.053-0.052,0.048-0.116,0.121-0.161c0.092-0.056,0.138-0.143,0.201-0.242c0.082-0.129,0.081-0.174,0.081-0.323
		c0-0.364-0.061-0.455-0.242-0.809c-0.174-1.396-2.174-2.627-2.218-4.08l-0.161-5.333c-0.06-1.999-0.026-8.356,1.976-9.211
		c1.905-0.813,4.698,0.233,6.451-0.728c0.954-0.522,0.456-1.771,1.25-2.262c1.051-0.651,2.218,0.127,3.346-0.242
		c1.145-0.375,9.11-1.728,9.313-2.545l0.483-0.283h12.81V363.6L486.219,363.6z"/>
	
		<path id="AZ_Pinal" fill-rule="evenodd" clip-rule="evenodd" fill="#D0D0D0" stroke="#666666" stroke-width="0.2835" stroke-miterlimit="22.9256" d="
		M403.58,375.037l5.108,13.033l2.254,8.533l13.202,25.601c1.213-0.791,2.076-2.87,3.143-3.938c1.18-1.183,1.612-3.007,1.612-4.646
		c0.466-0.467,0.573-0.932,1.411-1.051c0.974-1.366,1.694-2.679,2.902-3.959c0.943-0.999,1.209-2.061,2.661-2.061
		c0.89,0,1.802,0.528,2.661,0.121c0.714-0.337,2.311-0.968,2.862-1.414c0.422-0.342,0.49-1.268,1.129-1.091
		c0.536,0.148,1.146-0.3,1.492-0.646l1.773-1.495h5.161l0,0v66.047l0,0l-140.574,1.096l0,0V391.45
		c0.984,0.663,0.727,1.681,1.479,2.494c0.526,0.569,1.391,0.629,1.936,1.091c0.51,0.433,0.824,0.547,1.25,1.091
		c0.523,0.671,1.028,1.035,1.814,1.293c0.508,0.167,0.871,0.416,1.289,0.728c0.234,0.175,0.514,0.762,0.686,0.848
		c0.027,0.192,0.332,0.409,0.443,0.565l1.089,1.132h39.378v-25.906L403.58,375.037L403.58,375.037z"/>
	
		<polygon id="AZ_Pima" fill-rule="evenodd" clip-rule="evenodd" fill="#D0D0D0" stroke="#666666" stroke-width="0.2835" stroke-miterlimit="22.9256" points="
		310.379,469.167 450.953,468.071 450.953,468.071 450.953,476.564 450.953,476.564 450.953,543.361 450.874,543.361 
		393.393,543.361 393.393,562.34 377.311,562.34 377.311,572.592 377.311,572.592 219.295,514.542 219.295,514.542 219.295,469.167 
		219.295,469.167 310.379,469.167 	"/>
	
		<polygon id="AZ_Santa_Cruz" fill-rule="evenodd" clip-rule="evenodd" fill="#D0D0D0" stroke="#666666" stroke-width="0.2835" stroke-miterlimit="22.9256" points="
		450.066,581.124 400.723,581.193 377.311,572.592 377.311,572.592 377.311,562.34 393.393,562.34 393.393,543.361 450.874,543.361 
		450.872,543.361 450.872,556.45 450.066,556.45 450.066,581.124 	"/>
	
		<polygon id="AZ_Cochise" fill-rule="evenodd" clip-rule="evenodd" fill="#D0D0D0" stroke="#666666" stroke-width="0.2835" stroke-miterlimit="22.9256" points="
		563.309,476.706 557.208,476.706 557.208,476.706 450.953,476.564 450.953,476.564 450.953,543.361 450.872,543.361 
		450.872,556.45 450.066,556.45 450.066,581.124 450.066,581.124 563.439,580.966 563.439,580.966 563.309,476.706 	"/>
	
		<path id="AZ_Mohave" fill-rule="evenodd" clip-rule="evenodd" fill="#D0D0D0" stroke="#666666" stroke-width="0.2835" stroke-miterlimit="22.9256" d="
		M154.377,300.941l3.548,0.727c3.132,0.072,4.352,2.034,7.722,2.034c1.614,0,4.421-1.17,5.635-0.563c3.2,1.6,4.674,2.939,8.614,3.22
		c3.473,0.248,4.666-2.954,7.89-0.805c4.524,3.017,10.193-2.237,13.203-4.911c1.32-1.173,2.17-2.875,3.14-4.025
		c1.555-1.846,1.673-0.241,4.025-0.241l-0.081,0.161c0.235-0.02,1.342-0.194,1.691-0.161c1.25,0.117,2.395,0.081,3.623,0.081
		c0.445-0.334,3.031-0.399,3.14-0.725l2.576-2.254l0,0l-0.095-120.325l0,0c0-0.651,0.004-27.953,0.403-28.482v-0.162
		c0.357-0.478,0.643-1.367,0.927-1.939c0.474-0.953,1.166-1.834,1.209-2.949c0.084-2.134-2.085-3.593-1.814-5.494
		c0.164-0.165,0.321-0.426,0.443-0.606c0-1.505,0.222-3.819-0.645-4.929c-0.755-0.966-2.085-5.286-1.734-6.424
		c0.192-0.622,2.125-3.781,2.661-4c1.899-0.779,5.306,0.167,7.418-0.283c3.549-0.755,1.68-5.708,3.588-5.979
		c1.14-2,2.042-1.247,3.951-1.333c1.575-0.071,1.963-2.06,3.75-2.464c2.456-0.821,3.784-4.636,6.41-4.161
		c2.765,0.499,5.127,0.229,6.814-2.142c2.085-0.26,2.724,0.726,3.991-1.818l0.121-0.041c0.298-1.048,2.505-0.358,3.387-0.727
		c0.944-0.396,2.08,0.02,2.742-0.404c0.806-0.515,1.094-1.187,2.056-1.737c1.062-0.088,0.618-2.016,1.734-2.101
		c0.976-0.074,1.201,0.235,1.814,0.848c0.667-0.167,0.729-1.644,0.766-2.181c0.087-1.247,1.2-0.665,1.492-1.253
		c0.647-0.162,1.083,0.409,1.331,0.97c0.488,1.11,0.939-0.016,1.209-0.525c0.848-1.596,1.201-3.628,2.419-4.929
		c0.789-0.842,1.04-1.845-0.242-2.383c0-1.076-0.488-2.205,0.121-3.192c0.395-0.641,1.509-1.113,0.766-1.858
		c-2.707,0-3.196-4.638-3.709-6.585c-0.288-1.092,0.913-0.99,1.33-1.576c2.282-0.285,3.4-4.689,3.306-6.545
		c-0.134-2.646-2.76-4.887-1.451-7.676l0.806-3.596c0.248-1.106,0.947-2.969,0.564-4.081c-0.625-1.818,1.754-5.932,2.54-7.595
		c0.675-1.43,0.305-3.362,1.693-4.484c0.851-0.688,0.755-1.662,1.331-2.384c0-1.595,2.01-3.577,0.606-5.101l-0.222-1.174l0,0
		l-121.108-0.09l0,0l0.864,81.072c-1.791,2.064-3.548,6.561-5.211,7.884c-3.136,2.495-2.546,8.314-6.118,9.419
		c-2.693,0.833-4.855-0.132-7.222-1.553c-0.974-0.848-4.189-3.288-4.613-3.921c-0.317-0.902-0.634-1.804-0.951-2.705l-1.791-2.961
		c-0.509-0.38-2.134-0.902-2.604-1.079c-1.363-0.132-3.058,0.723-4.032,1.697c-2.12,0.265-5.252-1.33-7.194-1.956
		c-0.702,0-1.403,0-2.105,0c-0.3,0-1.641,0.42-1.852,0.483c-0.598,0.18-1.124,0.161-1.771,0.161c-0.697,0-1.198,0.039-1.852,0.161
		c-1.126,0.21-2.959,0.866-3.784,1.69c-0.229,0.229-0.595,0.429-0.805,0.644c-0.218,0.224-0.515,0.507-0.754,0.649
		c-1.672,0.692-4.289,1.524-4.155,3.904l0.484,3.03c-0.281,3.018,0.101,6.392,1.124,9.081c0.575,1.51,2.059,3.186,3.22,4.347
		c1.077,1.077,3.104,2.493,1.047,3.864c-2.828,1.885-2.737,13.084-1.852,16.342c0.279,1.026,1.215,2.4,0.966,3.3
		c-0.544,1.959,2.496,3.425,2.496,6.038c0,1.401-0.957,2.106-1.288,3.301c-0.206,0.744,0.299,2.079,0.242,2.817
		c-0.184,2.342-0.368,4.684-0.552,7.026c0.507,0.85,1.329,1.841,1.653,2.424c0.557,1.001,0.952,1.728,1.129,2.828
		c0.208,1.292,1.213,2.2,1.573,3.192c2.838,4.271,2.798,9.187,2.798,14.397c0,2.782,0.402,5.573,0.402,8.292
		c0,4.526-1.453,2.539-4.588,4.025c-0.252,0.119-0.344,0.646-0.081,0.805c0.762,0.462,2.679,2.15,2.576,3.14
		c-0.012,0.112-0.067,0.141-0.161,0.242c-0.096,0.103-0.881,1.042-1.046,1.208c-0.221,0.221-0.187-0.019-0.322,0.241
		c-1.017,1.952-0.889,2.873-0.725,5.233l0,0c0.121,1.728,0.248,3.356,0.081,5.072c-0.018,0.182-0.086,1.546,0,1.771
		c0.163,0.424,0.039,1.593,0,2.093c-0.167,2.131,0.533,4.495,2.174,5.796c0.711,0.564,1.156,1.162,1.61,1.932
		c0.341,0.58,1.046,2.041,1.288,2.496c0.265,0.498,1.421,2.987,1.771,3.622c0.552,1.001,1.634,2.072,2.415,2.737
		c0.593,0.505,1.58,0.816,1.932,1.53c1.045,2.12,1.056,4.134,1.771,6.279c0.229,0.689,2.808,3.82,3.14,4.428
		c0.757,1.387-0.876,2.731,0.966,3.864c0.426,0.261,1.31,0.771,1.369,1.288c0.029,0.255,0.207,1.687,0.242,1.852
		c0.212,0.999,0.426,1.998,0.639,2.998c0.077,0.738,0.702,2.096,1.081,3.336l1.714,1.054c0.265,0.295,0.604,0.42,0.833,0.743
		c0.513,0.723,1.665,1.197,2.093,1.69c0.338,0.39,1.213,2.435,1.449,2.898c0.07,0.139,0.279,0.068,0.403,0.161
		c0.085,0.064,1.586,0.423,1.932,0.644c1.184,0.756,1.641,2.126,2.818,3.059c0.979,0.776,2.27,1.08,3.22,1.932
		c0.813,0.729,1.139,0.85,1.529,1.932c0.496,1.374,1.904,0.837,2.818,1.62c0.893,0.766-0.067,2.347,0.161,3.542
		c0.061,0.316-0.01,0.874-0.161,1.131c-0.174,0.295-0.45,0.361-0.743,0.402C152.84,300.34,154.144,300.809,154.377,300.941z"/>
	
		<path id="AZ_La_Paz" fill-rule="evenodd" clip-rule="evenodd" fill="#D0D0D0" stroke="#666666" stroke-width="0.2835" stroke-miterlimit="22.9256" d="
		M153.36,300.363l1.017,0.579l3.548,0.727c3.132,0.072,4.352,2.034,7.722,2.034c1.614,0,4.421-1.17,5.635-0.563
		c3.2,1.6,4.674,2.939,8.614,3.22c3.473,0.248,4.666-2.954,7.89-0.805c4.524,3.017,10.193-2.237,13.203-4.911
		c1.32-1.173,2.17-2.875,3.14-4.025c1.555-1.846,1.673-0.241,4.025-0.241l-0.081,0.161c0.235-0.02,1.342-0.194,1.691-0.161
		c1.25,0.117,2.395,0.081,3.623,0.081c0.445-0.334,3.031-0.399,3.14-0.725l2.576-2.254l0,0v29.144l0,0v60.94l0,0l-50.248-0.321
		v-8.373h-24.78v44.647l-22.322-0.046h0c-0.453-0.19-0.995-0.324-1.75-0.324c-1.828,0-2.728,1.428-4.428,0.483
		c-1.14-0.634-0.745-2.069-2.173-1.933c-0.15,0.015-0.157,0.359-0.322,0.483c-0.237,0.18-0.585-0.241-1.046-0.241
		c-0.054,0-0.107,0-0.161,0c-1.229,0-1.503-2.781-2.012-4.105c-0.604-1.57,0.448-3.617,1.127-4.911
		c1.336-2.547,1.123-6.1,0.805-8.694c-0.047-0.379,0.485-3.48-0.242-4.105c-0.748-0.643-2.609-0.741-3.14-1.61
		c-1.371-2.244-1.521-2.631,0.483-4.105c3.044-2.241-0.718-6.211-0.402-6.843c0.75-1.5,5.547-1.184,6.44-2.334
		c0.583-0.75,2.504-5.974,3.301-6.843c0.689-0.752,1.713-2.143,2.174-2.415c0.113-0.067,0.139-0.485,0.161-0.564
		c0.068-0.246,0.086-0.462,0.242-0.644c0.121-0.141,0.277-0.106,0.402-0.242c0.143-0.153,0.986-0.521,1.047-0.725
		c0.443-1.486-0.841-3.517-0.161-4.75c0.734-1.332,1.875-4.542,1.61-6.119c-0.135-0.808-0.145-2.483,0.645-2.898
		c0.25-0.132,0.601-0.494,0.805-0.644c0.122-0.09,0.12-0.015,0.161-0.161c0.272-0.974,0.632-1.285,0.483-2.496
		c-0.02-0.158-0.09-0.19-0.242-0.241c-1.555-0.527-2.13-11.271-1.771-12.479c0.805-2.702-0.343-9.377,2.737-11.271
		c1.327-0.815,0.024-2.078,1.771-3.864c2.674-2.733,2.558-6.528,4.106-8.936c1.231-1.916,9.499-2.096,9.741-5.072
		c0.026-0.322,0.594-0.445,0.805-0.725c0.28-0.371,2.561-0.864,3.059-1.208c0.932-0.643,1.727-1.999,2.093-2.416
		c0.143-0.162-0.022-0.355,0.161-0.402c0.32-0.082,0.64-0.165,0.958-0.247c0.26-0.067,0.372-0.457,0.524-0.647
		c0.152-0.189,0.609-0.639,0.766-0.889c0.275-0.437,0.677-1.067,1.008-1.454c0.534-0.626,0.482-1.886,1.128-2.384
		c0.14-0.108,0.301-0.159,0.466-0.191C153.231,300.283,153.251,300.302,153.36,300.363z"/>
	
		<path id="AZ_Yuma" fill-rule="evenodd" clip-rule="evenodd" fill="#D0D0D0" stroke="#666666" stroke-width="0.2835" stroke-miterlimit="22.9256" d="
		M121.751,419.469c0.807,0.34,1.331,0.859,2.275,1.125c0.048,0.014,0.879,1.483,0.886,1.61c0.118,2.472,2.656,1.759,2.656,4.669
		c0,1.788-1.018,3.007,0,4.991c1.466,2.859,0.058,5.083-1.932,6.843c-1.853,1.64-0.059,6.843-2.656,6.843c-0.081,0-0.161,0-0.242,0
		c-0.124,0-0.16,0.192-0.322,0.242c-3.603,1.098-5.599,3.71-9.902,1.69c-3.712-1.742-3.918-0.008-4.055,1.979l0,0
		c-0.077,1.115-0.134,2.309-0.775,3.013c-1.142,1.253-4.112,4.107-5.233,5.474c-1.251,1.526-0.081,2.942-0.081,4.75
		c0,2.246-0.826,4.457-0.563,7.004c0.068,0.661-0.063,1.126-0.336,1.498l0,0l117.825,43.343l0,0v-45.375l0,0l-0.194-85.605l0,0
		l-50.248-0.321v-8.373h-24.78v44.647L121.751,419.469L121.751,419.469z"/>
</g>
<g id="Outer_Border">
	<path fill-rule="evenodd" clip-rule="evenodd" fill="none" stroke="#FF0000" stroke-width="2" stroke-miterlimit="22.9256" d="
		M563.309,476.706l-0.164-132.232l-0.391-314.588l-76.16-0.057l-58.037-0.043l-145.666-0.108l-121.108-0.09l0.864,81.072
		c-1.791,2.064-3.548,6.561-5.211,7.884c-3.136,2.495-2.546,8.314-6.118,9.419c-2.693,0.833-4.855-0.132-7.222-1.553
		c-0.974-0.848-4.189-3.288-4.613-3.921c-0.317-0.902-0.634-1.804-0.951-2.705l-1.791-2.961c-0.509-0.38-2.134-0.902-2.604-1.079
		c-1.363-0.132-3.058,0.723-4.032,1.697c-2.12,0.265-5.252-1.33-7.194-1.956c-0.702,0-1.403,0-2.105,0
		c-0.3,0-1.641,0.42-1.852,0.483c-0.598,0.18-1.124,0.161-1.771,0.161c-0.697,0-1.198,0.039-1.852,0.161
		c-1.126,0.21-2.959,0.866-3.784,1.69c-0.229,0.229-0.595,0.429-0.805,0.644c-0.218,0.224-0.515,0.507-0.754,0.649
		c-1.672,0.692-4.289,1.524-4.155,3.904l0.484,3.03c-0.281,3.018,0.101,6.392,1.124,9.081c0.575,1.51,2.059,3.186,3.22,4.347
		c1.077,1.077,3.104,2.493,1.047,3.864c-2.828,1.885-2.737,13.084-1.852,16.342c0.279,1.026,1.215,2.4,0.966,3.3
		c-0.544,1.959,2.496,3.425,2.496,6.038c0,1.401-0.957,2.106-1.288,3.301c-0.206,0.744,0.299,2.079,0.242,2.817
		c-0.184,2.342-0.368,4.684-0.552,7.026c0.507,0.85,1.329,1.841,1.653,2.424c0.557,1.001,0.952,1.728,1.129,2.828
		c0.208,1.292,1.213,2.2,1.573,3.192c2.838,4.271,2.798,9.187,2.798,14.397c0,2.782,0.402,5.573,0.402,8.292
		c0,4.526-1.453,2.539-4.588,4.025c-0.252,0.119-0.344,0.646-0.081,0.805c0.762,0.462,2.679,2.15,2.576,3.14
		c-0.012,0.112-0.067,0.141-0.161,0.242c-0.096,0.103-0.881,1.042-1.046,1.208c-0.221,0.221-0.187-0.019-0.322,0.241
		c-1.017,1.952-0.889,2.873-0.725,5.233c0.121,1.728,0.248,3.356,0.081,5.072c-0.018,0.182-0.086,1.546,0,1.771
		c0.163,0.424,0.039,1.593,0,2.093c-0.167,2.131,0.533,4.495,2.174,5.796c0.711,0.564,1.156,1.162,1.61,1.932
		c0.341,0.58,1.046,2.041,1.288,2.496c0.265,0.498,1.421,2.987,1.771,3.622c0.552,1.001,1.634,2.072,2.415,2.737
		c0.593,0.505,1.58,0.816,1.932,1.53c1.045,2.12,1.056,4.134,1.771,6.279c0.229,0.689,2.808,3.82,3.14,4.428
		c0.757,1.387-0.876,2.731,0.966,3.864c0.426,0.261,1.31,0.771,1.369,1.288c0.029,0.255,0.207,1.687,0.242,1.852
		c0.212,0.999,0.426,1.998,0.639,2.998c0.077,0.738,0.702,2.096,1.081,3.336l1.714,1.054c0.265,0.295,0.604,0.42,0.833,0.743
		c0.513,0.723,1.665,1.197,2.093,1.69c0.338,0.39,1.213,2.435,1.449,2.898c0.07,0.139,0.279,0.068,0.403,0.161
		c0.085,0.064,1.586,0.423,1.932,0.644c1.184,0.756,1.641,2.126,2.818,3.059c0.979,0.776,2.27,1.08,3.22,1.932
		c0.813,0.729,1.139,0.85,1.529,1.932c0.496,1.374,1.904,0.837,2.818,1.62c0.893,0.766-0.067,2.347,0.161,3.542
		c0.061,0.316-0.01,0.874-0.161,1.131c-0.174,0.295-0.45,0.361-0.743,0.402c-0.12,0.017-0.154,0.05-0.155,0.089
		c-0.068-0.038-0.108-0.055-0.208-0.036c-0.165,0.032-0.326,0.083-0.466,0.191c-0.646,0.498-0.594,1.758-1.128,2.384
		c-0.331,0.387-0.733,1.017-1.008,1.454c-0.156,0.25-0.614,0.699-0.766,0.889c-0.152,0.19-0.265,0.58-0.524,0.647
		c-0.319,0.082-0.639,0.165-0.958,0.247c-0.183,0.047-0.018,0.24-0.161,0.402c-0.366,0.417-1.161,1.772-2.093,2.416
		c-0.498,0.343-2.779,0.836-3.059,1.208c-0.211,0.279-0.779,0.402-0.805,0.725c-0.242,2.976-8.51,3.156-9.741,5.072
		c-1.548,2.408-1.432,6.203-4.106,8.936c-1.747,1.786-0.444,3.049-1.771,3.864c-3.08,1.893-1.932,8.569-2.737,11.271
		c-0.359,1.208,0.216,11.951,1.771,12.479c0.152,0.051,0.222,0.083,0.242,0.241c0.149,1.211-0.211,1.522-0.483,2.496
		c-0.041,0.146-0.039,0.071-0.161,0.161c-0.204,0.15-0.554,0.512-0.805,0.644c-0.79,0.415-0.78,2.09-0.645,2.898
		c0.265,1.577-0.875,4.787-1.61,6.119c-0.68,1.232,0.604,3.264,0.161,4.75c-0.061,0.204-0.904,0.571-1.047,0.725
		c-0.125,0.135-0.282,0.101-0.402,0.242c-0.156,0.182-0.174,0.398-0.242,0.644c-0.021,0.079-0.048,0.497-0.161,0.564
		c-0.461,0.272-1.484,1.663-2.174,2.415c-0.796,0.869-2.718,6.092-3.301,6.843c-0.893,1.15-5.69,0.835-6.44,2.334
		c-0.315,0.632,3.447,4.602,0.402,6.843c-2.004,1.475-1.854,1.861-0.483,4.105c0.53,0.869,2.392,0.968,3.14,1.61
		c0.727,0.625,0.195,3.727,0.242,4.105c0.318,2.595,0.531,6.147-0.805,8.694c-0.679,1.294-1.731,3.341-1.127,4.911
		c0.509,1.324,0.783,4.105,2.012,4.105c0.054,0,0.107,0,0.161,0c0.461,0,0.809,0.421,1.046,0.241
		c0.165-0.124,0.172-0.469,0.322-0.483c1.429-0.137,1.034,1.299,2.173,1.933c1.7,0.944,2.6-0.483,4.428-0.483
		c0.755,0,1.297,0.134,1.75,0.324c0.807,0.34,1.331,0.859,2.275,1.125c0.048,0.014,0.879,1.483,0.886,1.61
		c0.118,2.472,2.656,1.759,2.656,4.669c0,1.788-1.018,3.007,0,4.991c1.466,2.859,0.058,5.083-1.932,6.843
		c-1.853,1.64-0.059,6.843-2.656,6.843c-0.081,0-0.161,0-0.242,0c-0.124,0-0.16,0.192-0.322,0.242
		c-3.603,1.098-5.599,3.71-9.902,1.69c-3.712-1.742-3.918-0.008-4.055,1.979c-0.077,1.115-0.134,2.309-0.775,3.013
		c-1.142,1.253-4.112,4.107-5.233,5.474c-1.251,1.526-0.081,2.942-0.081,4.75c0,2.246-0.826,4.457-0.563,7.004
		c0.068,0.661-0.063,1.126-0.336,1.498l117.825,43.343l158.015,58.05l23.412,8.602l49.344-0.069l113.373-0.158L563.309,476.706z"/>
</g>
<g id="Counties_Names">
	<text transform="matrix(1.1 0 0 1 513.1348 148.2793)"><tspan x="0" y="0" font-family="Arial Narrow" font-size="8">A</tspan><tspan x="5.336" y="0" font-family="Arial Narrow" font-size="8">pache</tspan></text>
	<text transform="matrix(1.1 0 0 1 492.9736 533.9971)"><tspan x="0" y="0" font-family="Arial Narrow" font-size="8">C</tspan><tspan x="5.778" y="0" font-family="Arial Narrow" font-size="8">ochise </tspan></text>
	<text transform="matrix(1.1 0 0 1 318.2256 143.9375)"><tspan x="0" y="0" font-family="Arial Narrow" font-size="8">C</tspan><tspan x="5.778" y="0" font-family="Arial Narrow" font-size="8">oconino</tspan></text>
	<text transform="matrix(1.1 0 0 1 417.6494 348.5591)"><tspan x="0" y="0" font-family="Arial Narrow" font-size="8">G</tspan><tspan x="6.222" y="0" font-family="Arial Narrow" font-size="8">ila</tspan></text>
	<text transform="matrix(1.1 0 0 1 477.8018 433.7051)"><tspan x="0" y="0" font-family="Arial Narrow" font-size="8">G</tspan><tspan x="6.223" y="0" font-family="Arial Narrow" font-size="8">raham</tspan></text>
	<text transform="matrix(1.1 0 0 1 160.4336 343.5942)"><tspan x="0" y="0" font-family="Arial Narrow" font-size="8">L</tspan><tspan x="4.449" y="0" font-family="Arial Narrow" font-size="8">a Paz</tspan></text>
	<text transform="matrix(1.1 0 0 1 267.541 374.7734)"><tspan x="0" y="0" font-family="Arial Narrow" font-size="8">M</tspan><tspan x="6.664" y="0" font-family="Arial Narrow" font-size="8">aricopa</tspan></text>
	<text transform="matrix(1.1 0 0 1 150.646 173.6592)"><tspan x="0" y="0" font-family="Arial Narrow" font-size="8">M</tspan><tspan x="6.664" y="0" font-family="Arial Narrow" font-size="8">ohave</tspan></text>
	<text transform="matrix(1.1 0 0 1 446.3779 200.0435)"><tspan x="0" y="0" font-family="Arial Narrow" font-size="8">N</tspan><tspan x="5.778" y="0" font-family="Arial Narrow" font-size="8">avajo</tspan></text>
	<text transform="matrix(1.1 0 0 1 320.1914 513.7715)"><tspan x="0" y="0" font-family="Arial Narrow" font-size="8">P</tspan><tspan x="5.336" y="0" font-family="Arial Narrow" font-size="8">ima</tspan></text>
	<text transform="matrix(1.1 0 0 1 365.958 435.4365)"><tspan x="0" y="0" font-family="Arial Narrow" font-size="8">P</tspan><tspan x="5.336" y="0" font-family="Arial Narrow" font-size="8">inal</tspan></text>
	<text transform="matrix(1.1 0 0 1 397.7383 570.2607)"><tspan x="0" y="0" font-family="Arial Narrow" font-size="8">S</tspan><tspan x="5.336" y="0" font-family="Arial Narrow" font-size="8">anta Cruz</tspan></text>
	<text transform="matrix(1.1 0 0 1 263.6846 274.9199)"><tspan x="0" y="0" font-family="Arial Narrow" font-size="8">Y</tspan><tspan x="5.336" y="0" font-family="Arial Narrow" font-size="8">avapai</tspan></text>
	<text transform="matrix(1.1 0 0 1 160.3828 445.0947)"><tspan x="0" y="0" font-family="Arial Narrow" font-size="8">Y</tspan><tspan x="5.336" y="0" font-family="Arial Narrow" font-size="8">uma</tspan></text>
	<text transform="matrix(1.1 0.0045 -0.0027 1 528.1504 399.4971)"><tspan x="0" y="0" font-family="Arial Narrow" font-size="8">G</tspan><tspan x="6.223" y="0" font-family="Arial Narrow" font-size="8">reenlee</tspan></text>
</g>
<g id="Legend">
	<text id="Ref_WithPresence_text" transform="matrix(1 0 0 1 47.1904 581.0596)" font-family="Arial Narrow" font-size="13">City or County with COPsync Presence</text>
	
		<rect id="Ref_WithPresence_box" x="29.441" y="572.592" fill="#D0D0D0" stroke="#FF0000" stroke-width="0.9697" width="10" height="10"/>
	<text id="Ref_WithoutPresence_text" transform="matrix(1 0 0 1 47.1904 611.0596)" font-family="Arial Narrow" font-size="13">City or County without COPsync Presence</text>
	
		<rect id="Ref_WithoutPresence_box" x="29.441" y="602.592" fill="#D0D0D0" stroke="#FF0000" stroke-width="0.9697" width="10" height="10"/>
</g>
</svg>
